<svg width="180" height="46" viewBox="0 0 180 46" fill="none" xmlns="http://www.w3.org/2000/svg">
<g id="logo">
<path id="path" d="M20 35.1834H38.4885V39H20V35.1834ZM153.704 22.9312L159.533 16.5308H155.189L150.412 21.8504V16.5308H146.95V29.9819H150.429V24.316L155.537 29.9819H160L153.704 22.9312ZM40.5248 23.8179C40.4315 26.351 40.1091 26.8323 38.7006 26.8323V29.9904H39.2267C42.7648 29.9904 43.6049 28.1749 43.7321 24.1303L43.8848 19.655H47.1515V29.9819H50.6133V16.5308H40.7624L40.5248 23.8179ZM25.4982 26.1315H32.7952L34.0085 29.9819H38.0558L32.6 13.8034C32.0739 12.2413 31.463 11 29.3758 11C27.2885 11 26.6521 12.2413 26.0921 13.8034L20.3733 29.9819H24.1745L25.4982 26.1315ZM29.1976 15.222H29.2909L31.7345 22.889H26.5927L29.1976 15.222ZM110.067 18.4391H106.206V14.6393H115.166V11.2618H102.575V29.9819H110.067C114.216 29.9819 116.6 27.9216 116.6 24.1556C116.6 20.5838 114.182 18.4391 110.067 18.4391ZM109.888 26.5959H106.206V21.7322H109.888C111.806 21.7322 112.884 22.5766 112.884 24.1641C112.884 25.7515 111.806 26.5959 109.888 26.5959ZM75.6521 16.2183V11.2364H72.1988V16.2183C70.3855 16.2779 68.67 17.0512 67.4291 18.3683C66.1883 19.6856 65.5234 21.439 65.5806 23.2437C65.5188 25.052 66.1813 26.8107 67.4225 28.1329C68.6636 29.4553 70.3817 30.2327 72.1988 30.2943V35.3607H75.6606V30.2943C76.5607 30.2649 77.4462 30.0591 78.2661 29.6886C79.0862 29.3181 79.8247 28.7903 80.4395 28.1354C81.0543 27.4804 81.5331 26.7112 81.8488 25.8718C82.1644 25.0324 82.3105 24.1393 82.2788 23.2437C82.3151 22.3474 82.1716 21.453 81.8569 20.6125C81.5421 19.772 81.0623 19.0024 80.4455 18.3484C79.8286 17.6945 79.087 17.1693 78.2641 16.8036C77.4411 16.4379 76.5532 16.2389 75.6521 16.2183ZM72.2073 27.0434C71.2911 26.9433 70.4512 26.4887 69.8687 25.7779C69.2861 25.0671 69.0076 24.157 69.0933 23.2437C69.0187 22.3327 69.3011 21.4282 69.8817 20.72C70.4621 20.0116 71.2956 19.5544 72.2073 19.4439V27.0434ZM75.6691 27.0434V19.4439C76.5808 19.5544 77.4143 20.0116 77.9947 20.72C78.5752 21.4282 78.8577 22.3327 78.783 23.2437C78.8642 24.156 78.5841 25.0638 78.0024 25.7737C77.4208 26.4835 76.5835 26.9391 75.6691 27.0434ZM95.2521 25.8528V21.3185C95.2521 18.0084 93.1394 15.9397 89.5927 15.9397C86.0461 15.9397 83.9758 18.1351 83.8061 20.4234H87.3103C87.4291 19.9337 87.9552 19.0639 89.5842 19.0639C89.8889 19.0249 90.1977 19.0568 90.487 19.1573C90.7772 19.2578 91.0394 19.4239 91.2532 19.6427C91.467 19.8614 91.6274 20.1267 91.7207 20.4175C91.8141 20.7084 91.8378 21.0168 91.7903 21.3185H88.3964C85.3249 21.3185 83.5006 22.9312 83.5006 25.5995C83.4767 26.2363 83.5873 26.8709 83.8254 27.4624C84.0636 28.0539 84.4238 28.589 84.883 29.0331C85.342 29.4773 85.8897 29.8205 86.4906 30.0408C87.0914 30.2609 87.732 30.353 88.3709 30.3112C89.0922 30.349 89.8116 30.2092 90.4658 29.9044C91.12 29.5995 91.6885 29.139 92.1212 28.5633C92.4029 29.0375 92.8136 29.4223 93.3065 29.6734C93.7987 29.9245 94.3527 30.0315 94.9042 29.9819H96.1006V26.8745C95.5152 26.8745 95.2521 26.5959 95.2521 25.8528ZM91.7903 25.0084C91.8047 25.341 91.7479 25.6729 91.6232 25.982C91.4993 26.2912 91.3109 26.5707 91.0708 26.802C90.8298 27.0334 90.543 27.2114 90.2282 27.3244C89.9135 27.4373 89.5783 27.4825 89.2449 27.4572C87.9976 27.4572 87.0133 27.0097 87.0133 25.6671C87.0133 24.3245 88.1079 24.1303 89.0327 24.1303H91.7903V25.0084ZM59.2339 20.6176H56.7479V16.5308H53.2861V29.9819H59.2933C63.0521 29.9819 64.3842 27.5501 64.3842 25.2533C64.4012 22.2895 62.5345 20.6176 59.2339 20.6176ZM58.9794 27.0434H56.7479V23.6659H58.9794C60.1758 23.6659 60.897 24.2063 60.897 25.3546C60.897 26.503 60.2097 27.0434 58.9794 27.0434ZM129.811 25.8528V21.3185C129.811 18.0084 127.698 15.9397 124.152 15.9397C120.605 15.9397 118.535 18.1351 118.365 20.4234H121.869C121.988 19.9337 122.514 19.0639 124.143 19.0639C124.448 19.0249 124.756 19.0568 125.046 19.1573C125.336 19.2578 125.598 19.4239 125.812 19.6427C126.026 19.8614 126.186 20.1267 126.28 20.4175C126.373 20.7084 126.397 21.0168 126.349 21.3185H122.955C119.884 21.3185 118.059 22.9312 118.059 25.5995C118.036 26.2363 118.146 26.8709 118.384 27.4624C118.622 28.0539 118.983 28.589 119.442 29.0331C119.901 29.4773 120.449 29.8205 121.049 30.0408C121.65 30.2609 122.291 30.353 122.93 30.3112C123.658 30.3561 124.386 30.2198 125.048 29.9147C125.71 29.6095 126.285 29.1451 126.722 28.5633C127 29.0292 127.403 29.4087 127.886 29.6593C128.368 29.91 128.912 30.0217 129.455 29.9819H130.651V26.8745C130.048 26.8745 129.811 26.5959 129.811 25.8528ZM126.366 25.0084C126.379 25.3407 126.321 25.6719 126.196 25.9804C126.072 26.289 125.883 26.5679 125.643 26.799C125.403 27.03 125.116 27.2081 124.802 27.3216C124.488 27.435 124.154 27.4812 123.821 27.4572C122.573 27.4572 121.589 27.0097 121.589 25.6671C121.589 24.3245 122.684 24.1303 123.608 24.1303H126.366V25.0084ZM140.867 21.538H136.09V16.5308H132.628V29.9904H136.09V24.6876H140.867V29.9819H144.328V16.5308H140.867V21.538Z" fill="#66707C"/>
</g>
</svg>
