<svg width="180" height="46" viewBox="0 0 180 46" fill="none" xmlns="http://www.w3.org/2000/svg">
<g id="logo">
<path id="path" d="M31.66 29.7665H33.6883V35H31.2796V31.9054H20.4087V35H18V29.7665C19.4975 29.3591 20.3533 28.372 20.8524 27.3535C21.0743 26.8286 21.2565 26.0843 21.3516 25.0658C21.6051 23.0523 21.6052 21.1015 21.6052 17.0511H31.652L31.66 29.7665ZM29.275 29.7665V19.1821H24.1089C24.0139 25.4967 23.5226 28.2231 21.7002 29.7665H29.275ZM62.9019 31.874L62.9099 19.1899H57.1496C57.1496 24.0473 57.0386 27.2125 56.3572 29.2181C55.9927 30.2914 55.1053 31.7017 53.9564 32.4538L52.1737 30.6832C53.1799 29.9311 53.6712 29.1946 54.099 28.1918C54.4398 27.3927 54.4794 26.335 54.5744 24.3215C54.5744 22.3081 54.6378 20.3181 54.6378 17.0119H65.4057V31.874H62.9019ZM49.6699 29.2495C48.315 31.1454 45.9696 32.2109 43.2757 32.2109C38.8306 32.2109 35.479 29.0222 35.479 24.4704C35.479 19.9185 38.6722 16.7299 43.0855 16.7299C47.2215 16.7299 50.795 19.6678 50.795 24.0317C50.795 24.6192 50.7633 25.1442 50.6682 25.6377H37.8878C38.3552 28.3328 40.4232 29.9702 43.3074 29.9702C45.2803 29.9702 47.1581 29.0066 48.0059 27.5572L49.6699 29.2495ZM37.864 23.3892H48.3308C48.1723 22.026 47.4513 20.9448 46.6035 20.1379C43.8778 17.6935 38.0224 19.2448 37.864 23.3892ZM85.9511 17.0197H75.7141C71.5464 17.0197 68.171 20.3573 68.171 24.4782C68.171 28.5992 71.5464 31.9367 75.7141 31.9367H85.9432C90.1109 31.9367 93.4863 28.5992 93.4863 24.4782C93.4863 20.3573 90.1109 17.0197 85.9511 17.0197ZM85.864 29.7352C82.9244 29.7352 80.5395 27.377 80.5395 24.4704C80.5395 21.5638 82.9244 19.2056 85.864 19.2056C88.8036 19.2056 91.1885 21.5638 91.1885 24.4704C91.1885 27.377 88.8036 29.7352 85.864 29.7352ZM141.352 31.5528V25.0893H133.444V31.5528H130.932V16.6437H133.444V22.7938H141.352V16.6437H143.863V31.5528H141.352ZM158.498 31.5528L152.627 25.2147H149.893C149.893 28.7872 149.893 30.8947 149.925 31.5528H147.413C147.445 30.0642 147.445 27.5807 147.445 24.1022C147.445 20.6236 147.445 18.1401 147.413 16.6515H149.925C149.893 17.9285 149.893 20.0047 149.893 22.927H152.682L158.363 16.6515H161.501L154.94 23.8906L162 31.5606L158.498 31.5528ZM127.628 29.0301C127.327 29.5237 126.883 29.7822 126.376 29.6568C125.893 29.5393 125.568 29.0849 125.568 28.5914V21.2817C125.568 18.4221 123.088 16.346 119.729 16.346C117.653 16.346 115.917 17.0197 114.864 18.1009L116.543 19.7618C117.09 19.0646 118.184 18.6102 119.546 18.6102C121.583 18.6102 123.064 19.8872 123.064 21.5873V22.7076C120.743 22.9583 119.111 23.1699 118.136 23.3892C115.125 24.0081 113.334 25.5907 113.334 27.9881C113.334 30.3149 115.22 31.8662 118.104 31.8662C120.149 31.8662 121.805 31.4431 123.128 29.9232C123.413 31.2551 124.728 31.8662 126.392 31.8662C127.517 31.8662 128.5 31.3804 129.197 30.5735L127.628 29.0301ZM123.056 27.1655C121.955 28.654 120.236 29.555 118.382 29.555C116.908 29.555 115.933 28.9126 115.933 27.6982C115.933 26.7032 116.718 25.9668 118.065 25.5907C119.103 25.3087 120.767 25.1912 123.056 24.917V27.1655ZM104.246 16.9179C102.186 16.8395 100.308 17.576 98.898 18.8295C99.1674 16.6985 100.649 14.9279 102.646 14.2855C105.118 13.4785 108.319 14.6615 111.504 11.7784L109.706 10H109.674C107.352 12.1545 104.532 11.2222 102.313 11.8176C98.9297 12.7186 96.4259 15.7819 96.3942 19.4406V24.392C96.3942 28.5208 99.7775 31.8662 103.953 31.8662C108.224 31.8662 111.671 28.3641 111.504 24.1022C111.346 20.2241 108.16 17.0668 104.246 16.9179ZM104.365 29.414C101.227 29.6568 98.6207 27.0793 98.8742 23.9768C99.0723 21.5324 101.069 19.5581 103.541 19.3623C106.679 19.1116 109.286 21.697 109.032 24.7994C108.826 27.236 106.829 29.2181 104.365 29.414Z" fill="#66707C"/>
</g>
</svg>
