<svg width="78" height="38" viewBox="0 0 78 38" fill="none" xmlns="http://www.w3.org/2000/svg">
<g id="Group 1">
<path id="Subtract" fill-rule="evenodd" clip-rule="evenodd" d="M37.6 0H0V37.6H37.6V0ZM11.4511 12.152L11.4487 12.1474L11.4564 12.132L11.4511 12.152ZM11.4511 12.152C11.9059 13.017 12.59 13.7401 13.4285 14.2422C13.6081 14.3551 13.7406 14.5294 13.8013 14.7326C13.862 14.9359 13.8467 15.1543 13.7584 15.3472C13.7174 15.4511 13.669 15.5639 13.6187 15.6807L13.6187 15.6808C13.4055 16.1767 13.161 16.7453 13.3287 17.0124C13.6075 17.2128 13.9357 17.333 14.278 17.36C14.6202 17.3871 14.9633 17.3199 15.2701 17.1658C15.398 17.4448 15.5415 17.7163 15.6998 17.9792C15.6285 18.0595 15.5329 18.1143 15.4276 18.135C15.3223 18.1558 15.2131 18.1415 15.1166 18.0943C15.2145 18.18 15.2751 18.3004 15.2856 18.4301C15.2959 18.5597 15.2553 18.6883 15.1722 18.7884C15.0891 18.8885 14.9702 18.9522 14.8408 18.9659L14.8306 18.9668L14.8216 18.9675C14.9041 19.0092 14.9937 19.0356 15.086 19.0455H15.2011L15.2625 18.9304C15.3577 18.7655 15.398 18.5748 15.3776 18.3856V18.2321C15.4701 18.2513 15.5661 18.245 15.6553 18.2139C15.7444 18.1828 15.8235 18.1281 15.8841 18.0556C15.9797 18.1472 16.0916 18.2201 16.214 18.2705C16.2856 18.4346 16.3173 18.6132 16.3067 18.7919C16.296 18.9707 16.2432 19.1443 16.1527 19.2987C15.892 19.7621 15.6786 20.2505 15.5158 20.7567C15.5158 20.7567 15.3623 20.7567 15.1858 19.8435C15.1346 19.5212 14.9973 19.219 14.7889 18.9686C14.7245 18.9687 14.6609 18.9563 14.6017 18.9324C14.6659 19.0282 14.7261 19.1244 14.7861 19.2201C14.8365 19.3005 14.8867 19.3807 14.9389 19.4602C15.0477 19.7768 15.1374 20.0997 15.2075 20.4271C15.265 20.748 15.3765 21.0567 15.5375 21.3402C15.3934 21.3429 15.2505 21.3149 15.1182 21.258C14.9859 21.2011 14.8672 21.1167 14.7701 21.0102C14.5143 20.6823 14.3478 20.2937 14.2867 19.8822C14.1818 19.5287 14.1608 19.1556 14.2253 18.7926L14.2406 18.8003L14.3467 18.6942C14.3393 18.6779 14.3328 18.6611 14.3274 18.644C14.2999 18.5576 14.2995 18.4649 14.3262 18.3782C14.1865 18.5958 13.9828 18.7647 13.7431 18.8617C13.615 18.7654 13.5202 18.6316 13.4721 18.4789C13.4239 18.3261 13.4248 18.1622 13.4745 18.0099C13.3682 18.1975 13.2201 18.3579 13.0419 18.479C12.8635 18.6001 12.6597 18.6785 12.4462 18.7082C12.3154 18.5138 12.2555 18.2804 12.2764 18.0471C12.2974 17.8137 12.398 17.5947 12.5614 17.4267C12.4018 17.5459 12.2145 17.6225 12.0172 17.6493C11.8199 17.6762 11.619 17.6524 11.4334 17.5802C11.4334 17.5802 11.3182 17.2119 11.9782 16.6671C11.7612 16.6593 11.5495 16.5969 11.3631 16.4856C11.1766 16.3742 11.0213 16.2175 10.9116 16.0302C11.0669 15.9007 11.2472 15.8046 11.4413 15.7478C11.6353 15.6911 11.839 15.6749 12.0396 15.7002C11.8084 15.6278 11.6012 15.4938 11.4404 15.3127C11.2796 15.1315 11.171 14.9101 11.1264 14.672C11.3456 14.5731 11.5889 14.5408 11.8262 14.5789C12.0636 14.6172 12.2845 14.7242 12.4616 14.8868C12.3215 14.6876 12.1593 14.5048 11.9782 14.342C11.7157 14.0453 11.5307 13.6881 11.4396 13.3025C11.3501 12.9237 11.3541 12.5288 11.4511 12.152ZM14.1958 20.5115C14.2547 20.6717 14.3461 20.818 14.4644 20.9412L14.4797 20.9565C14.5251 21.3854 14.6363 21.8048 14.8097 22.1996C14.8476 21.8941 14.8267 21.5842 14.7483 21.2865C14.8619 21.3296 14.9721 21.3809 15.0782 21.44C15.2307 21.9482 15.1897 22.4948 14.9631 22.9746C14.3871 22.3194 14.3178 21.6641 14.2164 20.7045L14.1958 20.5115ZM13.2443 20.4117C13.3031 20.5719 13.3946 20.7183 13.5129 20.8414H13.5205C13.3671 22.0231 13.6356 22.1613 13.6356 22.1613C13.7914 21.7533 13.8441 21.313 13.7891 20.8798C13.8492 20.8277 13.8883 20.7611 13.9284 20.6929C13.9651 20.6303 14.0026 20.5665 14.0577 20.5115C13.9426 22.8826 13.5742 23.1511 13.5742 23.1511C13.0294 22.66 13.1829 21.0486 13.2443 20.4117ZM12.8069 19.8899C12.8069 19.8899 12.7071 21.5397 12.2237 22.0845V22.0922C12.1078 21.6227 12.2896 21.07 12.4781 20.497C12.5391 20.3114 12.6009 20.1237 12.6534 19.936L12.4386 20.0511C11.9168 20.9642 11.2569 22.2073 11.8017 23.1204C12.1427 22.9362 12.4347 22.6731 12.6534 22.3531C12.937 21.5415 13.0823 20.6882 13.0831 19.8285V19.6751L13.0218 19.7364L12.8069 19.8899ZM11.0036 19.4525C10.9562 19.3915 10.9342 19.3146 10.9422 19.2377L10.9039 19.2453C9.66078 20.5805 8.92412 20.7954 9.02388 20.7186C9.53094 19.9746 10.2313 19.383 11.0497 19.0075C11.0519 18.9064 11.0932 18.8102 11.1648 18.7389H11.1034C10.9199 18.7779 10.7288 18.7564 10.5586 18.6775C9.91354 19.1199 9.32138 19.6348 8.79368 20.2122C8.30963 20.7517 8.01114 21.432 7.94192 22.1536C8.26843 22.1286 8.58588 22.0342 8.87302 21.8767C9.16016 21.7193 9.41047 21.5023 9.60706 21.2404C10.0224 20.626 10.4896 20.0484 11.0036 19.5139V19.4525ZM10.1519 18.3322L10.0905 18.3936L10.1596 18.4166C9.60722 18.5811 9.08788 18.8408 8.62486 19.184C8.30204 19.3829 8.0373 19.6635 7.85751 19.9973C8.67988 19.6042 9.45267 19.1148 10.1596 18.5394L10.2747 18.6545C10.1437 18.7663 9.93622 18.9606 9.68484 19.1958L9.68473 19.196L9.68447 19.1962L9.68444 19.1962C9.22869 19.6228 8.62888 20.1843 8.08004 20.6342C7.82912 20.8471 7.5386 21.0082 7.22514 21.1083C6.91176 21.2084 6.58157 21.2455 6.25376 21.2174C6.36242 20.8008 6.55448 20.4106 6.8183 20.0703C7.08203 19.73 7.41207 19.4468 7.78845 19.2377C8.27188 19.0382 9.78356 18.4243 10.2133 18.2708L10.1519 18.3322ZM9.26943 17.5342L9.20804 17.6493C8.67282 17.7594 8.15601 17.9455 7.67335 18.2017C7.37378 18.3192 7.09024 18.4739 6.82927 18.6622C7.67151 18.6112 8.49549 18.3948 9.25409 18.0253C9.41807 18.1256 9.6066 18.1787 9.7989 18.1787C8.94899 18.4478 8.1247 18.7919 7.33572 19.207C5.6629 19.959 4.81115 19.6904 4.81115 19.6904C5.03122 19.2689 5.33655 18.8977 5.70779 18.6005C6.07896 18.3033 6.50791 18.0865 6.96739 17.9639C7.2993 17.8709 7.85324 17.7806 8.35545 17.6986L8.35547 17.6986C8.72407 17.6385 9.06481 17.5829 9.26943 17.5342ZM9.69147 16.997C9.52496 16.9863 9.36151 16.9474 9.20804 16.8819C8.3035 17.1664 7.34937 17.2579 6.40723 17.1505C7.21985 16.8711 8.07252 16.726 8.9318 16.7208C8.85575 16.6761 8.78385 16.6248 8.71694 16.5673C8.36977 16.6134 7.83942 16.6381 7.31164 16.6628C6.69622 16.6916 6.08428 16.7202 5.77033 16.7822C5.0356 16.9479 4.32956 17.2221 3.67547 17.5955C4.47766 17.8129 5.31568 17.8651 6.13866 17.749C7.22606 17.6927 8.30541 17.5308 9.36151 17.2656C9.45674 17.1593 9.56808 17.0687 9.69147 16.997ZM9.43825 15.7616C9.32468 15.8047 9.21441 15.856 9.10829 15.9151L9.11596 15.8997C8.09324 15.6143 7.02839 15.5104 5.96984 15.5928C6.92733 15.8721 7.91905 16.0167 8.91645 16.0225C8.83327 16.1021 8.76106 16.1924 8.7016 16.2911C7.65969 16.3788 6.61111 16.3401 5.57849 16.176C4.71638 15.9581 3.89685 15.5976 3.15368 15.1093C4.02124 14.9263 4.91313 14.8873 5.79335 14.9942C7.03561 15.0965 8.26014 15.3543 9.43825 15.7616ZM9.75286 15.7155C9.45145 15.5492 9.22393 15.2751 9.11596 14.9482L9.12364 14.9866L8.98064 14.9576C8.42536 14.8454 7.88705 14.7366 7.33572 14.5952C6.88789 14.4498 6.45803 14.2541 6.05425 14.012C6.50867 14.0178 6.95933 14.0955 7.38943 14.2422C7.59222 14.3143 7.80429 14.3808 8.01919 14.4481C8.42229 14.5745 8.83532 14.704 9.21572 14.8791C9.39904 14.7402 9.62264 14.6648 9.85262 14.6643C9.26943 14.3957 7.69637 13.8125 6.62976 13.4826C5.50398 13.1054 4.32557 12.9086 3.13833 12.8994C3.13833 12.8994 3.41457 13.7358 5.07972 14.4341C5.67534 14.6597 6.50817 14.8533 7.34347 15.0474L7.34348 15.0474L7.34352 15.0475C8.24078 15.256 9.14088 15.4652 9.75286 15.7155ZM9.27711 14.1118C9.21572 14.012 9.12364 13.8586 9.06225 13.7435L9.0776 13.7204C8.66162 13.5604 8.27526 13.3322 7.93425 13.0452C7.47952 12.8022 7.05019 12.5142 6.65278 12.1857C6.34453 11.9051 6.0597 11.5996 5.80102 11.2726C6.30034 11.481 6.76995 11.7545 7.1976 12.086C7.41744 12.2744 7.72164 12.5091 8.04443 12.758C8.35258 12.9957 8.67767 13.2465 8.96249 13.4826L8.74764 12.8457C7.99809 12.2786 7.29735 11.6498 6.65278 10.9657C6.01626 10.2863 5.2523 9.73876 4.40445 9.35424C4.29825 10.1009 4.4498 10.8615 4.83417 11.5105C5.99616 12.8336 7.55456 13.746 9.27711 14.1118ZM13.4579 18.854L13.6114 19.0075L13.6728 19.0689H13.7342L13.8877 19.0075C13.9579 19.1402 13.9972 19.2871 14.0028 19.4372C14.0607 19.7052 14.0607 19.9825 14.0028 20.2506C13.9302 20.4882 13.8042 20.7061 13.6344 20.8875C13.4786 20.716 13.354 20.5187 13.2661 20.3043C13.1495 20.0111 13.1495 19.6843 13.2661 19.3911C13.3169 19.2389 13.3609 19.1169 13.4004 19.0073L13.4004 19.0073L13.4008 19.0064C13.4209 18.9506 13.4399 18.898 13.4579 18.8463V18.854ZM12.4911 18.8847C12.7409 18.8482 12.9795 18.7565 13.1894 18.6161C13.2277 18.68 13.2528 18.751 13.2633 18.8248C13.2739 18.8986 13.2696 18.9737 13.2508 19.0458C13.1778 19.2675 13.0513 19.4679 12.8824 19.629C12.7283 19.7622 12.5492 19.8634 12.3555 19.9266C12.1618 19.9898 11.9575 20.0139 11.7544 19.9973C11.6777 20.0357 11.5779 19.7058 12.5218 18.8924L12.4911 18.8847ZM12.1535 18.3092L12.1547 18.3184C12.0203 18.3612 11.9028 18.4085 11.7904 18.4567C11.975 18.3497 12.1378 18.2084 12.2699 18.0403C12.247 17.9992 12.235 17.9529 12.235 17.906C12.235 17.8597 12.2467 17.8141 12.2689 17.7735L12.2775 17.7717H12.2699L12.2689 17.7735C12.0035 17.8296 11.7293 17.829 11.4642 17.7717H11.3491V17.6489C11.1725 17.7845 10.9972 17.8709 10.8397 17.9484C10.6139 18.0596 10.4248 18.1528 10.3208 18.3472C10.4064 18.4671 10.5231 18.5612 10.6584 18.6194C10.7937 18.6775 10.9423 18.6976 11.0882 18.6772C11.1993 18.6678 11.309 18.6475 11.4156 18.6167C11.2674 18.6842 11.1506 18.8059 11.0893 18.9569C11.0279 19.1083 11.027 19.2775 11.0868 19.4295C11.3387 19.4541 11.5923 19.4073 11.8189 19.2948C12.0454 19.1821 12.2358 19.0082 12.3683 18.7926C12.2526 18.6585 12.1784 18.4938 12.1547 18.3184L12.1841 18.3092H12.1535ZM11.6253 16.8585C11.5028 16.9783 11.4107 17.1257 11.3567 17.2883H11.3491C11.2074 17.471 11.0291 17.622 10.8256 17.7317C10.6221 17.8414 10.3979 17.9073 10.1673 17.9251C9.87422 17.9784 9.57173 17.9238 9.31559 17.7717C9.39662 17.5058 9.56152 17.2732 9.78551 17.1087C10.0095 16.9441 10.2808 16.8564 10.5587 16.8585C10.9118 16.8004 11.2722 16.8004 11.6253 16.8585ZM10.8042 16.0912C10.9046 16.2416 11.0148 16.3852 11.1342 16.5209V16.5516C10.7463 16.7741 10.2961 16.8631 9.85273 16.8048C9.47919 16.7508 9.12544 16.6029 8.82449 16.3751C8.97166 16.1425 9.1978 15.9709 9.46138 15.8917C9.88826 15.7719 10.3442 15.8129 10.7429 16.0068L10.8042 16.0912ZM11.5179 15.6154C11.4028 15.6154 11.3107 15.6154 11.2493 15.6768L11.2416 15.6692C11.0612 15.7376 10.8673 15.7628 10.6755 15.7428C10.4836 15.7228 10.299 15.6582 10.1366 15.554C9.94903 15.5263 9.773 15.4459 9.62912 15.3224C9.48517 15.1988 9.37913 15.037 9.32326 14.8558C9.45532 14.7652 9.60703 14.7076 9.76587 14.6876C9.92471 14.6675 10.086 14.6857 10.2364 14.7407C10.5075 14.8471 10.8046 14.8685 11.0882 14.802C11.1449 15.1108 11.2948 15.3946 11.5179 15.6154ZM11.1189 14.5181L11.0037 14.5795H10.9961C10.7597 14.6528 10.507 14.6547 10.2695 14.5851C10.032 14.5155 9.82035 14.3775 9.66089 14.1882C9.34521 13.8495 9.10695 13.4463 8.96261 13.0065C9.47428 13.1292 9.96538 13.3257 10.4206 13.5896C10.8189 13.8283 11.1963 14.1005 11.5486 14.403C11.3985 14.4086 11.2516 14.4479 11.1189 14.5181ZM11.326 13.3594C11.3917 13.6648 11.5169 13.9542 11.6944 14.2112V14.2189C10.9692 13.8644 10.3421 13.3374 9.86808 12.6842C9.65015 12.2033 9.59621 11.6641 9.71461 11.1495C10.2452 11.3206 10.6901 11.6885 10.9577 12.1777C11.0607 12.425 11.1396 12.7068 11.2151 12.9768L11.2151 12.9769C11.252 13.109 11.2882 13.2384 11.326 13.3594ZM9.50874 11.5101V11.9935C9.44758 11.916 9.38424 11.8353 9.31895 11.7522C8.9255 11.2512 8.46106 10.6598 7.97404 10.1135C7.70946 9.76086 7.38787 9.45484 7.02253 9.20806C7.23962 9.88402 7.62828 10.4921 8.15053 10.973C8.56797 11.397 9.01411 11.7919 9.48572 12.1547L9.5471 12.3081C9.58333 12.3987 9.61689 12.4973 9.64619 12.5834C9.66655 12.6432 9.68485 12.697 9.70057 12.7379C9.81652 12.9509 9.96109 13.1472 10.1303 13.321C10.0536 13.2904 9.9711 13.252 9.88862 13.2136L9.88857 13.2136L9.88855 13.2136C9.80607 13.1752 9.72359 13.1369 9.64686 13.1062H9.50874C8.16281 12.3431 7.04901 11.2293 6.28588 9.88333C5.90727 8.94816 5.85586 7.91247 6.14008 6.94439C6.83691 7.57637 7.4669 8.27834 8.02008 9.03924C8.58608 9.81879 9.08409 10.6454 9.50874 11.5101ZM28.4622 15.9147C28.3561 15.8557 28.2458 15.8043 28.1323 15.7612C29.3104 15.3539 30.5349 15.0961 31.7771 14.9939C32.6574 14.887 33.5493 14.9259 34.4168 15.109C33.6736 15.5972 32.8541 15.9577 31.992 16.1756C30.9594 16.3397 29.9108 16.3784 28.8689 16.2907C28.8094 16.1921 28.7372 16.1018 28.654 16.0221C29.6514 16.0163 30.6432 15.8717 31.6007 15.5924C30.5421 15.51 29.4773 15.6139 28.4545 15.8993L28.4622 15.9147ZM28.4545 14.9478C28.3466 15.2747 28.1191 15.5488 27.8176 15.7152C28.4296 15.4648 29.3297 15.2556 30.227 15.0471C31.0623 14.8529 31.8951 14.6594 32.4908 14.4337C34.1559 13.7354 34.4322 12.899 34.4322 12.899C33.2449 12.9082 32.0665 13.105 30.9407 13.4822C29.891 13.8069 28.3506 14.377 27.7462 14.651C27.6111 14.6438 27.4757 14.6639 27.3482 14.7105C27.077 14.817 26.7799 14.8384 26.4964 14.7719C26.3986 15.076 26.2334 15.3541 26.013 15.5853C26.1281 15.5853 26.2202 15.5853 26.2815 15.6467V15.639C26.472 15.7092 26.676 15.7354 26.8779 15.7154C27.08 15.6955 27.2749 15.63 27.4479 15.5239C27.6355 15.4961 27.8116 15.4158 27.9554 15.2923C28.0994 15.1687 28.2054 15.0069 28.2613 14.8256C28.2136 14.7929 28.1633 14.7645 28.1111 14.7406C28.1976 14.7755 28.2796 14.8218 28.3548 14.8788C28.7352 14.7036 29.1482 14.5741 29.5513 14.4477L29.5513 14.4477L29.5514 14.4477L29.5514 14.4477L29.5514 14.4477L29.5515 14.4477L29.5517 14.4476C29.7664 14.3803 29.9784 14.3139 30.1811 14.2419C30.6142 14.1096 31.0634 14.0373 31.5162 14.027C31.1125 14.2691 30.6826 14.4648 30.2348 14.6102C29.6362 14.7483 29.0531 14.8634 28.4469 14.9785L28.4545 14.9478ZM28.562 13.7354C28.5006 13.8505 28.4085 14.004 28.3471 14.1037C30.0825 13.7478 31.6552 12.8375 32.8284 11.5101C33.2128 10.8612 33.3643 10.1006 33.2581 9.35386C32.4103 9.73837 31.6463 10.2859 31.0098 10.9653C30.3699 11.6541 29.6687 12.2834 28.9149 12.8453L28.7001 13.4822C28.9849 13.2461 29.31 12.9953 29.6182 12.7577L29.6182 12.7576C29.941 12.5087 30.2451 12.274 30.465 12.0856C30.8926 11.7541 31.3622 11.4806 31.8616 11.2722C31.6029 11.5993 31.318 11.9046 31.0098 12.1854C30.6099 12.5143 30.1781 12.8022 29.7207 13.0448C29.3617 13.3054 28.9789 13.5314 28.5773 13.7201L28.562 13.7354ZM28.0939 11.5101V11.9935C28.155 11.916 28.2184 11.8353 28.2837 11.7522C28.6771 11.2512 29.1416 10.6598 29.6286 10.1135C29.8932 9.76086 30.2147 9.45484 30.5801 9.20806C30.363 9.88402 29.9743 10.4921 29.4521 10.973C29.0346 11.397 28.5885 11.7919 28.1169 12.1547L28.0555 12.3081C28.0193 12.3987 27.9857 12.4973 27.9564 12.5834L27.9564 12.5835C27.9361 12.6432 27.9178 12.697 27.902 12.7379C27.7861 12.9509 27.6415 13.1472 27.4723 13.321C27.5491 13.2903 27.6316 13.252 27.714 13.2136C27.7965 13.1752 27.879 13.1369 27.9558 13.1062L28.1092 13.0448C29.4552 12.2817 30.569 11.1679 31.3321 9.82194C31.7003 8.89191 31.7463 7.8652 31.4625 6.90602C30.7657 7.53801 30.1357 8.23997 29.5825 9.00088C29.0035 9.78595 28.4901 10.6175 28.0478 11.4871L28.0939 11.5101ZM11.1662 19.6517C10.6214 20.1965 9.43968 21.4779 9.55478 22.8131C10.1769 22.6168 10.7165 22.2203 11.0895 21.6851C11.3584 21.1533 11.6635 20.6405 12.0026 20.1504H11.5192C11.2073 20.7853 10.7498 21.3374 10.184 21.7619C10.184 21.7619 10.0689 21.125 11.5192 19.7284C11.5192 19.667 11.5806 19.6133 11.6343 19.5749C11.4778 19.6226 11.3143 19.6434 11.1509 19.6363L11.1662 19.6517ZM26.1295 12.1317C25.6747 12.9987 24.9897 13.7235 24.1497 14.2265C23.9807 14.3524 23.8628 14.535 23.8177 14.7408C23.7726 14.9467 23.8033 15.1618 23.9042 15.3468C23.9451 15.4507 23.9936 15.5635 24.0439 15.6803L24.0439 15.6804C24.2571 16.1763 24.5016 16.7449 24.3339 17.012C24.1267 17.3419 23.0908 17.4954 22.3004 17.1654C22.1725 17.4444 22.029 17.7159 21.8707 17.9788C21.942 18.0591 22.0376 18.1139 22.1429 18.1346C22.2482 18.1554 22.3574 18.1411 22.4539 18.0939C22.4062 18.2262 22.387 18.367 22.3976 18.5072C22.4082 18.6473 22.4483 18.7837 22.5153 18.9073C22.6745 18.8762 22.8253 18.8115 22.9576 18.7176C23.0899 18.6236 23.2007 18.5026 23.2826 18.3625C23.4223 18.5801 23.6261 18.7489 23.8658 18.8459C23.9939 18.7497 24.0886 18.6159 24.1368 18.4632C24.1849 18.3104 24.1841 18.1464 24.1344 17.9942C24.2406 18.1816 24.3887 18.3422 24.567 18.4633C24.7453 18.5843 24.9491 18.6628 25.1626 18.6925C25.2934 18.4981 25.3534 18.2647 25.3324 18.0313C25.3115 17.798 25.2109 17.579 25.0475 17.411C25.207 17.5302 25.3944 17.6067 25.5916 17.6336C25.789 17.6605 25.9899 17.6367 26.1755 17.5645C26.1755 17.5645 26.2906 17.1961 25.6307 16.6513C25.8477 16.6436 26.0593 16.5812 26.2458 16.4698C26.4323 16.3585 26.5876 16.2018 26.6973 16.0144C26.542 15.885 26.3617 15.7889 26.1676 15.7321C25.9735 15.6753 25.7699 15.6591 25.5693 15.6845C25.7984 15.6189 26.0023 15.4856 26.1543 15.3022C26.3063 15.1187 26.3993 14.8935 26.4211 14.6562C26.2019 14.5574 25.9586 14.5251 25.7212 14.5632C25.4839 14.6014 25.263 14.7085 25.0859 14.8711C25.226 14.6719 25.3882 14.4891 25.5693 14.3263C25.8565 14.0433 26.0675 13.6924 26.183 13.306C26.2983 12.9196 26.3143 12.5104 26.2292 12.1163L26.1295 12.1317ZM23.1598 20.9254C23.2698 20.7961 23.3603 20.6513 23.4284 20.4957L23.4079 20.6888C23.3064 21.6484 23.2371 22.3037 22.6611 22.9589C22.4345 22.4791 22.3935 21.9324 22.546 21.4242C22.6521 21.3652 22.7624 21.3139 22.8759 21.2708C22.7975 21.5685 22.7766 21.8784 22.8145 22.1839C22.9879 21.7889 23.0991 21.3697 23.1445 20.9408L23.1598 20.9254ZM24.1113 20.8257C24.2296 20.7025 24.3211 20.5562 24.3799 20.396C24.4413 21.0329 24.5948 22.6443 24.05 23.1354C24.05 23.1354 23.6816 22.8668 23.5665 20.4957C23.6216 20.5508 23.6591 20.6146 23.6958 20.6771C23.7359 20.7453 23.7751 20.812 23.8351 20.8641C23.7801 21.2973 23.8328 21.7375 23.9886 22.1455C23.9886 22.1455 24.2571 22.0074 24.1037 20.8257H24.1113ZM25.3851 22.0688C24.9017 21.524 24.802 19.8742 24.802 19.8742C24.7425 19.8079 24.6691 19.7555 24.5871 19.7207L24.5564 19.6747V19.8281C24.5573 20.6878 24.7025 21.5412 24.9861 22.3527C25.1899 22.6854 25.4857 22.952 25.8379 23.1201C26.3827 22.2069 25.7228 20.9638 25.201 20.0507C25.119 20.0362 25.0437 19.9958 24.9861 19.9356C25.0399 20.1277 25.1043 20.3197 25.1679 20.5096L25.168 20.5096L25.168 20.5098L25.168 20.5099L25.1681 20.5099L25.1681 20.51L25.1681 20.5102L25.1682 20.5103L25.1682 20.5103L25.1682 20.5104L25.1683 20.5106L25.1683 20.5107L25.1683 20.5107L25.1683 20.5108L25.1684 20.511L25.1684 20.5111L25.1684 20.5111L25.1685 20.5112C25.3588 21.079 25.5423 21.6263 25.4158 22.0918L25.3851 22.0688ZM26.7137 19.2491L26.7141 19.2583L26.7142 19.2634L26.6973 19.245L26.7127 19.2373L26.7137 19.2491ZM26.7142 19.2634C27.9244 20.5821 28.6766 20.7946 28.5773 20.7183C28.085 19.9816 27.4039 19.3907 26.6052 19.0071C26.603 18.906 26.5617 18.8098 26.4901 18.7385H26.5515C26.735 18.7775 26.9261 18.756 27.0963 18.6771C27.7414 19.1195 28.3335 19.6345 28.8612 20.2118C29.3453 20.7513 29.6438 21.4317 29.713 22.1532C29.3865 22.1282 29.069 22.0338 28.7819 21.8763C28.4947 21.7189 28.2444 21.502 28.0478 21.2401C27.6326 20.6256 27.1653 20.0481 26.6513 19.5135V19.4521C26.6933 19.3981 26.7154 19.3314 26.7142 19.2634ZM27.4647 18.3932V18.3651C28.0068 18.5476 28.5208 18.805 28.9917 19.1299C29.3145 19.3288 29.5792 19.6094 29.759 19.9432C28.9367 19.5501 28.1639 19.0607 27.457 18.4853L27.3419 18.6004C27.493 18.7295 27.7528 18.9685 28.0628 19.2537L28.0629 19.2538L28.0631 19.254C28.5083 19.6636 29.0571 20.1685 29.5365 20.5801C29.7874 20.793 30.0779 20.9541 30.3913 21.0542C30.7048 21.1543 31.035 21.1914 31.3628 21.1633C31.2541 20.7467 31.0621 20.3565 30.7982 20.0162C30.5345 19.6759 30.2045 19.3927 29.8281 19.1836C29.3447 18.9841 27.833 18.3702 27.4033 18.2167L27.4647 18.2781V18.3651L27.457 18.3625L27.4647 18.3932ZM28.3931 17.6489C28.3931 17.6172 28.3768 17.6018 28.3609 17.587C28.3461 17.5731 28.3318 17.5597 28.3318 17.5338C28.5364 17.5825 28.8771 17.6381 29.2458 17.6982C29.748 17.7802 30.3019 17.8706 30.6338 17.9635C31.0933 18.0861 31.5222 18.3029 31.8934 18.6001C32.2646 18.8973 32.57 19.2685 32.79 19.69C32.79 19.69 31.9383 19.9586 30.2655 19.2066C29.4765 18.7915 28.6522 18.4475 27.8023 18.1783C27.9946 18.1783 28.1831 18.1252 28.3471 18.0249C29.1057 18.3944 29.9297 18.6108 30.7719 18.6618C30.5109 18.4735 30.2274 18.3188 29.9278 18.2014C29.4389 17.9595 28.924 17.7742 28.3931 17.6489ZM28.3931 16.8815C28.2397 16.947 28.0762 16.9859 27.9097 16.9966C28.0331 17.0683 28.1445 17.1589 28.2397 17.2652C29.2958 17.5304 30.3751 17.6923 31.4625 17.7486C32.2855 17.8647 33.1235 17.8126 33.9257 17.5952C33.2716 17.2217 32.5656 16.9475 31.8309 16.7818C31.5169 16.7198 30.905 16.6912 30.2896 16.6624H30.2895C29.7618 16.6378 29.2314 16.613 28.8842 16.5669C28.8173 16.6244 28.7454 16.6757 28.6694 16.7204C29.5287 16.7256 30.3813 16.8707 31.194 17.1501C30.2518 17.2558 29.298 17.1643 28.3931 16.8815ZM23.2045 18.647L23.358 18.8005V18.7928C23.4701 19.145 23.4913 19.5199 23.4193 19.8824C23.3583 20.2939 23.1917 20.6825 22.9359 21.0104C22.8288 21.1163 22.7017 21.2 22.5621 21.2566C22.4226 21.3132 22.2732 21.3417 22.1225 21.3404C22.2581 21.0459 22.3685 20.7404 22.4525 20.4273C22.5225 20.0999 22.6122 19.777 22.7211 19.4604C22.8457 19.1692 23.0083 18.8957 23.2045 18.647ZM24.123 18.8565L24.1253 18.8542L24.1176 18.8465L24.123 18.8565ZM23.9718 19.0077L24.123 18.8565C24.2111 19.0209 24.2567 19.2047 24.2557 19.3913C24.3724 19.6845 24.3724 20.0113 24.2557 20.3045C24.1679 20.5189 24.0433 20.7162 23.8874 20.8877C23.7176 20.7063 23.5916 20.4884 23.5191 20.2508C23.4612 19.9827 23.4612 19.7054 23.5191 19.4374C23.5246 19.2873 23.564 19.1404 23.6342 19.0077L23.8491 19.0691H23.9104L23.9718 19.0077ZM24.3862 18.6163C24.5961 18.7568 24.8346 18.8484 25.0845 18.8849L25.0538 18.8926C25.9976 19.706 25.8825 20.0359 25.8211 19.9975C25.6181 20.0141 25.4137 19.99 25.2201 19.9268C25.0264 19.8636 24.8473 19.7624 24.6931 19.6292C24.5243 19.4681 24.3978 19.2677 24.3248 19.046C24.3059 18.9739 24.3016 18.8988 24.3121 18.825C24.3227 18.7512 24.3479 18.6802 24.3862 18.6163ZM25.4209 18.3186L25.4221 18.3094H25.3914L25.4209 18.3186ZM25.2073 18.7928C25.3229 18.6587 25.3972 18.494 25.4209 18.3186C25.6025 18.3764 25.7533 18.4426 25.9025 18.5079L25.9025 18.5079C25.9867 18.5449 26.0704 18.5815 26.1588 18.6163C26.3076 18.6837 26.4248 18.8057 26.4863 18.9571C26.5477 19.1085 26.5485 19.2777 26.4887 19.4297C26.2369 19.4543 25.9833 19.4075 25.7567 19.295C25.5302 19.1823 25.3398 19.0084 25.2073 18.7928ZM26.1357 17.7722C25.8677 17.8302 25.5904 17.8302 25.3224 17.7722C25.3238 17.8735 25.3652 17.97 25.4375 18.0408C25.5801 18.2225 25.7587 18.3728 25.9619 18.4824C26.1653 18.592 26.389 18.6585 26.6192 18.6777C26.7544 18.6894 26.8902 18.665 27.0128 18.607C27.1355 18.549 27.2406 18.4596 27.3175 18.3478C27.1936 18.1575 27.0009 18.0642 26.7775 17.9561C26.6134 17.8766 26.4328 17.7892 26.2508 17.6495V17.7722H26.1357ZM25.9669 16.8591C26.0894 16.9789 26.1816 17.1262 26.2355 17.2888H26.2432C26.379 17.4776 26.5559 17.633 26.7607 17.7433C26.9654 17.8537 27.1925 17.916 27.4249 17.9257C27.718 17.979 28.0205 17.9244 28.2766 17.7722C28.1956 17.5064 28.0308 17.2738 27.8067 17.1093C27.5827 16.9447 27.3115 16.857 27.0335 16.8591C26.6804 16.801 26.3201 16.801 25.9669 16.8591ZM26.788 16.0918C26.7004 16.2508 26.5891 16.3958 26.458 16.5215C26.8639 16.6911 27.2997 16.7771 27.7395 16.7747C28.113 16.7207 28.4668 16.5728 28.7677 16.345C28.6206 16.1124 28.3944 15.9408 28.1308 15.8616C27.704 15.7418 27.248 15.7827 26.8494 15.9767L26.788 16.0918ZM26.4657 14.5801H26.5808L26.5885 14.6415C26.8247 14.7168 27.078 14.7198 27.3159 14.6501C27.5539 14.5804 27.7655 14.441 27.9237 14.2501C28.2191 13.8968 28.455 13.4977 28.622 13.0684C28.1024 13.1651 27.6069 13.3633 27.164 13.6516C26.7657 13.8902 26.3883 14.1624 26.036 14.465C26.1861 14.4705 26.333 14.5099 26.4657 14.5801ZM26.2585 13.4214C26.1928 13.7267 26.0677 14.0162 25.8902 14.2731V14.2808C26.6189 13.9318 27.2472 13.4038 27.7165 12.7461C27.9344 12.2652 27.9883 11.726 27.8699 11.2114C27.3393 11.3825 26.8944 11.7505 26.6268 12.2397C26.5238 12.4869 26.445 12.7688 26.3695 13.0388C26.3325 13.171 26.2964 13.3003 26.2585 13.4214ZM21.3705 18.3324C21.493 18.2821 21.6049 18.2092 21.7005 18.1175C21.7629 18.1875 21.8422 18.2405 21.9308 18.2714C22.0195 18.3022 22.1145 18.3101 22.2069 18.294V18.4475C22.1866 18.6367 22.2269 18.8275 22.322 18.9923L22.3834 19.1074H22.4985C22.6159 19.0949 22.7288 19.0556 22.8285 18.9923C22.6016 19.2498 22.4526 19.5665 22.3988 19.9055C22.2223 20.8186 22.0688 20.8186 22.0688 20.8186C21.906 20.3125 21.6926 19.8241 21.4319 19.3607C21.3414 19.2063 21.2886 19.0326 21.2779 18.8539C21.2672 18.6752 21.299 18.4965 21.3705 18.3324ZM26.3659 19.6517C26.9107 20.1965 28.0924 21.4779 27.9773 22.8131C27.3553 22.6168 26.8157 22.2203 26.4427 21.6851C26.1737 21.1533 25.8686 20.6405 25.5295 20.1504H26.0129C26.3249 20.7853 26.7824 21.3374 27.3481 21.7619C27.3481 21.7619 27.4632 21.125 26.0129 19.7284C26.0129 19.667 25.9515 19.6133 25.8978 19.5749C26.0543 19.6226 26.2178 19.6434 26.3813 19.6363L26.3659 19.6517ZM15.0322 9.83728C15.3782 9.72088 15.7528 9.72088 16.0988 9.83728C15.7499 9.93451 15.3811 9.93451 15.0322 9.83728ZM18.9533 9.20806C18.9533 9.32316 18.892 9.36153 18.7999 9.36153C18.7795 9.3626 18.759 9.35946 18.7399 9.35209C18.7208 9.3448 18.7033 9.33352 18.6889 9.31902C18.6744 9.30459 18.6631 9.28717 18.6558 9.26807C18.6485 9.24896 18.6453 9.22847 18.6464 9.20806C18.6464 9.09296 18.7078 9.05459 18.7999 9.05459C18.8203 9.05352 18.8408 9.05666 18.8599 9.06403C18.879 9.07132 18.8964 9.0826 18.9108 9.0971C18.9253 9.11153 18.9366 9.12895 18.9439 9.14805C18.9513 9.16716 18.9544 9.18765 18.9533 9.20806ZM17.8867 8.62488L17.8852 8.62181C18.0088 8.56021 18.1378 8.5099 18.2704 8.47141C18.2412 7.99043 18.1297 7.51802 17.9404 7.07484C17.9082 7.038 17.8732 7.04537 17.8172 7.05716C17.7799 7.06501 17.7333 7.07484 17.6719 7.07484C17.5184 7.07484 17.4647 7.17459 17.4033 7.28969C17.512 7.75083 17.6737 8.19784 17.8852 8.62181L17.8791 8.62488H17.8867ZM18.4009 8.50977H18.4133L18.4162 8.53279L18.4009 8.50977ZM18.4133 8.50977H18.6157C18.5602 8.10891 18.4704 7.7135 18.3471 7.32806C18.3332 7.23631 18.2963 7.14954 18.24 7.07578C18.1837 7.00202 18.1097 6.94363 18.0249 6.90602C18.057 7.01852 18.0976 7.13102 18.1377 7.24241C18.1743 7.34377 18.2105 7.44421 18.2397 7.54292C18.3145 7.8619 18.3725 8.18468 18.4133 8.50977ZM17.9865 9.6608C17.7063 9.81135 17.3913 9.88547 17.0733 9.87565C17.1961 9.66333 17.3606 9.47801 17.5568 9.33084C17.8263 9.15366 18.1497 9.07753 18.4699 9.11598C18.3504 9.33061 18.1854 9.51653 17.9865 9.6608ZM17.5031 9.72218C17.7443 9.62741 17.9618 9.48077 18.14 9.29247C17.8791 9.34572 17.6501 9.50027 17.5031 9.72218ZM14.9697 9.94682L14.9388 9.93708L14.9695 9.91406L14.9697 9.94682ZM14.9697 9.94682C15.3048 10.0506 15.6546 10.0992 16.0054 10.0905C16.6385 10.0957 17.2698 10.0236 17.8854 9.87569C17.8609 9.95312 17.8181 10.0235 17.7607 10.081C17.7032 10.1384 17.6329 10.1812 17.5555 10.2056C17.6565 10.2079 17.7527 10.2492 17.824 10.3208C17.7906 10.3859 17.744 10.4434 17.6872 10.4896C17.6304 10.5358 17.5647 10.5698 17.4941 10.5893C17.7216 10.8148 18.0257 10.9464 18.3458 10.9576C18.2603 11.0334 18.1575 11.0869 18.0465 11.1137C17.9354 11.1404 17.8196 11.1396 17.7089 11.1111C17.4326 11.0552 17.1851 10.9029 17.0106 10.6814C17.0592 10.7842 17.0803 10.898 17.072 11.0114C16.9994 11.0018 16.9295 10.9778 16.8663 10.9409C16.8031 10.904 16.7478 10.8549 16.7037 10.7965C16.7728 10.9075 16.8124 11.0342 16.8188 11.1648C16.6993 11.1626 16.5838 11.1223 16.4888 11.0497C16.5363 11.1309 16.5577 11.2246 16.5502 11.3183C16.2603 11.2139 15.9865 11.0692 15.7368 10.8886V11.1572C15.7977 11.218 14.9849 11.098 14.9697 9.94682ZM15.4222 10.3975H16.3354C16.3354 10.3975 15.6371 10.3975 15.6371 10.7658C15.5787 10.7217 15.5296 10.6664 15.4927 10.6032C15.4558 10.54 15.4318 10.4701 15.4222 10.3975ZM14.9541 10.7274C14.8573 10.5071 14.8051 10.2698 14.8007 10.0292C14.5244 9.90638 14.5244 10.0292 14.5858 10.2977C14.6622 10.475 14.7906 10.6249 14.9541 10.7274ZM15.4069 11.1265L14.9772 10.7965H14.9848C14.8436 10.7495 14.714 10.6733 14.6042 10.5728C14.4945 10.4723 14.4072 10.3498 14.3479 10.2133C14.2204 10.1537 14.0771 10.1364 13.9391 10.1641C13.801 10.1917 13.6754 10.2627 13.5806 10.3668C13.5286 10.4389 13.4928 10.5214 13.4754 10.6087C13.458 10.6958 13.4596 10.7858 13.48 10.8723C13.5003 10.9589 13.5391 11.0401 13.5935 11.1104C13.6479 11.1807 13.7168 11.2385 13.7955 11.2799C13.9539 11.1483 14.1534 11.0762 14.3594 11.0762C14.5655 11.0762 14.765 11.1483 14.9234 11.2799C15.0873 11.2376 15.2487 11.1863 15.4069 11.1265ZM14.2814 10.8922C14.2625 10.9049 14.2403 10.9116 14.2175 10.9116C14.1024 10.9116 14.1024 10.8579 14.1024 10.7965C14.1024 10.7737 14.1091 10.7515 14.1218 10.7326C14.1345 10.7136 14.1524 10.6989 14.1734 10.6902C14.1945 10.6815 14.2176 10.6792 14.24 10.6836C14.2623 10.6881 14.2828 10.6991 14.2989 10.7151C14.3149 10.7312 14.3259 10.7517 14.3304 10.774C14.3348 10.7964 14.3325 10.8195 14.3238 10.8406C14.3151 10.8616 14.3004 10.8795 14.2814 10.8922ZM15.8059 11.6483C15.6743 11.5128 15.5512 11.3693 15.4376 11.2185L15.4452 11.2109C15.2988 11.2154 15.1548 11.2505 15.0226 11.3139C14.8905 11.3773 14.7731 11.4677 14.6779 11.5792C14.6197 11.7012 14.5946 11.8364 14.6054 11.9712C14.6162 12.1059 14.6624 12.2354 14.7393 12.3465C14.8232 12.1342 14.9707 11.9531 15.1617 11.8281C15.3527 11.7031 15.5778 11.6402 15.8059 11.6483ZM16.7421 11.5025L16.3737 11.3874L16.3354 11.4641C16.5767 11.5698 16.7801 11.7464 16.9186 11.9705C17.0749 12.1737 17.2184 12.3864 17.3483 12.6074C17.4115 12.5078 17.4509 12.3949 17.4634 12.2775C17.2574 11.998 17.104 11.6834 17.0106 11.349C16.9531 11.349 16.9147 11.3336 16.8764 11.3183C16.838 11.303 16.7996 11.2876 16.7421 11.2876V11.5025ZM16.4044 11.679C16.1728 11.5197 15.912 11.4075 15.6371 11.349V11.3567C15.8252 11.6448 16.0914 11.8736 16.4044 12.0166C16.5713 12.1341 16.7166 12.2795 16.8341 12.4463C16.8329 12.2925 16.7929 12.1417 16.7177 12.0075C16.6426 11.8733 16.5349 11.7604 16.4044 11.679ZM15.8519 8.77071C15.8519 8.67863 15.7522 8.61724 15.6371 8.61724H15.6448C15.5809 8.60957 15.5162 8.61985 15.4579 8.64701C15.3996 8.6741 15.35 8.71692 15.3148 8.77071C15.3684 8.97974 15.4594 9.17733 15.5834 9.35389C15.6965 9.17127 15.7867 8.97536 15.8519 8.77071ZM15.4669 9.63769L15.4683 9.64549V9.63781L15.4669 9.63769ZM15.2534 8.87814C15.3502 9.12339 15.4217 9.37788 15.4669 9.63769C15.3761 9.62912 15.2845 9.64235 15.1997 9.67618C15.0425 9.45234 14.899 9.21915 14.77 8.97789V8.91651C14.7734 8.87699 14.7907 8.83992 14.8188 8.81184C14.8469 8.78376 14.8839 8.76649 14.9234 8.76304C15.0409 8.77555 15.1537 8.81491 15.2534 8.87814ZM15.7382 9.62999L15.7368 9.63781V9.63014L15.7382 9.62999ZM16.0054 9.66851C15.921 9.63315 15.8291 9.61984 15.7382 9.62999C15.7834 9.3702 15.8549 9.1157 15.9517 8.87047C16.0514 8.80724 16.1643 8.76787 16.2817 8.75536C16.3212 8.75882 16.3582 8.77608 16.3863 8.80417C16.4144 8.83225 16.4317 8.86931 16.4351 8.90883V8.97022C16.3195 9.21892 16.1753 9.45327 16.0054 9.66851ZM15.6755 7.965H16.0054V8.13381H15.6755V8.44075H15.522V8.15683H15.192V7.94198H15.522V7.6734H15.6755V7.965ZM12.7288 9.36157V9.88336V9.90638C12.5754 9.63781 12.1457 9.90638 12.1457 9.90638C12.1976 9.77877 12.2766 9.66398 12.3774 9.5699C12.4781 9.47583 12.598 9.40477 12.7288 9.36157ZM13.0992 10.5975L13.0972 10.6047H13.1048L13.0992 10.5975ZM13.2506 9.90638C13.2127 10.1189 13.1597 10.3839 13.0992 10.5975C13.0052 10.4776 12.9377 10.339 12.9013 10.1909C12.8642 10.0398 12.8604 9.8826 12.89 9.72989C12.9269 9.51596 12.9057 9.29596 12.8286 9.093C12.7036 8.85527 12.6304 8.59376 12.6137 8.32565L12.9821 8.17218C12.9691 8.43668 13.0218 8.70035 13.1355 8.93953C13.2257 9.08187 13.2829 9.24255 13.3028 9.40991C13.3227 9.57719 13.3049 9.74685 13.2506 9.90638ZM13.1048 8.14916V8.30263L13.1202 8.31798C13.2428 8.30884 13.3659 8.30884 13.4885 8.31798C13.6859 8.22037 13.8692 8.09644 14.0333 7.94965C14.098 7.8847 14.1832 7.84469 14.2739 7.83617C14.2723 7.93749 14.2453 8.03718 14.1949 8.12587C14.0456 8.30221 13.9216 8.49849 13.8266 8.70905C13.751 8.78356 13.6968 8.87695 13.6698 8.97962C13.6429 9.08221 13.6439 9.19018 13.6731 9.29224C13.7312 9.39613 13.8092 9.4876 13.9027 9.56134C13.9962 9.63509 14.1033 9.68964 14.2179 9.72195C14.2022 9.67484 14.1736 9.6303 14.1454 9.58622C14.1046 9.52262 14.0644 9.45998 14.0644 9.39199C14.0732 9.19148 14.1488 8.99965 14.2793 8.84717C14.4088 8.65403 14.4999 8.43779 14.5479 8.21028C14.504 8.04315 14.4104 7.89321 14.2793 7.78056L14.2716 7.77289C14.2729 7.78686 14.2736 7.80083 14.2739 7.81478C14.1271 7.71264 14.0166 7.66167 13.8722 7.71945C13.5755 7.77247 13.3051 7.92387 13.1048 8.14916ZM17.1262 11.1646L17.1325 11.1868L17.1185 11.1799L17.1262 11.1646ZM17.1325 11.1868C17.4819 11.3621 17.7515 11.6642 17.8858 12.0317C17.922 12.3082 17.8823 12.5894 17.7707 12.8451C17.7635 12.5755 17.6897 12.3118 17.5559 12.0777C17.3669 11.8059 17.2239 11.5049 17.1325 11.1868ZM17.6633 11.2797C17.8298 11.2904 17.9933 11.3293 18.1467 11.3948C18.394 11.585 18.5653 11.857 18.6302 12.1621C18.4595 12.1142 18.2967 12.0418 18.1467 11.9473C17.9289 11.7751 17.7617 11.547 17.6633 11.2873V11.2797ZM15.9368 11.9473C15.8792 11.9473 15.8255 11.9626 15.7718 11.978C15.7181 11.9933 15.6644 12.0086 15.6068 12.0086C15.7574 12.0644 15.9016 12.1364 16.0365 12.2235C16.116 12.2913 16.1809 12.3745 16.227 12.4682C16.2732 12.5619 16.2998 12.664 16.3051 12.7683C16.3797 13.0647 16.4905 13.3508 16.6351 13.6201C16.6391 13.3296 16.691 13.0419 16.7885 12.7683C16.6651 12.6967 16.5538 12.606 16.4586 12.4997C16.3545 12.2622 16.1696 12.0692 15.9368 11.9549V11.9473ZM17.4715 12.7223C17.5928 12.9705 17.6532 13.2441 17.648 13.5203C17.5233 13.8115 17.3607 14.085 17.1645 14.3337C17.0978 14.0154 17.0592 13.6919 17.0494 13.3668C17.0441 13.2257 17.0778 13.0858 17.1468 12.9626C17.2159 12.8395 17.3176 12.7377 17.4408 12.6686L17.4715 12.7223ZM18.024 12.6686L18.0346 12.6872C17.9425 13.049 17.8129 13.4002 17.648 13.7352C17.6041 13.9444 17.5886 14.1587 17.6019 14.3721C17.6411 14.5293 17.7145 14.676 17.8168 14.8018C17.8821 14.7136 17.9516 14.624 18.0217 14.5336C18.1163 14.4117 18.2121 14.2883 18.3002 14.1649C18.3626 14.0829 18.4054 13.9877 18.4254 13.8866C18.4453 13.7856 18.4419 13.6812 18.4153 13.5817C18.3229 13.27 18.1952 12.9699 18.0346 12.6872L18.0393 12.6686H18.024ZM18.2542 14.7634L18.251 14.7666L18.2465 14.7557L18.2542 14.7634ZM18.251 14.7666C18.3229 14.9404 18.3555 15.128 18.3462 15.3159C18.2611 15.4919 18.1893 15.674 18.1314 15.8607C18.1196 16.1328 18.1949 16.4016 18.3462 16.6281C18.0953 16.4806 17.8783 16.2818 17.7093 16.0449C17.6523 15.9583 17.6218 15.857 17.6218 15.7533C17.6218 15.6496 17.6523 15.5483 17.7093 15.4617C17.8634 15.2105 18.0451 14.9773 18.251 14.7666ZM17.4791 14.4872C17.5836 14.6263 17.6378 14.7967 17.6326 14.9706C17.6223 15.187 17.5836 15.4012 17.5175 15.6075C17.4018 15.9241 17.258 16.2297 17.0878 16.5206C16.9767 16.3725 16.8863 16.2099 16.8192 16.0372C16.8851 15.9449 16.944 15.8526 17.0025 15.7609L17.0025 15.7609C17.0801 15.6391 17.157 15.5185 17.2489 15.4003C17.3483 15.1021 17.4253 14.7969 17.4791 14.4872ZM17.364 14.3337L17.3607 14.3509C16.7817 15.2529 16.2411 15.7305 15.837 15.7686C15.7041 15.7258 15.5843 15.6498 15.4889 15.5477C15.3936 15.4457 15.3259 15.321 15.2922 15.1855C15.2027 15.3062 15.1452 15.4476 15.1251 15.5965C15.1049 15.7455 15.1228 15.8971 15.1771 16.0372C15.2229 16.1891 15.3147 16.323 15.4397 16.4205C15.5648 16.5181 15.7169 16.5745 15.8754 16.582C16.055 16.544 16.2243 16.4673 16.3714 16.3574C16.5184 16.2474 16.6399 16.1067 16.7271 15.9451C17.035 15.4574 17.2497 14.9168 17.3607 14.3509L17.3717 14.3337H17.364ZM16.8816 14.5797C16.935 14.3785 16.935 14.1669 16.8816 13.9658C16.7925 14.2207 16.6325 14.4448 16.4205 14.612C16.2085 14.7792 15.9532 14.8825 15.6846 14.9096L15.746 14.971C15.8331 15.0858 15.9593 15.1647 16.1005 15.193C16.2419 15.2212 16.3887 15.1969 16.5133 15.1245C16.6089 15.0639 16.691 14.9843 16.7544 14.8906C16.8178 14.7968 16.8611 14.6909 16.8816 14.5797ZM18.6849 18.5008C18.5696 18.1933 18.4064 17.9058 18.2015 17.649C18.0506 17.8096 17.9372 18.0016 17.8695 18.2113C17.8018 18.4209 17.7816 18.643 17.8101 18.8615C17.9219 19.1603 18.1097 19.4248 18.3549 19.6288C18.5607 19.2877 18.6744 18.8991 18.6849 18.5008ZM18.1094 17.3191C17.9193 17.5196 17.7731 17.7574 17.6797 18.0174C17.6164 17.8853 17.5206 17.773 17.4265 17.6628C17.2582 17.4654 17.0955 17.2747 17.1349 16.9891C17.2226 16.6805 17.3685 16.3914 17.5646 16.1374C17.7758 16.2435 17.9447 16.4182 18.0437 16.6329C18.1427 16.8476 18.1659 17.0895 18.1094 17.3191ZM16.2831 16.6208C16.4499 16.5032 16.5953 16.3579 16.7128 16.1911V16.1988C16.837 16.3714 16.9473 16.5536 17.0428 16.7436C17.0462 16.9575 17.0257 17.1711 16.9814 17.3805C16.9054 17.6351 16.7803 17.8723 16.6131 18.0788C16.4775 17.7843 16.367 17.4788 16.2831 17.1656V16.6208ZM15.3469 16.6438C15.4165 17.0358 15.5709 17.4077 15.7997 17.7335L15.7843 17.7718C15.9033 17.6574 16.0136 17.5343 16.1143 17.4035C16.1724 17.1744 16.1724 16.9343 16.1143 16.7052C15.9895 16.7509 15.8564 16.7691 15.7239 16.7585C15.5914 16.748 15.4628 16.7088 15.3469 16.6438ZM16.1143 17.649L15.8457 17.8869V17.9176C15.9655 18.0089 16.076 18.1117 16.1757 18.2246C16.2294 18.2859 16.3291 18.2859 16.4442 18.2859L16.4254 18.2383C16.3483 18.0433 16.1704 17.5929 16.1143 17.649ZM16.5286 18.4164C16.7282 18.1739 16.9103 17.9175 17.0735 17.649L17.1042 17.603C17.1617 17.7373 17.2691 17.8735 17.3766 18.0097L17.3766 18.0097C17.484 18.1459 17.5914 18.2821 17.649 18.4164C17.6785 18.6032 17.6462 18.7945 17.5569 18.9612C17.4685 19.184 17.358 19.3975 17.2269 19.5981C17.036 19.4102 16.8732 19.1956 16.7435 18.9612C16.6584 18.7853 16.5866 18.6031 16.5286 18.4164ZM18.0787 19.8744C17.9716 19.6 17.827 19.3417 17.649 19.107L17.6566 19.1224C17.6137 19.289 17.4954 19.4142 17.3888 19.527C17.3432 19.5752 17.2998 19.6212 17.2653 19.6672C17.213 19.7639 17.1806 19.87 17.17 19.9794C17.1595 20.0888 17.171 20.1992 17.2039 20.3041C17.3036 20.5567 17.4709 20.777 17.6873 20.941C17.7529 20.8186 17.8309 20.6838 17.8972 20.5691L17.8973 20.5691L17.8974 20.5689L17.8976 20.5685L17.8977 20.5684C17.9476 20.482 17.991 20.4072 18.0173 20.3578C18.0945 20.2091 18.1163 20.0376 18.0787 19.8744ZM16.9353 19.7209C16.842 19.4928 16.7181 19.2786 16.567 19.084V19.0763C16.5174 19.275 16.4258 19.4608 16.2984 19.6211C16.2409 19.8295 16.2409 20.0496 16.2984 20.258C16.3863 20.4724 16.5109 20.6698 16.6668 20.8412C16.6958 20.7789 16.7384 20.7054 16.7896 20.6169L16.7896 20.6168L16.7897 20.6168C16.833 20.5419 16.8826 20.4563 16.9353 20.3578C16.992 20.2613 17.0219 20.1513 17.0219 20.0393C17.0219 19.9274 16.992 19.8174 16.9353 19.7209ZM17.649 21.5932C17.7279 21.2372 17.8822 20.9022 18.1017 20.611L18.1938 20.6187C18.2957 20.7032 18.3765 20.8104 18.4298 20.9315C18.4831 21.0528 18.5073 21.1848 18.5007 21.317C18.5347 21.5606 18.4803 21.8084 18.3473 22.0153C18.2592 22.2181 18.1343 22.4028 17.9789 22.5601C17.8432 22.2471 17.7328 21.9239 17.649 21.5932ZM17.4341 21.3707C17.4236 21.0795 17.3305 20.7975 17.1655 20.5573V20.5726C17.0272 20.6838 16.9164 20.8255 16.8419 20.9865C16.7673 21.1476 16.731 21.3237 16.7358 21.5011C16.8007 21.723 16.8908 21.9368 17.0044 22.138C17.1751 21.8986 17.3192 21.6413 17.4341 21.3707ZM22.5984 9.82978C22.2524 9.71338 21.8777 9.71338 21.5317 9.82978C21.8807 9.92701 22.2494 9.92701 22.5984 9.82978ZM19.13 7.08268C19.0465 7.4334 18.9362 7.77713 18.8 8.11093C18.6554 7.78028 18.5449 7.43574 18.47 7.08268C18.47 6.99517 18.5048 6.91125 18.5666 6.84937C18.6044 6.81165 18.6503 6.78401 18.7002 6.76817V6.38466H18.4163V6.23119H18.6849V5.90123H18.8997V6.23119H19.1837V6.38466H18.9151V6.77346C18.9591 6.78983 18.9995 6.81555 19.0333 6.84937C19.0952 6.91125 19.13 6.99517 19.13 7.08268ZM20.1966 7.32056C20.0876 7.78281 19.9254 8.23086 19.7131 8.65574C19.6734 8.63721 19.6291 8.61777 19.5857 8.59867L19.5856 8.59866C19.5031 8.5624 19.4234 8.5274 19.3832 8.50227C19.4123 8.0213 19.5239 7.54888 19.7131 7.1057C19.7483 7.06553 19.8097 7.07794 19.876 7.09131C19.9109 7.09837 19.9472 7.1057 19.9817 7.1057C20.0815 7.1057 20.1352 7.20546 20.1966 7.32056ZM18.9535 8.53297H19.1837L19.1683 8.50995C19.2054 8.32432 19.2398 8.13028 19.2747 7.93291L19.2747 7.93245L19.2751 7.93038L19.2753 7.92959C19.2979 7.80168 19.3208 7.67239 19.3448 7.54309C19.3741 7.44439 19.4103 7.34394 19.4468 7.24259L19.4468 7.24252C19.487 7.13115 19.5275 7.01867 19.5597 6.90619C19.4624 6.93311 19.3767 6.99125 19.3156 7.07166C19.2546 7.15208 19.2217 7.25032 19.222 7.35125C19.0988 7.73669 19.0089 8.13211 18.9535 8.53297ZM20.1429 9.32333C19.8626 9.17278 19.5477 9.09866 19.2297 9.10848C19.2589 9.23225 19.3183 9.34682 19.4027 9.44189C19.4871 9.53696 19.5937 9.60963 19.7131 9.65329C19.9934 9.80385 20.3083 9.87797 20.6263 9.86815C20.5195 9.64478 20.3519 9.45601 20.1429 9.32333ZM20.0815 9.69166C19.8401 9.59712 19.6226 9.45041 19.4446 9.26195C19.5755 9.28297 19.7004 9.33231 19.8104 9.40659C19.9204 9.48079 20.0129 9.57809 20.0815 9.69166ZM21.808 10.9348V11.2033L21.8003 11.2264C21.8003 11.2264 22.5984 11.1113 22.7518 9.98325C22.4056 10.0858 22.0463 10.1375 21.6852 10.1367C21.052 10.1452 20.4202 10.073 19.8052 9.92187C19.8297 9.99929 19.8725 10.0697 19.9299 10.1271C19.9874 10.1845 20.0578 10.2273 20.1352 10.2518C20.0341 10.2541 19.9379 10.2953 19.8666 10.3669C19.9618 10.4732 20.0732 10.5638 20.1966 10.6355C19.9713 10.8643 19.6658 10.9964 19.3448 11.0038C19.4303 11.0796 19.5331 11.1331 19.6441 11.1599C19.7552 11.1866 19.8711 11.1858 19.9817 11.1573C20.2406 11.0995 20.4681 10.946 20.6186 10.7276C20.57 10.8304 20.5489 10.9441 20.5572 11.0575C20.6303 11.0497 20.7009 11.0265 20.7643 10.9895C20.815 10.9599 20.8602 10.922 20.8982 10.8776C20.8623 10.9314 20.8443 10.9956 20.8264 11.0594L20.8264 11.0594L20.8263 11.0595C20.8115 11.1122 20.7968 11.1647 20.7721 11.211C20.8895 11.1985 21.0024 11.1591 21.102 11.0959C21.0546 11.1771 21.0332 11.2708 21.0406 11.3645C21.315 11.2574 21.5733 11.1128 21.808 10.9348ZM21.9689 10.7317C22.0219 10.6907 22.0667 10.6398 22.1006 10.5817C22.1376 10.5182 22.1608 10.4477 22.1686 10.3746C21.8452 10.383 21.5216 10.3624 21.2018 10.3132V10.3746C21.216 10.3835 21.2645 10.3903 21.3308 10.3996C21.5483 10.4301 21.9567 10.4874 21.9689 10.7317ZM22.6674 10.7429C22.7643 10.5226 22.8164 10.2853 22.8209 10.0446C23.0971 9.92187 23.0971 10.083 23.0357 10.3132C22.9594 10.4905 22.8309 10.6403 22.6674 10.7429ZM23.7746 10.2486C23.6365 10.221 23.4932 10.2382 23.3657 10.2979H23.3734C23.2376 10.5621 23.0117 10.769 22.7365 10.881C22.5732 10.9621 22.4272 11.0742 22.3068 11.211C22.4753 11.235 22.6386 11.2869 22.7902 11.3645C22.9487 11.2328 23.1482 11.1607 23.3542 11.1607C23.5602 11.1607 23.7597 11.2328 23.9182 11.3645C24.0499 11.2575 24.1425 11.1098 24.1814 10.9446C24.2203 10.7793 24.2033 10.6059 24.1331 10.4513C24.0383 10.3473 23.9127 10.2762 23.7746 10.2486ZM23.5688 10.8325C23.5815 10.8514 23.5882 10.8736 23.5882 10.8964C23.5882 10.9501 23.5345 11.0115 23.4731 11.0115C23.4503 11.0115 23.4281 11.0047 23.4092 10.9921C23.3903 10.9794 23.3755 10.9615 23.3668 10.9404C23.3581 10.9194 23.3558 10.8962 23.3603 10.8739C23.3647 10.8516 23.3757 10.8311 23.3917 10.815C23.4078 10.7989 23.4283 10.788 23.4507 10.7835C23.473 10.7791 23.4962 10.7814 23.5172 10.79C23.5382 10.7988 23.5562 10.8135 23.5688 10.8325ZM21.8233 11.6944C21.9549 11.559 22.078 11.4155 22.1917 11.2647L22.184 11.257C22.3313 11.257 22.4768 11.29 22.6096 11.3538C22.7425 11.4175 22.8593 11.5104 22.9513 11.6254C23.0096 11.7474 23.0346 11.8826 23.0239 12.0173C23.013 12.1521 22.9668 12.2815 22.89 12.3927C22.8061 12.1804 22.6585 11.9993 22.4675 11.8742C22.2765 11.7492 22.0515 11.6864 21.8233 11.6944ZM21.2632 11.4491L20.8949 11.5642V11.3494C20.8373 11.3494 20.7989 11.3647 20.7606 11.3801C20.7222 11.3954 20.6838 11.4108 20.6263 11.4108C20.5145 11.7263 20.3483 12.0198 20.1352 12.2779C20.1477 12.3953 20.187 12.5082 20.2503 12.6078C20.3801 12.3868 20.5236 12.1741 20.68 11.9709C20.8298 11.7567 21.0301 11.5827 21.2632 11.4645V11.4491ZM21.9615 11.3494C21.6865 11.4079 21.4258 11.52 21.1941 11.6793C21.0637 11.7608 20.9559 11.8737 20.8808 12.0079C20.8057 12.1421 20.7656 12.293 20.7644 12.4467C20.882 12.2799 21.0273 12.1345 21.1941 12.017C21.4957 11.8567 21.7578 11.6312 21.9615 11.3571V11.3494ZM21.9615 8.61763L21.9547 8.61771L21.9538 8.61763H21.9615ZM21.9547 8.61771C21.8425 8.62005 21.7466 8.68082 21.7466 8.7711C21.8118 8.97576 21.9021 9.17166 22.0152 9.35429C22.1392 9.17772 22.2301 8.98013 22.2837 8.7711C22.1963 8.68163 22.0794 8.62712 21.9547 8.61771ZM22.1073 9.64588L22.1077 9.63821C22.2227 9.63821 22.3375 9.63826 22.3375 9.67657C22.4947 9.45274 22.6382 9.21954 22.7672 8.97829V8.9169C22.8055 8.82482 22.7135 8.76343 22.6521 8.76343C22.5347 8.77594 22.4218 8.8153 22.3221 8.87853C22.1983 9.11399 22.1253 9.37278 22.1077 9.63821H22.1073V9.64588ZM21.854 9.63821L21.8527 9.63038L21.854 9.63053V9.63821ZM21.8527 9.63038C21.8075 9.37059 21.736 9.11617 21.6392 8.87086C21.5395 8.80763 21.4266 8.76827 21.3092 8.75576C21.2697 8.75921 21.2326 8.77648 21.2045 8.80456C21.1765 8.83265 21.1592 8.86971 21.1557 8.90923V8.97061C21.2847 9.21187 21.4282 9.44507 21.5855 9.6689C21.6698 9.63355 21.7618 9.62023 21.8527 9.63038ZM21.5855 7.96539H21.8924V7.6738H22.1073V7.94237H22.3758V8.15723H22.1073V8.44115H21.8924V8.13421H21.5855V7.96539ZM24.8774 9.87608V9.35429C25.0082 9.39749 25.1281 9.46855 25.2288 9.56262C25.3296 9.6567 25.4086 9.77149 25.4606 9.8991C25.4606 9.8991 25.0308 9.63053 24.8774 9.8991V9.87608ZM24.486 10.5974C24.4246 10.3825 24.3709 10.114 24.3326 9.8991C24.2349 9.58004 24.2568 9.23635 24.394 8.93225C24.5357 8.70319 24.5902 8.43079 24.5474 8.1649L24.9157 8.31837C24.8991 8.58648 24.8259 8.84799 24.7009 9.08572C24.6238 9.28868 24.6026 9.50868 24.6395 9.72262C24.6987 9.8681 24.7156 10.0273 24.6885 10.182C24.6613 10.3368 24.5912 10.4807 24.486 10.5974ZM24.486 8.29535V8.14188C24.2858 7.91659 24.0154 7.76519 23.7187 7.71217C23.5722 7.65356 23.4606 7.70685 23.3106 7.81193C23.3109 7.79892 23.3117 7.78591 23.3128 7.77289L23.3052 7.78056C23.1741 7.89321 23.0804 8.04315 23.0366 8.21028C23.0845 8.43779 23.1757 8.65403 23.3052 8.84717C23.4357 8.99965 23.5113 9.19148 23.52 9.39199C23.52 9.45998 23.4799 9.52261 23.4391 9.58622C23.4108 9.6303 23.3822 9.67484 23.3665 9.72195C23.4811 9.68964 23.5882 9.63509 23.6818 9.56134C23.7752 9.4876 23.8533 9.39613 23.9114 9.29224C23.9405 9.19018 23.9417 9.08221 23.9147 8.97962C23.8877 8.87695 23.8335 8.78356 23.7579 8.70905C23.6628 8.49849 23.5388 8.30221 23.3896 8.12587C23.3379 8.03489 23.3108 7.93234 23.3105 7.82833C23.4036 7.83552 23.4913 7.87587 23.5575 7.94237C23.7217 8.08916 23.905 8.21309 24.1024 8.3107C24.2251 8.30371 24.348 8.30371 24.4707 8.3107L24.486 8.29535ZM20.4804 11.168L20.4813 11.1646H20.489L20.4804 11.168ZM19.9895 11.5238C20.1214 11.3667 20.2901 11.2445 20.4804 11.168C20.3892 11.493 20.2443 11.8005 20.0516 12.0777C19.9021 12.322 19.8273 12.6048 19.8368 12.8911C19.7252 12.6355 19.6854 12.3543 19.7216 12.0777C19.7634 11.8737 19.8555 11.6832 19.9895 11.5238ZM19.4608 11.3794C19.6142 11.314 19.7777 11.2751 19.9442 11.2643V11.272C19.8401 11.5286 19.674 11.7553 19.4608 11.9319C19.3108 12.0264 19.148 12.0988 18.9773 12.1468C19.0422 11.8417 19.2135 11.5696 19.4608 11.3794ZM21.8357 11.9626C21.782 11.9473 21.7283 11.9319 21.6707 11.9319V11.9396C21.5514 11.9904 21.4437 12.0649 21.354 12.1585C21.2643 12.2522 21.1946 12.363 21.1489 12.4844C21.0537 12.5907 20.9423 12.6814 20.819 12.753C20.9165 13.0265 20.9684 13.3143 20.9724 13.6047C21.117 13.3355 21.2278 13.0494 21.3024 12.753C21.3078 12.6487 21.3343 12.5466 21.3805 12.4529C21.4266 12.3592 21.4915 12.2759 21.571 12.2082C21.7059 12.1211 21.85 12.049 22.0007 11.9933C21.9431 11.9933 21.8894 11.978 21.8357 11.9626ZM19.9519 13.5203C19.9465 13.2383 20.0096 12.9592 20.136 12.7069L20.159 12.6686C20.277 12.7435 20.3744 12.8465 20.4427 12.9684C20.511 13.0902 20.548 13.2272 20.5504 13.3668C20.5406 13.6919 20.502 14.0154 20.4353 14.3337C20.2391 14.085 20.0765 13.8115 19.9519 13.5203ZM19.0224 13.2024C18.9086 13.3727 18.8008 13.534 18.8008 13.6354C18.8008 13.5694 18.7112 13.4308 18.6092 13.2729C18.4742 13.0641 18.3174 12.8215 18.3174 12.6686C18.4267 12.4628 18.595 12.2944 18.8008 12.1851C18.9133 12.2229 19.0155 12.2862 19.0993 12.3701C19.1832 12.4539 19.2465 12.5561 19.2843 12.6686C19.2843 12.8103 19.1496 13.012 19.0224 13.2024ZM19.5627 12.6783L19.5682 12.6686H19.5605L19.5627 12.6783ZM19.1845 13.5817C19.2755 13.2671 19.4024 12.9639 19.5627 12.6783C19.6462 13.0459 19.7771 13.4012 19.9519 13.7352C19.9957 13.9444 20.0112 14.1587 19.9979 14.3721C19.9587 14.5293 19.8853 14.676 19.783 14.8018C19.7177 14.7136 19.6482 14.624 19.5781 14.5336C19.4835 14.4117 19.3877 14.2883 19.2996 14.1649C19.2372 14.0829 19.1944 13.9877 19.1745 13.8866C19.1545 13.7856 19.158 13.6812 19.1845 13.5817ZM19.1231 14.7634C19.0556 14.9348 18.9413 15.0836 18.7932 15.1931C18.6492 15.0795 18.5358 14.9319 18.4632 14.7634C18.4288 14.694 18.4163 14.6158 18.4273 14.539C18.4383 14.4623 18.4722 14.3908 18.5246 14.3337C18.6357 14.1855 18.7261 14.0229 18.7932 13.8503C18.8383 14.0324 18.931 14.1992 19.0617 14.3337C19.1132 14.3913 19.1465 14.4628 19.1575 14.5393C19.1684 14.6157 19.1564 14.6937 19.1231 14.7634ZM19.3411 14.7666L19.338 14.7634L19.3456 14.7557L19.3411 14.7666ZM19.3411 14.7666C19.5471 14.9773 19.7288 15.2105 19.8828 15.4617C19.9399 15.5483 19.9703 15.6496 19.9703 15.7533C19.9703 15.857 19.9399 15.9583 19.8828 16.0449C19.7138 16.2818 19.4968 16.4806 19.2459 16.6281C19.3972 16.4016 19.4725 16.1328 19.4608 15.8607C19.4028 15.674 19.331 15.4919 19.2459 15.3159C19.2367 15.128 19.2692 14.9404 19.3411 14.7666ZM19.9595 14.9706C19.9544 14.7967 20.0085 14.6263 20.113 14.4872C20.1266 14.557 20.1377 14.6366 20.1493 14.7199C20.1838 14.9664 20.2228 15.2455 20.3432 15.4003C20.4351 15.5185 20.512 15.6391 20.5896 15.7609L20.5897 15.7609L20.5897 15.7609C20.6481 15.8526 20.707 15.9449 20.7729 16.0372C20.7058 16.2099 20.6155 16.3725 20.5043 16.5206C20.3341 16.2297 20.1903 15.9241 20.0746 15.6075C20.0086 15.4012 19.9699 15.187 19.9595 14.9706ZM20.2928 14.3509L20.2895 14.3337H20.2818L20.2928 14.3509ZM20.2928 14.3509C20.4038 14.9168 20.6186 15.4574 20.9264 15.9451C21.0136 16.1067 21.1351 16.2474 21.2821 16.3574C21.4292 16.4673 21.5985 16.544 21.7781 16.582C21.9366 16.5745 22.0888 16.5181 22.2138 16.4205C22.3388 16.323 22.4306 16.1891 22.4764 16.0372C22.5307 15.8971 22.5486 15.7455 22.5285 15.5965C22.5084 15.4476 22.4509 15.3062 22.3613 15.1855C22.3276 15.321 22.2599 15.4457 22.1646 15.5477C22.0692 15.6498 21.9494 15.7258 21.8165 15.7686C21.4124 15.7305 20.8719 15.2529 20.2928 14.3509ZM20.7176 13.9662C20.6643 14.1674 20.6643 14.379 20.7176 14.5801C20.7382 14.6914 20.7815 14.7973 20.8449 14.891C20.9083 14.9847 20.9904 15.0644 21.086 15.1249C21.2106 15.1974 21.3574 15.2217 21.4987 15.1935C21.64 15.1651 21.7661 15.0863 21.8533 14.9715L21.9147 14.9101C21.6452 14.8857 21.3885 14.7835 21.1761 14.6159C20.9635 14.4483 20.8043 14.2226 20.7176 13.9662ZM18.7993 16.6443C18.9388 16.5989 19.0564 16.5031 19.1292 16.3757C19.2341 16.18 19.2869 15.9607 19.2827 15.7388C19.2242 15.5623 19.1331 15.3983 19.0141 15.2554C18.9547 15.3217 18.8813 15.3741 18.7993 15.4089C18.7324 15.3514 18.6605 15.3 18.5844 15.2554C18.4733 15.4036 18.3829 15.5662 18.3158 15.7388C18.2928 15.8497 18.2947 15.9643 18.3212 16.0744C18.3477 16.1846 18.3983 16.2875 18.4693 16.3757C18.53 16.5501 18.643 16.5896 18.7937 16.6423L18.7993 16.6443ZM18.7993 18.2557C18.8271 18.1338 18.942 17.9786 19.0591 17.8205C19.2 17.6302 19.3441 17.4355 19.3441 17.2889C19.3441 17.0972 19.1761 17.0111 19.0018 16.9217C18.9318 16.8858 18.8608 16.8494 18.7993 16.8054C18.7352 16.8512 18.6711 16.8799 18.6097 16.9074C18.4651 16.9722 18.3352 17.0304 18.2545 17.2889C18.2545 17.4007 18.3855 17.5854 18.5198 17.7747C18.6435 17.9489 18.7698 18.127 18.7993 18.2557ZM19.3825 17.6725C19.1775 17.9293 19.0144 18.2167 18.899 18.5243C18.9095 18.9225 19.0233 19.3112 19.229 19.6523C19.4742 19.4482 19.662 19.1837 19.7738 18.8849C19.8107 18.6627 19.7944 18.435 19.7265 18.2203C19.6584 18.0056 19.5405 17.81 19.3825 17.6495V17.6725ZM19.9273 18.0178C19.8339 17.7579 19.6876 17.5201 19.4976 17.3195C19.4411 17.09 19.4643 16.8481 19.5632 16.6334C19.6622 16.4187 19.8311 16.244 20.0424 16.1378C20.2161 16.4053 20.3602 16.6909 20.4721 16.9896C20.4959 17.2656 20.3396 17.4531 20.1809 17.6435L20.1809 17.6436C20.0837 17.7602 19.9856 17.8779 19.9273 18.0178ZM20.8941 16.1915C21.0117 16.3584 21.157 16.5037 21.3238 16.6213V17.1661C21.2399 17.4792 21.1295 17.7847 20.9939 18.0792C20.8267 17.8727 20.7015 17.6355 20.6256 17.3809C20.5813 17.1716 20.5607 16.958 20.5642 16.744C20.5941 16.7141 20.646 16.6203 20.7046 16.5142L20.7046 16.5142L20.7046 16.5142C20.7661 16.4028 20.8352 16.2778 20.8941 16.1992V16.1915ZM21.8073 17.7339C22.0333 17.4075 22.1852 17.0355 22.2523 16.6443C22.1365 16.7093 22.0079 16.7484 21.8754 16.759C21.7429 16.7696 21.6098 16.7514 21.485 16.7057C21.4268 16.9348 21.4268 17.1748 21.485 17.404C21.5801 17.5393 21.6909 17.6629 21.8149 17.7723L21.8073 17.7339ZM21.7536 17.8874C21.7118 17.8457 21.6721 17.814 21.6359 17.7851C21.5722 17.7344 21.5192 17.6922 21.485 17.6188C21.4339 17.7142 21.3858 17.8096 21.338 17.9044C21.2783 18.023 21.219 18.1405 21.155 18.2557C21.2701 18.2557 21.3699 18.2557 21.4236 18.1943C21.5233 18.0814 21.6338 17.9786 21.7536 17.8874ZM20.5028 17.6495C20.6659 17.9179 20.848 18.1744 21.0476 18.4169C20.9897 18.6035 20.9178 18.7857 20.8327 18.9617C20.7031 19.1961 20.5402 19.4106 20.3493 19.5986C20.2183 19.3978 20.1077 19.1845 20.0194 18.9617C19.9379 18.7923 19.9137 18.6012 19.9503 18.4169C20.0058 18.2873 20.1113 18.156 20.2168 18.0247L20.2168 18.0246C20.3301 17.8836 20.4435 17.7425 20.4951 17.6035L20.5028 17.6495ZM18.7993 21.0489C18.9379 20.8432 19.0659 20.6306 19.1829 20.412C19.235 20.2629 19.235 20.1006 19.1829 19.9515C19.1478 19.8636 19.0445 19.6975 18.9556 19.5544L18.9555 19.5543L18.9555 19.5543L18.9554 19.5542C18.8892 19.4477 18.831 19.3539 18.8146 19.3146C18.6659 19.5167 18.5325 19.7296 18.4156 19.9515C18.3581 20.1075 18.3581 20.279 18.4156 20.435C18.4692 20.6122 18.5715 20.7386 18.6547 20.8413C18.7264 20.9298 18.7839 21.0008 18.7839 21.0719L18.7993 21.0489ZM19.8505 19.1305C19.6725 19.3651 19.5279 19.6234 19.4208 19.8978C19.3832 20.0611 19.405 20.2325 19.4822 20.3813C19.5086 20.4307 19.5519 20.5055 19.6018 20.5919L19.6019 20.5919L19.6021 20.5924L19.6023 20.5926L19.6023 20.5926C19.6686 20.7073 19.7466 20.8421 19.8122 20.9644C20.0286 20.8005 20.1959 20.5802 20.2956 20.3275C20.3285 20.2226 20.34 20.1123 20.3295 20.0029C20.3189 19.8935 20.2865 19.7873 20.2342 19.6906C20.2046 19.6167 20.1412 19.5428 20.0697 19.4594C19.9928 19.3697 19.9065 19.2691 19.8429 19.1458L19.8505 19.1305ZM20.9709 19.1075C20.8198 19.3021 20.6958 19.5163 20.6025 19.7444C20.5459 19.8409 20.516 19.9509 20.516 20.0628C20.516 20.1748 20.5459 20.2847 20.6025 20.3813C20.6553 20.4798 20.7049 20.5654 20.7482 20.6403L20.7482 20.6403L20.7483 20.6404C20.7995 20.7288 20.842 20.8024 20.8711 20.8647C21.027 20.6933 21.1516 20.4959 21.2394 20.2815C21.297 20.0731 21.297 19.853 21.2394 19.6446C21.1269 19.4753 21.0366 19.2922 20.9709 19.0998V19.1075ZM18.7993 24.172C19.0135 23.7098 19.1583 23.2185 19.229 22.714C19.1721 22.3412 19.0246 21.9882 18.7993 21.6857C18.5483 21.9728 18.3974 22.3337 18.3696 22.714C18.423 23.2221 18.5687 23.7161 18.7993 24.172ZM19.4362 20.6191C19.6766 20.9026 19.8521 21.2352 19.9503 21.5937C19.8664 21.9242 19.7561 22.2476 19.6203 22.5605C19.4649 22.4032 19.34 22.2185 19.252 22.0157C19.1778 21.9172 19.1257 21.8038 19.0992 21.6833C19.0728 21.5628 19.0725 21.438 19.0985 21.3174C19.0843 21.1844 19.1053 21.0499 19.1591 20.9275C19.213 20.8049 19.2979 20.6986 19.4055 20.6191H19.4362ZM20.4337 20.5577C20.2688 20.7979 20.1757 21.08 20.1652 21.3711C20.2801 21.6418 20.4241 21.8991 20.5949 22.1385C20.7085 21.9372 20.7986 21.7235 20.8634 21.5016C20.8683 21.3242 20.832 21.1481 20.7574 20.987C20.6829 20.8259 20.5721 20.6843 20.4337 20.5731V20.5577ZM19.5524 24.1718C19.3777 24.5072 19.2535 24.8667 19.184 25.2384H19.207C19.2404 25.3829 19.3023 25.5191 19.3893 25.6391C19.4763 25.759 19.5866 25.8602 19.7135 25.9367C19.5798 25.9907 19.432 25.999 19.2932 25.9601C19.1543 25.9212 19.0323 25.8374 18.9462 25.7219C18.9015 25.6458 18.8502 25.5739 18.7927 25.507C18.7579 25.589 18.7055 25.6624 18.6392 25.7219C18.5522 25.8364 18.4302 25.9194 18.2916 25.9582C18.1531 25.997 18.0057 25.9894 17.8719 25.9367C18.0237 25.8909 18.1576 25.7991 18.2552 25.6741C18.3528 25.5491 18.4092 25.3969 18.4167 25.2384C18.3211 24.8721 18.1927 24.5151 18.033 24.1718C17.9996 24.0131 18.0016 23.8492 18.0388 23.6913C18.0758 23.5335 18.1473 23.3858 18.2479 23.2587C18.4026 23.7343 18.5844 24.2005 18.7927 24.6553C19.0091 24.2041 19.1912 23.7372 19.3375 23.2587C19.4381 23.3858 19.5095 23.5335 19.5466 23.6913C19.5837 23.8492 19.5857 24.0131 19.5524 24.1718ZM17.4675 21.9257L17.4422 21.8621V21.8544C17.2825 22.0082 17.1571 22.1938 17.0738 22.3993C17.0204 22.4557 16.9859 22.5274 16.9748 22.6044C16.9639 22.6813 16.977 22.7598 17.0124 22.829C17.0832 22.9819 17.1981 23.1102 17.3424 23.1973C17.4701 23.1352 17.5746 23.034 17.6408 22.9085C17.707 22.7829 17.7316 22.6394 17.7107 22.499C17.6634 22.4179 17.5387 22.1046 17.4677 21.9262L17.4676 21.9261L17.4676 21.926L17.4675 21.9257L17.4675 21.9257L17.4675 21.9257ZM17.9946 23.5886C18.1118 23.2782 18.1842 22.9527 18.2095 22.6218V22.6141C17.928 23.0679 17.5161 23.4263 17.0278 23.6424C16.9316 23.671 16.8456 23.7267 16.7803 23.803C16.7149 23.8792 16.673 23.9726 16.6595 24.0721C16.8 24.1832 16.9662 24.257 17.1429 24.2869C17.3276 24.2407 17.4999 24.1541 17.6471 24.0333C17.7944 23.9126 17.9131 23.7607 17.9946 23.5886ZM16.9664 23.228C17.0424 23.2726 17.1143 23.324 17.1813 23.3815C17.0256 23.4248 16.8797 23.4978 16.7515 23.5963C16.582 23.7075 16.4634 23.8813 16.4216 24.0797C16.2316 24.1383 16.0284 24.1383 15.8384 24.0797C16.0025 23.8573 16.1991 23.6607 16.4216 23.4966C16.593 23.3878 16.7757 23.2977 16.9664 23.228ZM16.7285 22.6064C16.7234 22.7803 16.7776 22.9507 16.882 23.0899V23.0975C16.6671 23.2126 16.4523 23.3124 16.1837 23.4275C15.9682 23.4646 15.7555 23.5159 15.5468 23.581C15.7032 23.3758 15.8864 23.1925 16.0916 23.0362L16.7285 22.6064ZM16.0127 23.6479L16.0302 23.6424L16.0226 23.6347L16.0127 23.6479ZM16.0127 23.6479C15.6494 23.7622 15.2783 23.8501 14.9022 23.9109C14.6397 24.0242 14.4024 24.1885 14.2039 24.3944L14.7871 24.5478C14.9863 24.4037 15.1997 24.2803 15.424 24.1795C15.6528 24.042 15.8528 23.8614 16.0127 23.6479ZM15.483 25.3967L15.4777 25.3996L15.4854 25.4073L15.483 25.3967ZM15.5391 25.131C15.592 25.2443 15.5928 25.3353 15.483 25.3967C15.4644 25.3184 15.43 25.2447 15.3819 25.18C15.3316 25.1126 15.2675 25.0566 15.1938 25.0159C15.0764 25.0284 14.9635 25.0678 14.8639 25.131C14.884 25.0856 14.8889 25.0349 14.8778 24.9865C14.8667 24.9381 14.8403 24.8946 14.8025 24.8624H14.1042C13.9891 24.8624 13.9891 24.8087 13.9891 24.7473C14.0338 24.6713 14.0851 24.5994 14.1426 24.5325C14.3075 24.59 14.4821 24.6437 14.6567 24.6975C14.8313 24.7512 15.0058 24.8049 15.1708 24.8624C15.3199 24.9088 15.4494 25.0032 15.5391 25.131ZM15.4854 24.7704C15.3137 24.6758 15.1306 24.6036 14.9406 24.5555L14.9483 24.5478C15.1073 24.4319 15.2833 24.3413 15.4701 24.2793C15.5235 24.2543 15.5736 24.241 15.6235 24.2277L15.6235 24.2277L15.6235 24.2277C15.6811 24.2123 15.7384 24.197 15.8 24.1642C15.8812 24.2116 15.9749 24.233 16.0686 24.2255C15.8885 24.3264 15.7398 24.4752 15.6389 24.6553C15.6189 24.6833 15.5947 24.6967 15.5675 24.7118C15.5424 24.7257 15.5148 24.741 15.4854 24.7704ZM16.2144 24.2409C16.3295 24.2409 16.4216 24.2409 16.483 24.1795L16.4906 24.1948C16.5227 24.1948 16.5712 24.2277 16.6296 24.2672L16.6296 24.2672C16.669 24.2939 16.7128 24.3236 16.7592 24.3483C16.5535 24.3365 16.3493 24.3903 16.176 24.5018C16.1501 24.5018 16.1367 24.5161 16.1228 24.5309C16.108 24.5468 16.0926 24.5632 16.0609 24.5632C15.9816 24.6272 15.9309 24.7202 15.9201 24.8218C15.9093 24.9232 15.9393 25.0248 16.0034 25.1042C16.0351 25.1434 16.0743 25.1761 16.1186 25.2003C16.1631 25.2244 16.2117 25.2396 16.262 25.245C16.3122 25.2503 16.363 25.2457 16.4115 25.2315C16.4599 25.2171 16.5051 25.1935 16.5444 25.1617C16.5444 25.1877 16.53 25.2011 16.5152 25.2149C16.4994 25.2298 16.483 25.2451 16.483 25.2768C16.4227 25.3855 16.324 25.4679 16.2061 25.5076C16.0883 25.5474 15.9599 25.5417 15.8461 25.4917C15.7538 25.4556 15.6795 25.3846 15.6393 25.2941C15.599 25.2036 15.5961 25.1009 15.6312 25.0082C15.7191 24.6866 15.9281 24.4116 16.2144 24.2409ZM12.9998 28.3915C13.0658 28.1281 13.1557 27.8712 13.2684 27.6242C13.2892 27.5819 13.3117 27.5348 13.3361 27.4839C13.6256 26.8789 14.1765 25.7275 15.3019 25.5293C15.417 25.5293 15.1867 25.1993 15.0333 25.2607C14.8776 25.3041 14.7317 25.3771 14.6036 25.4756V25.1456C14.6036 25.0842 14.5422 25.0842 14.4885 25.0842C14.338 25.0869 14.1904 25.1264 14.0588 25.1993C13.6412 25.7685 13.3006 26.3903 13.0459 27.0486C12.7773 27.6855 12.6161 27.9004 12.2785 27.816C12.1557 27.7853 12.0654 27.7201 11.9743 27.6543C11.815 27.5393 11.6534 27.4226 11.3116 27.486C11.1266 27.5357 10.9574 27.631 10.8192 27.7627C10.7646 27.6924 10.7189 27.6153 10.6833 27.5331C10.6195 27.3856 10.5901 27.2253 10.5974 27.0647C10.5846 26.9093 10.6041 26.7529 10.6547 26.6054C10.7054 26.4578 10.7861 26.3225 10.8918 26.2078C10.9974 26.093 11.1257 26.0014 11.2685 25.9387C11.4114 25.8761 11.5657 25.8438 11.7216 25.8438C11.8776 25.8438 12.0318 25.8761 12.1746 25.9387C12.3175 26.0014 12.4458 26.093 12.5514 26.2078C12.6571 26.3225 12.7378 26.4578 12.7884 26.6054C12.8391 26.7529 12.8586 26.9093 12.8457 27.0647V27.2796C12.9201 27.0785 13.01 26.8836 13.1143 26.6964C13.0117 26.3291 12.77 26.0161 12.4405 25.8242C12.1109 25.6322 11.7196 25.5762 11.3494 25.6682C10.9561 25.7942 10.6281 26.0698 10.4363 26.4355C10.4997 25.9601 10.7026 25.5141 11.0195 25.154C11.2104 25.0069 11.4261 24.8951 11.6564 24.8241C11.4598 24.8246 11.2657 24.7816 11.0879 24.6979C10.9101 24.6144 10.753 24.4923 10.6281 24.3406C10.323 24.123 10.1141 23.7958 10.0449 23.4275C10.0926 23.7166 10.0525 24.0132 9.92983 24.2793C9.6153 24.8749 9.487 25.5512 9.56151 26.2206C9.70753 26.8609 10.0447 27.4416 10.5284 27.8858C10.5815 27.9434 10.6225 28.0112 10.6488 28.085C10.6752 28.1588 10.6864 28.2372 10.6818 28.3155H11.7101C11.7101 28.3155 11.8997 28.3155 11.9227 28.1883C11.9521 28.204 11.9813 28.2206 12.0099 28.238C12.0423 28.2455 12.0746 28.2529 12.107 28.2601C12.0673 28.2664 12.029 28.28 11.994 28.3002C11.9326 28.4153 11.994 28.515 12.1475 28.5687C12.2343 28.6211 12.3314 28.6537 12.4322 28.6644C12.533 28.675 12.6349 28.6633 12.7306 28.6301C12.8033 28.572 12.7039 28.4175 12.3804 28.3166C12.5857 28.3559 12.7923 28.3886 12.9998 28.4145V28.3915ZM11.0968 27.9695L11.0893 27.9715C11.2158 28.0004 11.3448 28.0162 11.4744 28.0187C11.351 27.9895 11.2245 27.9729 11.0968 27.9695ZM17.8878 24.1864C17.9247 24.401 18.0173 24.6021 18.1564 24.7696C18.1564 24.7696 17.7881 26.4962 16.4299 26.6496C16.4876 26.3907 16.6411 26.1632 16.8596 26.0127C17.2893 25.7442 17.8878 25.3144 17.8264 24.6775C17.703 24.7492 17.5917 24.8398 17.4965 24.9461C17.463 24.9879 17.4259 25.0401 17.3844 25.0984C17.159 25.4151 16.8046 25.913 16.215 25.913C16.2788 25.6978 16.4074 25.5075 16.5833 25.3682C16.9006 25.1954 17.1779 24.9574 17.3967 24.6699C17.4948 24.456 17.6663 24.2845 17.8801 24.1864H17.8878ZM17.2432 30.5094L18.0566 31.6911L18.6935 30.5631L18.4787 30.1948L18.049 31.0082L17.5041 30.1948L17.2356 30.5017L17.2432 30.5094ZM15.1556 26.8576L17.0356 29.528L17.0433 29.5357L16.8285 29.8656L14.8487 27.0725L14.5187 27.3411V26.2744L15.4856 26.6428L15.1556 26.8576ZM11.3419 23.5811C10.9122 23.1513 10.5439 22.9442 10.2753 23.2127C10.0681 23.512 10.2753 23.888 10.705 24.2793C11.1347 24.6707 11.5031 24.8702 11.7716 24.6093C12.0402 24.3484 11.7716 24.0108 11.3419 23.5811ZM15.3857 28.162C14.8821 28.3159 14.3696 28.4389 13.851 28.5304C13.549 28.578 13.2435 28.5986 12.9378 28.5917V28.7452C12.9585 28.7649 12.9746 28.7888 12.9852 28.8153C12.9958 28.8417 13.0005 28.8702 12.9992 28.8987C13.3227 28.907 13.6462 28.8865 13.9661 28.8373C14.5417 28.7678 15.1048 28.618 15.6389 28.3922L15.4087 28.139L15.3857 28.162ZM16.2835 28.139C17.1093 27.7141 17.7963 27.0618 18.2632 26.259L18.3783 26.1055C18.3212 26.1345 18.2582 26.1496 18.1942 26.1496C18.1302 26.1496 18.0671 26.1345 18.01 26.1055L17.9486 26.2206C17.4732 26.9273 16.8468 27.5196 16.1146 27.9548L16.2681 28.1467L16.2835 28.139ZM11.6564 28.4536H11.0809C11.0426 28.4421 11.0023 28.4386 10.9626 28.4433C10.9229 28.448 10.8846 28.4608 10.85 28.481C10.8154 28.5011 10.7854 28.5282 10.7618 28.5604C10.7382 28.5927 10.7214 28.6295 10.7125 28.6685C10.6511 28.7836 10.7125 28.8833 10.8276 28.9984C10.9427 29.1135 11.0425 29.0598 11.0962 28.9984C11.3166 28.8902 11.5294 28.7672 11.7331 28.6301L11.7408 28.6076L11.7468 28.5908L11.7468 28.5908C11.7824 28.4908 11.8126 28.4061 11.6564 28.4536ZM12.1398 28.7222C12.0567 28.68 11.9645 28.6589 11.8712 28.6608C11.6581 28.7768 11.4619 28.9213 11.288 29.0905C11.2266 29.2056 11.288 29.244 11.4031 29.3054C11.4641 29.3528 11.5411 29.3748 11.618 29.3668C11.7191 29.3645 11.8153 29.3233 11.8866 29.2517C11.9093 29.229 11.9519 29.1779 11.9997 29.1207C12.0812 29.0231 12.1778 28.9075 12.2165 28.8833C12.2029 28.827 12.1766 28.7746 12.1398 28.7299V28.7222ZM12.2012 28.9984C12.1398 29.0598 11.9326 29.3284 11.9326 29.3284C11.9326 29.3284 11.9326 29.3898 11.994 29.4435H12.0554C12.2477 29.4435 12.4362 29.3904 12.6002 29.29C12.7767 29.1903 12.9302 28.9217 12.7537 28.8603C12.7094 28.8317 12.6597 28.8125 12.6076 28.804C12.5555 28.7954 12.5023 28.7977 12.4512 28.8107C12.4001 28.8236 12.3521 28.847 12.3104 28.8793C12.2688 28.9116 12.2342 28.9522 12.2089 28.9984H12.2012ZM20.2583 21.8621L20.233 21.9257L20.233 21.9257L20.233 21.9257L20.2329 21.926L20.2328 21.9261L20.2328 21.9262C20.1618 22.1046 20.0371 22.4179 19.9898 22.499C19.969 22.6394 19.9934 22.7829 20.0597 22.9085C20.1259 23.034 20.2304 23.1352 20.3581 23.1973C20.5023 23.1102 20.6173 22.9819 20.688 22.829C20.7235 22.7598 20.7366 22.6813 20.7256 22.6044C20.7146 22.5274 20.6801 22.4557 20.6266 22.3993C20.5546 22.2912 20.491 22.1983 20.4335 22.1143L20.4335 22.1143L20.4331 22.1138L20.4329 22.1135C20.3682 22.0189 20.3111 21.9356 20.2583 21.8544V21.8621ZM19.4449 22.6218C19.4623 22.9599 19.554 23.29 19.7135 23.5886C19.7951 23.7607 19.9138 23.9126 20.061 24.0333C20.2083 24.1541 20.3806 24.2407 20.5653 24.2869C20.7419 24.257 20.9081 24.1832 21.0487 24.0721C21.0396 23.9758 21.004 23.8838 20.9457 23.8066C20.8875 23.7294 20.8089 23.6698 20.7187 23.6347C20.2127 23.4209 19.7805 23.0634 19.4756 22.6064L19.4449 22.6218ZM20.6262 23.2044C20.5501 23.2491 20.4782 23.3004 20.4113 23.3579C20.6262 23.4193 20.7796 23.473 20.841 23.5727C21.0105 23.6839 21.1292 23.8577 21.171 24.0562C21.361 24.1147 21.5642 24.1147 21.7542 24.0562C21.59 23.8337 21.3934 23.6371 21.171 23.473C20.9995 23.3642 20.8168 23.2742 20.6262 23.2044ZM20.8947 22.5445C20.9072 22.7383 20.8531 22.9306 20.7413 23.0893L20.795 23.0203C20.9821 23.1811 21.2021 23.299 21.4396 23.3656C21.655 23.4027 21.8677 23.454 22.0764 23.519C21.9201 23.3138 21.7368 23.1306 21.5316 22.9742L20.8947 22.5445ZM21.5792 23.6241L21.5623 23.6188L21.57 23.6111L21.5792 23.6241ZM21.5792 23.6241C21.9427 23.7385 22.3141 23.8265 22.6903 23.8874C22.9528 24.0006 23.1902 24.165 23.3886 24.3708L22.8054 24.5243C22.6062 24.3801 22.3928 24.2568 22.1685 24.1559C21.9357 24.0236 21.7346 23.8421 21.5792 23.6241ZM22.087 25.3734L22.0918 25.376L22.0841 25.3837L22.087 25.3734ZM22.3757 24.9923C22.2351 25.0789 22.1321 25.2149 22.087 25.3734C21.9767 25.312 21.9775 25.2209 22.0304 25.1074C22.1201 24.9797 22.2496 24.8852 22.3987 24.8389C22.5637 24.7813 22.7383 24.7276 22.9128 24.6739L22.9129 24.6739C23.0874 24.6202 23.262 24.5665 23.427 24.5089C23.4844 24.5758 23.5358 24.6477 23.5804 24.7238C23.5804 24.7852 23.5804 24.8389 23.4653 24.8389H22.7671C22.7292 24.871 22.7028 24.9145 22.6918 24.9629C22.6807 25.0114 22.6856 25.062 22.7057 25.1074C22.606 25.0442 22.4931 25.0048 22.3757 24.9923ZM22.1148 24.7698C22.2865 24.6753 22.4696 24.6031 22.6596 24.5549L22.652 24.5473C22.5018 24.4393 22.3396 24.3492 22.1685 24.2787C22.1151 24.2538 22.065 24.2404 22.0151 24.2271L22.0151 24.2271L22.0151 24.2271L22.0151 24.2271L22.015 24.2271C21.9575 24.2118 21.9002 24.1965 21.8386 24.1636C21.7574 24.211 21.6637 24.2324 21.57 24.225C21.7501 24.3259 21.8988 24.4746 21.9997 24.6547C22.0016 24.6846 22.0142 24.7129 22.0355 24.734C22.0566 24.7553 22.0849 24.768 22.1148 24.7698ZM21.3858 24.2403C21.2707 24.2403 21.1786 24.2403 21.1173 24.1789L21.1096 24.1943C21.0775 24.1943 21.029 24.2271 20.9707 24.2666L20.9706 24.2667C20.9313 24.2933 20.8874 24.323 20.841 24.3478C21.0467 24.3359 21.2509 24.3897 21.4242 24.5012C21.4502 24.5012 21.4636 24.5156 21.4774 24.5304C21.4923 24.5462 21.5076 24.5626 21.5393 24.5626C21.6186 24.6267 21.6693 24.7198 21.6801 24.8212C21.6909 24.9227 21.6609 25.0243 21.5969 25.1036C21.5328 25.1829 21.4397 25.2337 21.3383 25.2444C21.2368 25.2552 21.1352 25.2252 21.0559 25.1612C21.0559 25.1871 21.0702 25.2005 21.085 25.2144C21.1009 25.2292 21.1173 25.2445 21.1173 25.2763C21.1775 25.385 21.2763 25.4673 21.3941 25.5071C21.5119 25.5468 21.6403 25.5411 21.7542 25.4911C21.8464 25.4551 21.9207 25.3841 21.961 25.2936C22.0012 25.2031 22.0041 25.1003 21.969 25.0077C21.8812 24.6861 21.6721 24.4111 21.3858 24.2403ZM24.3862 27.6243C24.5014 27.8712 24.594 28.128 24.6624 28.3917L24.6701 28.4454C24.7602 28.4336 24.8517 28.4203 24.9448 28.4055C24.7817 28.4946 24.7387 28.5932 24.7935 28.637C24.8889 28.6719 24.9911 28.6844 25.0922 28.6738C25.1932 28.6632 25.2905 28.6296 25.3766 28.5756C25.5301 28.5219 25.5915 28.4222 25.5301 28.3071C25.5257 28.3045 25.5212 28.3021 25.5167 28.2997C25.5641 28.2898 25.6119 28.2795 25.66 28.2689C25.6865 28.2528 25.7133 28.2374 25.7405 28.2227C25.7927 28.3071 25.9368 28.3071 25.9368 28.3071H26.9881C26.9835 28.2288 26.9947 28.1504 27.0211 28.0765C27.0474 28.0027 27.0884 27.935 27.1415 27.8773C27.6252 27.4332 27.9624 26.8525 28.1084 26.2122C28.1829 25.5428 28.0546 24.8664 27.7401 24.2708C27.6174 24.0048 27.5773 23.7081 27.625 23.4191C27.5558 23.7914 27.3437 24.1219 27.0341 24.3399C26.9092 24.4915 26.7521 24.6136 26.5743 24.6971C26.3965 24.7808 26.2024 24.8238 26.0059 24.8233C26.2361 24.8944 26.4518 25.0062 26.6428 25.1533C26.9596 25.5134 27.1626 25.9593 27.2259 26.4347C27.0341 26.069 26.7061 25.7934 26.3128 25.6674C25.9426 25.5755 25.5513 25.6315 25.2217 25.8235C24.8922 26.0155 24.6505 26.3283 24.5479 26.6956C24.5479 26.734 24.7551 27.1637 24.8165 27.2788V27.064C24.8398 26.7819 24.9683 26.5188 25.1766 26.3271C25.3849 26.1353 25.6576 26.0289 25.9406 26.0289C26.2237 26.0289 26.4964 26.1353 26.7047 26.3271C26.9129 26.5188 27.0415 26.7819 27.0648 27.064C27.0721 27.2246 27.0427 27.3848 26.9789 27.5323C26.941 27.6201 26.8914 27.702 26.8319 27.776C26.6973 27.6534 26.535 27.5644 26.3582 27.5169C26.0523 27.4538 25.8816 27.5689 25.7119 27.6833C25.6134 27.7497 25.5153 27.8159 25.3914 27.8469C25.0537 27.9313 24.8926 27.7164 24.624 27.0795C24.3669 26.4097 24.0211 25.7773 23.5958 25.1995C23.5366 25.1508 23.4676 25.1153 23.3934 25.0954C23.3193 25.0755 23.2417 25.0718 23.1661 25.0844C23.1124 25.0844 23.051 25.0844 23.051 25.1458V25.4758C22.9228 25.3772 22.777 25.3043 22.6213 25.2609C22.4678 25.1995 22.2376 25.5295 22.3527 25.5295C23.4781 25.7277 24.029 26.8791 24.3185 27.4841L24.3185 27.4842C24.3428 27.5351 24.3653 27.5821 24.3862 27.6243ZM19.4444 24.7545C19.5835 24.5869 19.6761 24.3858 19.713 24.1713H19.7207C19.9305 24.275 20.1004 24.4449 20.2041 24.6547C20.423 24.9422 20.7002 25.1802 21.0175 25.353C21.1935 25.4923 21.3221 25.6826 21.3858 25.8978C20.7962 25.8978 20.4418 25.3999 20.2165 25.0833L20.2164 25.0832C20.1749 25.0249 20.1378 24.9727 20.1044 24.931C20.0091 24.8247 19.8978 24.734 19.7744 24.6624C19.713 25.2993 20.3115 25.729 20.7413 25.9976C20.9597 26.148 21.1132 26.3756 21.171 26.6345C19.8128 26.481 19.4444 24.7545 19.4444 24.7545ZM19.6133 27.0028C19.2905 26.647 19.017 26.2496 18.7999 25.8211H18.7845C18.6312 26.2727 18.3675 26.679 18.0172 27.0028C17.916 27.104 17.7332 27.2783 17.54 27.4625L17.5394 27.4631L17.5386 27.4638L17.5384 27.464C17.3218 27.6705 17.0923 27.8893 16.9506 28.031C17.4262 27.935 17.8682 27.7153 18.232 27.3941C18.4081 27.5079 18.6073 27.5814 18.8152 27.609C19.021 27.5732 19.2186 27.5004 19.3984 27.3941C19.7694 27.7044 20.2085 27.9227 20.6799 28.031C20.3806 27.7701 19.8281 27.2176 19.6133 27.0028ZM18.8008 27.7627C18.9673 27.752 19.1308 27.713 19.2843 27.6476C19.1846 27.9002 19.0173 28.1205 18.8008 28.2845C18.5971 28.1082 18.4324 27.8912 18.3174 27.6476C18.4709 27.713 18.6343 27.752 18.8008 27.7627ZM22.7756 27.1252L19.499 31.6832V31.6756L18.1024 29.0973L16.9744 30.8238L17.3044 31.0387L16.2761 31.407V30.3404L16.6061 30.5552L17.8876 28.5755L18.041 28.3069L19.5757 30.985L22.4686 26.9103L22.1387 26.6955L23.1055 26.3272V27.3938L22.7756 27.1252ZM20.0823 29.857L20.076 29.8472L20.2665 29.5578L19.6833 28.5295L19.5298 28.261L18.8929 29.389L19.1078 29.8187C19.2043 29.5887 19.3175 29.3974 19.4058 29.2479L19.4058 29.2479C19.4649 29.148 19.5129 29.0668 19.5375 29.0053L20.076 29.8472L20.0746 29.8494L20.0823 29.857ZM20.7729 30.1179L20.9878 30.4863L21.3177 30.2714V31.338L20.2895 30.9697L20.6194 30.7548L20.466 30.54L20.7729 30.1103V30.1179ZM27.3337 23.2041C27.0652 22.9356 26.6968 23.1427 26.2671 23.5725C25.8374 24.0022 25.5688 24.3398 25.8374 24.6007C26.106 24.8616 26.4743 24.6621 26.904 24.2708C27.3337 23.8794 27.5409 23.5034 27.3337 23.2041ZM19.4067 26.2736C19.89 27.0633 20.5729 27.7117 21.3864 28.1536H21.3941L21.5476 27.9617C20.8191 27.5278 20.1954 26.9383 19.7213 26.2352L19.6599 26.1201C19.6028 26.1491 19.5397 26.1642 19.4757 26.1642C19.4117 26.1642 19.3487 26.1491 19.2916 26.1201L19.4067 26.2736ZM22.1625 28.1539C22.1622 28.1538 22.1618 28.1537 22.1615 28.1536L22.1768 28.1382L22.1625 28.1539ZM22.1625 28.1539L21.9466 28.3915C22.4689 28.6112 23.0188 28.7583 23.581 28.8289C23.9009 28.878 24.2245 28.8986 24.5479 28.8902C24.5466 28.8618 24.5514 28.8333 24.5619 28.8068C24.5725 28.7804 24.5886 28.7565 24.6093 28.7368V28.5833C24.3037 28.5901 23.9981 28.5696 23.6961 28.5219C23.1779 28.4305 22.6658 28.3076 22.1625 28.1539ZM26.4663 28.4452H25.8984C25.7373 28.3838 25.7987 28.5603 25.837 28.5986C26.0408 28.7357 26.2536 28.8588 26.4739 28.967C26.5277 29.0284 26.6274 29.0284 26.7425 28.967C26.7921 28.9195 26.8313 28.8622 26.8577 28.7988C26.8841 28.7355 26.8971 28.6673 26.896 28.5986C26.7766 28.4962 26.6236 28.4415 26.4663 28.4452ZM25.745 28.6524C25.6316 28.6441 25.5178 28.6652 25.415 28.7137L25.3997 28.7214C25.4102 28.7721 25.4102 28.8242 25.3997 28.8749C25.4383 28.8991 25.5349 29.0147 25.6165 29.1122C25.6643 29.1695 25.7069 29.2205 25.7296 29.2432C25.8009 29.3148 25.8971 29.3561 25.9982 29.3583C26.0751 29.3664 26.152 29.3444 26.2131 29.2969C26.3282 29.2355 26.3895 29.1972 26.3281 29.0821C26.1543 28.9129 25.9581 28.7683 25.745 28.6524ZM25.5915 29.3353C25.5915 29.3353 25.3843 29.0667 25.3229 29.0053H25.3153C25.2918 28.9573 25.2581 28.9149 25.2166 28.8812C25.1751 28.8475 25.1267 28.8232 25.0748 28.8101C25.023 28.7969 24.9689 28.7952 24.9163 28.8051C24.8637 28.815 24.8139 28.8361 24.7704 28.8672C24.5939 28.9286 24.7704 29.1818 24.9239 29.2969C25.0879 29.3973 25.2764 29.4504 25.4687 29.4504H25.5301C25.5915 29.3967 25.5915 29.3353 25.5915 29.3353Z" fill="#66707C"/>
<path id="Subtract_2" fill-rule="evenodd" clip-rule="evenodd" d="M77.6117 0H40.0117V37.6H77.6117V0ZM70.9503 9.07807C72.5617 9.07807 73.26 9.81472 73.4135 11.2727H73.4212C73.4466 11.4095 73.5539 12.4597 73.6752 13.6465C73.8463 15.3213 74.0452 17.2681 74.0811 17.304H72.5464C72.5464 17.304 72.2164 13.4826 72.2164 13.3292H70.3364C70.3364 13.4673 70.183 17.304 70.183 17.304H68.6483L68.9168 9.07807H70.9503ZM70.3795 11.2491C70.3652 11.5647 70.3518 11.8609 70.3518 11.9326H72.0783C71.9632 10.6128 71.7484 10.3979 70.6817 10.3979H70.4132C70.4132 10.5042 70.3957 10.8893 70.3795 11.2491ZM52.8486 20.3734C54.46 20.3734 55.1583 21.1101 55.3118 22.568H55.3195C55.3457 22.6994 55.4592 23.8099 55.5853 25.043C55.7536 26.6899 55.9443 28.5555 55.9794 28.5994H54.4447C54.4447 28.5994 54.1147 24.778 54.1147 24.6245H52.2347C52.2347 24.7626 52.0813 28.5994 52.0813 28.5994H50.5466L50.8151 20.3734H52.8486ZM52.2778 22.5214C52.2635 22.837 52.2501 23.1332 52.2501 23.2049H53.9766C53.8615 21.8851 53.6466 21.6702 52.58 21.6702H52.3115C52.3115 21.7765 52.294 22.1616 52.2778 22.5214ZM44.1392 17.2887V9.07807H49.0349V17.2887H47.5002V10.3826H45.6739V17.2887H44.1392ZM59.2943 11.9326H60.077V9.07807H61.6117V17.2964H60.077V13.3215H59.0104C58.4495 13.3329 57.9039 13.1392 57.4757 12.7767C57.2701 12.6216 57.1051 12.4193 56.9938 12.1869C56.8833 11.9545 56.8304 11.6989 56.8388 11.4415V9.07807H58.3735V11.288C58.3689 11.3663 58.3804 11.4446 58.4065 11.5185C58.4326 11.5924 58.474 11.6601 58.527 11.7177C58.7533 11.8691 59.0219 11.9443 59.2943 11.9326ZM63.2615 10.4133V9.07807H67.2824V10.4133H66.0393V17.3194H64.5046V10.4133H63.2615ZM61.0515 22.9287V20.289L62.5862 20.2967V28.5226H61.0515V24.3329H58.9567V28.5226H57.4604V20.2967H58.9567V22.9287H61.0515ZM45.6509 23.0208H46.3492L46.3722 23.0515C48.7433 23.0515 49.0502 24.8777 49.1116 25.8062C49.1346 26.1674 49.0832 26.5295 48.9597 26.8697C48.8369 27.2099 48.6443 27.521 48.3949 27.7834C48.1455 28.0457 47.8447 28.2535 47.5109 28.394C47.1771 28.5345 46.8188 28.6044 46.4566 28.5994H44.1546V20.3734H48.3443V21.7086H45.6509V23.0208ZM45.6125 27.2182C45.6125 27.2182 46.0039 27.2795 46.1573 27.2795L46.1497 27.2872C46.5794 27.2872 47.5462 27.1875 47.5462 25.7909C47.5462 24.3281 46.714 24.3305 45.9673 24.3328C45.9384 24.3328 45.9097 24.3329 45.8811 24.3329H45.6125V27.2182ZM55.212 10.2521C55.5819 11.0825 55.7676 11.9829 55.7569 12.8918H55.7415V13.1604C55.7285 13.8284 55.6387 14.4927 55.4729 15.1401C55.0509 16.859 54.1377 17.4422 53.1095 17.4422H53.0481C52.0199 17.3884 51.1144 16.8053 50.6847 15.1401C50.4875 14.4993 50.3969 13.8305 50.4161 13.1604V12.8918C50.4092 11.9832 50.5949 11.0836 50.9609 10.2521C51.1367 9.84104 51.4282 9.49006 51.8004 9.24205C52.1726 8.99405 52.6084 8.85976 53.0558 8.85554H53.1172C53.5661 8.8517 54.0058 8.98277 54.3795 9.23177C54.7532 9.48078 55.0432 9.83629 55.212 10.2521ZM53.0328 10.2137C52.4496 10.2137 51.9048 10.9657 51.9048 13.1604C51.9662 15.2859 52.4496 16.0533 53.0328 16.0533C53.6159 16.0533 54.1608 15.3396 54.1608 13.1604C54.1608 10.9811 53.6159 10.2137 53.0328 10.2137ZM68.1802 23.673L70.0065 28.5073L68.5178 28.5226L66.9831 24.3329H66.07V28.5226H64.5353V20.3351H66.07V23.0361H66.6148C67.3515 23.0361 67.62 22.3148 67.6814 21.5014C67.7006 21.3069 67.7207 21.1202 67.7387 20.9536C67.7711 20.6535 67.7965 20.4184 67.7965 20.3197H69.3312C69.3312 20.3197 69.1777 21.8084 69.0626 22.3532C68.9245 22.8794 68.6137 23.3441 68.1802 23.673Z" fill="#66707C"/>
</g>
</svg>
