<svg width="180" height="46" viewBox="0 0 180 46" fill="none" xmlns="http://www.w3.org/2000/svg">
<g id="logo">
<path id="path" d="M65.1305 16.2703C65.1574 15.7582 65.2833 15.3958 65.5049 15.1742C65.7235 14.9555 66.053 14.8447 66.4932 14.8447H73.4715C74.3791 14.8447 74.8343 15.3209 74.8343 16.2703V29.3795C74.8343 29.5352 74.8073 29.637 74.7504 29.679C74.6935 29.7209 74.5857 29.7419 74.4299 29.7419H72.6209C72.4802 29.7419 72.3784 29.7209 72.3125 29.679C72.2496 29.637 72.2166 29.5352 72.2166 29.3795V17.1209H67.5145L67.3857 18.9748C67.2719 20.5622 67.158 21.9819 67.0382 23.2307C66.9185 24.4797 66.7119 25.5638 66.4153 26.4863C66.1218 27.4118 65.6905 28.1695 65.1275 28.7626C64.5644 29.3585 63.7828 29.8078 62.7913 30.1073C62.6506 30.1343 62.5338 30.1312 62.441 30.0953C62.3511 30.0593 62.2762 29.9635 62.2193 29.8078L61.7701 28.5498C61.7431 28.4211 61.7371 28.3163 61.7611 28.2324C61.7821 28.1455 61.8689 28.0677 62.0277 27.9988C62.6207 27.7412 63.0879 27.4147 63.4203 27.0164C63.7527 26.6211 64.0134 26.0879 64.1961 25.4231C64.3817 24.7552 64.5195 23.9196 64.6123 22.9222C64.7051 21.9219 64.8071 20.685 64.9208 19.2085L65.1305 16.2703Z" fill="#66707C"/>
<path id="path_2" d="M87.2582 24.1027C87.2582 25.9896 86.821 27.4392 85.9494 28.4545C85.0749 29.4668 83.7751 29.9759 82.044 29.9759C80.3278 29.9759 79.049 29.4818 78.2014 28.4964C77.3568 27.5111 76.9375 26.0675 76.9375 24.1656C76.9375 23.2312 77.0633 22.3986 77.3209 21.6768C77.5755 20.955 77.9319 20.344 78.3841 19.8468C78.8393 19.3497 79.3785 18.9723 80.0134 18.7088C80.6423 18.4481 81.3431 18.3164 82.1098 18.3164C83.796 18.3164 85.0779 18.8315 85.9524 19.8588C86.824 20.8861 87.2582 22.3027 87.2582 24.1027ZM84.7275 24.1656C84.7275 23.6535 84.6915 23.1653 84.6107 22.7101C84.5328 22.2518 84.398 21.8505 84.2063 21.5001C84.0147 21.1496 83.7541 20.8772 83.4187 20.6765C83.0863 20.4758 82.664 20.377 82.1518 20.377C81.6995 20.377 81.3012 20.4728 80.9597 20.6644C80.6213 20.8561 80.3368 21.1167 80.1092 21.4462C79.8816 21.7756 79.7169 22.1649 79.6091 22.6233C79.5042 23.0784 79.4503 23.5696 79.4503 24.0968C79.4503 25.2828 79.6419 26.2142 80.0223 26.8881C80.4057 27.568 81.0856 27.9064 82.0649 27.9064C82.5621 27.9064 82.9814 27.8046 83.3198 27.5949C83.6613 27.3913 83.9338 27.1157 84.1405 26.7713C84.3441 26.4298 84.4938 26.0345 84.5868 25.5852C84.6796 25.139 84.7275 24.6658 84.7275 24.1656Z" fill="#66707C"/>
<path id="path_3" d="M110.567 24.1027C110.567 25.9896 110.133 27.4392 109.258 28.4545C108.387 29.4668 107.084 29.9759 105.353 29.9759C103.636 29.9759 102.355 29.4818 101.51 28.4964C100.668 27.5111 100.246 26.0675 100.246 24.1656C100.246 23.2312 100.375 22.3986 100.629 21.6768C100.884 20.955 101.24 20.344 101.693 19.8468C102.145 19.3497 102.69 18.9723 103.322 18.7088C103.954 18.4481 104.655 18.3164 105.418 18.3164C107.108 18.3164 108.387 18.8315 109.261 19.8588C110.133 20.8861 110.567 22.3027 110.567 24.1027ZM108.039 24.1656C108.039 23.6535 107.997 23.1653 107.922 22.7101C107.841 22.2518 107.707 21.8505 107.518 21.5001C107.326 21.1496 107.06 20.8772 106.73 20.6765C106.398 20.4758 105.976 20.377 105.466 20.377C105.014 20.377 104.613 20.4728 104.274 20.6644C103.936 20.8561 103.651 21.1167 103.424 21.4462C103.196 21.7756 103.025 22.1649 102.921 22.6233C102.816 23.0784 102.762 23.5696 102.762 24.0968C102.762 25.2828 102.954 26.2142 103.334 26.8881C103.72 27.568 104.397 27.9064 105.377 27.9064C105.874 27.9064 106.293 27.8046 106.634 27.5949C106.973 27.3913 107.245 27.1157 107.455 26.7713C107.659 26.4298 107.809 26.0345 107.898 25.5852C107.991 25.139 108.039 24.6658 108.039 24.1656Z" fill="#66707C"/>
<path id="path_4" d="M114.242 29.7419C113.787 29.7419 113.475 29.6491 113.304 29.4633C113.134 29.2806 113.047 28.9752 113.047 28.5498V16.2913C113.047 15.3269 113.499 14.8447 114.41 14.8447H122.433C122.589 14.8447 122.688 14.8777 122.73 14.9406C122.775 15.0035 122.792 15.1143 122.792 15.27V16.7166C122.792 16.8574 122.775 16.9562 122.73 17.0131C122.688 17.07 122.589 17.097 122.433 17.097H115.665V20.3945H119.157C119.965 20.3945 120.651 20.4753 121.217 20.6401C121.786 20.8018 122.263 21.0205 122.655 21.29C123.044 21.5596 123.355 21.8621 123.592 22.1945C123.826 22.5269 124.006 22.8714 124.126 23.2278C124.245 23.5811 124.323 23.9226 124.359 24.249C124.392 24.5755 124.413 24.866 124.413 25.1206C124.413 25.7855 124.282 26.4054 124.018 26.9715C123.757 27.5376 123.398 28.0287 122.945 28.439C122.493 28.8494 121.96 29.1669 121.349 29.3975C120.741 29.6251 120.088 29.7359 119.393 29.7359H114.242V29.7419ZM121.711 24.9618C121.711 24.2849 121.496 23.719 121.061 23.2577C120.628 22.7995 120.001 22.5689 119.178 22.5689H115.665V27.3998H119.135C119.645 27.3998 120.064 27.3189 120.391 27.1542C120.717 26.9924 120.977 26.7918 121.179 26.5492C121.379 26.3096 121.513 26.0461 121.594 25.7555C121.672 25.471 121.711 25.2045 121.711 24.9618Z" fill="#66707C"/>
<path id="path_5" d="M135.651 28.5264C135.651 28.8678 135.516 29.1044 135.246 29.2272C134.932 29.371 134.596 29.4908 134.234 29.5896C133.871 29.6914 133.497 29.7663 133.117 29.8232C132.737 29.8802 132.353 29.922 131.976 29.94C131.602 29.964 131.242 29.9759 130.904 29.9759C129.967 29.9759 129.19 29.8771 128.574 29.6885C127.954 29.4968 127.465 29.2391 127.103 28.9217C126.74 28.6013 126.489 28.2269 126.348 27.7925C126.205 27.3583 126.133 26.9031 126.133 26.4179C126.133 25.9237 126.217 25.4445 126.379 24.9832C126.54 24.522 126.809 24.1177 127.175 23.7703C127.543 23.4229 128.026 23.1413 128.613 22.9287C129.202 22.7161 129.921 22.6112 130.772 22.6112H133.156V22.2489C133.156 21.9793 133.129 21.7307 133.072 21.5031C133.015 21.2785 132.905 21.0778 132.74 20.9071C132.578 20.7363 132.353 20.6075 132.072 20.5147C131.791 20.4219 131.419 20.377 130.967 20.377C130.481 20.377 129.958 20.4189 129.391 20.5028C128.822 20.5896 128.361 20.6884 128.007 20.8023C127.852 20.8442 127.738 20.8532 127.666 20.8232C127.594 20.7963 127.546 20.7184 127.519 20.5896L127.223 19.3796C127.166 19.152 127.229 19.0052 127.412 18.9333C128.007 18.7088 128.66 18.547 129.37 18.4542C130.08 18.3643 130.748 18.3164 131.371 18.3164C132.847 18.3164 133.929 18.6429 134.614 19.2958C135.306 19.9486 135.648 20.8981 135.648 22.147V28.5264H135.651ZM133.138 24.507H131.095C130.855 24.507 130.593 24.522 130.317 24.549C130.042 24.5789 129.778 24.6568 129.529 24.7826C129.28 24.9084 129.074 25.0941 128.912 25.3367C128.75 25.5793 128.667 25.9117 128.667 26.337C128.667 26.948 128.873 27.3733 129.28 27.6129C129.694 27.8555 130.239 27.9752 130.919 27.9752C131.02 27.9752 131.156 27.9723 131.332 27.9633C131.509 27.9543 131.698 27.9393 131.898 27.9094C132.096 27.8795 132.305 27.8465 132.524 27.8015C132.743 27.7597 132.946 27.7028 133.132 27.6338V24.507H133.138Z" fill="#66707C"/>
<path id="path_6" d="M140.781 29.6659C140.709 29.7138 140.59 29.7408 140.422 29.7408H138.882C138.726 29.7408 138.613 29.7108 138.534 29.654C138.459 29.5971 138.418 29.4832 138.418 29.3155V18.9738C138.418 18.818 138.456 18.7102 138.534 18.6533C138.613 18.5964 138.729 18.5664 138.882 18.5664H140.422C140.59 18.5664 140.709 18.5934 140.781 18.6413C140.853 18.6893 140.886 18.8001 140.886 18.9707V22.7564H145.591V18.9738C145.591 18.818 145.63 18.7102 145.708 18.6533C145.782 18.5964 145.9 18.5664 146.059 18.5664H147.609C147.795 18.5664 147.915 18.5934 147.972 18.6413C148.029 18.6893 148.059 18.8001 148.059 18.9707V29.3126C148.059 29.4982 148.029 29.615 147.972 29.6629C147.915 29.7108 147.795 29.7378 147.609 29.7378H146.059C145.9 29.7378 145.782 29.7079 145.708 29.651C145.627 29.594 145.591 29.4802 145.591 29.3126V24.781H140.886V29.3126C140.886 29.5012 140.853 29.618 140.781 29.6659Z" fill="#66707C"/>
<path id="path_7" d="M161.052 29.3484L157.446 23.8167L160.695 18.9917C160.755 18.9199 160.767 18.821 160.732 18.7372C160.695 18.6533 160.609 18.5964 160.519 18.5964H158.311C158.243 18.5964 158.18 18.6264 158.135 18.6803L155.28 22.8014H153.268V18.9079C153.268 18.7522 153.241 18.6533 153.184 18.6203C153.128 18.5844 153.029 18.5664 152.885 18.5664H151.181C151.052 18.5664 150.959 18.5844 150.893 18.6203C150.83 18.6533 150.797 18.7491 150.797 18.9079V29.3994C150.797 29.5551 150.83 29.6479 150.893 29.6868C150.956 29.7198 151.052 29.7408 151.181 29.7408H152.885C153.029 29.7408 153.128 29.7228 153.184 29.6868C153.241 29.651 153.268 29.5551 153.268 29.3994V24.7392H155.143L158.42 29.654C158.467 29.7079 158.53 29.7438 158.603 29.7438H160.872C160.965 29.7438 161.049 29.6899 161.088 29.6061C161.124 29.5191 161.112 29.4203 161.052 29.3484Z" fill="#66707C"/>
<path id="path_8" d="M99.6181 29.3484L96.0092 23.8167L99.2558 18.9917C99.3187 18.9199 99.3336 18.821 99.2917 18.7372C99.2558 18.6533 99.1719 18.5964 99.079 18.5964H96.8748C96.8058 18.5964 96.74 18.6264 96.698 18.6803L93.8408 22.8014H91.8312V18.9079C91.8312 18.7522 91.8013 18.6533 91.7443 18.6203C91.6874 18.5844 91.5886 18.5664 91.4478 18.5664H89.7467C89.6179 18.5664 89.5221 18.5844 89.4592 18.6203C89.3963 18.6533 89.3633 18.7491 89.3633 18.9079V29.3994C89.3633 29.5551 89.3963 29.6479 89.4592 29.6868C89.5221 29.7198 89.6179 29.7408 89.7467 29.7408H91.4478C91.5916 29.7408 91.6904 29.7228 91.7443 29.6868C91.8013 29.651 91.8312 29.5551 91.8312 29.3994V24.7392H93.7061L96.9856 29.654C97.0305 29.7079 97.0964 29.7438 97.1683 29.7438H99.4385C99.5283 29.7438 99.6122 29.6899 99.6511 29.6061C99.684 29.5191 99.6751 29.4203 99.6181 29.3484Z" fill="#66707C"/>
<path id="path_9" d="M44.6495 39.1998H25.5473C21.8815 39.1998 18.8984 36.2168 18.8984 32.5509V13.4487C18.8984 9.78283 21.8815 6.7998 25.5473 6.7998H44.6495C48.3154 6.7998 51.2954 9.78283 51.2954 13.4487V32.5509C51.2984 36.2168 48.3154 39.1998 44.6495 39.1998ZM25.5473 7.27002C22.139 7.27002 19.3687 10.0404 19.3687 13.4487V32.5509C19.3687 35.9562 22.139 38.7266 25.5473 38.7266H44.6495C48.0548 38.7266 50.8252 35.9532 50.8252 32.5509V13.4487C50.8252 10.0404 48.0548 7.27002 44.6495 7.27002H25.5473Z" fill="#66707C"/>
<path id="path_10" d="M33.4296 11.5176C33.9238 11.2301 34.4629 11.0863 34.9989 11.0684C33.8758 11.1013 32.7977 11.6973 32.1956 12.7426L22.5038 29.5235C21.5783 31.1289 22.1294 33.1775 23.7317 34.103C25.3341 35.0284 27.3857 34.4803 28.3081 32.878L35.1007 21.1136L32.2046 16.097C31.2792 14.4916 31.8273 12.4431 33.4296 11.5176Z" fill="#66707C"/>
<path id="path_11" d="M47.6976 29.5235L38.0088 12.7455C37.4038 11.7002 36.3256 11.1042 35.2024 11.0713C35.7356 11.0863 36.2747 11.233 36.7689 11.5205C38.3712 12.446 38.9223 14.4946 37.9938 16.0969L35.0977 21.1135L41.8903 32.8779C42.8157 34.4802 44.8643 35.0283 46.4667 34.1029C48.075 33.1774 48.6231 31.1288 47.6976 29.5235Z" fill="#66707C"/>
<path id="path_12" d="M36.7721 11.5176C36.2779 11.2301 35.7388 11.0863 35.2057 11.0684H35.1848H35.02H35.0021C34.4659 11.0833 33.9298 11.2301 33.4326 11.5176C31.8303 12.4431 31.2822 14.4916 32.2077 16.094L35.1039 21.1106L38 16.094C38.9225 14.4916 38.3744 12.4431 36.7721 11.5176Z" fill="#66707C"/>
<path id="path_13" d="M38.5499 31.2216C38.5499 33.1295 37.0075 34.6689 35.1026 34.6689C33.1978 34.6689 31.6523 33.1264 31.6523 31.2216C31.6523 29.3198 33.1948 27.7744 35.0996 27.7744C37.0044 27.7744 38.5499 29.3198 38.5499 31.2216Z" fill="#66707C"/>
</g>
</svg>
