<svg width="180" height="46" viewBox="0 0 180 46" fill="none" xmlns="http://www.w3.org/2000/svg">
<g id="logo">
<path id="path" d="M46.2142 6.7998L44.6591 11.0656H66.2023L67.7574 6.7998H46.2142ZM43.8824 13.1967L42.3273 17.4615H63.8705L65.4256 13.1967H43.8824ZM41.5551 19.5935L40 23.8575H61.5432L63.0965 19.5926C63.0974 19.5935 41.5551 19.5935 41.5551 19.5935Z" fill="#66707C"/>
<path id="path_2" d="M85.2909 25.1966V25.2852C86.2583 25.6405 87.1832 26.2626 87.667 26.6622C89.1624 27.9063 89.8234 29.5492 89.8234 31.6812C89.8234 35.192 87.9753 37.7227 84.9382 38.5229C84.0133 38.7896 83.0459 38.8782 81.2421 38.8782H72.0469V13.2021H80.1878C81.8605 13.2021 83.0034 13.2908 84.0151 13.5566C86.9635 14.3567 88.9002 16.4001 88.9002 19.6424C88.9002 21.3757 88.2845 22.8422 87.2728 23.8187C86.8324 24.2626 86.2167 24.7961 85.2927 25.1957L85.2909 25.1966ZM77.1508 27.9063V34.6585H80.6716C81.7267 34.6585 82.696 34.5699 83.3994 33.9036C84.1037 33.2372 84.4111 32.3927 84.4111 31.2824C84.4111 30.4398 84.1905 29.6396 83.7511 29.0618C83.0034 28.1288 82.0784 27.9063 80.4952 27.9063H77.1499H77.1508ZM77.1056 23.4633H79.9663C80.8461 23.4633 81.2864 23.4633 81.7258 23.3304C82.9148 22.9742 83.6625 21.91 83.6625 20.4435C83.6625 18.7111 82.8705 17.9553 81.7258 17.6008C81.2412 17.467 80.7584 17.4236 79.79 17.4236H77.1056V23.4643V23.4633ZM97.4797 38.8791V17.5113H90.1317V13.2031H110.55L109.098 17.5113H102.585V38.8791H97.4797ZM112.134 38.8791V13.2031H128.68L127.228 17.5113H117.196V23.1984H121.289C124.589 23.1984 126.305 23.9986 127.494 25.0194C128.419 25.8196 130.002 27.5953 130.002 31.1061C130.002 34.5708 128.375 36.4804 127.009 37.4587C125.425 38.5681 123.753 38.88 120.364 38.88H112.135H112.134V38.8791ZM117.195 34.569H121.023C122.475 34.569 123.355 34.2137 123.97 33.4135C124.278 33.0148 124.718 32.3023 124.718 30.9705C124.718 29.6387 124.278 28.7047 123.398 28.0383C122.871 27.6396 122.166 27.4181 120.978 27.4181H117.193V34.569H117.195Z" fill="#66707C"/>
</g>
</svg>
