<svg width="180" height="46" viewBox="0 0 180 46" fill="none" xmlns="http://www.w3.org/2000/svg">
<g id="logo">
<path id="path" d="M48.6016 13.9996C48.6016 19.4896 53.0116 23.8996 58.5016 23.8996C63.9916 23.8996 68.4016 19.4896 68.4016 13.9996C68.4016 8.59961 63.9916 4.09961 58.5016 4.09961C53.0116 4.09961 48.6016 8.50961 48.6016 13.9996ZM48.6016 29.1196C48.6016 30.5596 53.0116 31.7296 58.5016 31.7296C63.9916 31.7296 68.4016 30.5596 68.4016 29.1196C68.4016 27.6796 63.9916 26.5096 58.5016 26.5096C53.0116 26.4196 48.6016 27.5896 48.6016 29.1196ZM58.5016 34.3396C65.6116 34.3396 68.4016 35.0596 68.4016 35.9596C68.4016 36.9496 65.6116 37.5796 58.5016 37.5796C51.3916 37.5796 48.6016 36.8596 48.6016 35.9596C48.6016 35.0596 51.3916 34.3396 58.5016 34.3396ZM58.5016 40.2796C67.2316 40.2796 68.4016 40.4596 68.4016 40.9096C68.4016 41.3596 67.3216 41.5396 58.5016 41.5396C49.7716 41.5396 48.6016 41.3596 48.6016 40.9096C48.6016 40.4596 49.6816 40.2796 58.5016 40.2796Z" fill="#66707C"/>
<path id="path_2" d="M58.4978 41.7207C48.8678 41.7207 48.5078 41.4507 48.5078 40.9107C48.5078 40.2807 49.3178 40.1007 58.4978 40.1007C67.6778 40.1007 68.4878 40.2807 68.4878 40.9107C68.4878 41.4507 68.0378 41.7207 58.4978 41.7207ZM58.4978 40.3707C51.2078 40.3707 48.7778 40.4607 48.7778 40.9107C48.7778 41.3607 51.2078 41.4507 58.4978 41.4507C65.7878 41.4507 68.2178 41.3607 68.2178 40.9107C68.2178 40.4607 65.6978 40.3707 58.4978 40.3707ZM58.4978 37.7607C51.8378 37.7607 48.5078 37.1307 48.5078 35.9607C48.5078 34.7907 51.8378 34.1607 58.4978 34.1607C65.1578 34.1607 68.4878 34.7907 68.4878 35.9607C68.4878 37.1307 65.0678 37.7607 58.4978 37.7607ZM58.4978 34.4307C49.6778 34.4307 48.7778 35.5107 48.7778 35.9607C48.7778 36.4107 49.7678 37.4907 58.4978 37.4907C67.2278 37.4907 68.2178 36.4107 68.2178 35.9607C68.2178 35.5107 67.2278 34.4307 58.4978 34.4307ZM58.4978 31.8207C52.9178 31.8207 48.5078 30.6507 48.5078 29.0307C48.5078 27.4107 52.9178 26.2407 58.4978 26.2407C64.0778 26.2407 68.4878 27.4107 68.4878 29.0307C68.4878 30.6507 64.0778 31.8207 58.4978 31.8207ZM58.4978 26.6007C52.6478 26.6007 48.7778 27.8607 48.7778 29.1207C48.7778 30.3807 52.6478 31.6407 58.4978 31.6407C64.3478 31.6407 68.2178 30.3807 68.2178 29.1207C68.2178 27.8607 64.2578 26.6007 58.4978 26.6007ZM58.4978 23.9907C53.0078 23.9907 48.5078 19.4907 48.5078 14.0007C48.5078 8.51074 52.9178 4.01074 58.4978 4.01074C64.0778 4.01074 68.4878 8.51074 68.4878 14.0007C68.4878 19.4907 63.9878 23.9907 58.4978 23.9907ZM58.4978 4.28074C53.0978 4.28074 48.6878 8.60074 48.6878 14.0007C48.6878 19.4007 53.0978 23.7207 58.4978 23.7207C63.8978 23.7207 68.2178 19.3107 68.2178 14.0007C68.2178 8.69074 63.8078 4.28074 58.4978 4.28074Z" fill="#66707C"/>
<path id="path_3" d="M80.0984 28.5807C80.9084 28.5807 81.8984 28.8507 82.6184 29.2107L82.9784 31.3707H84.1484V28.2207C83.3384 27.9507 81.9884 27.5007 80.2784 27.5007C77.7584 27.5007 76.1384 28.3107 75.1484 29.2107C73.9784 30.2907 72.8984 32.0007 72.8984 34.6107C72.8984 37.4007 74.1584 39.0207 74.7884 39.7407C76.4084 41.4507 78.3884 41.9007 80.0084 41.9007C81.3584 41.9007 82.7984 41.6307 84.0584 41.1807V37.9407H82.8884L82.3484 40.5507C81.7184 40.7307 80.9084 40.8207 80.2784 40.8207C78.1184 40.8207 76.9484 39.8307 76.2284 39.0207C75.5084 38.1207 74.9684 36.6807 74.9684 34.7007C74.9684 33.0807 75.4184 31.3707 76.4084 30.2007C77.2184 29.3907 78.3884 28.5807 80.0984 28.5807ZM97.2884 29.0307C98.6384 30.2907 99.5384 32.2707 99.5384 34.6107C99.5384 36.7707 98.8184 38.6607 97.6484 39.8307C96.7484 40.8207 95.2184 41.9007 92.8784 41.9007C90.7184 41.9007 89.1884 41.0007 88.1084 39.9207C87.2984 39.1107 86.2184 37.4007 86.2184 34.6107C86.2184 31.7307 87.3884 30.0207 88.5584 29.0307C89.3684 28.3107 90.8084 27.4107 92.9684 27.4107C94.8584 27.4107 96.2084 28.1307 97.2884 29.0307ZM89.9984 29.7507C89.0084 30.8307 88.3784 32.6307 88.3784 34.6107C88.3784 35.4207 88.4684 37.4007 89.5484 39.0207C90.5384 40.4607 91.8884 40.8207 92.8784 40.8207C93.5984 40.8207 95.0384 40.6407 96.1184 39.1107C97.2884 37.5807 97.3784 35.5107 97.3784 34.7007C97.3784 32.5407 96.8384 30.8307 95.8484 29.7507C94.7684 28.5807 93.4184 28.4907 92.8784 28.4907C91.4384 28.4907 90.5384 29.1207 89.9984 29.7507ZM117.988 29.0307C117.178 28.3107 115.828 27.4107 113.758 27.4107C111.958 27.4107 110.518 28.0407 109.438 29.0307C107.728 30.5607 107.368 32.8107 107.278 34.0707H104.398V28.6707L106.018 28.5807V27.7707H100.978V28.5807L102.508 28.6707V40.5507L100.978 40.6407V41.4507H106.018V40.6407L104.398 40.5507V34.9707H107.278C107.368 37.0407 108.178 38.8407 109.078 39.8307C109.888 40.7307 111.418 41.8107 113.668 41.8107C116.008 41.8107 117.538 40.7307 118.348 39.7407C119.428 38.4807 120.148 36.6807 120.148 34.5207C120.148 32.1807 119.338 30.2907 117.988 29.0307ZM116.818 39.1107C116.008 40.1907 114.838 40.8207 113.668 40.8207C112.678 40.8207 111.328 40.4607 110.428 39.0207C109.618 37.8507 109.348 36.1407 109.348 34.6107C109.348 32.9907 109.798 30.9207 110.878 29.7507C111.598 29.0307 112.498 28.4907 113.848 28.4907C114.928 28.4907 115.828 28.8507 116.638 29.7507C117.718 31.0107 118.078 32.9907 118.078 34.7007C117.988 36.2307 117.628 37.9407 116.818 39.1107ZM124.828 33.8907V35.1507L126.628 34.9707C127.348 34.9707 128.608 35.0607 129.328 35.8707C129.688 36.2307 130.048 36.9507 130.048 37.8507C130.048 38.7507 129.778 39.5607 128.878 40.1907C128.068 40.7307 127.078 40.8207 126.268 40.8207C125.368 40.8207 124.558 40.5507 123.928 40.1907L123.568 37.5807H122.398V41.1807C124.288 41.8107 125.908 41.8107 126.358 41.8107C127.618 41.8107 129.418 41.5407 130.588 40.7307C131.758 39.9207 132.208 38.8407 132.208 37.4907C132.208 36.6807 131.938 35.7807 131.218 35.1507C130.498 34.5207 129.508 34.2507 128.608 34.1607C129.328 33.9807 130.138 33.6207 130.678 33.0807C131.398 32.3607 131.578 31.6407 131.578 31.0107C131.578 29.5707 130.858 28.6707 130.048 28.2207C129.058 27.6807 127.888 27.5907 126.718 27.5907C125.998 27.5907 124.738 27.5907 122.938 28.1307V31.2807H124.108L124.378 29.0307C125.188 28.6707 126.088 28.4907 126.718 28.4907C127.528 28.4907 128.158 28.6707 128.788 29.2107C129.238 29.6607 129.598 30.2907 129.598 31.1907C129.598 32.0007 129.328 32.7207 128.608 33.2607C128.068 33.7107 127.438 33.8907 126.808 33.9807C126.538 33.9807 124.828 33.8907 124.828 33.8907ZM82.1684 15.3507C81.0884 14.6307 79.8284 14.5407 78.5684 14.5407C78.2984 14.5407 77.3984 14.5407 76.2284 14.6307V9.68074H81.5384L81.8984 11.7507H83.0684V8.69074H72.8984V9.50074L74.4284 9.59074V21.4707L72.8984 21.6507V22.4607H78.2984C79.3784 22.4607 81.1784 22.3707 82.3484 21.3807C83.5184 20.4807 83.6984 19.3107 83.6984 18.5007C83.6984 17.0607 83.2484 16.0707 82.1684 15.3507ZM80.8184 20.7507C80.0084 21.5607 78.6584 21.5607 77.7584 21.5607C77.2184 21.5607 76.7684 21.5607 76.2284 21.4707V15.6207C76.8584 15.5307 77.5784 15.4407 78.2984 15.4407C79.1984 15.4407 80.1884 15.5307 80.9084 16.2507C81.5384 16.9707 81.6284 17.8707 81.6284 18.4107C81.7184 19.1307 81.5384 20.1207 80.8184 20.7507ZM98.0084 21.3807L93.0584 8.51074H91.7084L86.8484 21.3807L85.1384 21.6507V22.4607H89.6384V21.6507L88.0184 21.5607L89.5484 17.3307H94.4084L96.0284 21.5607L94.4984 21.6507V22.4607H99.1784V21.6507L98.0084 21.3807ZM89.9984 16.4307L92.0684 10.7607L94.1384 16.4307H89.9984ZM115.648 9.59074V8.69074H110.608V9.50074L112.228 9.59074V14.9907H105.118V9.59074L106.738 9.50074V8.69074H101.698V9.50074L103.228 9.59074V21.4707L101.698 21.5607V22.3707H106.738V21.5607L105.118 21.4707V15.8907H112.228V21.4707L110.608 21.5607V22.3707H115.648V21.5607L114.118 21.4707V9.68074L115.648 9.59074ZM130.498 21.5607L125.818 14.8107L130.138 9.68074L131.488 9.50074V8.69074H127.168V9.50074L128.608 9.59074L124.108 15.0807H122.578V9.59074L124.198 9.50074V8.69074H119.158V9.50074L120.688 9.59074V21.4707L119.158 21.5607V22.3707H124.198V21.5607L122.578 21.4707V15.8907H124.288L128.878 22.3707H131.848V21.5607H130.498Z" fill="#66707C"/>
</g>
</svg>
