<svg width="180" height="46" viewBox="0 0 180 46" fill="none" xmlns="http://www.w3.org/2000/svg">
<g id="logo">
<path id="Union" fill-rule="evenodd" clip-rule="evenodd" d="M17 23.4469C17.0059 19.6173 18.5298 15.9461 21.238 13.238C23.9494 10.5265 27.6262 9.00228 31.4607 9V14.2365C29.6315 14.24 27.8444 14.7862 26.3258 15.806C24.8072 16.8258 23.6255 18.2734 22.9303 19.9653C22.235 21.6573 22.0575 23.5176 22.4201 25.3105C22.7829 27.1034 23.6696 28.7483 24.9679 30.0369C26.2661 31.3256 27.9177 32.1999 29.7133 32.5493C31.5089 32.8986 33.3676 32.7072 35.0544 31.9993C36.7411 31.2914 38.1798 30.0989 39.1883 28.5727C40.1967 27.0466 40.7296 25.2555 40.7194 23.4263H45.9559C45.9559 27.2661 44.4306 30.9486 41.7154 33.6637C39.0003 36.3788 35.3177 37.9042 31.4779 37.9042C27.6381 37.9042 23.9556 36.3788 21.2405 33.6637C18.5302 30.9534 17.0055 27.2792 17 23.4469ZM17 23.4469L17 23.4607V23.4263L17 23.4469ZM35.9479 15.3298C35.9514 14.604 36.1695 13.8953 36.5749 13.2932C36.9803 12.6911 37.5549 12.2224 38.2261 11.9462C38.8974 11.67 39.6354 11.5986 40.3472 11.741C41.0589 11.8835 41.7127 12.2333 42.226 12.7466C42.7393 13.2599 43.0891 13.9136 43.2316 14.6254C43.374 15.3372 43.3027 16.0752 43.0265 16.7465C42.7502 17.4178 42.2816 17.9923 41.6794 18.3978C41.0773 18.8032 40.3686 19.0212 39.6428 19.0247C39.1573 19.0258 38.6763 18.9311 38.2274 18.7457C37.7787 18.5605 37.3709 18.2884 37.0276 17.945C36.6843 17.6017 36.4121 17.194 36.2269 16.7452C36.0416 16.2964 35.9468 15.8153 35.9479 15.3298ZM26.1678 19.9003C25.4637 20.9541 25.0878 22.1929 25.0878 23.4603C25.0902 25.159 25.766 26.7875 26.9672 27.9887C28.1684 29.19 29.7969 29.8658 31.4957 29.8681C32.763 29.8681 34.002 29.4923 35.0557 28.7882C36.1095 28.0841 36.9308 27.0833 37.4158 25.9125C37.9008 24.7416 38.0276 23.4531 37.7804 22.2101C37.5332 20.9672 36.9229 19.8254 36.0267 18.9292C35.1306 18.0331 33.9888 17.4228 32.7458 17.1756C31.5028 16.9283 30.2144 17.0552 29.0436 17.5402C27.8727 18.0251 26.8719 18.8465 26.1678 19.9003ZM148.956 18.9906L148.516 21.1869C148.303 22.1466 148.116 22.9766 147.947 23.7289C147.275 26.7101 146.879 28.4717 146.191 32.2542L145.967 32.435L143.073 32.5039L142.927 32.3231L144.098 27.4138L144.425 25.8033H138.233C137.846 27.4807 137.546 29.0177 137.103 31.2867L137.103 31.2869L136.915 32.2456L136.691 32.4264L133.797 32.4953L133.651 32.3145L134.822 27.4052L135.296 25.2865C135.879 22.9219 136.33 20.5267 136.648 18.1121L136.829 17.9313C137.839 17.8124 138.842 17.6428 139.835 17.4231L139.981 17.604L139.688 19.0337L139.301 21.2213L138.827 23.3056H145.054C145.441 21.5617 145.592 20.5799 145.92 18.4467L145.967 18.138L146.148 17.9571C147.158 17.8413 148.162 17.6717 149.154 17.4489L149.3 17.6298L149.007 18.982L148.956 18.9906ZM114.074 25.364C114.271 24.5598 114.38 23.737 114.402 22.9094C114.402 20.0155 112.533 19.5418 111.473 19.5418C106.969 19.5418 106.418 26.4923 106.418 27.5602C106.418 29.834 107.77 30.8589 109.346 30.8589C112.386 30.8589 113.523 27.7153 114.066 25.3726L114.074 25.364ZM117.028 26.2856C116.408 28.7402 114.651 32.9862 109.277 32.9862C105.47 32.9862 103.386 31.0053 103.386 27.1296C103.389 26.5795 103.426 26.0301 103.498 25.4846C103.503 25.3359 103.526 25.1884 103.567 25.0453C104.592 18.5858 107.374 12.445 113.523 12.445C114.726 12.434 115.926 12.31 117.106 12.0746L116.701 14.6584C115.391 14.9451 114.055 15.0923 112.714 15.0977C112.194 15.0862 111.678 15.1777 111.195 15.3669C110.712 15.5561 110.27 15.8393 109.897 16.2001C109.621 16.4767 109.375 16.7828 109.165 17.1131C109.002 17.3529 108.866 17.6099 108.76 17.8796C109.639 17.6061 110.553 17.4696 111.473 17.4748C115.211 17.4748 117.442 19.5591 117.442 23.2539C117.432 24.28 117.295 25.3011 117.037 26.2942L117.028 26.2856ZM153.865 23.6415C154.477 23.128 154.83 22.7866 155.552 22.0892L155.88 21.7725C156.836 20.851 159.325 18.3274 159.765 17.8193L160.092 17.6384H163.348L163.425 17.8968C163.281 18.0235 163.173 18.1129 162.966 18.2838L162.966 18.2841C162.75 18.4618 162.428 18.7276 161.849 19.2145C161.6 19.4246 161.398 19.6069 161.169 19.8134L161.169 19.8136C160.994 19.9712 160.804 20.1427 160.566 20.3514L156.871 23.7965L161.298 32.1767L161.117 32.392L157.965 32.4695L157.741 32.2886C157.068 30.7058 156.824 30.2065 156.001 28.5189L155.768 28.0426L153.796 24.0118L153.628 24.7666C153.098 27.1384 152.706 28.8924 152.074 32.2111L151.893 32.392L148.999 32.4695L148.852 32.2886L150.024 27.388L150.463 25.2693C151.046 22.9047 151.497 20.5095 151.815 18.0949L151.996 17.914C153.006 17.7983 154.01 17.6286 155.002 17.4059L155.148 17.5867L154.855 19.0165L154.416 21.2127L153.865 23.6415ZM128.716 28.8091C128.422 29.0844 128.102 29.3296 127.76 29.5412C127.005 29.982 126.145 30.2083 125.271 30.1957C122.687 30.1957 121.938 27.9995 121.938 26.6473C121.977 25.5066 122.271 24.3891 122.797 23.3759C123.323 22.3628 124.068 21.4797 124.978 20.7907C126.326 19.9485 127.894 19.5286 129.482 19.5849H130.766L128.716 28.8091ZM134.133 17.6729L133.987 17.4489H130.068C127.433 17.4489 123.772 17.6298 121.102 20.7476C119.701 22.4851 118.903 24.6315 118.829 26.8626C118.829 30.411 121.206 32.4609 124.1 32.4609C125.624 32.5136 127.111 31.991 128.268 30.9967L128.104 32.0991L128.251 32.3145L130.921 32.2369L131.145 32.0561C131.73 28.611 131.911 27.5861 132.867 23.1936L134.133 17.6729ZM52.9838 24.7695C51.3733 31.9095 55.8002 32.8999 58.9094 32.8999C63.8531 32.8999 67.5479 30.6692 68.9432 24.6231C69.4169 22.4699 70.5193 16.3894 63.0865 16.3894C55.4385 16.3894 53.604 22.0996 52.9838 24.7695ZM63.7411 24.5456C63.0865 27.4395 62.0616 29.7132 59.8998 29.7132V29.7218C57.4797 29.7218 57.6347 27.2672 58.2204 24.5456C58.8749 21.6603 59.8654 19.4986 62.0961 19.4986C64.6971 19.4986 64.2148 22.4958 63.7411 24.5456ZM72.2677 32.5382H77.0305L77.0649 32.5812L77.3233 32.3229C77.5817 30.8156 78.0554 28.4988 78.6411 25.915C79.1369 23.7498 79.5094 22.1801 79.7518 21.1588C79.8883 20.5836 79.9836 20.1823 80.0363 19.9464H83.8087L84.1015 19.7656C84.2824 18.999 84.6785 17.5349 84.9025 16.8372L84.6786 16.6908C84.0584 16.7253 81.199 16.8028 78.2363 16.8028C76.6999 16.8028 74.9137 16.7716 73.6091 16.7487C72.8585 16.7356 72.2673 16.7253 71.9748 16.7253L71.7164 16.8717C71.5356 17.6727 71.1738 19.0335 70.9499 19.8L71.0963 20.0239C72.0093 19.9464 73.8438 19.9464 75.0496 19.9464C74.9972 20.1842 74.9311 20.489 74.8531 20.8486C74.5978 22.0262 74.2149 23.7925 73.7663 25.7255C73.0773 28.8778 72.4141 31.4444 72.1212 32.3918L72.2677 32.5382ZM93.5927 20.3082H93.653H95.9009C95.767 20.8543 95.5167 21.993 95.2243 23.3228C95.0464 24.1319 94.8529 25.0118 94.6607 25.872C94.0233 28.8692 93.4204 31.2893 93.162 32.3143L93.3085 32.5296H98.1746L98.3986 32.3487C98.4412 32.1498 98.5082 31.8271 98.5948 31.4098C98.8759 30.0558 99.3639 27.7055 99.8972 25.3552C100.767 21.5484 101.646 17.7071 101.869 16.8975L101.723 16.7167C101.056 16.7167 100.148 16.7361 99.0873 16.7587C97.5994 16.7905 95.812 16.8286 93.9716 16.8286C91.5335 16.8286 89.984 16.7997 88.7798 16.7771C88.0145 16.7628 87.3886 16.7511 86.7628 16.7511L86.5561 16.8975C86.4708 17.2628 86.3164 18.0057 86.115 18.9748C85.8083 20.4506 85.3926 22.4511 84.9455 24.4423C84.2048 27.7409 83.4039 31.1085 83.111 32.3143L83.2919 32.4951H88.1236L88.4165 32.3143C88.5675 31.5763 88.8833 30.1523 89.2632 28.4389C89.4463 27.6127 89.6444 26.7193 89.8462 25.8031C90.1398 24.5324 90.4431 23.2421 90.6847 22.2147C90.8967 21.3132 91.061 20.6141 91.1295 20.3082H93.5927Z" fill="#66707C"/>
</g>
</svg>
