<svg width="180" height="46" viewBox="0 0 180 46" fill="none" xmlns="http://www.w3.org/2000/svg">
<g id="logo">
<path id="path" d="M35.5 10C28.0346 10 22 15.8111 22 23C22 30.1889 28.0346 36 35.5 36C42.9654 36 49 30.1889 49 23C49 15.8111 42.9654 10 35.5 10ZM33.6336 28.5115L32.6382 31.3272C28.9055 30.129 26.4171 26.7143 26.4171 22.8802C26.4171 19.0461 28.9055 15.6912 32.7005 14.4332L33.6959 17.2488C31.2074 18.0276 29.5899 20.3041 29.5899 22.8203C29.4654 25.4562 31.1452 27.7327 33.6336 28.5115ZM38.2373 31.3871L37.3041 28.5115C39.8548 27.7327 41.5346 25.4562 41.5346 22.8802C41.5346 20.3041 39.8548 18.0876 37.3664 17.3088L38.3617 14.4332C42.1567 15.6313 44.7074 19.0461 44.7074 22.8802C44.7074 26.8341 42.0945 30.2488 38.2373 31.3871Z" fill="#66707C"/>
<path id="path_2" d="M156.085 25.6232L157.544 27.4094C156.024 29.0109 154.14 29.442 152.62 29.442C151.161 29.442 150.128 29.1957 149.216 28.7645C147.271 27.779 146.299 25.808 146.299 23.4058C146.299 19.7717 148.73 17.0616 152.316 17.0616C156.328 17.0616 158.273 20.0797 157.969 24.0217H148.851C148.912 25.0072 149.459 25.9312 150.249 26.4239C150.918 26.8551 151.708 27.0399 152.742 27.0399C153.897 27.0399 155.051 26.6703 156.085 25.6232ZM148.912 21.8659H155.355C155.173 20.4493 154.018 19.2174 152.195 19.2174C150.31 19.2174 149.155 20.5725 148.912 21.8659ZM87.7021 29.0725H90.9845L85.8178 22.9746L90.9237 17.2464H87.7021L83.8119 21.8043H82.657V17.2464H80.1648V29.0109H82.657V24.3297H83.8119L87.7021 29.0725ZM98.4002 19.4022C96.2728 19.4022 94.8747 21.0652 94.8747 23.1594C94.8747 25.2536 96.2728 26.9167 98.4002 26.9167C100.528 26.9167 101.865 25.3152 101.865 23.1594C101.926 21.1268 100.588 19.4022 98.4002 19.4022ZM98.8257 17C102.108 17 104.539 19.587 104.539 23.1594C104.539 26.6703 102.169 29.3804 98.8257 29.3804C97.2453 29.3804 95.9688 28.8261 95.0571 27.8406V34H92.5041V17.308H94.9963V18.7246C95.9688 17.5543 97.2453 17 98.8257 17ZM131.953 17.308H121.559V19.6486H125.51V29.0725H128.063V19.6486H132.014V17.308H131.953ZM78.4021 17.308H67.9471V19.6486H71.8981V29.0725H74.4511V19.6486H78.4021V17.308ZM64.9079 23.221C64.9079 21.0036 63.3883 19.4022 61.2608 19.4022C59.1941 19.4022 57.6137 21.0036 57.6137 23.221C57.6137 25.4384 59.1334 27.0399 61.2608 27.0399C63.3275 27.0399 64.9079 25.4384 64.9079 23.221ZM55 23.221C55 19.7101 57.6745 17.0616 61.2608 17.0616C64.7863 17.0616 67.5216 19.7101 67.5216 23.221C67.5216 26.7319 64.8471 29.442 61.2608 29.442C57.7353 29.3804 55 26.7319 55 23.221ZM144.293 17.308V29.0725H141.8V21.4964L135.722 29.0725H133.716V17.308H136.208V24.8841L142.287 17.308H144.293ZM119.796 29.0725H117.304V17.308H119.796V29.0725ZM113.353 25.0688C113.353 24.0217 112.624 23.2826 111.651 23.2826H109.098V26.9167H111.651C112.624 26.9167 113.353 26.1159 113.353 25.0688ZM115.845 25.0688C115.845 27.4094 114.143 29.0725 111.712 29.0725H106.606V17.308H109.098V21.1268H111.955C114.387 21.1268 115.845 22.7283 115.845 25.0688Z" fill="#66707C"/>
</g>
</svg>
