<svg width="180" height="46" viewBox="0 0 180 46" fill="none" xmlns="http://www.w3.org/2000/svg">
<g id="logo">
<path id="path" d="M17.5885 29.1897C13.9591 29.1897 11.0023 26.4035 11.0023 22.9827C11.0023 19.562 13.9582 16.775 17.5868 16.775H17.9991V13H17.5877C11.7522 13 7 17.4802 7 22.9819C7 28.5198 11.7522 33 17.5885 33H18V29.1913H17.5885V29.1897Z" fill="#66707C"/>
<path id="path_2" fill-rule="evenodd" clip-rule="evenodd" d="M19.7398 18.3068V13C24.4262 13.9381 27.922 18.0538 27.922 22.9992C27.922 27.9823 24.4246 32.0964 19.7398 33V27.6932H17.6848C15.0904 27.6932 13 25.5984 13 23.0008C13 20.4016 15.0904 18.3068 17.6858 18.3068H19.7398ZM39.4204 27.6192C40.4829 27.6225 41.5132 27.2529 42.3391 26.5727L43.9611 28.1992C42.7719 29.2803 41.1862 29.9309 39.4204 29.9309C35.5993 29.9309 32.5357 26.7895 32.5357 22.9992C32.5357 19.2088 35.5993 16.1036 39.4204 16.1036C41.1367 16.0987 42.7935 16.7427 44.0696 17.9092L42.4476 19.5325C41.6109 18.7849 40.5342 18.3742 39.4204 18.3791C36.8599 18.3791 34.8065 20.4361 34.8065 22.9992C34.8065 25.5622 36.8607 27.6192 39.4204 27.6192ZM110.608 22.7823L115.69 16.6458H117.709V29.3526H115.69V20.1831L110.608 26.1751L105.454 20.0385V29.3542H103.399V16.6458H105.454V16.7181L105.49 16.6458L110.608 22.7823ZM52.4678 29.8948C56.2523 29.8948 59.3525 26.8257 59.3525 22.9992C59.3525 19.2088 56.2523 16.1036 52.4678 16.1036C48.6833 16.1036 45.5842 19.2088 45.5842 22.9992C45.5842 26.7895 48.6478 29.8948 52.4678 29.8948ZM52.4323 18.3791C54.992 18.3791 57.0459 20.4361 57.0459 22.9992C57.0459 25.5622 54.992 27.6192 52.4323 27.6192C49.8726 27.6192 47.8186 25.5622 47.8186 22.9992C47.8186 20.4361 49.8726 18.3791 52.4323 18.3791ZM94.4242 29.8948C98.2087 29.8948 101.309 26.8257 101.309 22.9992C101.309 19.2088 98.2443 16.1036 94.4242 16.1036C90.6397 16.1036 87.5397 19.2088 87.5397 22.9992C87.5397 26.7895 90.6033 29.8948 94.4242 29.8948ZM94.4242 18.3791C96.9839 18.3791 99.0379 20.4361 99.0379 22.9992C99.0379 25.5622 96.9467 27.6192 94.4242 27.6192C91.8645 27.6192 89.8105 25.5622 89.8105 22.9992C89.8105 20.4361 91.8645 18.3791 94.4242 18.3791ZM84.7275 16.6458H87.504L81.2319 23.0353L87.4312 29.3542H84.6919L79.465 24.0458H77.3753V29.3542H75.3569V16.6458H77.3753V21.9887H79.5022L84.7275 16.6458ZM170.262 16.6458H173L166.764 23.0353L172.928 29.3542H170.189L164.999 24.0458H162.872V29.3542H160.854V16.6458H162.872V21.9887H164.999L170.262 16.6458ZM145.391 29.3526H143.155L141.931 26.6104H135.37L134.145 29.3542H131.911L137.497 16.6458H139.803L145.391 29.3526ZM138.651 19.245L136.272 24.5879H141.03L138.651 19.245ZM71.6079 22.9992C72.343 23.6859 72.7616 24.6553 72.7616 25.6707C72.7616 27.6915 71.1396 29.3542 69.1203 29.3904H61.6962V16.6458H69.1203C71.1254 16.6425 72.7549 18.2904 72.7616 20.3277C72.7616 21.3743 72.2924 22.3141 71.6079 22.9992ZM69.0848 18.7044H63.7502V21.951H69.0848C69.9859 21.951 70.706 21.2297 70.706 20.3277C70.706 19.4241 69.9859 18.7044 69.0848 18.7044ZM63.7502 27.3317H69.0848C69.9867 27.3317 70.7068 26.5727 70.7424 25.6723C70.7424 25.2435 70.5658 24.841 70.2781 24.5436C69.9845 24.2413 69.5753 24.0474 69.1203 24.0474H63.7502V27.3317ZM156.276 21.9887V16.6819H158.331V29.3164H156.276V24.0441H148.888V29.3164H146.834V16.6819H148.888V21.9887H156.276ZM127.512 21.9887C129.531 21.9887 131.189 23.6482 131.189 25.6707C131.189 27.6915 129.532 29.3542 127.511 29.3887H120.123V16.6458H129.964V18.7028H122.178V21.9887H127.512ZM122.179 27.3317H127.513C128.414 27.3317 129.135 26.5727 129.135 25.6723C129.135 24.8048 128.414 24.0474 127.513 24.0474H122.179V27.3317Z" fill="#66707C"/>
</g>
</svg>
