<svg width="180" height="46" viewBox="0 0 180 46" fill="none" xmlns="http://www.w3.org/2000/svg">
<g id="logo">
<path id="Union" fill-rule="evenodd" clip-rule="evenodd" d="M35.1016 6.90039H68.7901V23.8433C68.7901 28.1867 66.4731 32.2003 62.7118 34.3722L51.9459 40.5889L41.18 34.3722C37.4186 32.2003 35.1016 28.1867 35.1016 23.8433V6.90039ZM44.3454 15.8179V21.0875C45.066 20.2738 46.3762 19.723 47.8742 19.723H49.5021V25.8489C49.5021 27.4786 49.0593 28.9052 48.4023 29.6898H55.4834C54.8278 28.9044 54.386 27.4797 54.386 25.852V19.723H56.014C57.512 19.723 58.8221 20.2738 59.5427 21.0875V15.8179H44.3454ZM115.365 29.6898V24.5316H122.155V29.6898H126.381V15.8178H122.155V20.8887H115.365V15.8178H111.14V29.6898H115.365ZM89.771 21.2675C89.0134 20.9761 88.0225 20.8887 86.9443 20.8887H80.9407V19.0236H91.2573V15.8179H76.715V29.6898H86.5653C87.9351 29.6898 88.9549 29.5733 89.7128 29.2817C91.3157 28.6697 92.3939 27.1835 92.3939 25.2309C92.3939 23.2494 91.3739 21.8796 89.771 21.2675ZM87.6727 26.0761C87.4396 26.1636 87.119 26.1926 86.7109 26.1926H80.9407V23.9778H86.7109C87.1774 23.9778 87.556 24.0071 87.8476 24.1527C88.1972 24.3276 88.3721 24.6482 88.3721 25.0561C88.3721 25.464 88.1682 25.9012 87.6727 26.0761ZM104.244 15.8179H98.0657L92.3829 29.6898H97.1624L97.9492 27.679H104.36L105.177 29.6898H109.927L104.244 15.8179ZM98.9982 24.6189L101.009 19.0236H101.33L103.341 24.6189H98.9982ZM133.069 24.4442V29.6898H128.843V15.8178H133.069V21.0344H134.235L139.335 15.8178H144.638L137.877 22.4624L144.901 29.6898H139.276L134.235 24.4442H133.069Z" fill="#66707C"/>
</g>
</svg>
