<svg width="180" height="46" viewBox="0 0 180 46" fill="none" xmlns="http://www.w3.org/2000/svg">
<g id="logo">
<path id="path" fill-rule="evenodd" clip-rule="evenodd" d="M67.2031 24.5029H73.6922V26.5457H69.6335V28.643H70.9833C71.8919 28.643 73.0622 28.7513 73.9439 29.6154C74.3223 29.9929 74.7904 30.6858 74.7904 31.8016C74.7904 32.1383 74.7488 32.4612 74.6683 32.7628C74.5332 33.2661 74.288 33.7083 73.9439 34.0516C73.7098 34.2856 73.4443 34.4651 73.1529 34.6011C73.0206 34.6622 72.8827 34.7149 72.7393 34.7602C72.669 34.7824 72.5978 34.8028 72.5247 34.8213C71.9955 34.9554 71.4052 34.9971 70.7761 34.9971H67.2031V24.5029ZM70.5874 33.044C70.9204 33.044 71.5144 33.0172 71.8919 32.711C71.9649 32.6481 72.0898 32.5241 72.1814 32.327C72.248 32.1855 72.2971 32.006 72.2971 31.784C72.2971 31.7044 72.2906 31.6295 72.2795 31.5592C72.2675 31.4842 72.249 31.4148 72.2268 31.3501C72.1916 31.2483 72.1454 31.1595 72.0935 31.0827C72.0445 31.0105 71.9899 30.9495 71.9353 30.8986C71.9113 30.8764 71.8872 30.856 71.8632 30.8375L71.8289 30.8116C71.4515 30.5415 70.839 30.5332 70.5874 30.5332H69.6243V33.0533H70.5874V33.044ZM83.5915 27.9769H81.3239V28.7689C80.8863 28.174 80.3044 27.9149 79.79 27.8095C79.543 27.7586 79.3117 27.7429 79.1183 27.7429C78.1469 27.7429 77.292 28.0935 76.6796 28.706C76.032 29.3536 75.5907 30.362 75.5907 31.5407C75.5907 32.4677 75.8784 33.3854 76.6167 34.169C77.391 34.9878 78.2366 35.2395 79.2451 35.2395C79.542 35.2395 79.9167 35.2025 80.2933 35.0415C80.6569 34.8861 81.0232 34.615 81.3239 34.1505V34.9971H83.5915V27.9769ZM77.9221 31.4777C77.9221 31.1308 78.009 30.8496 78.1265 30.6275C78.2228 30.4471 78.3384 30.3056 78.4439 30.2001C78.7409 29.9031 79.1905 29.6959 79.6771 29.7051C80.0907 29.7051 80.5949 29.8578 80.9363 30.1908C80.9992 30.2501 81.0575 30.3148 81.1102 30.3842C81.1703 30.4647 81.2231 30.5517 81.2684 30.6432C81.3924 30.8921 81.459 31.1789 81.459 31.4777C81.459 32.081 81.2064 32.5223 80.9094 32.8007C80.7614 32.9488 80.5819 33.07 80.3821 33.1541C80.1813 33.2393 79.9602 33.2864 79.7308 33.2864C79.1905 33.2864 78.7048 33.0709 78.3893 32.7378C78.1913 32.513 77.9221 32.1078 77.9221 31.4777ZM84.9598 27.9769H87.2274V30.4157H89.766V27.9769H92.0336V34.9971H89.766V32.2429H87.2274V34.9971H84.9598V27.9769ZM95.6603 27.9769H93.3927V34.9971H95.6603V31.883L98.0546 34.9971H100.98L97.7669 31.2354L100.773 27.9769H97.9556L95.6603 30.7672V27.9769ZM70.901 11.0029C71.8104 11.0029 72.8189 11.1288 73.6552 11.867C74.5554 12.6497 74.6812 13.6942 74.6812 14.414C74.6812 15.737 74.177 16.4753 73.781 16.8888C72.9447 17.7354 71.8465 17.8158 71.1082 17.8158H69.6326V21.4971H67.2115V11.0029H70.901ZM69.6234 15.836H70.4875C70.6161 15.836 70.7798 15.8332 70.9556 15.8082C71.2378 15.7685 71.5495 15.6722 71.7929 15.44C72.0084 15.2235 72.1888 14.8553 72.1888 14.4048C72.1888 14.2031 72.1565 14.0171 72.0982 13.8543C72.0297 13.6619 71.9242 13.4999 71.7929 13.3788C71.4321 13.0374 70.9103 12.9828 70.4421 12.9828H69.6234V15.836ZM82.8625 14.4769H80.5949V15.2689C80.284 14.8461 79.9001 14.5926 79.5198 14.4436C79.1072 14.2817 78.6983 14.2429 78.3893 14.2429C77.4179 14.2429 76.563 14.5935 75.9506 15.206C75.3029 15.8536 74.8616 16.862 74.8616 18.0407C74.8616 18.6402 74.9819 19.236 75.2669 19.7938C75.4223 20.0991 75.6267 20.3924 75.8876 20.669C76.662 21.4878 77.5076 21.7395 78.516 21.7395C78.8121 21.7395 79.184 21.7034 79.5587 21.5443C79.9241 21.3888 80.2924 21.1178 80.5949 20.6505V21.4971H82.8625V14.4769ZM77.193 17.9777C77.193 17.3477 77.4808 16.9342 77.7148 16.7001C78.0118 16.4031 78.4707 16.1959 78.9481 16.2051C79.0702 16.2051 79.1997 16.219 79.3311 16.2458C79.4079 16.2616 79.4847 16.2819 79.5615 16.3078C79.7974 16.3874 80.025 16.5132 80.2072 16.6908C80.3812 16.8555 80.5162 17.0618 80.6051 17.294C80.643 17.393 80.6726 17.4967 80.6939 17.6031C80.7031 17.6493 80.7105 17.6965 80.7161 17.7446C80.7207 17.7825 80.7235 17.8214 80.7253 17.8602C80.7281 17.8991 80.73 17.938 80.73 17.9777C80.73 18.581 80.4774 19.0223 80.1804 19.3007C80.025 19.4562 79.8353 19.582 79.6235 19.6671C79.5411 19.7004 79.4551 19.7272 79.3663 19.7467L79.2682 19.7661L79.1766 19.7772C79.1192 19.7837 79.061 19.7864 79.0017 19.7864C78.7658 19.7864 78.5401 19.7448 78.3338 19.6708C78.0692 19.5755 77.8379 19.4256 77.6603 19.2378C77.4623 19.013 77.193 18.6078 77.193 17.9777ZM86.4984 14.4769V18.4912L89.4866 14.4769H91.5932V21.4971H89.3247V17.4199L86.3365 21.4971H84.2308V14.4769H86.4984ZM90.7652 11.6422C90.5756 12.2084 90.1981 12.6951 89.7568 12.9828C89.1628 13.3788 88.4338 13.4241 87.912 13.4241C87.3902 13.4241 86.6695 13.3788 86.0672 12.9828C86.0154 12.9495 85.9645 12.9143 85.9146 12.8755C85.8581 12.832 85.8026 12.7848 85.749 12.7339C85.6916 12.6793 85.6361 12.622 85.5824 12.5609C85.3576 12.3019 85.1735 11.9855 85.0588 11.6422L86.6334 11.0298C86.6963 11.3443 86.8499 11.5969 87.0386 11.7495C87.2459 11.9207 87.5068 12.0289 87.9028 12.0289C87.9999 12.0289 88.0887 12.0225 88.171 12.0104L88.2182 12.003L88.2645 11.9938L88.3265 11.9781L88.3885 11.9595C88.5365 11.9105 88.6586 11.8384 88.7669 11.7495C88.9556 11.5969 89.1092 11.3443 89.1721 11.0298L90.7652 11.6422ZM96.6058 21.6053V24.9979H98.8919V21.6053H98.9816C100.575 21.6053 101.456 20.9475 101.862 20.5516C102.07 20.3471 102.277 20.0862 102.449 19.7615C102.479 19.706 102.507 19.6486 102.534 19.5894L102.582 19.4802C102.642 19.335 102.695 19.1795 102.739 19.0121C102.792 18.8076 102.831 18.5865 102.852 18.3469C102.858 18.2793 102.863 18.2109 102.865 18.1406C102.868 18.0777 102.869 18.0148 102.869 17.9509C102.869 17.4957 102.801 17.0951 102.689 16.7454C102.59 16.4346 102.456 16.1644 102.303 15.9322C102.267 15.8767 102.229 15.823 102.19 15.7712L102.157 15.7277L102.099 15.6565C101.956 15.4817 101.804 15.3345 101.654 15.2152C100.961 14.6657 99.9179 14.3687 98.9909 14.3687H98.8826V11.0029H96.615V14.3687H96.5068C95.5705 14.3687 94.5353 14.6657 93.8423 15.2152C93.2576 15.6833 92.6276 16.565 92.6276 17.9509C92.6276 19.2286 93.1318 20.0658 93.636 20.5516C94.0403 20.9475 94.9229 21.6053 96.5151 21.6053H96.6058ZM96.146 16.244C96.331 16.2033 96.5244 16.1866 96.714 16.1959V19.7781C96.1376 19.7957 95.5973 19.5801 95.3004 19.2471C95.0302 18.9677 94.8415 18.5088 94.8415 17.9602C94.8415 17.4023 95.0302 16.9517 95.3004 16.6816C95.5085 16.4679 95.8138 16.3171 96.146 16.244ZM100.179 19.2563C99.8818 19.5801 99.3507 19.8049 98.766 19.7874V16.2051C99.1306 16.1802 99.5043 16.2616 99.8105 16.4235C99.9493 16.4975 100.075 16.5872 100.179 16.6908C100.302 16.8139 100.408 16.9758 100.488 17.1673C100.582 17.3977 100.638 17.6697 100.638 17.9685C100.638 18.518 100.449 18.9769 100.179 19.2563ZM107.514 24.9979V21.6053H107.424C106.911 21.6053 106.473 21.5369 106.099 21.4314C105.894 21.374 105.71 21.3046 105.545 21.2297C105.071 21.0151 104.747 20.7505 104.545 20.5516C104.475 20.4849 104.406 20.4119 104.338 20.3314C104.279 20.262 104.221 20.187 104.165 20.1075C104.035 19.9206 103.914 19.705 103.814 19.4589C103.702 19.1842 103.617 18.8715 103.571 18.518C103.557 18.4116 103.547 18.3006 103.542 18.1868C103.538 18.11 103.536 18.0314 103.536 17.9509C103.536 16.565 104.166 15.6833 104.751 15.2152C105.444 14.6657 106.479 14.3687 107.415 14.3687H107.524V11.0029H109.791V14.3687H109.899C110.187 14.3687 110.486 14.3974 110.782 14.4529C110.932 14.4806 111.081 14.5158 111.228 14.5583C111.358 14.5953 111.484 14.6379 111.608 14.6851C111.962 14.8211 112.289 14.9987 112.563 15.2152C113.149 15.6833 113.778 16.565 113.778 17.9509C113.778 18.4598 113.698 18.8964 113.571 19.2702C113.456 19.6051 113.302 19.8891 113.133 20.1269C113.016 20.2897 112.893 20.4304 112.77 20.5516C112.511 20.805 112.056 21.1659 111.344 21.3925C111.154 21.4527 110.946 21.5035 110.719 21.5406C110.468 21.5822 110.192 21.6053 109.89 21.6053H109.8V24.9979H107.514ZM107.623 16.1959C107.092 16.169 106.533 16.3485 106.209 16.6816C105.939 16.9517 105.75 17.4023 105.75 17.9602C105.75 18.5088 105.939 18.9677 106.209 19.2471C106.506 19.5801 107.046 19.7957 107.623 19.7781V16.1959ZM109.674 19.7874C110.259 19.8049 110.79 19.5801 111.087 19.2563C111.231 19.1083 111.351 18.9094 111.432 18.6735C111.505 18.4644 111.546 18.2266 111.546 17.9685C111.546 17.4199 111.358 16.961 111.087 16.6908C110.754 16.3578 110.205 16.169 109.674 16.2051V19.7874ZM122.435 14.4769H120.168V15.2689C119.519 14.3872 118.556 14.2429 117.962 14.2429C116.991 14.2429 116.136 14.5935 115.524 15.206C114.876 15.8536 114.435 16.862 114.435 18.0407C114.435 18.6309 114.551 19.2175 114.826 19.7679C114.983 20.0825 115.192 20.3841 115.461 20.669C116.235 21.4878 117.081 21.7395 118.089 21.7395C118.674 21.7395 119.555 21.5961 120.168 20.6505V21.4971H122.435V14.4769ZM116.766 17.9777C116.766 17.6854 116.828 17.4402 116.918 17.2376C117.021 17.0026 117.162 16.8259 117.288 16.7001C117.585 16.4031 118.044 16.1959 118.521 16.2051C118.935 16.2051 119.439 16.3578 119.78 16.6908C120.113 17.0054 120.303 17.4735 120.303 17.9777C120.303 18.581 120.05 19.0223 119.753 19.3007C119.456 19.5977 119.034 19.7864 118.575 19.7864C118.034 19.7864 117.549 19.5709 117.233 19.2378C117.138 19.1296 117.026 18.9788 116.935 18.7817C116.838 18.5698 116.766 18.3034 116.766 17.9777ZM126.071 14.4769V18.4912L129.06 14.4769H131.166V21.4971H128.898V17.4199L125.909 21.4971H123.804V14.4769H126.071ZM130.338 11.6422C130.25 11.905 130.122 12.1501 129.965 12.3666C129.856 12.5183 129.733 12.6553 129.6 12.7746C129.514 12.8523 129.423 12.9217 129.33 12.9828C129.179 13.0827 129.02 13.1604 128.857 13.2215C128.67 13.2909 128.48 13.3371 128.293 13.3677C128.002 13.4148 127.722 13.4241 127.485 13.4241C126.963 13.4241 126.242 13.3788 125.64 12.9828C125.199 12.7034 124.821 12.2084 124.632 11.6422L126.206 11.0298C126.269 11.3443 126.423 11.5969 126.612 11.7495C126.715 11.8347 126.832 11.904 126.972 11.9521C127.113 12.0012 127.278 12.0289 127.476 12.0289C127.872 12.0289 128.133 11.9207 128.34 11.7495C128.436 11.6718 128.523 11.5682 128.594 11.4433C128.662 11.323 128.715 11.1843 128.745 11.0298L130.338 11.6422ZM133.47 14.4945C133.091 14.6388 132.606 14.8905 132.309 15.0801L133.19 16.6011C133.416 16.4114 133.65 16.268 133.947 16.1422C134.244 16.0155 134.513 15.9526 134.874 15.9526C135.252 15.9526 135.477 16.034 135.585 16.0793C135.748 16.1524 135.837 16.2532 135.884 16.3495C135.916 16.4188 135.927 16.4855 135.927 16.5382C135.927 16.6733 135.864 16.8796 135.594 17.0054C135.521 17.0396 135.424 17.0646 135.319 17.0831C135.116 17.1201 134.884 17.1321 134.748 17.1321H134.1V18.6707H134.946C135.198 18.6707 135.576 18.716 135.765 18.7965C135.854 18.8354 135.928 18.8844 135.984 18.9464C136.057 19.0278 136.098 19.1314 136.098 19.2646C136.098 19.3673 136.078 19.5015 135.984 19.6245C135.937 19.6856 135.873 19.7448 135.783 19.7957C135.558 19.9215 135.216 19.9668 134.964 19.9668C134.725 19.9668 134.464 19.9289 134.229 19.8688C134.101 19.8355 133.981 19.7957 133.875 19.7513C133.596 19.6245 133.263 19.3997 133.011 19.1842L132.048 20.6783C132.137 20.7495 132.283 20.8643 132.477 20.9901C132.568 21.0484 132.668 21.1094 132.777 21.1696C132.936 21.2565 133.115 21.3416 133.308 21.4157C133.938 21.6497 134.595 21.7311 135.225 21.7311C136.395 21.7311 137.214 21.56 137.808 20.9753C138.041 20.7412 138.196 20.4914 138.291 20.2388C138.383 19.9946 138.42 19.7467 138.42 19.508C138.42 19.446 138.418 19.3849 138.412 19.3257C138.408 19.2878 138.405 19.2498 138.399 19.2128L138.386 19.1351C138.329 18.8428 138.195 18.5837 137.952 18.3469C137.853 18.2479 137.529 17.9685 137.007 17.8427C137.06 17.8232 137.113 17.7992 137.165 17.7724C137.208 17.7502 137.25 17.7252 137.292 17.6983L137.345 17.6623C137.382 17.6364 137.418 17.6086 137.454 17.5799C137.505 17.5383 137.554 17.493 137.601 17.4467C137.943 17.0868 138.024 16.6908 138.024 16.2495C138.024 16.1154 138.013 15.9831 137.989 15.8545C137.976 15.7842 137.959 15.7148 137.937 15.6463C137.859 15.403 137.722 15.1736 137.502 14.9626C136.791 14.2697 135.504 14.2429 135.126 14.2429C134.586 14.2429 134.001 14.3058 133.47 14.4945ZM146.628 18.383H141.389C141.389 18.5134 141.407 18.6596 141.441 18.8076C141.506 19.087 141.631 19.3738 141.813 19.5792C141.903 19.6791 142.003 19.7578 142.107 19.8179C142.18 19.8605 142.256 19.8947 142.332 19.9215C142.557 20.002 142.785 20.0205 142.973 20.0205C143.099 20.0205 143.226 20.0113 143.348 19.9928C143.549 19.9613 143.736 19.903 143.883 19.8133C143.909 19.7957 144.18 19.6245 144.368 19.2286L146.511 19.4451C146.196 20.435 145.565 20.9568 145.16 21.2084C144.486 21.6136 143.73 21.7302 142.938 21.7302C141.884 21.7302 140.957 21.5415 140.138 20.7227C139.527 20.1102 139.086 19.1832 139.086 18.0138C139.086 17.0054 139.446 15.9711 140.157 15.242C140.578 14.8202 141.053 14.5685 141.521 14.4223C141.992 14.2743 142.454 14.2336 142.847 14.2336C143.631 14.2336 144.764 14.3779 145.638 15.2864C146.475 16.169 146.628 17.2663 146.628 18.1396V18.383ZM144.539 17.0322C144.522 16.9693 144.414 16.5289 144.081 16.2135C143.988 16.1274 143.881 16.0516 143.76 15.9896C143.681 15.9489 143.597 15.9146 143.506 15.8878C143.356 15.8425 143.191 15.8175 143.009 15.8175C142.814 15.8175 142.647 15.8434 142.501 15.8859C142.21 15.972 142.007 16.1265 141.857 16.2764C141.686 16.466 141.524 16.7177 141.461 17.0322H144.539ZM149.921 14.4769H147.654V21.4971H149.921V18.7429H152.46V21.4971H154.727V14.4769H152.46V16.9157H149.921V14.4769Z" fill="#66707C"/>
<path id="Subtract" fill-rule="evenodd" clip-rule="evenodd" d="M54.3952 41C58.7692 41 61.1992 38.57 61.1992 34.196V11.804C61.1992 7.43 58.7692 5 54.4042 5H32.0032C27.6292 5 25.1992 7.43 25.1992 11.804V34.196C25.1992 38.57 27.6292 41 32.0032 41H54.3952ZM48.347 17.8068V21.2447L46.6012 22.9997L55.2053 31.6121L51.8025 35.0056L43.1994 26.4015L34.5954 34.9963L31.1926 31.6037L39.7967 22.9997L38.0509 21.2623V17.8243L36.8093 16.5828V19.5618L35.7287 20.6415L31.3823 16.2941L30.3109 17.3655C30.3202 16.555 30.4821 14.206 32.4712 12.253C34.613 10.1834 36.9351 11.1197 37.7271 11.9116L42.0652 16.2497L40.9577 17.3562L43.1994 19.597L45.4402 17.3386L44.3327 16.2312L48.6708 11.8931C49.4628 11.1012 51.7849 10.1658 53.9267 12.2354C55.9158 14.1884 56.0777 16.5374 56.0869 17.347L55.0156 16.2765L50.6692 20.623L49.5886 19.5433V16.5643L48.347 17.8068Z" fill="#66707C"/>
</g>
</svg>
