<svg width="180" height="46" viewBox="0 0 180 46" fill="none" xmlns="http://www.w3.org/2000/svg">
<g id="logo">
<path id="path" d="M135.694 14.0052C136.47 14.2184 136.861 14.8814 137.319 15.4654C139.134 17.7913 140.942 20.1197 142.755 22.4482C142.804 22.5113 142.863 22.5692 142.935 22.6481C143.596 21.7957 144.246 20.9564 144.897 20.1197C146.258 18.3648 147.613 16.6073 148.978 14.8551C149.451 14.2473 150.197 14.0395 150.891 14.2921C151.591 14.5472 151.997 15.1708 151.997 16.0128C152 20.075 152 24.1346 151.997 28.1969C151.997 28.8704 152.007 29.5439 151.989 30.2175C151.966 31.0884 151.318 31.7725 150.456 31.8672C149.678 31.954 148.896 31.4015 148.692 30.599C148.639 30.3886 148.629 30.1622 148.629 29.9439C148.623 27.0813 148.626 24.2215 148.626 21.3589V20.9959C148.603 20.9879 148.58 20.9801 148.553 20.9748C148.199 21.4299 147.842 21.8825 147.49 22.3403C146.43 23.7084 145.376 25.0818 144.308 26.4421C143.531 27.4313 142.31 27.4181 141.542 26.4289C140.102 24.5793 138.656 22.7297 137.213 20.8827C137.178 20.838 137.139 20.7959 137.054 20.6906V30.1254C137.054 31.0279 136.465 31.7171 135.578 31.8619C134.802 31.9881 133.994 31.4489 133.763 30.6332C133.709 30.4438 133.696 30.2386 133.696 30.0413C133.688 25.3001 133.688 20.567 133.688 15.8312C133.688 14.9025 134.125 14.3184 135.002 14.0552C135.03 14.0474 135.051 14.0211 135.076 14.0052H135.694ZM85.7041 14.0052C86.2029 14.1105 86.7121 14.1763 87.1955 14.3288C90.2578 15.3024 92.3666 17.2624 93.195 20.5038C93.3826 21.2352 93.4802 21.9904 93.3619 22.7507C93.2049 23.7478 92.3129 24.7029 91.1225 24.695C87.4501 24.6687 83.7781 24.6845 80.1059 24.6845H79.7049C79.9028 25.6737 80.3066 26.5209 80.9803 27.2155C82.6646 28.952 84.7089 29.3282 86.9461 28.7283C87.7304 28.5178 88.471 28.1232 89.2141 27.7759C89.8082 27.4996 90.3868 27.376 90.9754 27.7391C92.0013 28.3705 91.9525 29.8702 90.8803 30.5332C89.6822 31.2751 88.3784 31.7434 86.9975 31.9697C85.1255 32.2802 83.2817 32.167 81.528 31.3857C78.5734 30.0728 76.8402 27.7654 76.3105 24.5187C75.6213 20.2828 77.9279 16.1363 81.8495 14.6209C82.5695 14.342 83.3563 14.2421 84.1124 14.0579C84.1689 14.0447 84.2255 14.0211 84.2821 14.0026C84.7578 14.0052 85.2309 14.0052 85.7041 14.0052ZM90.1322 21.4984C89.9471 19.0515 87.0644 16.8493 84.4158 17.102C82.1195 17.3229 79.5531 19.7355 79.7563 21.4984H90.1322ZM54.5995 14.0052C55.029 14.0895 55.4661 14.1447 55.8879 14.2658C58.8399 15.1129 60.9562 16.9151 61.9592 19.9382C62.2677 20.8696 62.4246 21.8378 62.26 22.8244C62.098 23.7795 61.2082 24.7055 60.0253 24.6951C56.3533 24.6661 52.6838 24.6845 49.0117 24.6845H48.6208C48.8215 25.6606 49.2174 26.5078 49.8783 27.1971C51.5652 28.9493 53.6146 29.3335 55.8647 28.731C56.6387 28.5231 57.369 28.1311 58.1045 27.7943C58.5262 27.6023 58.9454 27.4444 59.4082 27.547C60.0639 27.6891 60.4934 28.1653 60.6168 28.8599C60.7248 29.4624 60.4214 30.1754 59.8248 30.5122C59.1897 30.87 58.534 31.212 57.8525 31.4567C55.5587 32.2776 53.2238 32.4381 50.9146 31.5699C47.6514 30.3438 45.7383 27.9233 45.2188 24.4109C44.6453 20.5354 46.466 16.8888 49.8269 15.0524C50.8246 14.5078 51.8892 14.1789 53.0181 14.0658C53.0747 14.0605 53.1286 14.0289 53.1853 14.0105C53.6532 14.0052 54.1264 14.0052 54.5995 14.0052ZM59.0251 21.4957C59.0688 19.5251 56.3713 17.1204 53.9824 17.0783C51.0278 17.0283 48.8806 19.3673 48.6414 21.4957H59.0251ZM123.597 14.0052C124.017 14.0895 124.441 14.1473 124.85 14.2658C127.946 15.1629 130.116 17.0757 131.021 20.3013C131.209 20.9669 131.248 21.6878 131.269 22.3876C131.304 23.5874 130.26 24.7108 128.993 24.7003C125.331 24.6661 121.672 24.6871 118.01 24.6871H117.611C117.621 24.7898 117.621 24.8713 117.642 24.945C118.228 27.0682 119.622 28.3363 121.684 28.8336C123.495 29.2703 125.179 28.8073 126.794 27.9601C127.146 27.776 127.521 27.5865 127.905 27.5339C128.669 27.4313 129.306 27.8917 129.525 28.5994C129.748 29.3203 129.45 30.1149 128.779 30.5279C127.57 31.2725 126.259 31.7434 124.868 31.9724C122.895 32.2986 120.967 32.146 119.146 31.2699C116.372 29.9334 114.708 27.6944 114.217 24.5977C113.726 21.4931 114.572 18.7858 116.757 16.5652C118.205 15.0971 119.975 14.2658 122.011 14.0552C122.068 14.05 122.124 14.0184 122.18 14C122.652 14.0052 123.124 14.0052 123.597 14.0052ZM128.018 21.4957C127.802 19.041 124.96 16.8573 122.312 17.102C120.015 17.3124 117.498 19.6724 117.639 21.4957H128.018ZM110.205 14.0052C110.833 14.2078 111.334 14.5604 111.511 15.2498C111.565 15.4602 111.588 15.6838 111.588 15.9022C111.593 20.5854 111.593 25.2686 111.591 29.9518C111.591 30.9963 111.085 31.6619 110.176 31.8408C109.236 32.0276 108.289 31.2805 108.228 30.3017C108.22 30.1754 108.22 30.0491 108.22 29.9229V17.8939V17.4966H101.41V24.995C101.41 28.4521 99.0676 31.2646 95.7303 31.7935C95.3368 31.8566 94.9252 31.8909 94.5341 31.8382C93.6347 31.7171 93.0271 30.9358 93.0867 30.0596C93.1511 29.1019 93.8373 28.4337 94.7813 28.4126C96.3239 28.3758 97.5688 27.3787 97.9417 25.8579C98.0086 25.587 98.0392 25.2975 98.0392 25.016C98.0466 21.9851 98.0442 18.9542 98.0442 15.9233C98.0442 14.9182 98.4277 14.3788 99.3635 14.05C99.3792 14.0447 99.3892 14.0211 99.4024 14.0052H110.205ZM37.6276 14.007C38.1471 14.1122 38.6717 14.1912 39.1808 14.328C40.7134 14.7437 42.0403 15.5356 43.146 16.7011C43.7812 17.3694 43.7734 18.4113 43.1615 19.1059C42.5983 19.7453 41.5748 19.8425 40.8883 19.3137C40.6672 19.1427 40.482 18.927 40.2634 18.7533C38.6279 17.4589 36.8151 17.1458 34.8993 17.9114C32.981 18.677 31.8213 20.1636 31.5204 22.2526C31.0703 25.3677 33.089 28.1276 36.1362 28.567C37.8642 28.8169 39.3865 28.2802 40.6517 27.0383C41.5568 26.1517 42.9558 26.3807 43.4649 27.5067C43.7632 28.1671 43.6398 28.9405 43.1281 29.4589C41.1608 31.4427 38.7925 32.3372 36.0436 32.0714C32.2275 31.7031 29.1932 29.0116 28.288 25.2387C28.1697 24.7415 28.1311 24.2232 28.054 23.7155C28.0412 23.6365 28.018 23.5575 28 23.4786V22.6578C28.0386 22.3815 28.0797 22.1026 28.1157 21.8264C28.5683 18.2456 31.1809 15.2068 34.5855 14.3228C35.0999 14.1885 35.6244 14.1122 36.1465 14.007H37.6276ZM30.407 38C30.3607 37.9789 30.317 37.9526 30.2681 37.9394C29.4453 37.7001 28.9901 37.0055 29.1007 36.1556C29.201 35.369 29.8439 34.7981 30.6642 34.7902C31.7133 34.7822 32.7625 34.7876 33.8091 34.7876C36.6351 34.7876 39.4638 34.7849 42.2898 34.7876C42.9661 34.7876 43.4907 35.0795 43.7762 35.7163C44.0538 36.3345 43.9844 36.9528 43.5215 37.4422C43.2875 37.6921 42.9276 37.8185 42.6241 38H30.407ZM67.5496 17.5334C66.3075 17.5334 65.104 17.536 63.9032 17.5308C63.7386 17.5308 63.5741 17.5176 63.4146 17.4887C62.5429 17.3282 61.9617 16.5442 62.0414 15.6444C62.1212 14.7446 62.8283 14.0763 63.7129 14.0763C67.3952 14.0737 71.075 14.0737 74.7574 14.0763C75.7294 14.0763 76.4726 14.8235 76.4752 15.7944C76.4777 16.7599 75.7398 17.5203 74.7651 17.5282C73.6028 17.5387 72.4405 17.5308 71.2782 17.5308H70.8976V30.1333C70.8976 30.8726 70.5582 31.4041 69.9102 31.704C69.2596 32.0066 68.6399 31.8908 68.1024 31.4198C67.7064 31.0726 67.5419 30.6121 67.5444 30.0754C67.5496 26.0342 67.547 21.9956 67.547 17.9544C67.5496 17.8333 67.5496 17.7071 67.5496 17.5334Z" fill="#66707C"/>
</g>
</svg>
