<svg width="180" height="46" viewBox="0 0 180 46" fill="none" xmlns="http://www.w3.org/2000/svg">
<g id="logo">
<path id="Union" fill-rule="evenodd" clip-rule="evenodd" d="M156.805 18.5106C159.943 17.944 162.842 19.563 164.016 22.536C165.191 25.509 164.179 28.6729 161.499 30.4122L152.035 36.5541C150.907 37.287 149.643 37.6543 148.376 37.6543C147.277 37.6543 146.173 37.376 145.149 36.8192C142.944 35.6185 141.628 33.4016 141.628 30.8882V10.9835C141.628 9.8949 142.508 9.01205 143.595 9.01205C144.682 9.01205 145.561 9.8949 145.561 10.9835V30.8849C145.561 31.9308 146.111 32.8548 147.028 33.3539C147.945 33.8529 149.015 33.8134 149.895 33.2435L159.359 27.1016C160.666 26.2534 160.732 24.9341 160.356 23.9821C159.981 23.0318 159.033 22.1127 157.499 22.3894L151.051 23.5506C149.982 23.7416 148.959 23.0301 148.766 21.9595C148.576 20.889 149.287 19.8645 150.357 19.6718L156.805 18.5106ZM124.278 19.6735L130.727 18.5122C133.865 17.9473 136.765 19.563 137.934 22.5377C139.107 25.5106 138.096 28.6746 135.418 30.4122L125.952 36.5541C124.825 37.287 123.563 37.6543 122.295 37.6543C121.196 37.6543 120.091 37.376 119.067 36.8192C116.862 35.6185 115.546 33.4016 115.546 30.8882V15.7683C115.546 14.7224 114.999 13.7984 114.081 13.2977C113.164 12.7986 112.091 12.8398 111.215 13.408L87.4138 28.8524C86.1047 29.7023 86.0406 31.0216 86.4172 31.9736C86.7921 32.924 87.7377 33.843 89.2737 33.5663L110.058 29.8242C111.127 29.6315 112.15 30.3446 112.343 31.4153C112.535 32.4858 111.823 33.5103 110.754 33.703L89.9691 37.4451C86.8283 38.0101 83.9307 36.3927 82.7582 33.4214C81.584 30.4484 82.5953 27.2844 85.2743 25.5468L109.08 10.0991C111.187 8.7337 113.761 8.63487 115.966 9.83392C118.17 11.0346 119.486 13.2516 119.486 15.7666V30.8866C119.486 31.9324 120.034 32.8564 120.952 33.3555C121.87 33.8546 122.94 33.815 123.818 33.2451L133.282 27.1033C134.591 26.2551 134.656 24.9358 134.281 23.9838C133.904 23.0334 132.958 22.1143 131.422 22.391L124.974 23.5522C123.905 23.7433 122.882 23.0318 122.69 21.9612C122.499 20.8906 123.21 19.8661 124.278 19.6735ZM39.6368 29.5834C39.6368 29.1924 39.8455 28.9763 40.2057 28.9763C40.562 28.9763 40.7726 29.1924 40.7706 29.5834V37.0294C40.7706 37.4184 40.562 37.6345 40.2057 37.6345C39.8455 37.6345 39.6368 37.4184 39.6368 37.0294V33.7327H34.8968V37.0294C34.8968 37.4184 34.6882 37.6345 34.328 37.6345C33.9717 37.6345 33.7591 37.4184 33.7591 37.0294V29.5834C33.7591 29.1924 33.9717 28.9763 34.328 28.9763C34.6882 28.9763 34.8968 29.1944 34.8968 29.5834V32.6718H39.6368V29.5834ZM49.3549 29.9135L46.0578 33.2042L49.5085 36.6502C49.6719 36.8133 49.7427 36.9449 49.7427 37.1315C49.7427 37.4026 49.5558 37.6325 49.2329 37.6325C49.0636 37.6325 48.9317 37.5756 48.7802 37.4262L45.359 34.0117C45.1779 33.8329 44.9949 33.7308 44.741 33.7308H44.1543V37.0274C44.1543 37.4164 43.9457 37.6325 43.5854 37.6325C43.2292 37.6325 43.0166 37.4164 43.0166 37.0274V29.5815C43.0166 29.1905 43.2292 28.9744 43.5854 28.9744C43.9457 28.9744 44.1543 29.1924 44.1543 29.5815V32.6699H44.8177C45.0736 32.6699 45.2567 32.5697 45.4378 32.3889L48.6601 29.1729C48.8038 29.0314 48.9317 28.9763 49.0912 28.9763C49.3982 28.9763 49.5774 29.1964 49.5774 29.4557C49.5774 29.6325 49.5105 29.7583 49.3549 29.9135ZM51.2938 19.1866C51.9651 19.1866 52.6658 18.9941 53.1776 18.7249V16.8448C52.4769 16.6365 51.9179 16.5442 51.2859 16.5442C50.0872 16.5442 49.4947 17.1257 49.4947 17.8762C49.4947 18.7092 50.1876 19.1866 51.2938 19.1866ZM49.0597 12.2829C49.6148 12.057 50.4828 11.8114 51.4454 11.8114C53.6048 11.8114 54.839 12.7917 54.8409 14.9332V19.0943C54.8409 19.4145 54.7563 19.5717 54.5181 19.7367C54.0201 20.0785 52.7761 20.6208 51.1423 20.6208C49.04 20.6208 47.853 19.442 47.853 17.8762C47.853 16.5226 48.912 15.2888 51.0813 15.2888C51.7938 15.2888 52.4159 15.3791 53.1776 15.5834V14.8958C53.1776 13.8762 52.6383 13.3772 51.3135 13.3772C50.7171 13.3772 50.1206 13.5343 49.7585 13.6797C49.5301 13.7701 49.3156 13.8448 49.1226 13.8448C48.7211 13.8448 48.3983 13.5324 48.3944 13.1061C48.3924 12.7446 48.5912 12.4735 49.0597 12.2829ZM71.4407 17.8565C71.5883 17.5992 71.8068 17.3674 72.1966 17.3595C72.6946 17.3477 73.0331 17.6719 73.0351 18.1532C73.0351 18.4066 72.9426 18.6581 72.789 18.9371C72.2812 19.8762 71.1907 20.6188 69.6219 20.6188C67.5039 20.6188 66.0866 19.2809 65.9015 17.3732C65.8405 16.7367 65.8405 15.6856 65.9015 15.0511C66.0787 13.1434 67.5039 11.8094 69.6219 11.8094C71.1907 11.8094 72.2812 12.556 72.7831 13.4892C72.9367 13.7662 73.0331 14.0196 73.0331 14.2731C73.0331 14.7622 72.6965 15.0727 72.1966 15.0688C71.8068 15.0648 71.5942 14.8271 71.4407 14.5776C71.1356 13.9194 70.5096 13.4735 69.6455 13.4735C68.4349 13.4735 67.7066 14.2082 67.6061 15.2967C67.5531 15.8782 67.5531 16.55 67.6061 17.1316C67.7066 18.2181 68.4251 18.9528 69.6455 18.9528C70.5096 18.9528 71.1414 18.499 71.4407 17.8565ZM30.5663 16.1061L33.5347 19.0687C33.765 19.2966 33.8811 19.5245 33.8811 19.7858C33.8811 20.2239 33.5642 20.5462 33.1115 20.5462C32.8497 20.5462 32.6529 20.4479 32.4009 20.1964L29.3459 17.1493C29.1904 16.9922 29.0231 16.9037 28.8006 16.9037H28.3124V19.6325C28.3124 20.2062 27.9779 20.5441 27.4503 20.5441C26.9286 20.5441 26.5941 20.2062 26.5941 19.6325V12.7957C26.5941 12.222 26.9267 11.888 27.4503 11.888C27.9779 11.888 28.3124 12.222 28.3124 12.7957V15.3222H28.8971C29.1195 15.3222 29.2868 15.2337 29.4424 15.0766L32.3045 12.22C32.5465 11.9784 32.7335 11.888 32.9835 11.888C33.4127 11.888 33.7138 12.1964 33.7138 12.611C33.7138 12.8605 33.6016 13.0766 33.3831 13.2947L30.5663 16.1061ZM60.4923 18.9607C61.7364 18.9607 62.4154 18.2239 62.5159 17.1335C62.5689 16.5402 62.565 15.8468 62.5159 15.2986C62.4174 14.2082 61.7364 13.4675 60.4923 13.4675C59.8466 13.4675 59.0396 13.6641 58.64 13.9489V18.4832C59.0396 18.7642 59.8486 18.9607 60.4923 18.9607ZM57.3546 12.6267C57.8389 12.3418 59.0415 11.8114 60.5454 11.8114C62.6851 11.8114 64.0532 13.1296 64.2284 15.0412C64.2894 15.6896 64.2894 16.7485 64.2284 17.3909C64.0493 19.2986 62.6831 20.6208 60.695 20.6208C59.9431 20.6208 59.1538 20.4282 58.638 20.1787V22.4655C58.638 23.0353 58.3014 23.3732 57.7739 23.3732C57.2503 23.3732 56.9177 23.0353 56.9177 22.4655V13.7033C56.9177 13.0452 56.959 12.8605 57.3546 12.6267ZM28.279 36.6443C29.0723 36.6443 29.9285 36.3968 30.5584 36.0589V33.7464C29.6668 33.4832 29.0309 33.3732 28.279 33.3732C26.7633 33.3732 26.0586 34.0706 26.0586 35.0038C26.0586 36.0431 26.8598 36.6443 28.279 36.6443ZM26.0409 29.4086C26.5645 29.1708 27.531 28.9017 28.5231 28.9017C30.4935 28.9017 31.6804 29.8526 31.6804 31.8997V36.324C31.6804 36.5756 31.6273 36.6816 31.4423 36.8133C30.9856 37.1452 29.7475 37.7131 28.1294 37.7131C26.1708 37.7131 24.9346 36.6345 24.9346 34.994C24.9346 33.5972 26.0271 32.3614 28.1786 32.3614C28.9738 32.3614 29.6372 32.4537 30.5584 32.7209V31.9292C30.5584 30.5991 29.8774 30.0019 28.4089 30.0019C27.6668 30.0019 26.909 30.2278 26.5074 30.3988C26.348 30.4734 26.1846 30.5264 26.0488 30.5264C25.7712 30.5264 25.5469 30.2966 25.537 30.0058C25.5291 29.7249 25.6886 29.5618 26.0409 29.4086ZM17.0117 36.4419H20.2281C21.9111 36.4419 22.6041 35.5893 22.6041 34.1355C22.6041 32.713 21.9111 31.8899 20.2281 31.8899H17.0117V36.4419ZM17.0117 30.7976H20.3738C22.5273 30.7976 23.7733 32.0019 23.7733 34.1256C23.7733 36.3083 22.5253 37.5578 20.3719 37.5578H16.8681C16.2224 37.5578 15.8563 37.1983 15.8563 36.548V27.1728C15.8563 26.5225 16.2243 26.1649 16.8681 26.1649H22.6139C22.9879 26.1649 23.2457 26.3771 23.2457 26.7189C23.2457 27.0765 22.9879 27.2848 22.6139 27.2848H17.0117V30.7976ZM42.9575 15.0707H40.1388V18.8153H42.9575C44.2902 18.8153 44.8846 18.1061 44.8846 16.9175C44.8846 15.7485 44.2902 15.0707 42.9575 15.0707ZM43.1426 20.4676H39.7136C38.8455 20.4676 38.3711 20 38.3731 19.1316V10.4146C38.3731 9.54617 38.8475 9.07662 39.7136 9.07662H45.1858C45.7369 9.07662 46.0952 9.40275 46.0952 9.89587C46.0952 10.4146 45.7369 10.7387 45.1858 10.7387H40.1388V13.5049H43.1426C45.3728 13.5049 46.6937 14.7151 46.6937 16.8802C46.6937 19.1748 45.3728 20.4676 43.1426 20.4676ZM19.9013 10.8428L18.3266 15.3261H21.9387L20.3561 10.8428C20.299 10.6857 20.2478 10.6306 20.1317 10.6306C20.0136 10.6306 19.9624 10.6857 19.9013 10.8428ZM25.1571 19.1631C25.2476 19.4027 25.2752 19.5579 25.2752 19.7171C25.2752 20.1709 24.9189 20.5462 24.413 20.5462C24.0115 20.5462 23.7063 20.3418 23.541 19.8507L22.4978 16.8997H17.7735L16.7381 19.8428C16.5688 20.3418 16.2638 20.5462 15.8563 20.5462C15.3583 20.5462 15 20.1728 15 19.7229C15 19.5972 15.0197 19.4361 15.1181 19.167L18.3168 10.5069C18.6987 9.4499 19.2616 9 20.1474 9C21.0372 9 21.5962 9.4499 21.98 10.5069L25.1571 19.1631Z" fill="#66707C"/>
</g>
</svg>
