<svg width="180" height="46" viewBox="0 0 180 46" fill="none" xmlns="http://www.w3.org/2000/svg">
<g id="logo">
<path id="Union" fill-rule="evenodd" clip-rule="evenodd" d="M164.5 19.4838C164.5 21.4079 162.926 22.9677 160.985 22.9677C159.044 22.9677 157.471 21.4079 157.471 19.4838C157.471 17.5598 159.044 16 160.985 16C162.926 16 164.5 17.5598 164.5 19.4838ZM119.757 24.4934C119.757 26.3012 121.163 27.6947 122.949 27.6947C124.735 27.6947 126.179 26.3012 126.179 24.4934C126.179 22.6855 124.735 21.292 122.949 21.292C121.163 21.292 119.757 22.6855 119.757 24.4934ZM125.799 21.1979H126.179V19.4654H128.382V29.4649H126.179V27.7512H125.799C125.096 29.0129 123.785 29.7285 122.284 29.7285C119.757 29.7285 117.515 27.4687 117.515 24.4934C117.515 21.518 119.814 19.2206 122.284 19.2206C123.785 19.2206 125.096 19.9361 125.799 21.1979ZM17.2418 24.4934C17.2418 26.3012 18.6477 27.6947 20.4335 27.6947C22.2194 27.6947 23.6633 26.3012 23.6633 24.4934C23.6633 22.6855 22.2194 21.292 20.4335 21.292C18.6477 21.292 17.2418 22.6855 17.2418 24.4934ZM23.2833 21.1979H23.6633V19.4654H25.8671V29.4649H23.6633V27.7512H23.2833C22.5804 29.0129 21.2695 29.7285 19.7686 29.7285C17.2418 29.7285 15 27.4687 15 24.4934C15 21.518 17.2988 19.2206 19.7686 19.2206C21.2695 19.2206 22.5804 19.9361 23.2833 21.1979ZM133.721 23.42H138.889V19.4654H141.092V29.4837H138.889V25.5103H133.721V29.4837H131.517V19.4654H133.721V23.42ZM154.106 19.4654L148.882 24.3615L154.372 29.4837H151.124L146.393 24.87V29.4837H144.189V19.4654H146.393V24.0602L151.086 19.4654H154.106ZM108.719 27.5252H112.272C113.298 27.5252 113.754 26.998 113.754 26.2635C113.754 25.5291 113.279 25.0018 112.272 25.0018H108.719V27.5252ZM108.7 23.0433H112.519C114.571 23.0433 116.015 24.4369 116.015 26.2824C116.015 28.1278 114.609 29.4837 112.538 29.4837H106.496V19.4654H115.179V21.405H108.7V23.0433ZM82.5583 24.4934C82.5583 26.2824 83.9072 27.6759 85.7311 27.6759C87.5359 27.6759 88.9038 26.2824 88.9038 24.4934C88.9038 22.6855 87.4979 21.292 85.7311 21.292C83.9072 21.292 82.5583 22.6855 82.5583 24.4934ZM80.4495 23.4388C80.9245 21.0284 83.0713 19.2206 85.7311 19.2206C88.6948 19.2206 91.1266 21.5557 91.1076 24.5122C91.1076 27.4122 88.6948 29.7474 85.7121 29.7474C83.0713 29.7474 80.8865 27.9207 80.4305 25.4914H78.5687V29.4837H76.3649V19.4654H78.5877V23.4388H80.4495ZM95.6292 21.5368H91.9246V19.4654H101.538V21.5368H97.8331V29.4649H95.6292V21.5368ZM63.237 29.4837L67.5686 19.4654H70.3994L74.731 29.4837H72.2992L68.9365 21.4803L65.5738 29.4837H63.237ZM48.1522 22.9304C48.1522 22.9304 47.5443 21.2732 45.3785 21.2732C43.6116 21.2732 42.2817 22.7044 42.2817 24.5122C42.2817 26.32 43.6116 27.7136 45.3785 27.7136C47.5443 27.7136 48.1522 26.0564 48.1522 26.0564H50.489C50.489 26.0564 49.5581 29.7662 45.3785 29.7662C42.3767 29.7662 40.0209 27.4499 40.0209 24.4934C40.0209 21.5557 42.3767 19.2206 45.3785 19.2206C49.5581 19.2206 50.489 22.9304 50.489 22.9304H48.1522ZM31.2056 27.4876H34.7963C35.8223 27.4876 36.2592 26.998 36.2592 26.2635C36.2592 25.5291 35.7843 25.0018 34.7773 25.0018H31.2056V27.4876ZM31.2056 23.0433H35.0623C37.0951 23.0433 38.539 24.4369 38.539 26.2824C38.539 28.1278 37.1141 29.4837 35.0623 29.4837H29.0018V19.4654H37.7031V21.4238H31.2056V23.0433ZM53.9847 24.4934C53.9847 26.2824 55.3526 27.6759 57.2145 27.6759C59.0573 27.6759 60.4442 26.2824 60.4442 24.4934C60.4442 22.6855 59.0193 21.292 57.2145 21.292C55.3526 21.292 53.9847 22.6855 53.9847 24.4934ZM51.7429 24.4934C51.7429 21.5557 54.1557 19.2206 57.2145 19.2206C60.1972 19.2206 62.705 21.5557 62.705 24.4934C62.705 27.3934 60.2542 29.7285 57.2145 29.7285C54.1557 29.7285 51.7429 27.4122 51.7429 24.4934Z" fill="#66707C"/>
</g>
</svg>
