<svg width="180" height="46" viewBox="0 0 180 46" fill="none" xmlns="http://www.w3.org/2000/svg">
<g id="logo">
<path id="path" fill-rule="evenodd" clip-rule="evenodd" d="M29.711 6.7998C20.7686 6.7998 13.5 14.0657 13.5 23.0086C13.5 31.933 20.7686 39.1998 29.711 39.1998C38.6332 39.1998 45.9 31.933 45.9 23.0086C45.9 14.0657 38.6332 6.7998 29.711 6.7998ZM29.711 38.3895C21.2186 38.3895 14.3099 31.4865 14.3099 23.0086C14.3099 14.5131 21.2159 7.61016 29.711 7.61016C38.1889 7.61016 45.0901 14.5166 45.0901 23.0086C45.0901 31.4848 38.1863 38.3895 29.711 38.3895ZM77.302 20.1451C77.302 21.1752 76.3453 21.5136 75.8215 21.5136H74.4363V24.5098H75.7477C76.8529 24.5098 77.3569 25.0345 77.3569 25.822C77.3569 26.3818 76.9465 27.1526 75.8971 27.1526C75.2788 27.1526 74.6613 27.1166 73.7433 26.7202L73.6866 29.6276C73.9868 29.7911 74.2715 29.9212 74.5572 30.0231C75.2168 30.2578 75.883 30.3439 76.7584 30.3563C79.1191 30.3563 80.9543 28.8955 80.9543 26.2526C80.9543 24.1151 79.6799 23.2002 78.7258 22.897V22.7669C79.7168 22.3529 80.7302 21.2877 80.7302 19.5255C80.7302 17.7088 79.5502 15.8534 76.888 15.8534C76.3365 15.8473 75.7863 15.8851 75.2423 15.965C74.845 16.0239 74.4508 16.1048 74.0619 16.2085L74.0988 19.246C74.7927 18.9085 75.5038 18.8514 75.8773 18.8514C76.1977 18.8514 77.302 18.9278 77.302 20.1451ZM107.681 30.2446C111.52 30.2446 112.81 26.6446 112.81 23.0666C112.81 19.4895 111.52 15.8903 107.681 15.8903C103.841 15.8903 102.55 19.4895 102.55 23.0666C102.55 26.6446 103.841 30.2438 107.681 30.2446ZM107.681 26.8512C106.536 26.8512 105.958 25.5223 105.958 23.0666C105.958 20.6109 106.536 19.2812 107.681 19.2812C108.824 19.2812 109.402 20.6109 109.402 23.0666C109.402 25.5223 108.824 26.8512 107.681 26.8512ZM117.121 16.0969H114.368V30.075H117.607V21.5487L119.553 23.9842L121.5 21.5487V30.075H124.743V16.096H122.009L119.553 19.3945L117.121 16.0969ZM126.933 30.075H130.791C131.633 30.075 135.137 29.7182 135.155 25.4818C135.155 21.9267 132.441 21.3062 130.679 21.3062H130.099V19.4517H134.387V16.0969H126.933V30.075ZM130.099 27.2643V24.0976H130.567C130.765 24.0976 131.124 24.1028 131.429 24.2944C131.726 24.4816 131.973 24.8464 131.973 25.5583C131.973 27.0226 130.959 27.2643 130.567 27.2643H130.099ZM146.805 16.0969H149.971V21.1374H152.237V16.0969H155.4V30.0759H152.237V24.4729H149.971V30.0759H146.805V16.0969ZM157.535 16.0969H160.72L160.701 21.1189H161.394L163.211 16.0969H166.656L164.184 22.7317L167.013 30.0759H163.285L161.451 24.4535H160.701L160.72 30.075H157.535V16.0969ZM139.071 30.0935H135.774L138.564 16.1162H142.647L145.419 30.0935H142.124L141.729 27.6765H139.465L139.071 30.0935ZM141.205 24.6029L140.605 20.349L139.987 24.6029H141.205ZM96.4046 30.075H93.1645V16.096H97.4927C100.544 16.096 101.687 18.9437 101.687 20.7419C101.687 22.5806 100.693 25.4669 97.4927 25.4669H96.4046V30.075ZM97.1732 19.1695H96.4046L96.4055 22.3916H97.1732C97.5854 22.3916 98.3729 22.28 98.3729 20.7806C98.3729 19.6195 97.904 19.1695 97.1732 19.1695ZM82.4704 16.0969H91.31V30.0741H88.0695V19.4692H85.7114V30.075H82.4704V16.0969ZM63.0883 30.075H66.3645L66.7775 27.6562H69.0438L69.4362 30.075H72.7119L69.9398 16.096H65.8586L63.0883 30.075ZM67.8999 20.3121L68.5191 24.5845H67.2816L67.8999 20.3121ZM63.4597 16.0969H56.8143V30.0741H60.1084V19.58H63.4597V16.0969ZM34.3077 12.8238C31.7439 11.6804 26.9666 11.567 23.0533 13.3099C23.5573 12.9495 24.097 12.6437 24.6643 12.3949C25.8965 11.821 27.8837 11.2646 30.3605 11.2646C30.4774 11.2646 30.5943 11.2655 30.7116 11.2682C32.8293 11.306 35.3399 12.0372 36.8745 13.5551C37.0283 13.7423 37.1439 13.9295 37.2243 14.1018C37.2806 14.2222 37.3197 14.3347 37.3425 14.4357C38.5603 15.0545 39.2713 15.6346 39.6637 16.3096C39.8338 16.6646 39.8896 17.0382 39.8131 17.4697C40.2126 17.6938 40.5589 18.0015 40.8283 18.3724C40.9144 18.5183 40.9909 18.6729 41.0502 18.8285C41.1056 18.9727 41.1456 19.1168 41.164 19.2539C41.2189 19.6257 41.2559 20.0563 40.8625 20.5635C41.2748 20.77 41.6105 21.3483 41.6509 21.5944C41.857 22.5094 41.2559 23.4094 40.489 24.1046C39.589 24.8903 37.6036 25.8272 35.9925 26.2403C32.8122 27.0454 29.9817 27.3838 27.7361 27.7969C28.7468 28.0395 30.1131 28.3594 32.3433 28.3594C37.1166 28.3594 41.3314 26.1085 41.3314 26.1085C41.3314 26.1085 41.2387 26.3915 41.1434 26.6543C38.1103 28.4895 33.2982 29.2567 31.2363 29.1627C29.1573 29.0678 27.3977 28.7505 25.6742 28.2249C25.1477 28.3734 24.6292 28.5483 24.1207 28.7505C26.7442 29.9493 28.7279 30.213 30.9573 30.38C33.2402 30.5505 37.0257 30.0047 40.2064 28.8463C40.057 28.9975 39.9823 29.2207 39.8338 29.3517C38.7483 29.9256 36.8587 30.4995 35.2028 30.8405C34.3718 31.0119 33.5997 31.1253 33.0174 31.1499C31.293 31.2255 29.1959 31.1499 27.3599 30.8115C25.7867 30.4951 24.4925 30.0047 23.1451 29.4079C22.9039 29.5925 22.7914 29.8201 22.7329 30.0829C27.9989 32.8365 32.9027 32.891 38.5053 31.1499L37.9978 31.6377C31.8357 34.1487 27.0224 33.1731 23.2937 31.374L23.1363 31.3063C23.0533 31.2703 22.9711 31.2316 22.9039 31.1868C23.2603 31.7871 26.1044 33.8666 29.2887 34.1294C31.482 34.3166 34.1591 33.9413 35.7504 33.3059L34.8144 33.7919C34.0458 34.1672 32.0049 35.0312 29.1564 34.8422C25.3556 34.5785 23.2198 32.8919 22.264 32.013C21.8149 31.5981 21.6105 31.1314 21.4783 30.5505C20.8551 30.2253 20.3985 29.8896 20.0246 29.4598C19.8813 29.2945 19.7499 29.1161 19.626 28.9192C19.3632 28.5264 19.4172 28.0588 19.473 27.6624L19.5899 27.3293C19.1751 27.0261 18.7449 26.7079 18.5766 26.3915C18.1995 25.7165 18.428 25.1347 18.6891 24.6847C18.4632 24.4228 18.2562 24.1608 18.1666 23.8989C18.0527 23.5992 18.0352 23.296 18.069 22.9603C18.1455 22.3995 18.4452 21.8766 18.8385 21.4248C19.6611 20.4686 20.9751 19.7197 23.2009 18.9894C25.3942 18.2563 26.2753 18.1438 27.9233 17.7677C28.6559 17.598 29.4429 17.4715 30.2427 17.3423C31.5483 17.1322 32.8882 16.916 34.0835 16.4977C28.7082 15.5616 23.128 16.4221 18.5766 19.5483L18.8754 18.6686C22.9579 16.009 27.4724 14.4357 35.1132 15.7664C35.5254 15.5221 35.7684 15.2777 35.8827 14.7917C33.971 14.0991 31.8933 13.8557 29.2157 13.8917C26.8172 13.9682 22.489 14.8638 20.1705 16.2366L20.8789 15.3542C22.489 14.3953 26.7029 13.142 29.8709 13.0857C32.0977 13.0304 33.2402 13.1604 35.9007 13.8732C35.6717 13.4566 35.1857 13.2316 34.4694 12.8985L34.3077 12.8238ZM38.3902 16.7227C38.3172 16.1979 37.7178 15.6917 37.1922 15.3542C37.1175 15.617 36.8394 15.9352 36.6504 16.1417C37.2309 16.2929 37.8303 16.5144 38.3902 16.7227ZM35.8269 16.8896C35.4498 17.1902 35.0213 17.4513 34.3824 17.6974C34.9493 17.7967 35.4397 17.9294 35.9112 18.07C36.3142 18.1896 36.7036 18.3144 37.1166 18.4269C37.1259 18.4313 37.1364 18.433 37.1465 18.4321C37.3417 18.4321 37.9833 17.8389 38.094 17.6763C37.4533 17.395 36.6666 17.1129 35.8269 16.8896ZM39.8338 19.6441C40.0759 19.1757 39.9265 18.876 39.4225 18.4444C39.2155 18.6905 38.9905 18.8944 38.7475 19.0816C39.1399 19.2688 39.498 19.4016 39.8338 19.6441ZM31.4073 18.6527C28.9349 18.9524 26.1989 19.4745 23.8588 20.1688L23.734 20.2066C22.5725 20.56 18.1806 21.8924 19.5144 23.7293C19.528 23.7293 20.3607 22.5806 23.5015 21.6674C25.5542 21.0645 27.6587 20.6813 29.7962 20.2919C31.7162 19.9421 33.663 19.587 35.6216 19.0641C34.0102 18.6352 33.108 18.4444 31.4073 18.6527ZM34.0849 20.9194C32.7555 21.2561 29.5326 21.7245 26.0692 22.4733C24.982 22.7168 22.003 23.4094 20.5422 24.6469C20.7321 24.8033 20.8903 24.9035 21.0494 24.9914C21.2353 25.0942 21.4229 25.1804 21.6646 25.3219C22.264 24.9272 23.0893 24.5528 24.3088 24.2329C26.4212 23.6722 28.0169 23.4305 29.9268 23.1141C31.8186 22.8275 35.3949 22.0787 37.3605 21.3668C37.8229 21.2104 38.2557 21.0152 38.6209 20.7885C38.7756 20.6927 38.9184 20.5916 39.0463 20.4853C38.9149 20.3376 37.6414 19.7197 37.6036 19.7769C36.8196 20.1504 35.6955 20.5239 34.0849 20.9194ZM29.475 24.6873C28.0424 24.9246 26.6621 25.1531 25.2053 25.5108C24.55 25.677 23.8759 25.8844 23.2603 26.1454C23.8759 26.4645 24.5509 26.7466 25.2242 27.0094C26.5724 26.6156 27.2123 26.4469 29.1564 26.1287C29.9061 25.9951 32.1913 25.5838 33.8388 25.2498C36.8196 24.61 41.1829 23.223 40.0219 21.4248C39.9639 21.474 39.9059 21.5188 39.8479 21.5637C39.7745 21.6217 39.7015 21.6797 39.6286 21.7438C38.7475 22.4145 37.3425 22.9603 35.4146 23.4674C33.1778 24.073 31.2847 24.3867 29.475 24.6873ZM20.4759 26.2368C20.5321 26.1938 20.5871 26.1507 20.6367 26.1085C20.3955 25.9837 20.2144 25.8747 20.0303 25.7587L19.7556 25.5829C19.6897 25.7332 19.7112 25.8888 19.7811 26.0303C19.8703 26.2104 20.0386 26.3687 20.2056 26.4645C20.2865 26.3836 20.3827 26.3089 20.4759 26.2368ZM23.6878 27.5517C23.1451 27.3082 22.5655 27.0665 22.003 26.8037C21.7411 26.9725 21.4989 27.1395 21.3108 27.3082C21.76 27.571 22.1919 27.8127 22.6419 28.0597C22.9729 27.8558 23.3231 27.6853 23.6878 27.5517ZM21.4989 29.2954C21.553 29.1064 21.6483 28.9579 21.7797 28.7707C21.4594 28.5993 21.1417 28.4323 20.8239 28.2249C20.8033 28.5826 21.03 28.9008 21.4989 29.2954Z" fill="#66707C"/>
</g>
</svg>
