<svg width="180" height="46" viewBox="0 0 180 46" fill="none" xmlns="http://www.w3.org/2000/svg">
<g id="logo">
<path id="path" d="M78.9687 18.9727C77.0942 18.9727 75.6921 19.6664 74.9985 20.8137H74.8486V19.3252H71.4219V35.0921H74.8486V30.094H74.9985C75.6883 31.2413 77.0942 31.935 78.9687 31.935C82.4854 31.935 85.2747 29.0628 85.2747 25.4519C85.2747 21.8449 82.4854 18.9727 78.9687 18.9727ZM78.2752 28.8154C76.3632 28.8154 74.8486 27.3267 74.8486 25.4519C74.8486 23.5584 76.3632 22.0886 78.2752 22.0886C80.2435 22.0886 81.7393 23.5584 81.7393 25.4519C81.7393 27.3455 80.2247 28.8154 78.2752 28.8154Z" fill="#66707C"/>
<path id="path_2" d="M155.613 19.8981C153.652 19.8981 152.118 20.6406 151.184 21.9304H151.031C151.286 19.5982 152.606 18.4658 155.447 18.0609L160.422 17.3409V14.1875L155.118 14.9412C150.218 15.6236 147.867 18.2183 147.867 22.8941C147.867 26.2762 148.084 27.3448 148.687 28.6234C149.636 30.6745 151.987 31.9344 154.829 31.9344C158.656 31.9344 161.611 29.2196 161.611 25.665C161.607 22.2454 159.166 19.8981 155.613 19.8981ZM154.791 28.7997C152.842 28.7997 151.402 27.4686 151.402 25.665C151.402 23.8427 152.823 22.5116 154.791 22.5116C156.722 22.5116 158.147 23.8427 158.147 25.665C158.147 27.4686 156.703 28.7997 154.791 28.7997Z" fill="#66707C"/>
<path id="path_3" d="M67.8288 15.6228L63.9711 23.3995L58.7149 15.6228H54.6172L62.2465 26.8791L62.0366 27.3066C61.7066 27.989 61.2717 28.3564 60.267 28.3564H57.5676V31.5961H60.6494C63 31.5961 63.9485 30.9999 64.9308 29.0389L71.6753 15.6191H67.8288V15.6228Z" fill="#66707C"/>
<path id="path_4" d="M105.071 19.3389L104.486 26.958C104.396 28.1505 103.995 28.5854 103.047 28.5854H102.207V31.6862H104.25C106.548 31.6862 107.568 30.6364 107.733 28.4467L108.183 22.526H112.397V31.5813H115.861V19.3389H105.071Z" fill="#66707C"/>
<path id="path_5" d="M124.793 22.1242C126.195 22.1242 127.309 22.9116 127.838 23.9652L130.901 22.8104C130.045 20.4819 127.62 18.9746 124.722 18.9746C120.838 18.9746 117.906 21.7755 117.906 25.4576C117.906 29.1359 120.842 31.9406 124.722 31.9406C127.62 31.9406 130.045 30.4333 130.901 28.1047L127.838 26.9499C127.309 27.9998 126.195 28.7909 124.793 28.7909C122.844 28.7909 121.438 27.4073 121.438 25.4614C121.438 23.5078 122.844 22.1242 124.793 22.1242Z" fill="#66707C"/>
<path id="path_6" d="M141.723 19.3213L136.403 27.1054V19.3213H132.977V31.5824H136.766L142.053 23.8546V31.5824H145.479V19.3213H141.723Z" fill="#66707C"/>
<path id="path_7" d="M97.0472 20.8098H96.8973C96.2074 19.6625 94.8015 18.9688 92.9269 18.9688C89.4103 18.9688 86.6211 21.841 86.6211 25.4518C86.6211 29.0588 89.4103 31.9348 92.9269 31.9348C94.8015 31.9348 96.2036 31.2412 96.8973 30.0937H97.0472V31.5824H100.474V19.3213H97.0472V20.8098ZM93.6243 28.8151C91.6748 28.8151 90.1601 27.3454 90.1601 25.4518C90.1601 23.5583 91.6561 22.0884 93.6243 22.0884C95.5363 22.0884 97.051 23.5583 97.051 25.4518C97.0471 27.3265 95.5363 28.8151 93.6243 28.8151Z" fill="#66707C"/>
<path id="path_8" fill-rule="evenodd" clip-rule="evenodd" d="M32.5534 9.51383C32.7278 9.52234 32.9092 9.53404 33.0986 9.54894V12.1394C33.0986 23.5533 33.5337 28.4874 35.2209 36.096C33.0651 36.6354 30.7783 36.6354 28.6262 36.0918C30.3246 28.4278 30.7629 23.4938 30.7629 12.1394V9.54894C30.99 9.53085 31.2044 9.51809 31.4097 9.51064C31.5911 9.50319 31.7645 9.5 31.9331 9.5C32.1321 9.5 32.3374 9.50426 32.5534 9.51383ZM44.9593 23.9661C44.9593 19.5267 42.5412 15.6235 38.9082 13.4L38.9571 16.4139C41.1167 18.2703 42.4848 20.9703 42.4848 23.9661C42.4848 24.465 42.446 24.9555 42.3715 25.4353C42.2417 26.2714 42.005 27.0746 41.679 27.8321C40.1157 26.347 39.0018 24.6001 38.3087 22.5374C37.4726 20.0405 37.2773 17.3065 37.2476 13.966L37.2513 12.5298C37.0263 12.433 36.7981 12.3426 36.5672 12.2575C36.0289 12.0607 35.4768 11.8979 34.9156 11.7724L34.9193 13.9617C34.9981 25.4959 36.9965 30.2502 39.9694 33.8236C43.0098 31.5289 44.9593 27.9672 44.9593 23.9661ZM28.9422 13.9639L28.9459 11.7745C28.5161 11.8713 28.0916 11.9894 27.6751 12.1277C27.3139 12.2468 26.9586 12.3819 26.6102 12.5319L26.6139 13.9681C26.5804 17.3054 26.3889 20.0427 25.5528 22.5395C24.8634 24.6023 23.7458 26.3459 22.1825 27.8342C21.9809 27.3651 21.8134 26.8789 21.6841 26.3789C21.4846 25.6065 21.3767 24.7991 21.3767 23.9682C21.3767 20.9682 22.741 18.2724 24.9043 16.416L24.9533 13.4022C21.3165 15.6213 18.8984 19.5246 18.8984 23.9682C18.8984 27.9693 20.8516 31.5311 23.8884 33.8258C26.8687 30.2566 28.8634 25.498 28.9422 13.9639Z" fill="#66707C"/>
</g>
</svg>
