<svg width="285.379" height="282.382" fill="none" xmlns="http://www.w3.org/2000/svg"><defs><linearGradient x1="106.14" y1="113.394" x2="174.984" y2="172.312" id="paint_linear_1_6118_0" gradientUnits="userSpaceOnUse"><stop stop-color="#FE9A50"/><stop offset="1" stop-color="#FE6A36"/></linearGradient><linearGradient x1="113.71" y1="119.151" x2="168.295" y2="165.866" id="paint_linear_1_6119_0" gradientUnits="userSpaceOnUse"><stop stop-color="#FE9A50"/><stop offset="1" stop-color="#FE6A36"/></linearGradient><linearGradient x1="107.774" y1="120.799" x2="177.421" y2="165.527" id="paint_linear_1_6119_1" gradientUnits="userSpaceOnUse"><stop stop-color="#FFF"/><stop offset="1" stop-color="#FFF" stop-opacity=".2"/></linearGradient><filter id="filter_1_6118_dd" x="0" y="0" width="285.379" height="282.382" filterUnits="userSpaceOnUse" color-interpolation-filters="sRGB"><feFlood flood-opacity="0" result="BackgroundImageFix"/><feBlend in="SourceGraphic" in2="BackgroundImageFix" result="shape"/><feGaussianBlur stdDeviation="29.333" result="effect_layerBlur_1"/></filter><filter id="filter_1_6119_dd" x="107.531" y="106.975" width="70.317" height="68.431" filterUnits="userSpaceOnUse" color-interpolation-filters="sRGB"><feFlood flood-opacity="0" result="BackgroundImageFix"/><feGaussianBlur in="BackgroundImage" stdDeviation="13.333"/><feComposite in2="SourceAlpha" operator="in" result="effect_backgroundBlur_1"/><feBlend in="SourceGraphic" in2="effect_backgroundBlur_1" result="shape"/></filter></defs><g filter="url(#filter_1_6118_dd)"><path id="Vector" d="M172.62 107.21l14.41 43.16-29.94 33.97-44.34-9.18-14.41-43.15 29.94-33.98 44.34 9.18zm0 0l-29.94 33.98c2.82 8.42 5.01 15 7.21 21.57 2.19 6.58 4.39 13.15 7.2 21.58m-58.75-52.33l44.34 9.18" stroke="url(#paint_linear_1_6118_0)" stroke-opacity="1" stroke-width="18.3"/></g><g filter="url(#filter_1_6119_dd)"><path id="Vector" d="M131.26 106.97l35.16 7.28 11.42 34.21-23.73 26.94-35.16-7.28-11.42-34.21 23.73-26.94z" fill="url(#paint_linear_1_6119_0)" fill-rule="nonzero"/><path id="Vector" d="M164.17 113.78l2.25.47 11.42 34.21-22.2 25.21-1.53 1.73-2.27-.47-32.89-6.81-11.42-34.21 1.52-1.73 22.21-25.21 32.91 6.81zM132 109.16l30.64 6.35-20.69 23.48-30.65-6.34 20.7-23.49zm9.15 33.75l-30.63-6.34 9.96 29.83 30.63 6.34-9.96-29.83zm3.8-1.27l20.67-23.46 9.96 29.82-20.68 23.47-9.95-29.83z" fill="url(#paint_linear_1_6119_1)" fill-rule="evenodd"/></g></svg>