<svg width="24" height="24" fill="none" xmlns="http://www.w3.org/2000/svg"><g id="ri:phone-fill" clip-path="url(#clip0_217_434)"><path id="Vector" d="M24 17.893v4.715a1.333 1.333 0 01-1.24 1.33c-.583.04-1.059.062-1.427.062C9.551 24 0 14.45 0 2.667c0-.368.02-.844.061-1.427A1.333 1.333 0 011.392 0h4.715a.667.667 0 01.664.6c.03.307.058.55.085.736a18.55 18.55 0 001.61 5.335.608.608 0 01-.195.756L5.393 9.483a17.396 17.396 0 009.126 9.125l2.053-2.872a.616.616 0 01.764-.199 18.53 18.53 0 005.333 1.607c.186.027.43.055.734.085a.667.667 0 01.597.664z" fill="#1672DE"/></g><defs><clipPath id="clip0_217_434"><path fill="#fff" d="M0 0h24v24H0z"/></clipPath></defs></svg>