<svg width="20" height="20" fill="none" xmlns="http://www.w3.org/2000/svg"><path d="M17.5 2.5h-15c-.663 0-1.298.252-1.767.7A2.335 2.335 0 000 4.886v10.228c0 .632.264 1.239.733 1.686a2.564 2.564 0 001.767.7h15c.663 0 1.298-.252 1.767-.7A2.335 2.335 0 0020 15.114V4.886a2.33 2.33 0 00-.733-1.686 2.564 2.564 0 00-1.767-.7zm-.633 3.947l-6.429 4.773a.736.736 0 01-.876 0L3.133 6.447a.693.693 0 01-.187-.2.661.661 0 01.266-.938.738.738 0 01.798.062L10 9.818l5.99-4.447a.74.74 0 01.995.125.66.66 0 01-.118.951z" fill="#1672DE"/></svg>