<svg width="396" height="29" fill="none" xmlns="http://www.w3.org/2000/svg"><path fill-rule="evenodd" clip-rule="evenodd" d="M102.327 0H4.02L0 29h98.483l3.844-29zM7.72 25.808c.15.128.33.192.544.192h2.912c.235 0 .416-.075.544-.224a.74.74 0 00.224-.544V7.6h9.44v17.632a.74.74 0 00.224.544c.15.15.33.224.544.224h2.88a.78.78 0 00.576-.224.74.74 0 00.224-.544V4.4a.78.78 0 00-.224-.576.78.78 0 00-.576-.224H8.264a.74.74 0 00-.544.224.78.78 0 00-.224.576v20.832a.78.78 0 00.224.576zm26.8-.416c1.366.619 2.998.928 4.896.928 1.9 0 3.531-.31 4.897-.928a7.137 7.137 0 003.231-2.912c.769-1.323 1.184-2.965 1.248-4.928a58.495 58.495 0 000-5.472c-.064-1.941-.49-3.563-1.28-4.864a7.521 7.521 0 00-3.264-2.944c-1.386-.661-2.997-.992-4.831-.992-1.835 0-3.446.33-4.833.992a7.56 7.56 0 00-3.232 2.944c-.789 1.301-1.215 2.923-1.28 4.864a121.362 121.362 0 000 5.472c.065 1.963.48 3.605 1.248 4.928a7.169 7.169 0 003.2 2.912zm8.288-3.968c-.874.81-2.005 1.216-3.392 1.216-1.365 0-2.485-.405-3.36-1.216-.874-.832-1.343-2.176-1.407-4.032a108.222 108.222 0 010-5.184c.042-1.237.266-2.24.672-3.008.426-.79.992-1.355 1.696-1.696.703-.363 1.503-.544 2.4-.544.917 0 1.727.181 2.431.544.705.341 1.26.907 1.665 1.696.426.768.66 1.77.704 3.008.042.917.064 1.781.064 2.592 0 .79-.022 1.653-.064 2.592-.064 1.856-.534 3.2-1.408 4.032zm24.523 4.352c.149.15.33.224.543.224h2.88a.78.78 0 00.576-.224.74.74 0 00.225-.544V4.4a.78.78 0 00-.225-.576.78.78 0 00-.576-.224H56.61a.74.74 0 00-.544.224.74.74 0 00-.224.544v6.688c0 1.77-.074 3.328-.224 4.672-.149 1.323-.384 2.432-.704 3.328-.298.896-.682 1.59-1.151 2.08-.448.49-.992.79-1.633.896-.49.064-.736.32-.736.768v2.4c0 .213.075.405.224.576.171.15.363.213.576.192 1.536-.043 2.816-.33 3.84-.864 1.025-.555 1.835-1.387 2.433-2.496.597-1.13 1.023-2.603 1.28-4.416.277-1.813.416-4 .416-6.56V7.6h6.944v17.632a.74.74 0 00.224.544zm9.451 0a.74.74 0 00.544.224h2.689c.255 0 .458-.064.608-.192.149-.128.255-.235.32-.32l10.496-14.656v14.4a.74.74 0 00.224.544.78.78 0 00.576.224h2.88a.74.74 0 00.543-.224.74.74 0 00.224-.544V4.4a.78.78 0 00-.224-.576.74.74 0 00-.544-.224h-2.655a.854.854 0 00-.576.192 1.75 1.75 0 00-.353.32L81.006 19.088V4.4a.78.78 0 00-.224-.576c-.127-.15-.309-.224-.543-.224h-2.88a.78.78 0 00-.576.224.78.78 0 00-.225.576v20.8a.78.78 0 00.224.576zm28.458-.032c1.109.384 2.389.576 3.839.576 1.537 0 2.891-.192 4.065-.576 1.194-.384 2.229-.907 3.103-1.568a8.777 8.777 0 002.177-2.368 10.738 10.738 0 001.279-2.912c.043-.192.011-.352-.096-.48a.548.548 0 00-.447-.192h-3.105c-.234 0-.426.053-.576.16-.149.107-.298.31-.447.608-.619 1.387-1.419 2.347-2.4 2.88-.96.512-2.059.768-3.297.768-1.429 0-2.474-.395-3.135-1.184-.64-.81-.801-2.133-.481-3.968.32-1.835.705-3.627 1.152-5.376.448-1.835 1.206-3.147 2.273-3.936 1.066-.81 2.314-1.216 3.743-1.216 1.238 0 2.219.267 2.944.8.747.533 1.089 1.483 1.024 2.848 0 .277.065.48.193.608.149.107.351.16.608.16h3.072a.649.649 0 00.479-.192.778.778 0 00.225-.48c.213-1.067.17-2.048-.129-2.944-.298-.896-.821-1.685-1.568-2.368-.725-.683-1.642-1.205-2.752-1.568-1.109-.363-2.378-.544-3.808-.544-2.005 0-3.733.352-5.183 1.056a9.152 9.152 0 00-3.584 2.976c-.918 1.301-1.611 2.848-2.081 4.64l-.672 2.88a72.916 72.916 0 00-.544 2.816c-.234 1.365-.224 2.581.033 3.648.255 1.067.725 1.984 1.407 2.752.705.747 1.6 1.312 2.689 1.696zm21.811.032a.64.64 0 00.512.224h2.944a.89.89 0 00.608-.224.95.95 0 00.32-.544l3.776-17.696h5.92a.891.891 0 00.608-.224.951.951 0 00.32-.544l.512-2.368c.043-.235 0-.427-.128-.576-.106-.15-.277-.224-.512-.224h-16.32a.976.976 0 00-.608.224.978.978 0 00-.32.576l-.512 2.368c-.042.213-.01.395.096.544.128.15.31.224.544.224h5.92l-3.776 17.696c-.042.213-.01.395.096.544zm12.243-.096c.085.213.267.32.544.32h2.944c.256 0 .469-.064.64-.192a1.92 1.92 0 00.416-.416l2.336-3.904h9.504l.704 3.776c.043.213.128.395.256.544.128.128.341.192.64.192h2.72a.64.64 0 00.544-.256c.149-.17.203-.405.16-.704L157.374 4.4a.869.869 0 00-.256-.544c-.149-.17-.384-.256-.704-.256h-3.712c-.32 0-.587.085-.8.256a1.96 1.96 0 00-.48.544l-12.096 20.64a.627.627 0 00-.032.64zm16.064-7.872h-7.296l5.76-9.888 1.536 9.888zm22.184 7.968c.107.15.278.224.513.224h2.879a.89.89 0 00.608-.224.776.776 0 00.321-.544L186.311 4.4c.042-.235 0-.427-.129-.576-.106-.15-.277-.224-.511-.224h-14.144a.891.891 0 00-.608.224.958.958 0 00-.321.544l-1.408 6.688c-.383 1.77-.799 3.328-1.247 4.672-.427 1.323-.897 2.432-1.408 3.328-.491.896-1.025 1.59-1.601 2.08-.554.49-1.151.79-1.791.896-.534.064-.832.32-.897.768l-.512 2.4a.692.692 0 00.129.576c.106.15.277.213.511.192 1.536-.043 2.87-.33 4-.864 1.153-.555 2.144-1.387 2.976-2.496.854-1.13 1.601-2.603 2.24-4.416.662-1.813 1.259-4 1.792-6.56l.865-4.032h6.943l-3.775 17.632a.772.772 0 00.127.544zm9.395 0a.64.64 0 00.512.224h7.808c1.771 0 3.307-.32 4.608-.96 1.323-.64 2.4-1.515 3.232-2.624a9.139 9.139 0 001.664-3.68c.32-1.45.288-2.688-.096-3.712-.384-1.045-1.109-1.845-2.176-2.4-1.045-.555-2.442-.832-4.192-.832h-4.16l1.6-7.424a.608.608 0 00-.128-.544c-.106-.15-.277-.224-.512-.224h-2.912a.853.853 0 00-.576.224.962.962 0 00-.32.544l-4.448 20.864c-.042.213-.01.395.096.544zm8.864-3.328h-3.936l1.536-7.2h3.968c1.152 0 1.974.288 2.464.864.491.576.608 1.44.352 2.592-.213 1.11-.714 2.016-1.504 2.72-.768.683-1.728 1.024-2.88 1.024z" fill="#1672DE"/><path d="M216 6.126V5.107h6.204v1.019h-2.501v6.825h-1.206V6.126H216zm14.194 2.903c0 .838-.157 1.557-.47 2.16a3.404 3.404 0 01-1.288 1.386c-.543.322-1.16.483-1.851.483-.694 0-1.314-.16-1.859-.482a3.403 3.403 0 01-1.284-1.39c-.313-.603-.47-1.322-.47-2.157 0-.837.157-1.556.47-2.156a3.376 3.376 0 011.284-1.387c.545-.324 1.165-.486 1.859-.486.691 0 1.308.162 1.851.486.545.322.975.784 1.288 1.387.313.6.47 1.319.47 2.156zm-1.198 0c0-.638-.106-1.176-.317-1.612-.209-.44-.496-.771-.861-.996a2.275 2.275 0 00-1.233-.341c-.462 0-.874.114-1.237.34-.363.226-.65.558-.861.997-.209.436-.313.974-.313 1.612 0 .638.104 1.177.313 1.616.211.437.498.769.861.996.363.225.775.337 1.237.337.459 0 .87-.112 1.233-.337.365-.227.652-.56.861-.996.211-.439.317-.978.317-1.616zm2.705 3.921V5.108h2.858c.623 0 1.14.111 1.55.333.409.223.716.526.92.912.203.383.305.814.305 1.294 0 .483-.103.917-.309 1.303a2.218 2.218 0 01-.924.911c-.41.222-.925.333-1.546.333h-1.965V9.19h1.855c.394 0 .714-.066.959-.2a1.26 1.26 0 00.54-.55c.115-.233.173-.497.173-.794 0-.296-.058-.559-.173-.789a1.217 1.217 0 00-.544-.54c-.245-.13-.569-.195-.97-.195h-1.519v6.829h-1.21zm12.049-7.843v1.019h-3.789v6.825h-1.209V5.107h4.998zm7.982 3.922c0 .838-.157 1.557-.47 2.16a3.397 3.397 0 01-1.288 1.386c-.542.322-1.159.483-1.851.483-.694 0-1.314-.16-1.859-.482a3.403 3.403 0 01-1.284-1.39c-.313-.603-.47-1.322-.47-2.157 0-.837.157-1.556.47-2.156a3.376 3.376 0 011.284-1.387c.545-.324 1.165-.486 1.859-.486.692 0 1.309.162 1.851.486.546.322.975.784 1.288 1.387.313.6.47 1.319.47 2.156zm-1.198 0c0-.638-.106-1.176-.317-1.612-.209-.44-.496-.771-.861-.996a2.275 2.275 0 00-1.233-.341c-.462 0-.874.114-1.237.34-.362.226-.65.558-.861.997-.209.436-.313.974-.313 1.612 0 .638.104 1.177.313 1.616.211.437.499.769.861.996.363.225.775.337 1.237.337.459 0 .87-.112 1.233-.337.365-.227.652-.56.861-.996.211-.439.317-.978.317-1.616zm2.706 3.921V5.108h2.935c.569 0 1.04.092 1.413.276.374.181.653.428.838.74.185.308.278.657.278 1.045 0 .327-.061.602-.184.827-.123.222-.287.4-.493.536-.204.133-.428.23-.673.291V8.9c.266.013.525.097.778.253.256.153.468.371.635.655.167.283.25.628.25 1.034 0 .4-.097.76-.29 1.08-.19.316-.485.568-.884.754-.399.184-.91.276-1.531.276h-3.072zm1.209-1.014h1.746c.579 0 .994-.11 1.245-.33.25-.219.375-.493.375-.823 0-.247-.064-.475-.191-.682a1.363 1.363 0 00-.548-.494 1.789 1.789 0 00-.838-.183h-1.789v2.512zm0-3.435h1.621a1.7 1.7 0 00.732-.154c.219-.102.392-.245.52-.429.131-.186.196-.406.196-.658 0-.325-.116-.597-.348-.816-.233-.22-.589-.33-1.069-.33h-1.652v2.387zm12.966.528c0 .838-.157 1.557-.47 2.16a3.397 3.397 0 01-1.288 1.386c-.542.322-1.16.483-1.851.483-.694 0-1.314-.16-1.859-.482a3.403 3.403 0 01-1.284-1.39c-.313-.603-.47-1.322-.47-2.157 0-.837.157-1.556.47-2.156a3.376 3.376 0 011.284-1.387c.545-.324 1.165-.486 1.859-.486.691 0 1.309.162 1.851.486.546.322.975.784 1.288 1.387.313.6.47 1.319.47 2.156zm-1.198 0c0-.638-.106-1.176-.317-1.612-.209-.44-.496-.771-.861-.996a2.275 2.275 0 00-1.233-.341c-.462 0-.874.114-1.237.34-.363.226-.65.558-.861.997-.209.436-.313.974-.313 1.612 0 .638.104 1.177.313 1.616.211.437.498.769.861.996.363.225.775.337 1.237.337.459 0 .87-.112 1.233-.337.365-.227.652-.56.861-.996.211-.439.317-.978.317-1.616zm6.154-.498v.996h-3.554V8.53h3.554zm7.92-3.424v7.844h-1.205V6.118h-3.774v6.833h-1.205V5.107h6.184zm1.85 7.843V5.108h2.857c.624 0 1.14.111 1.55.333.41.223.716.526.92.912.203.383.305.814.305 1.294 0 .483-.103.917-.309 1.303a2.218 2.218 0 01-.924.911c-.41.222-.925.333-1.546.333h-1.965V9.19h1.855c.394 0 .714-.066.959-.2.246-.135.426-.318.54-.55.115-.233.173-.497.173-.794 0-.296-.058-.559-.173-.789a1.217 1.217 0 00-.544-.54c-.245-.13-.568-.195-.97-.195h-1.519v6.829h-1.209zm14.013-3.921c0 .838-.157 1.557-.47 2.16a3.402 3.402 0 01-1.287 1.386c-.543.322-1.16.483-1.852.483-.694 0-1.314-.16-1.859-.482a3.403 3.403 0 01-1.284-1.39c-.313-.603-.469-1.322-.469-2.157 0-.837.156-1.556.469-2.156a3.376 3.376 0 011.284-1.387c.545-.324 1.165-.486 1.859-.486.692 0 1.309.162 1.852.486a3.37 3.37 0 011.287 1.387c.313.6.47 1.319.47 2.156zm-1.198 0c0-.638-.105-1.176-.317-1.612-.208-.44-.495-.771-.861-.996a2.273 2.273 0 00-1.233-.341c-.462 0-.874.114-1.237.34-.362.226-.649.558-.861.997-.208.436-.313.974-.313 1.612 0 .638.105 1.177.313 1.616.212.437.499.769.861.996.363.225.775.337 1.237.337.46 0 .87-.112 1.233-.337.366-.227.653-.56.861-.996.212-.439.317-.978.317-1.616zm2.706-3.922h1.198v5.76h.074l4.079-5.76h1.119v7.844h-1.209V7.198h-.075l-4.071 5.753h-1.115V5.107zm10.915 7.951c-.537 0-1.017-.09-1.44-.272a2.436 2.436 0 01-.998-.754 1.97 1.97 0 01-.391-1.126h1.229c.015.232.095.434.238.605.146.168.337.299.572.39.235.092.496.138.783.138.315 0 .595-.053.837-.16a1.37 1.37 0 00.576-.449c.138-.194.207-.417.207-.67 0-.263-.069-.494-.207-.693a1.35 1.35 0 00-.599-.475c-.261-.115-.577-.172-.947-.172h-.678v-.965h.678c.297 0 .558-.053.782-.157a1.28 1.28 0 00.533-.437c.128-.189.191-.41.191-.663 0-.242-.056-.453-.168-.632a1.116 1.116 0 00-.47-.425 1.55 1.55 0 00-.712-.153c-.261 0-.505.047-.732.142a1.352 1.352 0 00-.548.398 1.014 1.014 0 00-.227.617h-1.17c.013-.424.141-.797.383-1.119a2.48 2.48 0 01.971-.754A3.22 3.22 0 01308.609 5c.514 0 .957.098 1.331.295.375.194.665.453.868.777.207.325.308.68.306 1.065.002.44-.123.812-.376 1.118-.25.307-.584.512-1.002.617v.061c.532.08.945.286 1.237.62.295.335.441.75.438 1.245a1.9 1.9 0 01-.368 1.16c-.245.343-.58.612-1.006.809-.425.194-.912.291-1.46.291zM313 12.95V5.108h2.936c.569 0 1.04.092 1.413.276.373.181.652.428.838.74.185.308.277.657.277 1.045 0 .327-.061.602-.183.827a1.5 1.5 0 01-.494.536 2.18 2.18 0 01-.673.291V8.9c.266.013.526.097.779.253.256.153.467.371.634.655.167.283.251.628.251 1.034 0 .4-.097.76-.29 1.08-.191.316-.485.568-.885.754-.399.184-.909.276-1.53.276H313zm1.21-1.014h1.746c.579 0 .994-.11 1.244-.33.251-.219.376-.493.376-.823a1.27 1.27 0 00-.192-.682 1.357 1.357 0 00-.548-.494 1.788 1.788 0 00-.837-.183h-1.789v2.512zm0-3.435h1.62c.272 0 .516-.052.732-.154.219-.102.393-.245.521-.429.13-.186.196-.406.196-.658 0-.325-.117-.597-.349-.816-.232-.22-.588-.33-1.068-.33h-1.652v2.387zm12.965.528c0 .838-.156 1.557-.469 2.16a3.41 3.41 0 01-1.288 1.386c-.543.322-1.16.483-1.851.483-.695 0-1.314-.16-1.86-.482a3.417 3.417 0 01-1.284-1.39c-.313-.603-.469-1.322-.469-2.157 0-.837.156-1.556.469-2.156a3.39 3.39 0 011.284-1.387c.546-.324 1.165-.486 1.86-.486.691 0 1.308.162 1.851.486a3.38 3.38 0 011.288 1.387c.313.6.469 1.319.469 2.156zm-1.197 0c0-.638-.106-1.176-.317-1.612-.209-.44-.496-.771-.862-.996a2.27 2.27 0 00-1.232-.341 2.28 2.28 0 00-1.237.34c-.363.226-.65.558-.861.997-.209.436-.314.974-.314 1.612 0 .638.105 1.177.314 1.616.211.437.498.769.861.996.362.225.775.337 1.237.337.459 0 .87-.112 1.232-.337.366-.227.653-.56.862-.996.211-.439.317-.978.317-1.616zm2.099 5.818v-2.9h.528c.18-.148.348-.358.505-.631.156-.274.29-.643.399-1.107.11-.465.185-1.061.227-1.789l.188-3.313h4.944v6.84h.908v2.888h-1.159v-1.884h-5.382v1.896h-1.158zm1.953-2.9h3.679V6.126h-2.689l-.125 2.294c-.034.554-.09 1.052-.169 1.494a7.102 7.102 0 01-.293 1.172 4.183 4.183 0 01-.403.861zm13.728-4.289h-1.221a1.801 1.801 0 00-.732-1.168 2.032 2.032 0 00-.622-.307 2.477 2.477 0 00-.724-.103 2.3 2.3 0 00-1.241.34c-.363.228-.65.561-.861 1-.209.44-.313.976-.313 1.609 0 .638.104 1.177.313 1.616.211.44.5.771.865.996.365.225.776.337 1.233.337.253 0 .493-.033.72-.1.23-.069.437-.17.622-.302.186-.133.342-.295.47-.487.131-.194.221-.416.27-.666l1.221.004a3.15 3.15 0 01-.379 1.065c-.186.321-.424.6-.717.835a3.255 3.255 0 01-.994.54 3.75 3.75 0 01-1.221.191c-.694 0-1.312-.16-1.855-.482a3.403 3.403 0 01-1.284-1.39c-.311-.603-.466-1.322-.466-2.157 0-.837.157-1.556.47-2.156a3.376 3.376 0 011.284-1.387c.542-.324 1.16-.486 1.851-.486.425 0 .822.06 1.19.18.37.117.703.291.998.52.295.228.539.506.732.836.193.327.324.7.391 1.122zm1.052-1.532V5.107h6.204v1.019h-2.501v6.825h-1.205V6.126h-2.498zm7.575 6.824V5.108h2.936c.569 0 1.04.092 1.413.276.373.181.652.428.837.74.186.308.278.657.278 1.045 0 .327-.061.602-.184.827-.122.222-.287.4-.493.536a2.18 2.18 0 01-.673.291V8.9c.266.013.526.097.779.253.255.153.467.371.634.655.167.283.25.628.25 1.034 0 .4-.096.76-.289 1.08-.191.316-.486.568-.885.754-.399.184-.909.276-1.53.276h-3.073zm1.21-1.014h1.745c.58 0 .994-.11 1.245-.33.25-.219.376-.493.376-.823a1.27 1.27 0 00-.192-.682 1.363 1.363 0 00-.548-.494 1.789 1.789 0 00-.838-.183h-1.788v2.512zm0-3.435h1.62a1.7 1.7 0 00.732-.154c.219-.102.393-.245.521-.429a1.12 1.12 0 00.195-.658c0-.325-.116-.597-.348-.816-.232-.22-.589-.33-1.069-.33h-1.651v2.387zm6.002 4.449V5.108h5.026v1.019h-3.817v2.39h3.554V9.53h-3.554v2.401h3.864v1.019h-5.073zm6.641 0V5.108h1.21v3.409h3.996v-3.41h1.213v7.844h-1.213V9.53h-3.996v3.42h-1.21zm8.181 0V5.108h1.209v3.409h3.996v-3.41h1.214v7.844h-1.214V9.53h-3.996v3.42h-1.209zm8.857 0h-1.284l2.885-7.843h1.397l2.885 7.844h-1.284l-2.266-6.42h-.063l-2.27 6.42zm.215-3.07h4.165v.995h-4.165v-.996zM396 12.95h-1.213V6.123h-1.519c-.397 0-.719.059-.967.176a1.129 1.129 0 00-.544.498 1.622 1.622 0 00-.172.77c0 .294.057.545.172.755.115.209.295.368.54.478.246.11.565.165.959.165h2.055v1.019h-2.168c-.619 0-1.134-.101-1.546-.303a2.088 2.088 0 01-.924-.846c-.204-.365-.305-.788-.305-1.268 0-.483.101-.908.305-1.275.203-.37.51-.66.92-.87.412-.21.927-.314 1.546-.314H396v7.844zm-3.957-3.538h1.338l-1.945 3.539h-1.374l1.981-3.539zM221.151 25.893l-2.693-3.516h-.853v3.516h-1.21v-7.844h1.21v3.313H218l3.03-3.313h1.475l-3.205 3.512 3.327 4.332h-1.476zm9.161-3.922c0 .837-.157 1.558-.47 2.16a3.397 3.397 0 01-1.288 1.386c-.542.322-1.159.483-1.851.483-.694 0-1.314-.16-1.859-.483a3.402 3.402 0 01-1.284-1.39c-.313-.602-.47-1.321-.47-2.156 0-.837.157-1.556.47-2.156a3.377 3.377 0 011.284-1.387c.545-.324 1.165-.486 1.859-.486.692 0 1.309.162 1.851.486.546.322.975.784 1.288 1.387.313.6.47 1.319.47 2.156zm-1.198 0c0-.638-.105-1.176-.317-1.612-.209-.44-.496-.772-.861-.996a2.276 2.276 0 00-1.233-.341c-.462 0-.874.114-1.237.34-.362.226-.649.557-.861.997-.209.436-.313.974-.313 1.612 0 .638.104 1.177.313 1.616.212.437.499.769.861.996.363.225.775.337 1.237.337.459 0 .87-.112 1.233-.337.365-.227.652-.56.861-.996.212-.439.317-.978.317-1.616zm2.706-3.921h1.468l2.552 6.096h.094l2.552-6.097h1.467v7.844h-1.15v-5.676h-.075l-2.364 5.664h-.955l-2.364-5.668h-.074v5.68h-1.151v-7.844zm16.158 0v7.843h-1.205V19.06H243v6.833h-1.206v-7.844h6.184zm2.527 7.843h-1.284l2.885-7.844h1.397l2.885 7.844h-1.284l-2.266-6.42h-.063l-2.27 6.42zm.215-3.072h4.165v.996h-4.165v-.996zm6.825 3.072v-7.844h1.21v3.409h3.996v-3.409h1.213v7.844h-1.213v-3.42h-3.996v3.42h-1.21zm8.181-7.843h1.198v5.76h.074l4.078-5.76h1.12v7.843h-1.21V20.14h-.074l-4.071 5.753h-1.115v-7.844zm13.917 7.843h-1.213v-6.829h-1.519c-.396 0-.719.059-.966.176a1.13 1.13 0 00-.545.498 1.635 1.635 0 00-.172.77c0 .294.058.545.172.754.115.21.295.37.541.48.245.109.565.164.959.164h2.054v1.019h-2.168c-.618 0-1.134-.101-1.546-.303a2.088 2.088 0 01-.924-.846 2.57 2.57 0 01-.305-1.268c0-.483.102-.908.305-1.275.204-.37.51-.66.92-.87.412-.21.928-.314 1.546-.314h2.861v7.844zm-3.957-3.539h1.339l-1.945 3.539h-1.374l1.98-3.539z" fill="#B8B8B8"/></svg>