<svg width="183" height="77" fill="none" xmlns="http://www.w3.org/2000/svg"><g clip-path="url(#clip0_212_377)"><path d="M-12.534-12.42H190.52V91.904H-12.534V-12.419z" fill="#FEFEFE"/><path d="M122.963 2.876c1.328-.44 2.73-.648 4.13-.67 2.664-.021 5.324.329 7.914.938 4.362.946 8.572 2.468 12.683 4.167 8.584 3.646 16.772 8.187 24.453 13.425 2.082 1.456 4.16 2.925 6.097 4.565.852.798 1.709 1.682 2.017 2.834.223 1.15-.175 2.43-1.096 3.194-.876.849-2.219 1.076-3.387.82-1.157-.158-2.164-.772-3.188-1.28-4.294-2.095-8.739-3.897-13.32-5.286-2.03-.648-4.098-1.17-6.164-1.69-5.075-1.131-10.251-1.886-15.456-2.04-2.247-.143-4.505-.05-6.744.18 2.989 4.63 6.367 9.004 9.9 13.243.731.835.975 2.08.525 3.1-.703 1.484-2.552 2.363-4.157 1.844-.76-.222-1.271-.848-1.803-1.382-1.406-1.637-2.781-3.304-4.07-5.033-1.75-2.195-3.354-4.498-4.971-6.79-.862-1.31-1.818-2.568-2.556-3.952-8.221 1.517-16.053 4.663-23.377 8.582-2.461 1.362-4.904 2.762-7.233 4.338-1.664 1.058-3.196 2.298-4.804 3.432-.737.57-1.736.676-2.64.565-1.189-.33-2.286-1.214-2.544-2.444-.21-.658-.093-1.37.172-1.996.32-.593.819-1.07 1.337-1.5 4.335-3.538 9.092-6.559 14.07-9.145 9.956-5.086 20.86-8.65 32.105-9.338 2.556-.006 5.12-.1 7.67.113 5.194.33 10.343 1.213 15.379 2.493 4.159 1.11 8.206 2.585 12.205 4.154-5.469-3.128-11.067-6.061-16.905-8.473-3.988-1.681-8.091-3.117-12.302-4.154-2.819-.658-5.707-1.14-8.613-1.026-.505.024-.998.136-1.483.26-.507.12-.877.5-1.296.772-.578.723-.498 1.728-.248 2.559.236.671.548 1.318.912 1.932.112.163.119.362.151.552-2.191.16-4.353.593-6.493 1.061-.771-1.533-1.5-3.136-1.636-4.863-.077-1.318-.111-2.684.367-3.938.664-1.977 2.422-3.477 4.399-4.123z" fill="#F15E28"/><path d="M9.817 53.789c.752-.62 2.006-.505 2.63.24.422.532.633 1.183.867 1.81 2.06 5.44 4.119 10.882 6.177 16.323.194.544.495 1.228.05 1.74-.501.472-1.397.575-1.94.115-.344-.345-.465-.833-.637-1.272-.5-1.418-1.04-2.82-1.528-4.242-2.326-.035-4.65-.007-6.976-.016-.65.01-1.304-.037-1.949.057-.503 1.665-1.166 3.283-1.754 4.923-.288.96-1.74 1.14-2.322.362-.38-.517-.099-1.174.09-1.71 2.167-5.686 4.32-11.376 6.484-17.062.184-.466.413-.939.808-1.268zm49.977-.319c.522-.177 1.177-.068 1.515.393.286.302.256.74.273 1.124-.005 5.981.003 11.962-.005 17.945.025.509-.199 1.083-.707 1.287-.521.181-1.19.138-1.572-.298-.286-.304-.322-.741-.328-1.134.001-5.983-.002-11.966.001-17.947-.016-.556.228-1.207.823-1.37zm33.29.41c.519-.518 1.352-.585 2.03-.373.671.227 1.12.845 1.31 1.495.94 3.246 1.89 6.49 2.824 9.738.544 1.782 1.037 3.58 1.484 5.389.635-2.788 1.526-5.51 2.307-8.26.639-2.22 1.294-4.438 1.936-6.658.145-.492.326-1.013.739-1.353.748-.692 2.106-.615 2.736.196.375.509.515 1.14.6 1.755.922 5.514 1.873 11.022 2.8 16.534.047.528.193 1.161-.199 1.602-.365.448-1.046.421-1.546.254-.514-.207-.624-.81-.727-1.283-.844-5.388-1.771-10.764-2.555-16.16-.28 1.501-.753 2.958-1.168 4.427-1.216 4.058-2.389 8.13-3.614 12.187-.237 1.017-1.66 1.253-2.383.602-.214-.229-.299-.537-.394-.823-.8-2.695-1.59-5.393-2.393-8.086-.764-2.765-1.73-5.477-2.316-8.286-.765 5.303-1.695 10.583-2.517 15.878-.087.551-.18 1.208-.72 1.517-.532.224-1.305.237-1.654-.295-.324-.442-.208-1.02-.143-1.519.96-5.65 1.914-11.3 2.873-16.95.109-.549.271-1.125.69-1.527zm61.941-.437c.824-.292 1.762.37 1.696 1.242.015 5.98-.002 11.963.009 17.946-.014.434.019.945-.321 1.28-.551.645-1.808.526-2.15-.273-.134-.263-.137-.562-.143-.847-.002-5.885.003-11.77-.002-17.657-.055-.666.129-1.541.911-1.69zm-38.921.69c.984-.282 2.092.578 1.977 1.593.003 1.002-1.144 1.748-2.086 1.406-.912-.256-1.371-1.402-.903-2.207.195-.396.6-.653 1.012-.792zm6.252.961c.104-.948 1.374-1.29 2.09-.762.404.277.495.8.49 1.254-.001 1.056-.007 2.112.003 3.168.593-.001 1.212-.044 1.779.162.812.366.72 1.684-.109 1.983-.55.14-1.126.07-1.686.1.016 4.027.019 8.053 0 12.08.039.888-.93 1.467-1.747 1.194-.572-.174-.884-.773-.85-1.337-.003-3.977-.008-7.955.004-11.932-.562-.046-1.145.037-1.688-.141-.725-.378-.76-1.615.01-1.965.539-.177 1.116-.144 1.677-.147.013-1.218-.053-2.441.027-3.657zm8.205.046c.068-1.026 1.551-1.406 2.213-.687.363.381.366.932.356 1.422-.008.962-.003 1.922.006 2.885.624-.003 1.284-.06 1.876.18.645.409.639 1.533-.056 1.887-.574.248-1.216.141-1.822.162-.022 3.985.002 7.97-.012 11.955-.001.356-.09.73-.319 1.011-.588.556-1.734.493-2.123-.262-.206-.473-.14-1.003-.15-1.502-.002-3.733.012-7.466-.006-11.199-.664-.036-1.432.132-1.972-.353-.405-.432-.297-1.087-.026-1.559.59-.387 1.322-.319 1.998-.325.036-1.205-.038-2.414.037-3.615z" fill="#4C4C4C"/><path d="M10.99 56.2c1.131 3.266 2.348 6.505 3.513 9.76.053.114.108.347-.133.272l-6.962-.002c1.164-3.353 2.464-6.66 3.581-10.03z" fill="#FEFEFE"/><path d="M22.225 59.761c-.022-1.184 1.778-1.594 2.37-.629.368.669.16 1.476.231 2.206a5.887 5.887 0 012.09-2.27c.634-.38 1.439-.617 2.16-.353.777.32.881 1.466.281 1.994-.387.39-.953.486-1.453.664-.936.297-1.85.8-2.405 1.626-.511.785-.665 1.74-.67 2.66-.004 2.376 0 4.752-.001 7.13-.003.451-.056.98-.465 1.267-.773.648-2.188.092-2.141-.96-.017-4.446-.023-8.89.003-13.335zm14.057-1.115c1.135-.098 2.308-.033 3.39.345.551.206 1.102.494 1.466.964.448.579.025 1.559-.72 1.62-.606.049-1.14-.288-1.694-.467-1.327-.473-2.927-.35-4.053.53-1.053.788-1.607 2.05-1.848 3.297-.213 1.274-.189 2.605.191 3.847.344 1.107 1.02 2.15 2.036 2.766.949.556 2.11.623 3.178.44.658-.11 1.228-.489 1.872-.646.496-.126 1.154.141 1.22.69.121.479-.126.978-.525 1.251-1.149.804-2.599 1.085-3.989 1.03-1.869-.048-3.766-.835-4.94-2.296-1.38-1.629-1.862-3.82-1.791-5.898.044-2.047.722-4.156 2.213-5.631 1.052-1.06 2.502-1.694 3.994-1.842zm45.195-.008c.567-.144 1.26.064 1.506.622.253.658.096 1.38.14 2.064.765-1.315 2.044-2.712 3.727-2.721.795-.036 1.392.77 1.17 1.51-.145.7-.892.966-1.5 1.168-1.06.306-2.157.814-2.748 1.777-.529.816-.64 1.808-.646 2.754-.002 2.327-.002 4.652.001 6.978-.018.342-.01.723-.223 1.015-.44.654-1.516.684-2.053.137-.294-.307-.328-.75-.337-1.148.004-4.253.001-8.508.003-12.763-.035-.605.29-1.3.96-1.393zm34.667-.011c.455-.057 1.008-.042 1.316.35.319.318.351.786.353 1.208-.009 4.25.001 8.501-.006 12.753.022.51-.204 1.063-.709 1.27-.512.19-1.21.171-1.567-.29-.3-.3-.329-.743-.338-1.137V61.065c.003-.493-.03-.988.041-1.476.067-.467.443-.863.91-.962zm32.182.212c.474-.347 1.2-.316 1.678.017.323.298.47.745.452 1.175-.009 4.302.002 8.605-.004 12.908 0 .477-.18 1.027-.653 1.236-.616.311-1.56.138-1.818-.553-.22-.556-.111-1.165-.14-1.745-.549.784-1.225 1.49-2.103 1.915-1.796.88-4.027.638-5.709-.388-1.776-1.1-2.816-3.069-3.16-5.063-.307-1.86-.188-3.824.522-5.586.639-1.6 1.872-3.01 3.506-3.673 1.509-.61 3.301-.7 4.789.018.892.433 1.621 1.145 2.149 1.97.056-.748-.181-1.684.491-2.231zM44.955 60.335c1.353-1.253 3.261-1.876 5.108-1.71 1.603.092 3.13.866 4.192 2.044 1.379 1.515 2.061 3.586 1.994 5.607-.017.4-.189.872-.603 1.022-.573.234-1.212.13-1.815.151-2.902.012-5.805-.027-8.706.022.072 1.118.389 2.263 1.148 3.127.78.922 1.992 1.459 3.205 1.472 1.108.023 2.26-.136 3.221-.713.574-.309 1.093-.739 1.726-.931.496-.097 1.126.194 1.212.722.214.718-.39 1.335-.938 1.716-1.804 1.266-4.14 1.638-6.31 1.366-1.778-.218-3.444-1.218-4.432-2.69-1.266-1.835-1.622-4.16-1.357-6.332.219-1.818 1.009-3.59 2.355-4.873zm24.326-1.529c1.723-.41 3.63-.24 5.17.66 1.57.899 2.623 2.496 3.108 4.191.56 2.023.513 4.213-.184 6.2-.544 1.433-1.494 2.767-2.849 3.555-1.624.967-3.668 1.157-5.479.637-1.757-.49-3.225-1.795-3.986-3.419-1.062-2.22-1.154-4.833-.466-7.173.645-2.183 2.387-4.117 4.686-4.651z" fill="#4C4C4C"/><path d="M46.247 62.343c1.362-1.803 4.389-2.05 6.003-.445.954.945 1.357 2.3 1.408 3.604-2.841.041-5.683.012-8.524.015.073-1.127.368-2.287 1.113-3.174zm23.747-1.372c1.11-.295 2.359-.115 3.292.562 1.005.728 1.581 1.893 1.836 3.073.327 1.578.248 3.257-.318 4.776-.382.925-1.027 1.787-1.945 2.25-1.465.816-3.468.489-4.603-.727-.922-.963-1.311-2.296-1.433-3.585-.122-1.542.05-3.17.847-4.53.502-.87 1.338-1.555 2.324-1.819zm72.65-.018c1.267-.345 2.714.043 3.632.97.926.862 1.337 2.112 1.514 3.324.202 1.62.037 3.338-.757 4.795-.428.723-1.043 1.368-1.828 1.714-1.423.64-3.258.352-4.335-.787-1.04-1.045-1.437-2.538-1.53-3.96-.059-1.46.12-2.995.907-4.264a3.924 3.924 0 012.397-1.792z" fill="#FEFEFE"/></g><defs><clipPath id="clip0_212_377"><path fill="#fff" d="M0 0h183v77H0z"/></clipPath></defs></svg>