<svg width="20" height="20" fill="none" xmlns="http://www.w3.org/2000/svg"><g id="ri:phone-fill" clip-path="url(#clip0_212_303)"><path id="Vector" d="M20 14.911v3.929a1.112 1.112 0 01-1.033 1.109c-.486.033-.883.051-1.19.051C7.96 20 0 12.041 0 2.222c0-.306.017-.703.051-1.189A1.111 1.111 0 011.16 0h3.929a.556.556 0 01.553.5c.026.256.05.459.071.613.221 1.541.674 3.04 1.343 4.446a.506.506 0 01-.164.63L4.494 7.902a14.497 14.497 0 007.605 7.605l1.711-2.394a.513.513 0 01.637-.165 15.44 15.44 0 004.444 1.339c.155.022.358.045.611.07a.555.555 0 01.498.554z" fill="#1672DE"/></g><defs><clipPath id="clip0_212_303"><path fill="#fff" d="M0 0h20v20H0z"/></clipPath></defs></svg>