<svg width="287.44" height="276.359" fill="none" xmlns="http://www.w3.org/2000/svg"><defs><linearGradient x1="143.384" y1="92.262" x2="138.823" y2="182.761" id="paint_linear_1_6121_0" gradientUnits="userSpaceOnUse"><stop stop-color="#FE9A50"/><stop offset="1" stop-color="#FE6A36"/></linearGradient><linearGradient x1="143.454" y1="101.773" x2="139.838" y2="173.527" id="paint_linear_1_6122_0" gradientUnits="userSpaceOnUse"><stop stop-color="#FE9A50"/><stop offset="1" stop-color="#FE6A36"/></linearGradient><linearGradient x1="138.522" y1="98.081" x2="145.684" y2="180.544" id="paint_linear_1_6122_1" gradientUnits="userSpaceOnUse"><stop stop-color="#FFF"/><stop offset="1" stop-color="#FFF" stop-opacity=".2"/></linearGradient><filter id="filter_1_6121_dd" x="0" y="0" width="287.44" height="276.359" filterUnits="userSpaceOnUse" color-interpolation-filters="sRGB"><feFlood flood-opacity="0" result="BackgroundImageFix"/><feBlend in="SourceGraphic" in2="BackgroundImageFix" result="shape"/><feGaussianBlur stdDeviation="29.333" result="effect_layerBlur_1"/></filter><filter id="filter_1_6122_dd" x="107.892" y="105.903" width="71.657" height="64.552" filterUnits="userSpaceOnUse" color-interpolation-filters="sRGB"><feFlood flood-opacity="0" result="BackgroundImageFix"/><feGaussianBlur in="BackgroundImage" stdDeviation="13.333"/><feComposite in2="SourceAlpha" operator="in" result="effect_backgroundBlur_1"/><feBlend in="SourceGraphic" in2="effect_backgroundBlur_1" result="shape"/></filter></defs><g filter="url(#filter_1_6121_dd)"><path id="Vector" d="M188.9 141.11l-25.35 37.77-45.19-2.93-19.83-40.71 25.35-37.77 45.19 2.93 19.83 40.71zm0 0l-45.18-2.94c-4.96 7.38-8.82 13.14-12.68 18.89-3.86 5.76-7.73 11.51-12.68 18.89m5.52-78.48l19.84 40.7" stroke="url(#paint_linear_1_6121_0)" stroke-opacity="1" stroke-width="18.3"/></g><g filter="url(#filter_1_6122_dd)"><path id="Vector" d="M163.82 108.22l15.72 32.28-20.1 29.95-35.83-2.32-15.72-32.28 20.1-29.95 35.83 2.32z" fill="url(#paint_linear_1_6122_0)" fill-rule="nonzero"/><path id="Vector" d="M178.54 138.43l1 2.07-20.1 29.95-33.52-2.17-2.31-.15-1.01-2.08-14.71-30.2 20.1-29.95 2.3.15 33.53 2.17 14.72 30.21zm-16.01-28.29l13.71 28.14-31.24-2.03-13.7-28.13 31.23 2.02zm-21.12 27.88l-13.7-28.12-17.52 26.11 13.7 28.12 17.52-26.11zm3.32 2.23l31.22 2.02-17.53 26.11-31.21-2.03 17.52-26.1z" fill="url(#paint_linear_1_6122_1)" fill-rule="evenodd"/></g></svg>