<svg width="5220.864" height="1309" viewBox="0 0 5220.86 1309" fill="none" xmlns="http://www.w3.org/2000/svg"><g style="mix-blend-mode:overlay"><path id="Vector" d="M.02 403.77H0c-.2-.2-.19-.51.02-.7.2-.2.51-.19.7.02v.03l-.7.65z" fill="#181818" fill-opacity="0" fill-rule="nonzero"/><path id="Vector" d="M2363.5 352.7l4.27-7.95 4.12-7.69 4-7.43 3.87-7.2m477.38 7.2l-3.87-7.2m-118.38 0l1.94 7.2m-2041.22-80.8l-29.52-23.6-30.15-24.09-3.83-1.02-23.56-6.3-32.42-8.66-109.7-29.31-164.33 10.07-95.82 73.41m791.16 160.59l-30.55-46.59-.24-.35-35.69-54.43-.31-.48-.21-.32-.23-.35-45.94-70.06-.33-.5-2.54-3.87-42.53-64.86-47.58-72.56-43.42 74.09-16.26 27.74-.03.06-14.52 24.77-4.33 7.4-17.12 29.22-31.89 54.42-18.86 32.19m543.44-162.11l8.35 1.41m24.14-9.54l-8.01-.79-47.14 12.44m842.83 836.76L1692.61 742l-42.06-.96-215.76 35.61-24.19 3.99-.03.01-78.81 13.01-60.12 17.24m783.19 116.4l-103.41-95.73-13.34-12.35-93.51-86.56-1.75-1.62-97.5-90.26-2.24-2.07-16.92-15.66-41.84-32.36-49.59-38.35-99.47-76.91-.6-.47-68.52-52.99-44.03-17.68-34.94-14.04-1-.4-7.88-3.16-.48-.2-42.05-16.89-.98-.39-63.86-25.65-.51-.2-15.61-6.28-.05-.02-3.74-1.5-.04-.01-.01-.01-16.68-6.7-6.56-2.63-15.7 21.9-.09.12-55.04 76.77-.22.3L979.06 673l-5.71 7.95-55.44 77.33-6.02 23.78m6.02-23.78l-266.2 162.29-11.04 6.73-67.97 41.45m868.4-725.51l-56.58 27.45-.51.25-91.57 44.43-41.42 20.09m627.27 59.07l-187.26-63.04-28.04-16.88-14.27-8.6-.26-.15-77.52-46.67-38.19-23-.37-.22-62.71-37.76-19.45 5.2-15.66 4.19-11.15 2.98-100.99 27.02-40.8 10.92-2.35 3.98-1.06 1.79-19.47 33.04-6.4 10.87-18.06 30.64m47.34-80.32l-30.6 86.94-.01.1m742.96-25.51l-.01-.01-29.96-37.73-45.28-57.03-85.55-15.02-35.76-6.28-19.2-3.37m-244.82 39.5l104.85-45.24 139.97 5.74 15.83.26m3.37 3.11l-3.37-3.11-32.09-34.41-111.79-119.87-131.31 133.74-4.61 7.06-10.38 15.92-7.8 11.95m633.08 583.69l-62.7-29.05-58.82-27.24-55.28-25.61-.64-.3-51.41-23.81-45.49-21.08-8.66-1.67-54.7-10.53-46.12-8.88m522.31-109.63l-27.67-15.02-8.98-4.87m59.8-23.18l7.04-13.12m19.42-36.15l5.96-11.09m-146.66 0l-5.87 7.29m169.06-38.06l5.11-9.5 4.92-9.16 4.74-8.83m-292.86-72.27l9.2-1.74 35.79 1.22 43.86 1.49 56.86 1.94 17.44 9.58 18.71 10.27.26.14 41.48 22.77 17.91 9.84 14.99 8.23 15.53 8.53 16.09 8.83m9.32-17.36l4.42-8.23m1167.43-103.98l-30.35-8.76-46.71 7.9-2.81.47-100.16 16.95-28.12 4.76-21.06 4.86-.11.02-25.14 5.8-110.74 25.52-1.15.27-19.37 4.46-10.68 13.08-25.25 30.93-77.71 95.15-.19.23-20.09 24.6-.45.54-45.44 55.65m-15.78-29.36l-7.36-13.71-7.05-13.12m-159.35 0l3.53 13.12m142.6-37.72l-6.2-11.55-5.96-11.09-5.72-10.66-5.51-10.25-5.3-9.86-5.1-9.5m-125.03 40.27l2.98 11.09m221.86-206.95l-51.96 90.57-4.13 7.2-4.27 7.43-4.41 7.69-4.56 7.95-4.72 8.23-4.89 8.53-5.06 8.83-5.26 9.16-5.45 9.5m-140.94-9.5l2.55 9.5m119.05-36.02l-4.43-8.23m-126.5 0l2.21 8.23m1535.75 659l2.01 2.56m-303.6-582.15l-35.96-26.21-82.12-59.87-41.23-30.05-68.38-13-1.42-.27-74.79-14.22-49.74-9.46-31.45-5.97m-20.6-116.93l20.6 116.93 2.63 76.72.01.14 5.64 165.05m262.7-248.46l-41.9-10.81-141.59 25.14-6.87 1.22m425.79-71.2l-116.16-37.39-45.59-14.67-163.37-36.37-119.77 141.07-8.89 10.48m686.56-74.86l100.58-30.65 3.71-.99m658.27-38.36l39.66-28.29 67.42 91.52-.33-.13-21.98-7.91-12.77-.07-26.18-.15-31.14-.18-35.55-.2-1.94-.01-24.12-.13-81.86-.46-228.64 152.05m228.64-152.05l-10.25-7.33-9.48-6.79-.54-.38-13.89-9.95-2.92-2.09-2.56-1.83-22.86-16.36-102.23-27.86-31.11-8.48-69.41-18.91-136.21 29.56-76.31 16.56-51.71 38.23-3.57 2.64-85.31 63.06m353.11-150.05l33.56 231.07.15.97 2.9 19.99 7.18 81.34m454.31 249.01l-3.51-87.45v-.22l-9.09-226.52v-.19l-.98-24.29v-.24l-5.71-142.29m-1560.46 82l26.57 7.67 27.99 8.08 93.58-7.92 1.32-.11 82.35-6.97 13.11-.55.48-.02 91.12-3.8 5.17-.22 67.13-2.8 6.29 10.52h0l25.81 43.21.16.27.43.72.12.19 8.85 14.81.21.36 9.09 15.2m-227.97-77.89l-28.53-11.26-.26-.1m237.85 108.66l-2.28-21.56-8.22-22.94-.57-1.61-.82-2.28-20.16-56.3m1098.9 458.65l-18.2-19.5-26.45-28.35-103.52-110.93-61.13-65.5-172.98-77.54-72.32-32.41-.52.75-.36.54-71.87 104.95m-68.72 147.87l-97.06-214.69-25.67-56.78-.8-1.79-4.68-10.31-.4-.92-54.5-120.53-15.41-34.06-35.25-78.01-39.4 40.43-53.73 55.14-74.02 75.98-.22.22-.61.62-9.38 9.63-.3.31-1.3 1.34-.02.01-10.28 10.56-28.84 29.6-10.37 10.64-8.54 8.77-5.8 5.95-.26.26-57.01 58.51-18.77 3.03-79.72 12.87-72.26 11.66-107.89 17.41-19.55 6.84-97.39 34.08-193.5 67.69-15.01 14.55-13.34 12.93-20.99 20.34-21.85 21.17-23.78 23.06-24.88 24.11-4.31 4.17-22.11 21.44-7.75 7.5-50.34 48.79-32.03 31.04-34.29 33.24m1159.84-723.89l1.93 160.13.01.16 6.87 569.05m415.75-194.67l-86.37-117.06-.03-.05-35.67-48.34-51.88-70.3-37.12-50.31-24.56-33.28-24.97 41.65-.15.23-1.81 3.04-25.29 42.15m327.03 384.36l-39.18-152.09L4699 532.82l-.14-.74-18.87-103.95-.08-.41-6.42-35.4m546.6 310.9l-22.92-1.25-14.27 5.08-54.81 19.5-171.7 61.1-51.73 18.42-42.75 15.21-45.16-.12m-275.53-.7l1.44 5.95m-302.5 482.09l159.92-185.84 87.4-93.18L4583 927.62l.31-.32.19-.21 70.83-75.5 39.23-41.82m-530.29 303.14l119.73-90.42 2.19-1.64 257.47-194.44 7.84-5.93 11.23-8.47 17.37-13.12 114.46 10.88 6.64.61 61.79 5.72 54.76 5.06 48.41 4.48 239.33 22.14.4.63 115.2 182.09M2878.53 369.46l-4.57-8.53m9.32 17.36l4.92 9.16m-543.36 0h553.91m-20.22-17.99l4.75 8.83m567.78-129.96l-2.49-2.1-104.42-88.4-75.51-.61-69.99-.57-145.21-16.17m145.21 16.17l-11.37-1.53-142-35.33M2928.46 462.4l6.75 12.56m-732.94 0h754.6m-34.88-24.6l6.47 12.04m206.07-138.35l-26.01 14.85-43.9 39.39-1.28 1.14-64.93 58.27-13.64 12.23-.48.43-13.42 12.04-13.64 12.24-.36.32-13.64 12.24-.97.88m359.35-213.16l-26.19-31.29-69.74 39.81-23.02 13.14-16.93 9.66m-942.24 195.55h752.73m417.86 103.65l-6.8-6.33-19.27-29.16-16.26-87.95-16-71.47-2.61-28.27-.08-.9-10.28-111.32M3351.75 482l-59.77-49.16-96.78-79.6-.65-.54-22.8-18.75-24.24 29.43-71.64 86.98-.57.7-73.33 89.04-19.23 23.34m643.02-276.18l-5.39-12.72-1.61-3.81-45.05-106.37-42.78 84.36-11.47 22.62-3.46 6.83-3.94 7.77-.02.03-5.76 11.36-.07.14-12.62 24.87-.04.09-18.07 35.63-107.47 211.89m107.47-211.89l-123.32 123.53-.41.41m35.53 117.11l153.04-234.94.28-.43 25.29-38.82.7-1.07 27.72-42.56m-309.38 429.93l-3.36-4.17m-1329.23 0h1336.9m925.48 188.66l100.12-23.08 25.04-5.77 201.34-46.4 9.28.02m-269.51 199.45l-66.27-124.22-158.76-111.31-26.24-18.39-121.58-85.25-181.33-39.38-104.96-22.8-33.46-7.27-90.75 121.22-.09.13-48.15 64.32-198.66 265.36m-1784.13 233.02l383.77 12.55h1532.27l117.55-146.51 32.45-40.44 109.64-136.65 73.34-91.41.51-.63 78.15-97.42 28.11 24.23 1.06.91 127.76 110.13 16.9 14.57 195.15 168.22 76.89 195.59M2487.8 360.93l2.21-8.23m-4.5 16.76l2.29-8.53m128.72 0v-8.23m-126.51 0l2.12-7.95m124.39 24.71v-8.53m128.72 0l2.29 8.53m-6.64-24.71l2.14 7.95m-126.51 0v-15.64m-135.84 50.39l2.45-9.16m0 0l2.38-8.83m-126.43-8.53l-4.58 8.53m554.57 0h-575.4m144.45 27.49l2.56-9.5m135.84 0v-9.16m0 0v-8.83m0 27.49v-9.5m135.84 0l-2.46-9.16m154.11 0h-554.25m400.14 0l-2.37-8.83m-413.1 37.35l5.3-9.86m135.75 9.86l2.64-9.86m138.4 9.86v-9.86m138.39 0l2.65 9.86m-428.63 10.25l-5.73 10.66m146.66 0l2.86-10.66m0 0l2.76-10.25m-141.05 0l-5.5 10.25m137.94 21.75l2.99-11.09m146.66 0v-10.66m0 0v-10.25m0 32v-11.09m146.65 0l-2.86-10.66m0 0l-2.75-10.25m-293.78 43.55l3.09-11.55m149.65 11.55v-11.55m149.63 0l3.11 11.55m-464.69 12.04l-6.75 12.56m159.35 0l3.38-12.56m0 0l3.23-12.04m-152.74 0l-6.47 12.04m12.67-23.59l-6.2 11.55m142.6 37.72l3.53-13.12m159.35 0V462.4m0 0v-12.04m0 37.72v-13.12m159.34 0l-3.37-12.56m0 0l-3.23-12.04m-319.29 51.43l3.67-13.71m162.88 13.71v-13.71m162.87 0l3.68 13.71m-336.96 14.34l3.76-14.01.1-.33m-159.19-13.71l-7.38 13.71m503.52 14.34l-3.76-14.01-.09-.33m-407.18-172.16l-108.22-138.56-20.48-26.21-.54-.68-132.87-47.29-138.31-54.44-71.51 73.35m-125.75 54.81l-11.87 90.73-.08.61-.69 5.28-4.37 32.19m403.69 108.3h744.94m-733.29 0l8.58-10.66m8.26-10.25l-8.26 10.25m16.22-20.11l-7.96 9.86m65.8 140.09l-28.2-35.64-7.49-9.47-10.86-13.71-10.36-13.12-9.94-12.56-9.52-12.04-9.14-11.55-3-3.8-5.78-7.29-8.42-10.66-8.11-10.25-7.8-9.86-70.68-89.34-8.24-10.42-1.34-1.71-2.21.48-63.57 13.97-.55.12-56.33 12.38-.23.05-23.03 5.06-19.72 4.33-65.73-6.13-18.53-1.73-49.2-4.59-27.19-2.54-.05-.01-20.48-1.91-109.02-42.66-18.61-7.28-13.88-5.43-1.03-.4m-129.84-15.95l63.35 81.63.05.06 144.6 186.33m154.11 127.45l202.1-20.34.64-.06 17.02.01 197.82.05m-754.65-196.4l-6.76 78.86-.02.23-1.3 15.07-.03.4-20.97 244.49-2.27 15.63m79.45-599.26l-88.46-21.28-133.47-19.17-71.52 28.26-24.14 9.54-19.63 7.75m145.4 55.11l-34.55-23.43-4.56-3.1-33.88 21.47m336.42 32.48l-28.51-18.97-.98-.66-17.01-11.32-5.96-3.96-18.24-12.14-19.09-12.71-42.74-28.43-4.49 7.37-.17.26-14.1 23.14m331.01 79.63l-2.79-1.52-.28-.15-142.38-77.4m-341.91 46.13l-28.78-21.75-54.37-41.12-18.04-8.93-2.4-1.19-6.26-3.1-2.72-1.35-3.26-1.61-3.34 3.35-2.49 2.5-4.89 4.92-6.94 6.98-15.61 15.69-4.1 4.11m37.37-37.55l95.9 111.56.46.53m-57.75 35.32l-52.59-76.04-23.39-33.82-6.04-8.73-8.16-11.77-.55-.82-99.11-143.29-23.99 33.69-53.31 74.88-9.85 13.83-.23.32-39.42 55.37-.41.57M791.29 85.55L774.93 294.2l-.02.28-4.85 61.9-1.15 14.58-11.61 80.77m11.61-80.77l-1.12-.33-48.42-13.86-1.2-.34-49.32-14.12-23.99-6.87-61.65-17.65-4.18-1.19-47.18 51.16-102.62 111.3m823.11-180.86l-51.35 24.45-.31.14-11.76 5.61-.15.07-51.56 24.55-139.77 46.9m139.77-46.9l-40.49 43.78-.15.15-47.73 51.62m202.18-113.11l-.06.08M715.39 442.63L596.63 556.36l-1.1 1.05-13.23 12.67-22.4 21.45m12.38-67.6l-16.84-5.28-126.21-39.59-13.82-4.34-25.41-7.97-29.1-9.13-.17-.23-29.98-42.09-.31-.45-.31-.42-21.12-29.65-31.53-44.27-.29-.41-9.14-12.83-69.15-97.08m734.86 271.39l-16.36-6.95-.49-.21-35.68-15.15-2.97-1.26-120.96-26.28-41.91-9.1-143.11 81.3-21.38 61.41m327.36-107.33L675.14 593.89l-47.48 27.09-13.65 7.79m54.87 8.27l-54.87-8.27-2.44-1.68-51.67-35.56-9-6.19-176.61-121.53-13.78-4.41-1.06-.34-.24-.08-1.51-.48-42.96-13.75-.39-.12-124.98-40-13.53-4.33-.96-.31-30.01-9.6-.25-.08-8.43-2.7-1.33-.43-19.27-6.16-57.1-18.27-33.91 4.54-19.79 2.66m369.5 93.86l-45.61-4.39-.74-.07-26.77-2.58-152.6-59.12-2.16-.84-87.92-34.06M1156.89 425l-28.82 6.28-79.23 17.29-27.59 6.01-37 19.87-50.49 27.13-68.18 36.61-166.28 89.32-30.42 9.53L598 659.26l-82.93 25.98-81.11 25.42-169.99-109.14-124.71-80.08-13.05 16-60.95 74.69-.24.3-18.56 22.75-41.67 51.06m58.7 553.35l4.09-2.18m1453-66.99l-360.6 66.99-366.15-22.92-362.12 22.92H55.38m1411.23 57.95l-382.37 12.55H318.1l-254.61-68.32-8.11-2.18-50.59-13.57M1151.66 186.01l-9.13-1.49-3.68-.6-2.78-.45-1.26 1.52-1.49 1.79-14.35 17.28m-542.84-18.9l41.3-12.34 2.97-.89 19.07 7.95 77.59 32.33m-81.12-11.07l-3.96.08-.7.01-41.33.8L431.99 310.1m0 0l-28.68 29.37-.01.02-9.14 9.36-.87.89-15.97 16.36-.36.36-37.2 38.11M390 466.75l-17.72-21.94-4.1-5.06-.75-.94-27.67-34.24-46.96-58.14-13.57-16.8-.11-.13-72.84-90.17-7.38-9.14-2.55 4.61-5.35 9.69-6.27 11.35-23.6 42.74-8.13 14.71-.03.05-10.04 18.18-27.34 49.5m245.31 76.6l-1.69 1.36M184.73 255.84l-34.68 26.57-13.11 8.87-.08.06-8.42 5.69-.7.47-19.5 13.2-49.57 33.53-34.09 23.06M196.35 234.8l-43.32-31.04-52.62 12.45-15.83 3.75-17.19 4.06-40.45 9.57-22.15-11.88m113.55 69.69l8.09-20.42.03-.07 26.57-67.15m2708.1 133.3l-3.99-7.43m8.12 15.12l4.27 7.95m-8.4-15.64l4.13 7.69m-369.05-15.12l1.92-7.2m-3.92 14.63l2-7.43m120.31 0v-7.2m0 14.63v-7.43m120.31 0l1.99 7.43m-246.69 7.69l2.08-7.69m246.68 7.69l-2.07-7.69M689.44 151.61l-14.54-8.93-32.7 2.43-24.77 27.71m283.52-19.56l-11.17 1.89-50.91 2.96M4.79 223.45l113.55 67.95 10.1 5.63m60.93 107.6l4.49-82.2v-.07l5.04-92.17M360.51 459.4l.39-1.78m54.51 17.1l-7.23-5.01-35.9-24.9m217.67-242.78l.61.84 73.16 100.38m-52.15 323.84l16.09-6.11m271.56-461.57l-9.44-4.26m278.58 23.05l19.94-4.87 24.48-8.92m-24.48 8.92l-13.68 7.97m-32.09 3.22l14.02-3.43m-45.74 11.2l22.51-5.51m1.49-1.79l-24.25 6.4-.3.08m48.78-12.88l-20.19 5.33m652.59 465.74l11.77-10.95 21.84-20.34 20.71-19.26 19.64-18.29m129.12-270.89l-.56.11m114.62-38.31l22.78 14.37.34.21 18.79 11.85m1303.38-50.3l-5.3-1.63m508.32 24.69l-61.39-41.18-.92-.61-93.95-63.01-25.03-35.46m167.84 283.47l96.37-52.64.41-.22 18.74-10.24m0 0l10.82 12.79m39.21-40.24l-.76-9.64-.03-.29-.39-4.85-.02-.23-.02-.25-7.05-89.23-21.4-173.53m-111.2 899.13l312.87 75.24 4.2.92m148.89-844.15l.02.24.12 1.41m77.52 199.6l-5.5-59.53-.02-.22-16.72-180.72m375.66 688.16l-3.25-4.36m94.48-33.63l-31.68-240.54-.03-.21-5.89-44.63M2936.05 322.43h-556.29l-112.09-131.36m108.22 138.56h556.03M153.03 203.76L191 244.49m1140.76 549.17l-142.41-9.82-257.5-17.74-19.96 15.96-233.5 186.69-56.11 44.86-60.95 48.73-35.05 28.02m695.57-17.61l-350.45-21.37-345.12 38.98-102.1 25.07-236.55 58.13m109.26-58.13l-109.26 58.13-120.05 63.85M4.79 968.75h673.6m971.77-932.16l-11.92 148.28m328.69-24.9l-62.97-24.17-68.76-26.39-73.25 47.05M1567.27 1008l355.28 165.56m-72.17 134.35l37.87-70.5 34.3-63.85 31.22-58.13 28.53-53.09 26.17-48.73 24.1-44.86 22.26-41.45 20.63-38.39 19.16-35.68 17.86-33.24 16.66-31.04 15.62-29.05m-190.99 355.53L1611.8 893.49m38.75-152.45l-38.75 152.45-44.53 114.51-46.69 162.42-53.97 124.94-5.1 13.14m264.65-685.45l306.41 345.7m42.89-79.84l-124.04-57.34m-96.62-169.71l257.68 158.13m60.66-112.94l12.96-24.11m1128.02 0H1900.29m70.61 0l-19.2 23.81m246.62-46.56l11.54-21.48 10.93-20.34 10.34-19.26m1156.15 0H1845.76m192.68 0l-15.47 19.21m217.99-37.5l9.33-17.38 8.89-16.54 8.45-15.75 8.08-15.02m-135.15-119.18h752.74m-548.46-9.5l-137.49-87.35m0 0l-6.01 96.85m717.34-44.25h-615.53m-380.6 820.86h1387.93m72.17 134.35l-37.87-70.5-34.3-63.85-31.22-58.13-28.52-53.09-26.18-48.73-24.1-44.86m421.71-94.81l-342.91 241.49m0 0H1953.77m994.12 0l15.61 58.13m-930.93-204.81h1238.55m-70.66 0l-22.26-41.45m135.93 0h-1259.3m842.53 0l11.13 41.45m-796.01-148.76H3172.7m-52.14 0l-16.68-31.04m100.85 0H2129.14m731.06 0l8.34 31.04m191.34-112.94l-12.95-24.11m-215.21 0l6.48 24.11m-617.41-88.68h1159.95m-368.49 0l-10.35-19.26m-192.69 0l5.17 19.26m-555.2-71.47h714.68m28.11-6.8l-28.11 6.8m28.04 52.21l-9.82-18.29-9.34-17.38-8.88-16.54-8.46-15.75-8.07-15.02-7.71-14.34m15.78 29.36h-697.77m523.33 0l4.23 15.75m-582.56-58.82h729.63m-768.59-49.27h742.12m82.62-1.11l-82.62 1.11m143.78-161.59l-149.74 150.5m-591.69-66.79h595.82m1425.92 505.93l-32.82-8.18-251.1-74.28m-555.38-544.44l18.88 31.38m581.26-52.25l104.4 5.82m360.69-103.99l-163.77-46.67-158.5-51.55-164.22 22.86-94.76 136.14M5059.43.5l15.76 191.44M4920.58 30.19l-118.04 88.56m308.2 73.39l-14.68-54.79L5059.43.5l-138.85 29.69-149.15 80.08m301.82 81.66l-26.75-74.47-45.85-64.07-59.73 89.64-13.29 19.94m-493.55 13.73l-32.04-102.45m336.59 269.14l-189.77 84.87M3675.5 296.72l-.57-6.43m186.39 63.97l-9.14-78.97m-28.79-11.36l-22.76-97.81m0 0L3681.8 289.07m18.18 200.05l120.11-164.91m0 0l7.33 140.66m479.64 393.81l7.78 13.95m246.89-60.62l-29.71-165.58-44.84-301.76m-692.89 450.18l42.14 461.25 403.73 52.4m414.17-456.91l288.88 202.39 241.87 160.08 35.01 23.17m-276.88-183.25l161.28-206.2m-1432.9 460.72h1548.77m-449.3 0l394.39-71.09h54.91m-732.88-207.93l283.58 279.02m0 0l172.15-254.52M3063.34 379.43l-3.77-102.21-6.13-136.74-8.16-20.69m8.16 20.69l-149.33 276.58m0 0h-747.64m742.13-10.25l89.41-174.95 57.27-112.07 132.18-10.08 91.18 47.51m-209.07 120l123.09 19.36m-5.2-186.87l9.82 45.41m148.47 255.41L3516 278.17m-321.41 320.94l-12.86-89.45-9.98-175.71m9.98 175.71l-189.65 71.16m-9.34-17.38h-732.45m959.83 54.93l-15.53-19.26m173.42-29.16l-186.28-60.29m154.02-99.13l-43.77 22.31m-268.81 205.87l-10.92-20.34m214.25 20.34l-16.38-20.34m-175.41 41.82l12.22 22.75m215.21 0l-18.33-22.75-17.31-21.48m17.31 21.48H1846.14m1491.76-.31l-94.09.31m115.94-21.48H2209.86m813.31 0l11.54 21.48m246.86 46.86l-19.43-24.11m-188.5 49.72l-13.76-25.61m13.76 25.61l14.64 27.24 15.6 29.05m53.69 99.96l-19.16-35.68-17.85-33.24m37.01 68.92l20.63 38.39m-1102.74-38.39h1278.53m372.82-247.53l-7.28-159.1m0 0l-97.68 136.3m20.44 365.73l-20.12-110.37-33.78-262.63m33.78 262.63l93.46 18.96m-405.15 280.66l222.17-52.6M2898.6 406.81h-750.24m822.51 55.59h-778.54m791.96-12.04h-801.48m259.27 80.79l4.03-15.02m511.22 0h-717.37m43.44-14.34l-7.69 14.34m162.14 30.77l4.23-15.75m174.44 0v-15.02m0 0v-14.34m0 45.11v-15.75m174.44 0l-4.04-15.02m223.92-40.63l-34.62 26.29-18.89 14.34m-523.93 47.31l4.45-16.54m178.67 16.54V546.9m178.67 0l4.44 16.54m-558.67 17.38l-9.83 18.29m192.7 0l4.91-18.29m563.34 0H1865.4l-193.04-119.67m756.38 119.67l4.66-17.38m-373.1-267.96l189.99 267.96m168.35 54.93l5.19-19.26m192.69 0v-18.29m0 0v-17.38m183.11 0l4.66 17.38m-187.77 37.55v-19.26m192.69 0l-4.92-18.29m-391.1 57.89l5.45-20.34m197.88 20.34v-20.34m197.86 0l5.47 20.34m-621.53 21.48l-12.22 22.75m215.21 0l6.11-22.75m0 0l5.77-21.48m-407.24-20.4l203.91 20.4m184.97 68.34l6.48-24.11m215.21 0v-22.75m0 46.86v-24.11m215.2 0l-6.1-22.75m-209.1 0v-21.48m203.33 0l5.77 21.48m-437.66 72.47l6.87-25.61m221.69 25.61v-25.61m221.68 0l6.88 25.61m-472.25 56.29l7.8-29.05m707.65 0H2066.44m314.19 0l7.33-27.24m874.86 0h-1255.2m151.76 0l-14.62 27.24m28.38-52.85l-13.76 25.61m205.12 87.33l8.33-31.04m243.69 0V759.9m0 0v-27.24m0 87.33v-31.04m243.68 0l-7.8-29.05m402.67-19.74l-166.79 19.74m-235.88 0l-7.32-27.24m-489.51 120.57l8.93-33.24m252.02 33.24v-33.24m252.02 0l8.92 33.24m-541.78 74.07l10.31-38.39m0 0l9.58-35.68m782.84 0H2094.62m0 0l-156.54-34.01m386.47 149.53l11.13-41.45m280.84 0v-38.39m0 0v-35.68m0 115.52V927.3m280.84 0l-10.31-38.39m0 0l-9.59-35.68m-564.96 160.38l12.05-44.86m291.97 44.86v-44.86m291.97 0l12.05 44.86m-635.41 101.82l14.27-53.09m951.34 0H1982.3m0 0l-331.75-321.3m-38.75 152.45l-340.16-82.59-339.79-44.8m1367.55 296.24l13.1-48.73m912.06 0H2008.47M1692.61 742l33.55-118.95m543.38 550.51l15.59-58.13m331.39 0v-53.09m0 0v-48.73m0 159.95v-58.13m331.37 0l-14.26-53.09m0 0l-13.09-48.73m304.02 0l46.56-44.86 43.01-41.45 39.86-38.39 69.82-67.28 25.59-24.65m-1197.03 440.43l17.17-63.85m346.98 63.85v-63.85m346.98 0l17.15 63.85m-747.2 70.5l18.92-70.5m1092.41 0H1888.25m-367.67-66.99l367.67 66.99m728.27 70.5v-70.5m383.07 70.5l-18.94-70.5m364.13 0l155.42-76.01M1964 272.31l2.93-112.34 8.54-97.52m-8.54 97.52l91.16 135.99m50.49-24.23L1975.47 62.45m-140.27 46.96l-2.03 90.85m-198.44 352.08l14.37-41.08 23.26-50.11 18.67-129.66m-18.67 129.66l-202.69-262.94m0 0l-28.57 45.03-18.99 161.05m268.92-72.8l22.45-16.53m-64.38 196.3l196.66 87.85m19.64-18.29l12.89-186.29 16.37-62.66m143.78 267.24l14.74-18.29m0 0l7.12-285.34m0 0l-182.01 99.05m-53.24 223.84h180.26m-202.1 20.34h-60.13m81.97-20.34l-140.73-27.68m286.58 92.25l18.32-22.75m16.73-41.88l-16.73 41.88M917.91 758.28l281.15-29.29m-9.71 54.85l9.71-54.85 28.66-402.78m-206.47 128.37L979.06 673m220 55.99l267.08-307.02m-29.08 339.05l183.66-87.65 105.44-50.32m-566.18 614.36l61.87-164.66 49.79-261.85m-839.93 426.51l94.57-147.05m345.12-38.98l60.45-285.28m-138.02 448.39l77.57-163.11m350.45 21.37l345.42-64.75M431.71 1237.41l-113.61 70.5m383.07 0l92.66-93.42m290.41 93.42l75.74-70.5m132.33-1100.47l-4.44 77.23m332.25-6.01l-80.77 25.91m65.11 38.23l15.66-64.14 18.12-23.29m172.16 139.14l-44.83-36.78m-617.17-40.62l13.98-71.37M984.25 474.45l13.19-74.53 13.71-351.74m0 0l177.62 280.29M598 659.26l16.01-30.49m-312.84-172l-37.2 144.75M4.79 927.3h635.88m-551.74 0l50.33-405.86m141.47 447.31l89.05-41.45m0 0l64.18-216.64m-249.63 302.95l96.4-44.86m291.97 0l-84.35 44.86m72.98 48.73H4.79m74.84 0l104.7-48.73m437.95 0H4.79m419.39 101.82H4.79m292.1 0l99.85-53.09m0 0l91.61-48.73M620.4 171.93l-11.85 21.89M987.16 81.87L938.43 19.6l-37.48 133.66-1.73 6.15-13.42 47.88-4.4 15.68M408.18 469.71l23.81-159.61 34.44-154.25M302.1 165.92l-9.3 180.51m222.27 338.81l-213.9-228.47m2315.35-112.02h-248.75m559.88-7.69h-555.76m-128.13-16.97l2.89-155.91m0 0l125.24 172.88m-4.12 7.69l-82.53-1.89m638 1.89h-306.72m-509.89-48.08l1.95-24.94 5.2-154.84m0 0l111.01 192.79M889.78 155.15l-3.98 52.14m-243.6-62.18l47.24 6.5 58.43 8.03M108.24 310.7l10.1-19.3m24.59 40.12l7.12-49.11m-65.47-62.45l-60.23-82.24m76.06 78.49l-76.06-78.49-1.29.42m532.38 380.51l23.59-202.05m4.18 1.19l6.74-115.76m49.52-22.15l2.73-34.77m9.51 775.46l47.59-293.06m0 0l274.05 53.44m-298.21-87.06l40.25-151.26m-2.66-223.02l-46.64 5.62m199.49 312.96l12.68-60.18m55.59-321.26l4.58-137.15m-57.2 459.67L768.91 370.96m360.2-162.28l6.96-25.21m-8 247.81l9.14-78.26m7.51-160.03l-8.65-9.52m143.2 69.03l4.04-41.43m140.1-.49l2.37-54.47m0 0l78.08 37.2m-93.29 587.34l26.49-19.63m13.16-557.61l3.1-26.58m61.83 41.14l3.7-47.64m323.97 560.71l11.98-69.18m59.58-334.32l4.34-112.26m151.16 92.33l.96-12.16m1038.44 59.53l-.76-16.08m38.99 24.48l-2.3-52.41m60.47-27.53l-7.03-126.79m77.82 124.07l-1.05-37.09m75.48 21.65l-6.75-107.45m79.66 663.8l-14.72-230.74m246.74-319.16l-37.07-1m332.46 659.39l-43.08-249.36m53.92-410.06l-23.09-103.67m90.75 598.98l-31.55-328.7m260.68-267.54L4243.54 22.7m288.48 623.73l168.18 163.95m22.61-146.37l181.85 142.06m36.26-663.04l-20.34-112.84m59.34 537.58l-12.65-376.43m-10.25-7.33l89.48-66.55m0 0l2.63 74.34m92.75.52l-6.16-83.26m-52.28 569.64l116.68-4.96 19.97 8.69m-52.03-489.96l-32.34-83.41m-25.83 597.99h73.01m2.18 507.01l-19.63 23.35m37.36-1036.96l-67.08-91.05-39.65 28.29L5059.43.83l-138.84 29.7-149.15 80.08-69.42-18.91-136.21 29.56-163.77-46.67-158.5-51.55-164.22 22.86-94.76 136.14-45.59-14.67L3775.6 131l-119.76 141.07-37.08-1-45.04-106.37-42.78 84.36-30.36-8.76-46.71 7.9-5.3-1.63-104.42-88.4-75.51-.61-91.17-47.51-132.18 10.08-57.28 112.07-51.96 90.57h-556.28l-112.1-131.36-20.47-26.21-.55-.68-132.87-47.3-138.31-54.43-71.5 73.35-68.76-26.39-73.26 47.05-111.78-119.87-131.31 133.74-4.61 7.06-88.46-21.28-133.48-19.17-71.52 28.26-8-.79-47.15 12.44-3.26-1.61-3.33 3.35-20.2 5.33-2.78-.45-1.26 1.52-24.25 6.4-.29.08-99.11-143.29-24 33.69-48.73-62.27-37.48 133.66-11.16 1.89-50.92 2.96-47.58-72.56-43.42 74.09-58.43-8.03-14.54-8.93-32.7 2.43-24.76 27.71-41.31 12.34-109.7-29.31-164.32 10.07-95.82 73.41-7.38-9.14-2.55 4.61-43.32-31.04-52.63 12.45-76.06-78.49-1.29.08-18.27 1.11v1169h115.46l.6.25h5099.51v-71.09l-.27-.18m-979.93 71.27l159.93-185.51 370.97 185.51m-1099.47 0l164.84-52.07 403.73 52.07m530.9 0l449.03-70.75v-.34m0 0V207.02l-16.94-6.11-.34-.46m-97.92 647.96l115.2-75.1m-19.97-99.57l19.97-14.86M126.21 537.44L4.79 408.15m0 0l-4.43-4.72m4.43 770.13h182.84M4.79 1307.91h115.45L4.79 1260.07m0-162.9l74.84-34.83M4.79 144.08l18.27-5.94m3.88 95.45L4.79 215m41.67 420.18L4.79 597.86m0 364.25l84.14-34.81M58.67 344.23L4.79 296.64m62.6-72.62l-62.6-52.6m53.7 191.33l-53.7 8.67" stroke="#FFF" stroke-opacity="1" stroke-width="1" stroke-linejoin="round"/></g></svg>