<svg width="207" height="69" fill="none" xmlns="http://www.w3.org/2000/svg"><path fill-rule="evenodd" clip-rule="evenodd" d="M34.122 68.347c18.794 0 34.122-15.329 34.122-34.122C68.244 15.43 52.916.103 34.122.103S0 15.43 0 34.225c0 18.793 15.328 34.122 34.122 34.122z" fill="#1F1D1F"/><path fill-rule="evenodd" clip-rule="evenodd" d="M34.122.116c18.763 0 33.974 15.152 33.974 33.744 0 18.593-15.211 33.388-33.974 33.388C15.359 67.248.148 52.453.148 33.86.148 15.268 15.36.116 34.122.116z" fill="url(#paint0_linear_1_1356)"/><path fill-rule="evenodd" clip-rule="evenodd" d="M34.122.128c18.682 0 33.826 15.029 33.826 33.368 0 18.34-15.144 32.654-33.826 32.654C15.44 66.15.297 51.836.297 33.496.297 15.156 15.44.128 34.122.128z" fill="url(#paint1_linear_1_1356)"/><path fill-rule="evenodd" clip-rule="evenodd" d="M34.122.141c18.6 0 33.677 14.904 33.677 32.991s-15.077 31.92-33.677 31.92S.445 51.219.445 33.132C.445 15.045 15.522.142 34.122.142z" fill="url(#paint2_linear_1_1356)"/><path fill-rule="evenodd" clip-rule="evenodd" d="M34.122.154c18.518 0 33.529 14.78 33.529 32.614 0 17.834-15.011 31.186-33.53 31.186C15.605 63.954.594 50.602.594 32.768S15.604.154 34.122.154z" fill="url(#paint3_linear_1_1356)"/><path fill-rule="evenodd" clip-rule="evenodd" d="M34.122.167c18.436 0 33.381 14.655 33.381 32.237 0 17.581-14.945 30.451-33.381 30.451-18.435 0-33.38-12.87-33.38-30.451C.741 14.822 15.686.167 34.121.167z" fill="url(#paint4_linear_1_1356)"/><path fill-rule="evenodd" clip-rule="evenodd" d="M34.122.18c18.354 0 33.233 14.53 33.233 31.86 0 17.328-14.88 29.717-33.233 29.717C15.768 61.757.889 49.368.889 32.039.89 14.711 15.77.18 34.122.18z" fill="url(#paint5_linear_1_1356)"/><path fill-rule="evenodd" clip-rule="evenodd" d="M34.122.193c18.272 0 33.085 14.406 33.085 31.482S52.394 60.659 34.122 60.659 1.038 48.75 1.038 31.675 15.85.193 34.122.193z" fill="url(#paint6_linear_1_1356)"/><path fill-rule="evenodd" clip-rule="evenodd" d="M34.122.206c18.19 0 32.936 14.282 32.936 31.105S52.312 59.56 34.122 59.56c-18.19 0-32.936-11.427-32.936-28.25S15.932.206 34.122.206z" fill="url(#paint7_linear_1_1356)"/><path fill-rule="evenodd" clip-rule="evenodd" d="M34.122.218C52.23.218 66.91 14.376 66.91 30.947c0 16.57-14.68 27.515-32.788 27.515-18.108 0-32.788-10.945-32.788-27.515S16.014.218 34.122.218z" fill="url(#paint8_linear_1_1356)"/><path fill-rule="evenodd" clip-rule="evenodd" d="M34.122.231c18.026 0 32.64 14.034 32.64 30.351 0 16.318-14.614 26.782-32.64 26.782S1.482 46.9 1.482 30.582c0-16.317 14.614-30.35 32.64-30.35z" fill="url(#paint9_linear_1_1356)"/><path fill-rule="evenodd" clip-rule="evenodd" d="M34.122.244c17.945 0 32.491 13.91 32.491 29.974 0 16.065-14.546 26.048-32.491 26.048S1.63 46.283 1.63 30.218C1.63 14.153 16.177.244 34.122.244z" fill="url(#paint10_linear_1_1356)"/><path fill-rule="evenodd" clip-rule="evenodd" d="M34.122.257c17.863 0 32.344 13.785 32.344 29.597 0 15.812-14.481 25.313-32.344 25.313s-32.343-9.5-32.343-25.313C1.779 14.042 16.259.257 34.122.257z" fill="url(#paint11_linear_1_1356)"/><path fill-rule="evenodd" clip-rule="evenodd" d="M34.122.27c17.781 0 32.195 13.66 32.195 29.22 0 15.56-14.414 24.58-32.195 24.58-17.78 0-32.195-9.02-32.195-24.58C1.927 13.93 16.341.27 34.122.27z" fill="url(#paint12_linear_1_1356)"/><path fill-rule="evenodd" clip-rule="evenodd" d="M34.122.283c17.7 0 32.047 13.536 32.047 28.842 0 15.307-14.348 23.846-32.047 23.846-17.7 0-32.047-8.539-32.047-23.846C2.075 13.82 16.423.283 34.122.283z" fill="url(#paint13_linear_1_1356)"/><path fill-rule="evenodd" clip-rule="evenodd" d="M34.122.296C51.739.296 66.02 13.707 66.02 28.76S51.74 51.873 34.122 51.873c-17.617 0-31.898-8.058-31.898-23.112C2.224 13.707 16.505.296 34.122.296z" fill="url(#paint14_linear_1_1356)"/><path fill-rule="evenodd" clip-rule="evenodd" d="M34.122.308c17.535 0 31.75 13.288 31.75 28.089 0 14.801-14.215 22.378-31.75 22.378s-31.75-7.577-31.75-22.378S16.587.308 34.122.308z" fill="url(#paint15_linear_1_1356)"/><path fill-rule="evenodd" clip-rule="evenodd" d="M34.122.321c17.453 0 31.602 13.163 31.602 27.712 0 14.548-14.149 21.643-31.602 21.643-17.453 0-31.602-7.095-31.602-21.643C2.52 13.484 16.67.32 34.122.32z" fill="url(#paint16_linear_1_1356)"/><path fill-rule="evenodd" clip-rule="evenodd" d="M34.122.334c17.371 0 31.454 13.039 31.454 27.334 0 14.296-14.083 20.91-31.454 20.91-17.372 0-31.454-6.614-31.454-20.91C2.668 13.373 16.75.334 34.122.334z" fill="url(#paint17_linear_1_1356)"/><path fill-rule="evenodd" clip-rule="evenodd" d="M34.122.347c17.29 0 31.306 12.915 31.306 26.957 0 14.044-14.016 20.176-31.306 20.176S2.816 41.348 2.816 27.304C2.816 13.262 16.832.347 34.122.347z" fill="url(#paint18_linear_1_1356)"/><path fill-rule="evenodd" clip-rule="evenodd" d="M34.122.36c17.208 0 31.157 12.79 31.157 26.58S51.33 46.382 34.123 46.382 2.965 40.73 2.965 26.94 16.915.36 34.122.36z" fill="url(#paint19_linear_1_1356)"/><path fill-rule="evenodd" clip-rule="evenodd" d="M34.122.373c17.126 0 31.01 12.666 31.01 26.203 0 13.538-13.884 18.707-31.01 18.707S3.113 40.113 3.113 26.576 16.996.373 34.122.373z" fill="url(#paint20_linear_1_1356)"/><path fill-rule="evenodd" clip-rule="evenodd" d="M34.122.385c17.044 0 30.86 12.542 30.86 25.827 0 13.284-13.816 17.973-30.86 17.973-17.044 0-30.86-4.689-30.86-17.973C3.261 12.927 17.077.385 34.121.385z" fill="url(#paint21_linear_1_1356)"/><path fill-rule="evenodd" clip-rule="evenodd" d="M34.122.398c16.963 0 30.713 12.418 30.713 25.45s-13.75 17.239-30.713 17.239S3.409 38.88 3.409 25.847C3.41 12.816 17.16.398 34.122.398z" fill="url(#paint22_linear_1_1356)"/><path fill-rule="evenodd" clip-rule="evenodd" d="M34.122.411c16.88 0 30.564 12.293 30.564 25.072 0 12.78-13.683 16.506-30.564 16.506-16.88 0-30.564-3.726-30.564-16.506C3.558 12.704 17.24.411 34.122.411z" fill="url(#paint23_linear_1_1356)"/><path fill-rule="evenodd" clip-rule="evenodd" d="M34.122.424c16.799 0 30.416 12.169 30.416 24.695S50.921 40.89 34.122 40.89 3.706 37.645 3.706 25.12C3.706 12.592 17.323.423 34.122.423z" fill="url(#paint24_linear_1_1356)"/><path fill-rule="evenodd" clip-rule="evenodd" d="M34.122.437C50.839.437 64.39 12.48 64.39 24.755c0 12.274-13.551 15.037-30.268 15.037S3.854 37.029 3.854 24.755C3.854 12.48 17.405.437 34.122.437z" fill="url(#paint25_linear_1_1356)"/><path fill-rule="evenodd" clip-rule="evenodd" d="M34.122.45c16.635 0 30.12 11.92 30.12 23.94 0 12.021-13.485 14.304-30.12 14.304S4.002 36.41 4.002 24.39 17.487.45 34.122.45z" fill="url(#paint26_linear_1_1356)"/><path fill-rule="evenodd" clip-rule="evenodd" d="M34.122.463c16.553 0 29.972 11.795 29.972 23.563 0 11.769-13.419 13.57-29.972 13.57S4.15 35.794 4.15 24.025C4.15 12.258 17.569.463 34.12.463z" fill="url(#paint27_linear_1_1356)"/><path fill-rule="evenodd" clip-rule="evenodd" d="M34.122.475c16.471 0 29.823 11.672 29.823 23.187 0 11.516-13.352 12.835-29.823 12.835S4.299 35.177 4.299 23.662 17.651.475 34.122.475z" fill="url(#paint28_linear_1_1356)"/><path fill-rule="evenodd" clip-rule="evenodd" d="M34.122.488c16.39 0 29.675 11.547 29.675 22.81 0 11.263-13.286 12.101-29.675 12.101-16.39 0-29.675-.838-29.675-12.101 0-11.263 13.285-22.81 29.675-22.81z" fill="url(#paint29_linear_1_1356)"/><path fill-rule="evenodd" clip-rule="evenodd" d="M34.122.501c16.308 0 29.527 11.423 29.527 22.432 0 11.01-13.22 11.368-29.527 11.368-16.307 0-29.527-.357-29.527-11.368 0-11.01 13.22-22.432 29.527-22.432z" fill="url(#paint30_linear_1_1356)"/><path fill-rule="evenodd" clip-rule="evenodd" d="M34.122.514C50.347.514 63.5 11.812 63.5 22.569c0 10.758-13.154 10.633-29.38 10.633-16.224 0-29.378.125-29.378-10.633C4.743 11.812 17.897.514 34.122.514z" fill="url(#paint31_linear_1_1356)"/><path fill-rule="evenodd" clip-rule="evenodd" d="M34.122.527c16.144 0 29.23 11.174 29.23 21.678 0 10.505-13.086 9.899-29.23 9.899s-29.23.606-29.23-9.899C4.891 11.701 17.977.527 34.121.527z" fill="url(#paint32_linear_1_1356)"/><path fill-rule="evenodd" clip-rule="evenodd" d="M34.122.54c16.062 0 29.082 11.05 29.082 21.3 0 10.253-13.02 9.166-29.082 9.166S5.04 32.093 5.04 21.841C5.04 11.589 18.06.54 34.122.54z" fill="url(#paint33_linear_1_1356)"/><path fill-rule="evenodd" clip-rule="evenodd" d="M34.122.553c15.98 0 28.934 10.925 28.934 20.924 0 9.999-12.954 8.43-28.934 8.43s-28.934 1.569-28.934-8.43c0-10 12.954-20.924 28.934-20.924z" fill="url(#paint34_linear_1_1356)"/><path fill-rule="evenodd" clip-rule="evenodd" d="M34.121.565c15.899 0 28.786 10.801 28.786 20.547 0 9.747-12.887 7.698-28.786 7.698-15.898 0-28.785 2.05-28.785-7.698C5.336 11.366 18.223.565 34.12.565z" fill="#AC0100"/><path fill-rule="evenodd" clip-rule="evenodd" d="M88.191 20.993h3.92l.906-2.371h4.15l.906 2.371h3.92l-4.265-10.261c-.544-1.285-1.532-1.4-2.636-1.4-1.779 0-2.273.543-2.635 1.4l-4.266 10.261zm6.753-7.922c.033-.082.099-.247.148-.247.05 0 .115.165.149.247l1.037 2.915h-2.372l1.038-2.915zm6.72 7.922l4.43-10.475c.478-1.12 1.78-1.186 2.488-1.186s2.009.066 2.487 1.186l4.43 10.475h-3.952l-2.784-7.626c-.033-.065-.099-.28-.181-.28-.082 0-.148.215-.182.28l-2.783 7.626h-3.953zm21.016 0V12.33h4.118V9.464H114.84v2.866h4.118v8.663h3.722zm17.327 0v-8.812c0-.938-.098-2.849-2.734-2.849-.675 0-1.762.066-2.487 1.35l-3.179 5.551c-.148.264-.23.412-.329.412-.198 0-.198-.247-.198-.395v-.181l.165-6.605h-3.788v8.894c0 1.383.296 2.767 2.569 2.767 1.597 0 2.175-.626 2.488-1.17l3.277-5.6c.23-.378.329-.56.428-.56.165 0 .165.215.165.429l-.165 6.77h3.788zm14.198 0v-8.812c0-.938-.099-2.849-2.734-2.849-.675 0-1.763.066-2.487 1.35l-3.179 5.551c-.148.264-.231.412-.329.412-.214 0-.198-.296-.198-.576l.165-6.605h-3.788v8.894c0 1.383.296 2.767 2.569 2.767 1.598 0 2.174-.626 2.487-1.17l3.278-5.6c.23-.378.329-.56.427-.56.165 0 .165.215.165.429l-.165 6.77h3.789zM143.598 6.367h2.322c.116.264.329.593.593.808.346.263.906.411 1.367.411.462 0 1.054-.148 1.384-.411.247-.198.461-.56.576-.808h2.323c-.248.725-.808 1.68-1.466 2.175-.725.543-1.812.79-2.817.79-1.005 0-2.091-.247-2.817-.79-.658-.495-1.218-1.45-1.465-2.175zm22.021 14.626v-2.866h-3.195c-1.236 0-2.306 0-2.8-.906-.099-.197-.28-.625-.28-1.91 0-.56.05-1.499.379-2.075.51-.923 1.416-.906 2.635-.906h3.08V9.464h-4.875c-1.301 0-2.981.148-4.035 1.498-.824 1.038-1.005 2.488-1.005 4.415 0 2.207.362 3.343 1.053 4.2.939 1.17 2.142 1.416 3.937 1.416h5.106zm1.483 0h3.721V9.463h-3.721v11.53zm12.731 0l-4.48-4.875c-.247-.263-.61-.659-.61-1.038 0-.098.05-.346.478-.856l4.003-4.76h-4.415l-3.096 4.348c-.247.346-.527.857-.527 1.285 0 .494.395 1.07.675 1.433l3.492 4.463h4.48zm12.88 0v-8.812c0-.938-.099-2.849-2.734-2.849-.675 0-1.762.066-2.487 1.35l-3.179 5.551c-.148.264-.23.412-.329.412-.198 0-.198-.247-.198-.395v-.181l.165-6.605h-3.789v8.894c0 1.383.297 2.767 2.57 2.767 1.597 0 2.174-.626 2.487-1.17l3.277-5.6c.231-.378.33-.56.429-.56.165 0 .165.215.165.429l-.165 6.77h3.788zm14.198 0v-8.812c0-.938-.099-2.849-2.735-2.849-.675 0-1.762.066-2.487 1.35l-3.178 5.551c-.148.264-.231.412-.33.412-.214 0-.197-.296-.197-.576l.164-6.605h-3.788v8.894c0 1.383.297 2.767 2.57 2.767 1.597 0 2.174-.626 2.487-1.17l3.277-5.6c.231-.378.33-.56.428-.56.165 0 .165.215.165.429l-.165 6.77h3.789zM196.304 6.367h2.322c.115.264.329.593.593.808.346.263.906.411 1.367.411.461 0 1.054-.148 1.384-.411.247-.198.461-.56.576-.808h2.322c-.246.725-.806 1.68-1.465 2.175-.725.543-1.812.79-2.817.79-1.004 0-2.092-.247-2.817-.79-.658-.495-1.218-1.45-1.465-2.175zM99.572 34.783v-2.8H93.94c-.23 0-.527.016-.708-.149-.082-.066-.164-.197-.164-.428v-1.252h6.291v-2.503h-6.291v-.873c0-.148 0-.412.18-.56.133-.116.363-.165.577-.165h5.698v-2.8h-8.284c-.412 0-.972.066-1.4.461-.428.396-.494.873-.494 1.318v7.906c0 .543 0 1.004.527 1.45.445.361.922.395 1.4.395h8.301zm12.781-11.53h-3.722v4.085h-4.183v-4.085h-3.723v11.53h3.723v-4.58h4.183v4.58h3.722v-11.53zm8.499 11.53v-8.664h4.118v-2.866h-11.958v2.866h4.118v8.664h3.722zm8.499 0v-3.328h4.859c.626 0 1.482-.164 2.025-.625.972-.84 1.038-2.817 1.038-3.624 0-1.664-.313-2.57-.857-3.146-.642-.692-1.498-.807-2.42-.807h-6.375c-.79 0-1.284.313-1.532.593-.395.445-.46 1.104-.46 1.581v9.356h3.722zm0-6.193v-1.796c0-.247.049-.675.642-.675h2.059c.428 0 .857 0 1.169.264.297.247.33.609.33.905 0 .478-.116.807-.296 1.005-.314.33-.775.297-1.236.297h-2.668zm-41.16 19.982h3.92l.906-2.372h4.15l.906 2.372h3.92L97.728 38.31c-.544-1.284-1.532-1.4-2.636-1.4-1.779 0-2.273.544-2.635 1.4l-4.266 10.262zm6.753-7.923c.033-.082.099-.247.148-.247.05 0 .115.165.149.247l1.037 2.916h-2.372l1.038-2.916zm7.379 7.923h6.374c.857 0 2.29.098 3.146-.511.906-.642.988-1.779.988-2.602 0-.643-.017-1.301-.346-1.862-.444-.757-1.203-.856-1.647-.84v-.065c.56-.1.906-.38 1.038-.511.592-.56.642-1.252.642-1.96 0-.807-.05-1.73-.658-2.372-.791-.823-2.01-.807-3.081-.807h-6.391v2.866h5.09c.709 0 .906.033 1.038.082.279.132.313.363.313.626 0 .198-.017.478-.214.66-.247.23-.758.213-1.187.213h-4.891v2.504h4.974c.676 0 .989.016 1.186.148.297.198.313.51.313.692 0 .264-.05.56-.346.74-.181.1-.444.133-1.169.133h-5.172v2.866zm22.054 0v-2.8h-5.633c-.231 0-.527.016-.708-.149-.082-.065-.165-.197-.165-.428v-1.252h6.292V41.44h-6.292v-.873c0-.148 0-.412.181-.56.132-.115.362-.165.576-.165h5.699v-2.8h-8.284c-.412 0-.972.066-1.401.461-.427.396-.494.873-.494 1.318v7.906c0 .544 0 1.005.528 1.45.444.361.922.395 1.4.395h8.301zm4.875 0v-3.327h4.859c.626 0 1.482-.165 2.026-.626.971-.84 1.037-2.817 1.037-3.624 0-1.663-.312-2.57-.856-3.146-.643-.691-1.499-.807-2.421-.807h-6.374c-.791 0-1.285.313-1.532.593-.395.445-.462 1.104-.462 1.581v9.356h3.723zm0-6.193v-1.796c0-.247.049-.675.643-.675h2.058c.429 0 .856 0 1.169.264.297.247.33.609.33.905 0 .478-.115.808-.296 1.005-.313.33-.774.297-1.236.297h-2.668zm20.868-5.337h-3.722v4.085h-4.184v-4.085h-3.722v11.53h3.722v-4.58h4.184v4.58h3.722v-11.53zm7.659-.132c-1.745 0-3.805.05-5.04 1.186-1.251 1.153-1.301 3.163-1.301 4.71 0 1.516.05 3.542 1.301 4.712 1.219 1.136 3.327 1.185 5.04 1.185s3.821-.05 5.04-1.185c1.252-1.17 1.301-3.196 1.301-4.711 0-1.548-.049-3.558-1.301-4.71-1.235-1.137-3.294-1.187-5.04-1.187zm-2.52 5.897c0-.955.016-1.581.428-2.19.494-.758 1.136-.84 2.092-.84.972 0 1.581.081 2.092.84.444.642.428 1.185.428 2.19 0 .922 0 1.565-.428 2.19-.511.758-1.12.84-2.092.84-.939 0-1.598-.082-2.092-.84-.379-.576-.428-1.284-.428-2.19zm22.729 5.765V39.76c0-.939-.098-2.85-2.734-2.85-.675 0-1.762.066-2.487 1.351l-3.179 5.55c-.148.264-.23.412-.329.412-.214 0-.198-.296-.198-.576l.165-6.605h-3.788v8.894c0 1.384.296 2.767 2.569 2.767 1.598 0 2.174-.626 2.487-1.17l3.278-5.6c.23-.378.329-.559.428-.559.165 0 .165.214.165.428l-.165 6.77h3.788zm-10.607-14.626h2.322c.116.263.33.593.594.807.345.264.905.412 1.367.412.461 0 1.054-.148 1.383-.412.247-.198.462-.56.576-.807h2.323c-.247.725-.807 1.68-1.466 2.174-.725.543-1.812.79-2.816.79-1.005 0-2.092-.247-2.817-.79-.659-.494-1.219-1.45-1.466-2.174zM99.572 62.36v-2.8H93.94c-.23 0-.527.016-.708-.148-.082-.066-.164-.198-.164-.429v-1.251h6.291v-2.504h-6.291v-.873c0-.148 0-.412.18-.56.133-.115.363-.165.577-.165h5.698v-2.8h-8.284c-.412 0-.972.066-1.4.462-.428.395-.494.873-.494 1.317v7.906c0 .544 0 1.005.527 1.45.445.362.922.395 1.4.395h8.301zm.988 0h6.375c.856 0 2.289.099 3.145-.511.906-.642.988-1.779.988-2.602 0-.643-.016-1.301-.346-1.861-.444-.758-1.202-.857-1.646-.84v-.066a1.97 1.97 0 001.037-.51c.593-.56.643-1.253.643-1.96 0-.808-.05-1.73-.66-2.373-.789-.823-2.009-.806-3.079-.806h-6.391v2.865h5.09c.708 0 .906.033 1.037.083.28.131.313.362.313.626 0 .197-.016.477-.214.658-.247.23-.758.215-1.186.215h-4.891v2.503h4.973c.676 0 .988.016 1.187.148.296.198.312.51.312.692 0 .263-.049.56-.346.741-.181.1-.444.132-1.169.132h-5.172v2.866zm12.155 0h3.723V50.83h-3.723v11.53zm12.732 0l-4.48-4.876c-.247-.263-.609-.658-.609-1.037 0-.1.049-.346.478-.856l4.002-4.76h-4.414l-3.097 4.347c-.246.347-.527.857-.527 1.285 0 .495.396 1.07.676 1.433l3.491 4.464h4.48zm12.88 0v-8.812c0-.939-.098-2.85-2.734-2.85-.675 0-1.762.066-2.487 1.352l-3.179 5.55c-.148.263-.23.412-.329.412-.198 0-.198-.247-.198-.396v-.18l.165-6.605h-3.788v8.893c0 1.384.296 2.767 2.569 2.767 1.597 0 2.175-.625 2.488-1.169l3.277-5.6c.23-.379.329-.56.428-.56.165 0 .165.214.165.429l-.165 6.769h3.788z" fill="#fff"/><path fill-rule="evenodd" clip-rule="evenodd" d="M56.567 58.545l-.002.002c-.39.362-.788.715-1.194 1.058l-.017.014c-.172.145-.346.288-.521.43l-.027.022c-.406.327-.82.646-1.242.954l-.047.034c-.414.302-.836.595-1.264.877l-.069.045c-.18.118-.36.235-.543.35l-.089.055c-.208.13-.418.257-.628.382l-.121.072c-.173.102-.348.202-.524.3a32.075 32.075 0 01-1.394.742l-.22.11a32.123 32.123 0 01-2.627 1.153 28.614 28.614 0 01-.76.284c-.132.046-.263.093-.395.138a26.28 26.28 0 01-.768.254c-.105.034-.212.067-.319.1a32.91 32.91 0 01-9.649 1.438c-2.37 0-4.684-.253-6.912-.729v-6.41a2.591 2.591 0 001.99-1.675h27.342zM26.323 66.42a32.857 32.857 0 01-14.593-7.87l-.004-.004h12.628a2.59 2.59 0 001.968 1.67v6.206z" fill="#C70100"/><path fill-rule="evenodd" clip-rule="evenodd" d="M34.147 1.5l.119.002v1.946h-.629v6.243l-.29.28v4.337l3.692 2.794-.006.008h.006v1.138a1.11 1.11 0 010 2.143v1.527a1.112 1.112 0 010 2.108v1.373h-.004l-3.688 2.79v7.754h.8v4.69h-.8v4.903h-.001v.002l-1.105.837a1.11 1.11 0 11-.35-.463l.875-.663v-4.616h-.79v-4.69h.79V27.9l3.692-2.794v-1.049a1.11 1.11 0 010-2.172V20.39a1.11 1.11 0 010-2.143v-.857l-3.69-2.792h-.002V10.53l-.29.28V3.448h-.619V1.581a33.53 33.53 0 012.29-.08zm1.11.022v9.563l3.112 2.241V26.06l-3.112 2.407v17.07l6.225-9.388V28.96l1.66-1.272V12.911l-1.66-1.353V2.322a32.96 32.96 0 00-6.225-.8zM12.105 9.968a33.028 33.028 0 016.225-4.425v5.542l-3.113 2.241V26.06l3.113 2.407v17.07l-6.225-9.388V28.96l-1.66-1.272V12.911l1.66-1.353v-1.59zm7.844-5.256V9.69l.29.28v4.337l-3.692 2.794.007.008h-.006v1.138a1.11 1.11 0 000 2.143v1.527a1.111 1.111 0 000 2.108v1.373h.003l3.689 2.79v7.754h-.8v4.69h.8v4.906l1.106.837a1.11 1.11 0 10.35-.463l-.875-.663v-4.616h.79v-4.69h-.79V27.9l-3.692-2.794v-1.049a1.11 1.11 0 000-2.172V20.39a1.11 1.11 0 000-2.143v-.857l3.69-2.792h.002V10.53l.29.28V4.184c-.39.169-.779.344-1.162.528zm.345 50.496c.616.262 1.095.52 1.07.578-.024.057-.543-.109-1.159-.37-.616-.262-1.095-.521-1.071-.578.025-.057.544.108 1.16.37zm-10.358-1.73c.288.085.516.176.508.203-.008.027-.248-.02-.537-.105-.289-.084-.516-.175-.508-.202.007-.026.248.02.537.105zm6.458.847c.147.036.264.076.26.09-.003.014-.125-.004-.272-.04-.147-.036-.263-.076-.26-.09.003-.014.125.005.272.04zm-2.423-2.844c.134.07.239.135.232.148-.006.012-.12-.033-.255-.102-.135-.07-.239-.135-.233-.148.007-.012.12.033.256.102zm.575-2.115c.542.394.951.753.915.803-.037.05-.505-.227-1.047-.62-.542-.393-.951-.753-.915-.803.037-.05.506.228 1.047.62zm9.984 6.022c.128.086.231.173.23.193-.001.02-.107-.033-.236-.12-.128-.086-.231-.173-.23-.193.002-.02.107.033.236.12zm-11.643-2.45c.616.262 1.095.521 1.072.578-.025.058-.544-.108-1.16-.37-.616-.262-1.096-.521-1.071-.578.024-.057.544.109 1.16.37zm5.3 2.6c.19.055.34.114.334.132-.005.018-.163-.013-.353-.069-.19-.056-.34-.115-.334-.133.005-.017.163.014.353.07zm-.35-4.36c.128.087.231.174.23.195-.002.02-.107-.033-.236-.12-.128-.087-.231-.173-.23-.194.002-.02.107.033.235.12zm2.024 1.715c.135.068.238.135.232.147-.006.013-.12-.033-.255-.102-.135-.069-.24-.135-.233-.147.007-.013.12.033.256.102zm-2.092.837c.289.085.516.175.508.202-.007.027-.248-.02-.537-.105-.288-.084-.515-.175-.508-.201.008-.027.248.02.537.104zm-1.108-1.5c.405.173.72.343.704.38-.016.038-.357-.07-.761-.243-.405-.172-.72-.342-.705-.38.017-.037.357.072.762.244zm4.41 1.795c.128.087.232.173.23.194-.001.02-.107-.033-.235-.12-.129-.086-.232-.173-.23-.193 0-.02.106.032.235.119zm2.067 1.742c.11.056.195.11.19.12-.006.01-.099-.027-.21-.083-.11-.057-.194-.11-.188-.12.005-.011.098.026.208.083zm-2.134.81c.288.084.516.175.508.201-.008.027-.248-.02-.537-.104-.289-.085-.516-.175-.508-.202.008-.027.248.02.537.105z" fill="#FEFEFE"/><path fill-rule="evenodd" clip-rule="evenodd" d="M27.237 7.715v1.05h-.889v-1.05h.889z" fill="#E99798"/><path fill-rule="evenodd" clip-rule="evenodd" d="M27.237 8.764v1.05h-.889v-1.05h.889z" fill="#EFB9B9"/><path fill-rule="evenodd" clip-rule="evenodd" d="M27.237 9.813v1.049h-.889V9.813h.889z" fill="#F6D5D6"/><path fill-rule="evenodd" clip-rule="evenodd" d="M27.237 10.862a1.425 1.425 0 01.01 2.703h-.909a1.424 1.424 0 01.01-2.703h.889z" fill="#FEFEFE"/><path fill-rule="evenodd" clip-rule="evenodd" d="M27.248 13.565l-.011.003v1.046h-.889v-1.046l-.01-.003h.91z" fill="#F6D5D6"/><path fill-rule="evenodd" clip-rule="evenodd" d="M27.237 14.614v1.048h-.889v-1.049h.889z" fill="#EFB9B9"/><path fill-rule="evenodd" clip-rule="evenodd" d="M27.237 15.662v1.049h-.889v-1.05h.889z" fill="#E99798"/><path fill-rule="evenodd" clip-rule="evenodd" d="M27.237 16.71v13.495h-.889V16.711h.889z" fill="#C70100"/><path fill-rule="evenodd" clip-rule="evenodd" d="M27.237 30.205v1.049h-.889v-1.049h.889z" fill="#E99798"/><path fill-rule="evenodd" clip-rule="evenodd" d="M27.237 31.254v1.049h-.889v-1.049h.889z" fill="#EFB9B9"/><path fill-rule="evenodd" clip-rule="evenodd" d="M27.237 32.303v1.048h-.889v-1.048h.889z" fill="#F6D5D6"/><path fill-rule="evenodd" clip-rule="evenodd" d="M27.237 33.351v.008a1.426 1.426 0 01.034 2.695h-.956a1.425 1.425 0 01.033-2.695v-.008h.889z" fill="#FEFEFE"/><path fill-rule="evenodd" clip-rule="evenodd" d="M27.271 36.054l-.034.012v1.037h-.889v-1.037l-.033-.012h.956z" fill="#F6D5D6"/><path fill-rule="evenodd" clip-rule="evenodd" d="M27.237 37.103v1.049h-.889v-1.05h.889z" fill="#EFB9B9"/><path fill-rule="evenodd" clip-rule="evenodd" d="M27.237 38.152V39.2h-.889v-1.048h.889z" fill="#E99798"/><path fill-rule="evenodd" clip-rule="evenodd" d="M27.237 39.2v14.088h-.889V39.2h.889z" fill="#C70100"/><path fill-rule="evenodd" clip-rule="evenodd" d="M27.42 56.434a1.423 1.423 0 11-1.254 0h1.253z" fill="#FEFEFE"/><path fill-rule="evenodd" clip-rule="evenodd" d="M27.237 55.385v.974c.063.021.124.046.183.075h-1.253c.058-.03.12-.054.182-.075v-.974h.888z" fill="#F6D5D6"/><path fill-rule="evenodd" clip-rule="evenodd" d="M27.237 54.336v1.05h-.889v-1.05h.889z" fill="#EFB9B9"/><path fill-rule="evenodd" clip-rule="evenodd" d="M27.237 53.288v1.048h-.889v-1.048h.889z" fill="#E99798"/><path fill-rule="evenodd" clip-rule="evenodd" d="M26.35 7.715h.888V2.23c-.298.063-.594.131-.889.203v5.282zm61.146 1.708H78.37c-.411 0-1.795.1-1.795 1.845v8.07c0 .94.66 1.615 1.614 1.615h7.462c1.136 0 1.728-.692 1.877-.89.56-.724.642-1.795.642-2.783 0-.774-.05-2.01-.658-2.718-.347-.395-1.005-.757-1.895-.757H80.3v-.824c0-.428.017-.691.708-.691h6.489V9.422zm-7.197 6.885h2.98c.215 0 .577 0 .824.198.247.181.247.395.247.659 0 .197 0 .51-.214.708-.23.214-.642.214-.856.214h-2.19c-.528 0-.791.05-.791-.758v-1.02zm9.461 18.484l1.56-2.866h-3.108v-8.663H84.49v8.663h-3.31c-.132 0-.577 0-.757-.197-.165-.181-.149-.61-.149-.873v-7.593h-3.722v9.421c0 .527.066 1.202.593 1.68.51.461 1.054.428 1.647.428H89.76zM75.242 48.575h3.953l2.783-7.626c.034-.066.1-.28.182-.28.082 0 .148.215.18.28l2.784 7.626h3.953L84.647 38.1c-.478-1.12-1.779-1.186-2.487-1.186-.708 0-2.01.066-2.487 1.186l-4.43 10.475zm5.032 13.797v-3.327h4.859c.625 0 1.482-.165 2.026-.626.97-.84 1.037-2.816 1.037-3.623 0-1.664-.313-2.57-.857-3.146-.642-.692-1.498-.807-2.42-.807h-6.374c-.791 0-1.285.313-1.532.592-.395.445-.461 1.104-.461 1.582v9.355h3.722zm0-6.193v-1.795c0-.248.05-.675.643-.675h2.058c.428 0 .856 0 1.17.263.296.247.329.61.329.906 0 .477-.116.807-.296 1.005-.314.329-.775.296-1.236.296h-2.668z" fill="#C70100"/><defs><linearGradient id="paint0_linear_1_1356" x1="34.122" y1="27" x2="34.122" y2="59" gradientUnits="userSpaceOnUse"><stop stop-color="#AC0100"/><stop offset="1"/></linearGradient><linearGradient id="paint1_linear_1_1356" x1="34.122" y1="27" x2="34.122" y2="59" gradientUnits="userSpaceOnUse"><stop stop-color="#AC0100"/><stop offset="1"/></linearGradient><linearGradient id="paint2_linear_1_1356" x1="34.122" y1="27" x2="34.122" y2="59" gradientUnits="userSpaceOnUse"><stop stop-color="#AC0100"/><stop offset="1"/></linearGradient><linearGradient id="paint3_linear_1_1356" x1="34.122" y1="27" x2="34.122" y2="59" gradientUnits="userSpaceOnUse"><stop stop-color="#AC0100"/><stop offset="1"/></linearGradient><linearGradient id="paint4_linear_1_1356" x1="34.122" y1="27" x2="34.122" y2="59" gradientUnits="userSpaceOnUse"><stop stop-color="#AC0100"/><stop offset="1"/></linearGradient><linearGradient id="paint5_linear_1_1356" x1="34.122" y1="27" x2="34.122" y2="59" gradientUnits="userSpaceOnUse"><stop stop-color="#AC0100"/><stop offset="1"/></linearGradient><linearGradient id="paint6_linear_1_1356" x1="34.122" y1="27" x2="34.122" y2="59" gradientUnits="userSpaceOnUse"><stop stop-color="#AC0100"/><stop offset="1"/></linearGradient><linearGradient id="paint7_linear_1_1356" x1="34.122" y1="27" x2="34.122" y2="59" gradientUnits="userSpaceOnUse"><stop stop-color="#AC0100"/><stop offset="1"/></linearGradient><linearGradient id="paint8_linear_1_1356" x1="34.122" y1="27" x2="34.122" y2="59" gradientUnits="userSpaceOnUse"><stop stop-color="#AC0100"/><stop offset="1"/></linearGradient><linearGradient id="paint9_linear_1_1356" x1="34.122" y1="27" x2="34.122" y2="59" gradientUnits="userSpaceOnUse"><stop stop-color="#AC0100"/><stop offset="1"/></linearGradient><linearGradient id="paint10_linear_1_1356" x1="34.122" y1="27" x2="34.122" y2="59" gradientUnits="userSpaceOnUse"><stop stop-color="#AC0100"/><stop offset="1"/></linearGradient><linearGradient id="paint11_linear_1_1356" x1="34.122" y1="27" x2="34.122" y2="59" gradientUnits="userSpaceOnUse"><stop stop-color="#AC0100"/><stop offset="1"/></linearGradient><linearGradient id="paint12_linear_1_1356" x1="34.122" y1="27" x2="34.122" y2="59" gradientUnits="userSpaceOnUse"><stop stop-color="#AC0100"/><stop offset="1"/></linearGradient><linearGradient id="paint13_linear_1_1356" x1="34.122" y1="27" x2="34.122" y2="59" gradientUnits="userSpaceOnUse"><stop stop-color="#AC0100"/><stop offset="1"/></linearGradient><linearGradient id="paint14_linear_1_1356" x1="34.122" y1="27" x2="34.122" y2="59" gradientUnits="userSpaceOnUse"><stop stop-color="#AC0100"/><stop offset="1"/></linearGradient><linearGradient id="paint15_linear_1_1356" x1="34.122" y1="27" x2="34.122" y2="59" gradientUnits="userSpaceOnUse"><stop stop-color="#AC0100"/><stop offset="1"/></linearGradient><linearGradient id="paint16_linear_1_1356" x1="34.122" y1="27" x2="34.122" y2="59" gradientUnits="userSpaceOnUse"><stop stop-color="#AC0100"/><stop offset="1"/></linearGradient><linearGradient id="paint17_linear_1_1356" x1="34.122" y1="27" x2="34.122" y2="59" gradientUnits="userSpaceOnUse"><stop stop-color="#AC0100"/><stop offset="1"/></linearGradient><linearGradient id="paint18_linear_1_1356" x1="34.122" y1="27" x2="34.122" y2="59" gradientUnits="userSpaceOnUse"><stop stop-color="#AC0100"/><stop offset="1"/></linearGradient><linearGradient id="paint19_linear_1_1356" x1="34.122" y1="27" x2="34.122" y2="59" gradientUnits="userSpaceOnUse"><stop stop-color="#AC0100"/><stop offset="1"/></linearGradient><linearGradient id="paint20_linear_1_1356" x1="34.122" y1="27" x2="34.122" y2="59" gradientUnits="userSpaceOnUse"><stop stop-color="#AC0100"/><stop offset="1"/></linearGradient><linearGradient id="paint21_linear_1_1356" x1="34.122" y1="27" x2="34.122" y2="59" gradientUnits="userSpaceOnUse"><stop stop-color="#AC0100"/><stop offset="1"/></linearGradient><linearGradient id="paint22_linear_1_1356" x1="34.122" y1="27" x2="34.122" y2="59" gradientUnits="userSpaceOnUse"><stop stop-color="#AC0100"/><stop offset="1"/></linearGradient><linearGradient id="paint23_linear_1_1356" x1="34.122" y1="27" x2="34.122" y2="59" gradientUnits="userSpaceOnUse"><stop stop-color="#AC0100"/><stop offset="1"/></linearGradient><linearGradient id="paint24_linear_1_1356" x1="34.122" y1="27" x2="34.122" y2="59" gradientUnits="userSpaceOnUse"><stop stop-color="#AC0100"/><stop offset="1"/></linearGradient><linearGradient id="paint25_linear_1_1356" x1="34.122" y1="27" x2="34.122" y2="59" gradientUnits="userSpaceOnUse"><stop stop-color="#AC0100"/><stop offset="1"/></linearGradient><linearGradient id="paint26_linear_1_1356" x1="34.122" y1="27" x2="34.122" y2="59" gradientUnits="userSpaceOnUse"><stop stop-color="#AC0100"/><stop offset="1"/></linearGradient><linearGradient id="paint27_linear_1_1356" x1="34.122" y1="27" x2="34.122" y2="59" gradientUnits="userSpaceOnUse"><stop stop-color="#AC0100"/><stop offset="1"/></linearGradient><linearGradient id="paint28_linear_1_1356" x1="34.122" y1="27" x2="34.122" y2="59" gradientUnits="userSpaceOnUse"><stop stop-color="#AC0100"/><stop offset="1"/></linearGradient><linearGradient id="paint29_linear_1_1356" x1="34.122" y1="27" x2="34.122" y2="59" gradientUnits="userSpaceOnUse"><stop stop-color="#AC0100"/><stop offset="1"/></linearGradient><linearGradient id="paint30_linear_1_1356" x1="34.122" y1="27" x2="34.122" y2="59" gradientUnits="userSpaceOnUse"><stop stop-color="#AC0100"/><stop offset="1"/></linearGradient><linearGradient id="paint31_linear_1_1356" x1="34.122" y1="27" x2="34.122" y2="59" gradientUnits="userSpaceOnUse"><stop stop-color="#AC0100"/><stop offset="1"/></linearGradient><linearGradient id="paint32_linear_1_1356" x1="34.122" y1="27" x2="34.122" y2="59" gradientUnits="userSpaceOnUse"><stop stop-color="#AC0100"/><stop offset="1"/></linearGradient><linearGradient id="paint33_linear_1_1356" x1="34.122" y1="27" x2="34.122" y2="59" gradientUnits="userSpaceOnUse"><stop stop-color="#AC0100"/><stop offset="1"/></linearGradient><linearGradient id="paint34_linear_1_1356" x1="34.122" y1="27" x2="34.122" y2="59" gradientUnits="userSpaceOnUse"><stop stop-color="#AC0100"/><stop offset="1"/></linearGradient></defs></svg>