<svg width="160.985352" height="21.000000" viewBox="0 0 160.985 21" fill="none" xmlns="http://www.w3.org/2000/svg" xmlns:xlink="http://www.w3.org/1999/xlink">
	<desc>
			Created with Pixso.
	</desc>
	<defs/>
	<path id="Vector" d="M13.56 7L6.67 7C6.21 7 5.76 7.17 5.43 7.49L0.26 12.49C-0.3 13.04 0.09 14 0.88 14L9.75 14C10.21 14 10.66 13.82 10.99 13.5L16.68 7.99C17.34 7.35 18.22 7 19.14 7L34 7L34 0L22.95 0C22.49 0 22.05 0.17 21.72 0.49L16.02 6C15.36 6.64 14.48 7 13.56 7Z" fill="#DC4729" fill-opacity="1.000000" fill-rule="nonzero"/>
	<path id="Vector" d="M34 14L14.81 14C14.35 14 13.91 14.17 13.58 14.49L8.41 19.49C7.84 20.04 8.23 21 9.02 21L34 21L34 14Z" fill="#DC4729" fill-opacity="1.000000" fill-rule="nonzero"/>
	<path id="Vector" d="M49.09 3.5L51.29 3.5L56.4 17.5L54.36 17.5L53.04 13.66L47.25 13.66L45.91 17.5L44 17.5L49.09 3.5ZM52.44 11.93L50.2 5.39L50.16 5.39L47.86 11.93L52.44 11.93Z" fill="#FFFFFF" fill-opacity="1.000000" fill-rule="nonzero"/>
	<path id="Vector" d="M58.4 3.5L63 3.5C64.69 3.5 65.91 3.83 66.66 4.5C67.42 5.15 67.8 6.06 67.8 7.24C67.8 8.58 67.21 9.57 66.04 10.2L66.04 10.24C67.48 10.82 68.2 11.93 68.2 13.56C68.2 14.82 67.82 15.79 67.06 16.48C66.31 17.16 65.09 17.5 63.4 17.5L58.4 17.5L58.4 3.5ZM60.28 5.22L60.28 9.43L62.9 9.43C63.99 9.43 64.75 9.25 65.18 8.89C65.62 8.54 65.84 8.02 65.84 7.33C65.84 6.66 65.62 6.14 65.18 5.77C64.75 5.4 63.99 5.22 62.9 5.22L60.28 5.22ZM60.28 11.16L60.28 15.77L63.3 15.77C64.39 15.77 65.15 15.59 65.58 15.22C66.02 14.83 66.24 14.24 66.24 13.46C66.24 12.68 66.02 12.11 65.58 11.74C65.15 11.35 64.39 11.16 63.3 11.16L60.28 11.16Z" fill="#FFFFFF" fill-opacity="1.000000" fill-rule="nonzero"/>
	<path id="Vector" d="M73.77 5.22L69.31 5.22L69.31 3.5L80.11 3.5L80.11 5.22L75.65 5.22L75.65 17.5L73.77 17.5L73.77 5.22Z" fill="#FFFFFF" fill-opacity="1.000000" fill-rule="nonzero"/>
	<path id="Vector" d="M87 17.65C86.1 17.65 85.28 17.51 84.54 17.21C83.81 16.92 83.18 16.49 82.64 15.91C82.12 15.34 81.72 14.63 81.42 13.79C81.14 12.94 81 11.97 81 10.87L81 9.91C81 8.87 81.14 7.95 81.42 7.13C81.72 6.32 82.12 5.63 82.64 5.08C83.18 4.5 83.81 4.07 84.54 3.77C85.29 3.48 86.11 3.33 87 3.33C87.9 3.33 88.71 3.48 89.44 3.77C90.19 4.07 90.82 4.5 91.34 5.06C91.88 5.61 92.28 6.31 92.56 7.13C92.86 7.95 93 8.87 93 9.91L93 10.87C93 11.97 92.86 12.93 92.56 13.77C92.28 14.61 91.88 15.32 91.34 15.89C90.82 16.47 90.19 16.91 89.44 17.21C88.71 17.51 87.9 17.65 87 17.65ZM87 15.93C88.2 15.93 89.18 15.52 89.92 14.69C90.67 13.85 91.04 12.58 91.04 10.87L91.04 9.91C91.04 9.11 90.94 8.41 90.74 7.81C90.54 7.2 90.26 6.69 89.9 6.29C89.56 5.88 89.14 5.58 88.64 5.37C88.15 5.16 87.6 5.06 87 5.06C86.4 5.06 85.86 5.15 85.36 5.35C84.87 5.56 84.44 5.86 84.08 6.27C83.72 6.67 83.44 7.18 83.24 7.79C83.06 8.39 82.96 9.1 82.96 9.91L82.96 10.87C82.96 11.73 83.06 12.48 83.26 13.11C83.46 13.74 83.74 14.27 84.1 14.69C84.46 15.11 84.89 15.42 85.38 15.63C85.88 15.83 86.42 15.93 87 15.93Z" fill="#FFFFFF" fill-opacity="1.000000" fill-rule="nonzero"/>
	<path id="Vector" d="M101.1 17.65C100.22 17.65 99.42 17.51 98.7 17.21C97.98 16.92 97.36 16.49 96.84 15.91C96.32 15.34 95.92 14.63 95.62 13.79C95.34 12.94 95.2 11.97 95.2 10.87L95.2 9.91C95.2 8.87 95.34 7.95 95.62 7.13C95.92 6.32 96.32 5.63 96.84 5.08C97.36 4.5 97.98 4.07 98.7 3.77C99.44 3.48 100.24 3.33 101.1 3.33C101.9 3.33 102.62 3.45 103.24 3.67C103.88 3.9 104.43 4.21 104.88 4.61C105.35 5 105.72 5.46 106 6C106.3 6.52 106.5 7.08 106.6 7.69L104.6 7.69C104.5 7.32 104.34 6.97 104.14 6.65C103.96 6.33 103.72 6.06 103.42 5.81C103.14 5.58 102.8 5.39 102.4 5.25C102.02 5.12 101.58 5.06 101.1 5.06C100.54 5.06 100.02 5.16 99.52 5.37C99.04 5.58 98.63 5.88 98.28 6.29C97.94 6.71 97.66 7.21 97.46 7.81C97.26 8.41 97.16 9.11 97.16 9.91L97.16 10.87C97.16 11.71 97.26 12.46 97.46 13.09C97.66 13.72 97.94 14.25 98.28 14.67C98.64 15.09 99.06 15.4 99.54 15.61C100.02 15.83 100.54 15.93 101.1 15.93C102.08 15.93 102.85 15.67 103.42 15.15C104.01 14.62 104.4 13.93 104.6 13.09L106.6 13.09C106.5 13.76 106.3 14.37 106 14.93C105.72 15.48 105.35 15.96 104.88 16.37C104.43 16.77 103.88 17.09 103.24 17.31C102.62 17.54 101.9 17.65 101.1 17.65Z" fill="#FFFFFF" fill-opacity="1.000000" fill-rule="nonzero"/>
	<path id="Vector" d="M112.4 3.5L114.6 3.5L119.7 17.5L117.66 17.5L116.34 13.66L110.56 13.66L109.22 17.5L107.3 17.5L112.4 3.5ZM115.74 11.93L113.5 5.39L113.46 5.39L111.16 11.93L115.74 11.93Z" fill="#FFFFFF" fill-opacity="1.000000" fill-rule="nonzero"/>
	<path id="Vector" d="M120.89 15.93L121.09 15.93C121.65 15.93 122.08 15.77 122.39 15.46C122.71 15.12 122.94 14.68 123.09 14.12C123.24 13.54 123.32 12.87 123.35 12.1C123.38 11.32 123.39 10.49 123.39 9.6L123.39 3.5L132.59 3.5L132.59 17.5L130.71 17.5L130.71 5.22L125.27 5.22L125.27 9.6C125.27 10.62 125.24 11.62 125.19 12.6C125.15 13.56 125 14.41 124.73 15.18C124.46 15.92 124.05 16.52 123.49 16.98C122.93 17.43 122.13 17.66 121.09 17.66L120.89 17.66L120.89 15.93Z" fill="#FFFFFF" fill-opacity="1.000000" fill-rule="nonzero"/>
	<path id="Vector" d="M141.28 17.65C140.37 17.65 139.56 17.51 138.82 17.21C138.09 16.92 137.45 16.49 136.92 15.91C136.4 15.34 135.99 14.63 135.7 13.79C135.42 12.94 135.28 11.97 135.28 10.87L135.28 9.91C135.28 8.87 135.42 7.95 135.7 7.13C135.99 6.32 136.4 5.63 136.92 5.08C137.45 4.5 138.09 4.07 138.82 3.77C139.57 3.48 140.39 3.33 141.28 3.33C142.17 3.33 142.99 3.48 143.72 3.77C144.47 4.07 145.1 4.5 145.62 5.06C146.15 5.61 146.56 6.31 146.84 7.13C147.13 7.95 147.28 8.87 147.28 9.91L147.28 10.87C147.28 11.97 147.13 12.93 146.84 13.77C146.56 14.61 146.15 15.32 145.62 15.89C145.1 16.47 144.47 16.91 143.72 17.21C142.99 17.51 142.17 17.65 141.28 17.65ZM141.28 15.93C142.48 15.93 143.45 15.52 144.2 14.69C144.95 13.85 145.32 12.58 145.32 10.87L145.32 9.91C145.32 9.11 145.22 8.41 145.02 7.81C144.82 7.2 144.54 6.69 144.18 6.29C143.83 5.88 143.41 5.58 142.92 5.37C142.43 5.16 141.88 5.06 141.28 5.06C140.68 5.06 140.13 5.15 139.64 5.35C139.15 5.56 138.72 5.86 138.36 6.27C138 6.67 137.72 7.18 137.52 7.79C137.33 8.39 137.24 9.1 137.24 9.91L137.24 10.87C137.24 11.73 137.34 12.48 137.54 13.11C137.74 13.74 138.02 14.27 138.38 14.69C138.74 15.11 139.17 15.42 139.66 15.63C140.15 15.83 140.69 15.93 141.28 15.93Z" fill="#FFFFFF" fill-opacity="1.000000" fill-rule="nonzero"/>
	<path id="Vector" d="M149.98 3.5L151.86 3.5L151.86 9.43L159.1 9.43L159.1 3.5L160.98 3.5L160.98 17.5L159.1 17.5L159.1 11.16L151.86 11.16L151.86 17.5L149.98 17.5L149.98 3.5Z" fill="#FFFFFF" fill-opacity="1.000000" fill-rule="nonzero"/>
</svg>
