<svg width="19" height="19" fill="none" xmlns="http://www.w3.org/2000/svg"><g id="ic:baseline-local-phone" clip-path="url(#clip0_47_97)"><path id="Vector" d="M4.344 8.34a14.517 14.517 0 006.316 6.316l2.108-2.109a.953.953 0 01.977-.23c1.074.355 2.233.547 3.422.547a.96.96 0 01.958.958v3.345a.961.961 0 01-.958.958c-9 0-16.292-7.293-16.292-16.292a.96.96 0 01.958-.958h3.354a.96.96 0 01.959.958c0 1.198.192 2.348.546 3.422a.962.962 0 01-.24.977L4.345 8.34z" fill="#009BFF"/></g><defs><clipPath id="clip0_47_97"><path fill="#fff" d="M0 0h19v19H0z"/></clipPath></defs></svg>