<svg width="32" height="31" viewBox="0 0 32 31" fill="none" xmlns="http://www.w3.org/2000/svg">
<path d="M3.37451 8.26388L16.011 0.977196L28.6476 8.26388V22.8362L16.011 30.1229L3.37451 22.8362V8.26388Z" stroke="#040404"/>
<path d="M15.6577 20.9536C15.8529 21.1488 16.1695 21.1488 16.3648 20.9536L19.5468 17.7716C19.742 17.5763 19.742 17.2597 19.5468 17.0645C19.3515 16.8692 19.0349 16.8692 18.8397 17.0645L16.0112 19.8929L13.1828 17.0645C12.9875 16.8692 12.671 16.8692 12.4757 17.0645C12.2804 17.2597 12.2804 17.5763 12.4757 17.7716L15.6577 20.9536ZM15.5112 10.5V20.6H16.5112V10.5H15.5112Z" fill="#040404"/>
</svg>
