<svg width="10" height="10" fill="none" xmlns="http://www.w3.org/2000/svg"><path fill="#F2F2F2" d="M0 0h10v10H0z"/><g id="01.home" clip-path="url(#clip0_5_0)"><path transform="translate(-416 -2684)" fill="#fff" d="M0 0h1920v5441H0z"/><g id="how_it_works"><g id="timeline"><g id="step_1"><path id="start_pointer" fill-rule="evenodd" clip-rule="evenodd" d="M5 10A5 5 0 105 0a5 5 0 000 10z" fill="#363838"/><path id="Kinfolk scenester au" d="M12.797-92h-1.57l-4.118-5.555-1.218 1.094V-92H4.562v-11.422h1.329v5.695c.296-.338.601-.674.914-1.007.312-.339.622-.68.93-1.024l3.335-3.664h1.555l-4.547 4.953L12.797-92zm2.664-8.562V-92h-1.297v-8.562h1.297zm-.633-3.204c.214 0 .396.071.547.211.156.136.234.349.234.641 0 .286-.078.5-.234.641a.777.777 0 01-.547.211.797.797 0 01-.562-.211c-.146-.141-.22-.355-.22-.641 0-.292.074-.505.22-.641a.797.797 0 01.562-.211zm7.438 3.047c1.015 0 1.784.25 2.304.75.521.495.782 1.292.782 2.39V-92H24.07v-5.492c0-.714-.164-1.248-.492-1.602-.323-.354-.82-.531-1.492-.531-.948 0-1.615.268-2 .805-.385.536-.578 1.315-.578 2.336V-92H18.21v-8.562h1.047l.195 1.234h.07c.183-.302.415-.555.696-.758a3.03 3.03 0 01.945-.469 3.673 3.673 0 011.102-.164zm9.57 1.172h-2.133V-92h-1.297v-7.547h-1.515v-.625l1.515-.43v-.57c0-.719.107-1.302.32-1.75.214-.453.524-.786.93-1 .407-.213.901-.32 1.485-.32.328 0 .627.028.898.086a5.7 5.7 0 01.727.195l-.336 1.023a5.99 5.99 0 00-.602-.156 2.895 2.895 0 00-.672-.078c-.494 0-.862.162-1.101.484-.235.318-.352.818-.352 1.5v.626h2.133v1.015zm8.96 3.25c0 .703-.09 1.33-.273 1.883a3.857 3.857 0 01-.789 1.398c-.343.38-.76.672-1.25.875-.484.198-1.034.297-1.648.297a4.095 4.095 0 01-1.578-.297 3.563 3.563 0 01-1.235-.875 4.042 4.042 0 01-.804-1.398c-.188-.552-.282-1.18-.282-1.883 0-.937.16-1.734.477-2.39.318-.662.77-1.165 1.36-1.508.593-.349 1.299-.524 2.117-.524.78 0 1.463.175 2.047.524.588.349 1.044.854 1.367 1.515.328.657.492 1.45.492 2.383zm-6.515 0c0 .688.091 1.284.274 1.79.182.504.463.895.843 1.171.38.276.87.414 1.47.414.593 0 1.08-.138 1.46-.414.386-.276.67-.667.852-1.172.182-.505.273-1.101.273-1.789 0-.682-.091-1.27-.273-1.766-.183-.5-.464-.885-.844-1.156-.38-.27-.872-.406-1.477-.406-.89 0-1.544.294-1.96.883-.412.588-.618 1.404-.618 2.445zM44.344-92h-1.305v-12.156h1.305V-92zm4.031-12.156v6.312c0 .209-.008.464-.023.766-.016.297-.03.56-.04.789h.055c.11-.135.268-.336.477-.602.213-.265.393-.479.539-.64l2.844-3.031h1.523l-3.445 3.656L54-92h-1.563l-3.023-4.055-1.039.953V-92h-1.29v-12.156h1.29zm16.813 9.812c0 .547-.139 1.008-.415 1.383-.27.37-.661.648-1.171.836-.506.188-1.11.281-1.813.281a7.504 7.504 0 01-1.555-.14 4.5 4.5 0 01-1.148-.399v-1.195c.349.172.766.328 1.25.469.484.14.98.21 1.484.21.74 0 1.276-.12 1.61-.359.333-.24.5-.565.5-.976a.988.988 0 00-.203-.618c-.13-.182-.352-.356-.664-.523a9.846 9.846 0 00-1.297-.563 14.973 14.973 0 01-1.422-.617c-.396-.208-.703-.46-.922-.757-.214-.297-.32-.683-.32-1.157 0-.724.291-1.278.875-1.664.588-.39 1.359-.586 2.312-.586.516 0 .997.052 1.445.157a6.59 6.59 0 011.266.406l-.438 1.039a8.043 8.043 0 00-1.132-.383 4.858 4.858 0 00-1.227-.156c-.599 0-1.06.099-1.383.297-.317.197-.476.468-.476.812 0 .266.073.484.218.656.152.172.391.334.72.485.327.15.76.328 1.296.531.537.198 1 .404 1.39.617.391.209.69.464.9.766.213.297.32.68.32 1.148zm5.515 2.5c-.77 0-1.45-.159-2.039-.476-.588-.318-1.047-.802-1.375-1.453-.328-.651-.492-1.472-.492-2.461 0-1.037.172-1.883.516-2.54.349-.66.828-1.15 1.437-1.468.61-.318 1.302-.477 2.078-.477.427 0 .839.045 1.234.133.401.083.73.19.985.32l-.39 1.086a6.703 6.703 0 00-.907-.28 3.993 3.993 0 00-.953-.126c-.594 0-1.089.128-1.484.383-.391.255-.685.63-.883 1.125-.193.495-.29 1.104-.29 1.828 0 .693.094 1.284.282 1.773.193.49.476.865.851 1.125.38.256.855.383 1.422.383.453 0 .862-.047 1.227-.14.365-.1.695-.214.992-.344v1.156a4.018 4.018 0 01-.96.336 5.795 5.795 0 01-1.25.117zm7.54-8.875c.728 0 1.353.162 1.874.485.521.322.92.776 1.195 1.359.276.578.415 1.255.415 2.031v.805h-5.915c.016 1.005.266 1.77.75 2.297.485.526 1.167.789 2.047.789.542 0 1.021-.05 1.438-.149a7.927 7.927 0 001.297-.437v1.14a6.31 6.31 0 01-1.29.422 7.388 7.388 0 01-1.5.133c-.822 0-1.541-.166-2.156-.5a3.497 3.497 0 01-1.421-1.484c-.339-.651-.508-1.448-.508-2.39 0-.923.153-1.72.46-2.391.313-.678.75-1.198 1.313-1.563.568-.364 1.235-.547 2-.547zm-.016 1.063c-.693 0-1.245.226-1.657.68-.411.453-.656 1.085-.734 1.898h4.531c-.005-.51-.086-.959-.242-1.344a1.886 1.886 0 00-.695-.906c-.313-.219-.714-.328-1.203-.328zm9.757-1.063c1.016 0 1.784.25 2.305.75.52.495.781 1.292.781 2.39V-92h-1.28v-5.492c0-.714-.165-1.248-.493-1.602-.323-.354-.82-.531-1.492-.531-.948 0-1.615.268-2 .805-.386.536-.578 1.315-.578 2.336V-92H83.93v-8.562h1.047l.195 1.234h.07c.182-.302.414-.555.695-.758.282-.208.597-.365.946-.469a3.674 3.674 0 011.101-.164zm9.055 0c.73 0 1.354.162 1.875.485.52.322.92.776 1.195 1.359.276.578.414 1.255.414 2.031v.805h-5.914c.016 1.005.266 1.77.75 2.297.485.526 1.167.789 2.047.789.542 0 1.021-.05 1.438-.149a7.939 7.939 0 001.297-.437v1.14a6.323 6.323 0 01-1.29.422 7.388 7.388 0 01-1.5.133c-.822 0-1.541-.166-2.156-.5a3.497 3.497 0 01-1.422-1.484c-.338-.651-.507-1.448-.507-2.39 0-.923.153-1.72.46-2.391.313-.678.75-1.198 1.313-1.563.568-.364 1.234-.547 2-.547zm-.016 1.063c-.692 0-1.244.226-1.656.68-.411.453-.656 1.085-.734 1.898h4.531c-.005-.51-.086-.959-.242-1.344a1.887 1.887 0 00-.695-.906c-.313-.219-.714-.328-1.204-.328zm11.243 5.312c0 .547-.138 1.008-.414 1.383-.271.37-.662.648-1.172.836-.506.188-1.11.281-1.813.281a7.51 7.51 0 01-1.555-.14 4.5 4.5 0 01-1.148-.399v-1.195c.349.172.766.328 1.25.469.484.14.979.21 1.484.21.74 0 1.276-.12 1.61-.359.333-.24.5-.565.5-.976a.99.99 0 00-.203-.618c-.131-.182-.352-.356-.664-.523a9.884 9.884 0 00-1.297-.563 14.956 14.956 0 01-1.422-.617c-.396-.208-.703-.46-.922-.757-.214-.297-.32-.683-.32-1.157 0-.724.291-1.278.875-1.664.588-.39 1.359-.586 2.312-.586.516 0 .998.052 1.445.157a6.56 6.56 0 011.266.406l-.437 1.039a8.08 8.08 0 00-1.133-.383 4.859 4.859 0 00-1.227-.156c-.599 0-1.06.099-1.383.297-.317.197-.476.468-.476.812 0 .266.073.484.219.656.151.172.39.334.718.485.329.15.761.328 1.297.531.537.198 1 .404 1.391.617.391.209.69.464.898.766.214.297.321.68.321 1.148zm4.851 1.438c.214 0 .432-.018.656-.055a2.88 2.88 0 00.547-.133v1.008a2.749 2.749 0 01-.632.172 4.49 4.49 0 01-.782.07c-.453 0-.864-.078-1.234-.234a1.912 1.912 0 01-.891-.813c-.219-.38-.328-.906-.328-1.578v-5.078h-1.219v-.633l1.227-.508.516-1.859h.781v1.985h2.508v1.015h-2.508v5.04c0 .536.122.937.367 1.202.25.266.581.399.992.399zm6.235-7.813c.729 0 1.354.162 1.875.485.52.322.919.776 1.195 1.359.276.578.414 1.255.414 2.031v.805h-5.914c.016 1.005.266 1.77.75 2.297.484.526 1.167.789 2.047.789.541 0 1.021-.05 1.437-.149a7.915 7.915 0 001.297-.437v1.14a6.306 6.306 0 01-1.289.422 7.389 7.389 0 01-1.5.133c-.823 0-1.542-.166-2.156-.5a3.49 3.49 0 01-1.422-1.484c-.339-.651-.508-1.448-.508-2.39 0-.923.154-1.72.461-2.391.313-.678.75-1.198 1.313-1.563.567-.364 1.234-.547 2-.547zm-.016 1.063c-.693 0-1.245.226-1.656.68-.412.453-.657 1.085-.735 1.898h4.532c-.006-.51-.086-.959-.243-1.344a1.883 1.883 0 00-.695-.906c-.312-.219-.713-.328-1.203-.328zm9.594-1.063c.172 0 .351.011.539.031.187.016.354.04.5.071l-.164 1.203a4.04 4.04 0 00-.953-.117c-.344 0-.67.07-.977.21a2.315 2.315 0 00-.797.594 2.763 2.763 0 00-.539.93c-.13.36-.195.76-.195 1.203V-92h-1.305v-8.562h1.078l.141 1.578h.054c.178-.318.391-.607.641-.868.25-.265.539-.476.867-.632a2.573 2.573 0 011.11-.235zm10.015.016c1.021 0 1.779.229 2.274.687.495.459.742 1.19.742 2.196V-92h-.945l-.25-1.266h-.063a4.703 4.703 0 01-.75.79 2.78 2.78 0 01-.906.476c-.339.104-.755.156-1.25.156-.521 0-.985-.09-1.391-.273a2.169 2.169 0 01-.953-.828c-.229-.37-.344-.839-.344-1.407 0-.854.339-1.51 1.016-1.968.677-.459 1.708-.709 3.094-.75l1.476-.063v-.523c0-.74-.159-1.258-.476-1.555-.318-.297-.766-.445-1.344-.445a4.17 4.17 0 00-1.281.195c-.406.13-.792.284-1.156.461l-.399-.984a7.105 7.105 0 011.328-.508 5.787 5.787 0 011.578-.211zm1.735 4.484l-1.305.055c-1.068.042-1.82.216-2.258.523-.437.308-.656.743-.656 1.305 0 .49.148.852.445 1.086.297.234.69.352 1.18.352.76 0 1.383-.211 1.867-.633.485-.422.727-1.055.727-1.899v-.789zm11.023-4.343V-92h-1.062l-.188-1.203h-.07a2.479 2.479 0 01-.688.75 2.984 2.984 0 01-.953.453 3.884 3.884 0 01-1.117.156c-.677 0-1.245-.11-1.703-.328a2.207 2.207 0 01-1.039-1.016c-.229-.458-.344-1.046-.344-1.765v-5.609h1.313v5.515c0 .714.161 1.248.484 1.602.323.349.815.523 1.476.523.636 0 1.141-.12 1.516-.36.38-.239.654-.59.82-1.054.167-.469.25-1.042.25-1.719v-4.507h1.305zm5.508 7.656c.213 0 .432-.018.656-.055a2.9 2.9 0 00.547-.133v1.008a2.745 2.745 0 01-.633.172c-.265.047-.526.07-.781.07-.453 0-.865-.078-1.234-.234a1.912 1.912 0 01-.891-.813c-.219-.38-.328-.906-.328-1.578v-5.078h-1.219v-.633l1.227-.508.515-1.859h.782v1.985h2.507v1.015h-2.507v5.04c0 .536.122.937.367 1.202.25.266.58.399.992.399zm4.234-11.25v3.633c0 .208-.005.419-.015.632a6.278 6.278 0 01-.055.579h.086c.177-.303.401-.555.672-.758.276-.209.588-.365.937-.469a3.703 3.703 0 011.11-.164c.687 0 1.26.109 1.718.328.464.219.81.557 1.04 1.016.234.458.351 1.052.351 1.78V-92h-1.281v-5.492c0-.714-.164-1.248-.492-1.602-.323-.354-.821-.531-1.493-.531-.635 0-1.143.122-1.523.367-.375.24-.646.594-.812 1.063-.162.468-.243 1.041-.243 1.718V-92h-1.297v-12.156h1.297zm11.813 3.437c.729 0 1.354.162 1.875.485a3.13 3.13 0 011.195 1.359c.276.578.414 1.255.414 2.031v.805h-5.914c.016 1.005.266 1.77.75 2.297.484.526 1.167.789 2.047.789a6.24 6.24 0 001.437-.149 7.915 7.915 0 001.297-.437v1.14a6.306 6.306 0 01-1.289.422 7.389 7.389 0 01-1.5.133c-.823 0-1.541-.166-2.156-.5a3.502 3.502 0 01-1.422-1.484c-.338-.651-.508-1.448-.508-2.39 0-.923.154-1.72.461-2.391.313-.678.75-1.198 1.313-1.563.568-.364 1.234-.547 2-.547zm-.016 1.063c-.693 0-1.245.226-1.656.68-.412.453-.656 1.085-.734 1.898h4.531c-.005-.51-.086-.959-.242-1.344a1.884 1.884 0 00-.696-.906c-.312-.219-.713-.328-1.203-.328zM183-100.72c1.016 0 1.784.25 2.305.75.521.495.781 1.292.781 2.39V-92h-1.281v-5.492c0-.714-.164-1.248-.493-1.602-.322-.354-.82-.531-1.492-.531-.948 0-1.614.268-2 .805-.385.536-.578 1.315-.578 2.336V-92h-1.297v-8.562h1.047l.196 1.234h.07c.182-.302.414-.555.695-.758a3.03 3.03 0 01.945-.469 3.679 3.679 0 011.102-.164zm8.523 7.813c.214 0 .433-.018.657-.055a2.9 2.9 0 00.547-.133v1.008a2.745 2.745 0 01-.633.172c-.266.047-.526.07-.782.07-.453 0-.864-.078-1.234-.234a1.905 1.905 0 01-.89-.813c-.219-.38-.329-.906-.329-1.578v-5.078h-1.218v-.633l1.226-.508.516-1.859h.781v1.985h2.508v1.015h-2.508v5.04c0 .536.122.937.367 1.202.25.266.581.399.992.399zm4.235-7.656V-92h-1.297v-8.562h1.297zm-.633-3.204c.214 0 .396.071.547.211.156.136.234.349.234.641 0 .286-.078.5-.234.641a.776.776 0 01-.547.211.8.8 0 01-.563-.211c-.145-.141-.218-.355-.218-.641 0-.292.073-.505.218-.641a.8.8 0 01.563-.211zm6.813 11.922c-.771 0-1.451-.159-2.04-.476-.588-.318-1.046-.802-1.375-1.453-.328-.651-.492-1.472-.492-2.461 0-1.037.172-1.883.516-2.54.349-.66.828-1.15 1.437-1.468.61-.318 1.302-.477 2.078-.477.428 0 .839.045 1.235.133.401.083.729.19.984.32l-.39 1.086a6.734 6.734 0 00-.907-.28 3.989 3.989 0 00-.953-.126c-.593 0-1.088.128-1.484.383-.391.255-.685.63-.883 1.125-.193.495-.289 1.104-.289 1.828 0 .693.094 1.284.281 1.773.193.49.477.865.852 1.125.38.256.854.383 1.422.383a4.96 4.96 0 001.226-.14c.365-.1.696-.214.992-.344v1.156a4.005 4.005 0 01-.96.336 5.799 5.799 0 01-1.25.117zm11.828 0c-.771 0-1.451-.159-2.039-.476-.589-.318-1.047-.802-1.375-1.453-.329-.651-.493-1.472-.493-2.461 0-1.037.172-1.883.516-2.54.349-.66.828-1.15 1.437-1.468.61-.318 1.303-.477 2.079-.477.427 0 .838.045 1.234.133.401.083.729.19.984.32l-.39 1.086a6.734 6.734 0 00-.907-.28 3.989 3.989 0 00-.953-.126c-.593 0-1.088.128-1.484.383-.391.255-.685.63-.883 1.125-.193.495-.289 1.104-.289 1.828 0 .693.094 1.284.281 1.773.193.49.477.865.852 1.125.38.256.854.383 1.422.383a4.96 4.96 0 001.226-.14c.365-.1.696-.214.993-.344v1.156a4.029 4.029 0 01-.961.336 5.799 5.799 0 01-1.25.117zm8.132-8.875c.172 0 .352.011.54.031.187.016.354.04.5.071l-.165 1.203a4.055 4.055 0 00-.953-.117c-.343 0-.669.07-.976.21a2.315 2.315 0 00-.797.594 2.763 2.763 0 00-.539.93c-.13.36-.196.76-.196 1.203V-92h-1.304v-8.562h1.078l.141 1.578h.054a4.21 4.21 0 01.641-.868c.25-.265.539-.476.867-.632a2.569 2.569 0 011.109-.235zm5.86.016c1.021 0 1.778.229 2.273.687.495.459.742 1.19.742 2.196V-92h-.945l-.25-1.266h-.062c-.24.313-.49.576-.75.79a2.794 2.794 0 01-.907.476c-.338.104-.755.156-1.25.156-.52 0-.984-.09-1.39-.273a2.163 2.163 0 01-.953-.828c-.23-.37-.344-.839-.344-1.407 0-.854.338-1.51 1.016-1.968.677-.459 1.708-.709 3.093-.75l1.477-.063v-.523c0-.74-.159-1.258-.477-1.555-.317-.297-.765-.445-1.343-.445-.448 0-.876.065-1.282.195s-.791.284-1.156.461l-.398-.984a7.105 7.105 0 011.328-.508 5.787 5.787 0 011.578-.211zm1.734 4.484l-1.304.055c-1.068.042-1.821.216-2.258.523-.438.308-.657.743-.657 1.305 0 .49.149.852.446 1.086.297.234.69.352 1.179.352.761 0 1.383-.211 1.868-.633.484-.422.726-1.055.726-1.899v-.789zm7.766-3.328h-2.133V-92h-1.297v-7.547h-1.516v-.625l1.516-.43v-.57c0-.719.107-1.302.32-1.75.214-.453.524-.786.93-1 .406-.213.901-.32 1.484-.32.329 0 .628.028.899.086.276.057.518.122.727.195l-.336 1.023a6.064 6.064 0 00-.602-.156 2.899 2.899 0 00-.672-.078c-.495 0-.862.162-1.101.484-.235.318-.352.818-.352 1.5v.626h2.133v1.015zm4.344 6.64a4.02 4.02 0 001.203-.187v1.008a2.745 2.745 0 01-.633.172 4.49 4.49 0 01-.781.07 3.15 3.15 0 01-1.235-.234 1.91 1.91 0 01-.89-.813c-.219-.38-.328-.906-.328-1.578v-5.078h-1.219v-.633l1.226-.508.516-1.859h.781v1.985h2.508v1.015h-2.508v5.04c0 .536.123.937.367 1.202.25.266.581.399.993.399zM5.664-77.156v3.04c0 .349-.01.687-.031 1.015a85.7 85.7 0 01-.04.766h.071c.234-.385.573-.71 1.016-.977.442-.265 1.008-.398 1.695-.398 1.073 0 1.927.373 2.563 1.117.64.74.96 1.841.96 3.305 0 .963-.145 1.776-.437 2.437-.292.662-.703 1.162-1.234 1.5-.532.339-1.16.508-1.883.508-.677 0-1.235-.125-1.672-.375-.432-.255-.766-.565-1-.93H5.57L5.305-65h-.938v-12.156h1.297zm2.5 4.532c-.62 0-1.112.122-1.476.367-.365.24-.628.604-.79 1.094-.156.484-.234 1.099-.234 1.844v.07c0 1.078.18 1.904.54 2.477.359.567 1.012.851 1.96.851.797 0 1.393-.291 1.79-.875.4-.583.6-1.416.6-2.5 0-1.104-.197-1.935-.593-2.492-.39-.557-.99-.836-1.797-.836zm9.297-1.094c.73 0 1.354.162 1.875.485.52.322.92.776 1.195 1.359.276.578.414 1.255.414 2.031v.805h-5.914c.016 1.005.266 1.77.75 2.297.485.526 1.167.789 2.047.789.542 0 1.021-.05 1.438-.149a7.92 7.92 0 001.297-.437v1.14a6.31 6.31 0 01-1.29.422 7.386 7.386 0 01-1.5.133c-.822 0-1.541-.166-2.156-.5a3.497 3.497 0 01-1.422-1.484c-.338-.651-.508-1.448-.508-2.39 0-.923.154-1.72.461-2.391.313-.678.75-1.198 1.313-1.563.568-.365 1.234-.547 2-.547zm-.016 1.063c-.692 0-1.244.226-1.656.68-.411.453-.656 1.085-.734 1.898h4.53c-.004-.51-.085-.959-.241-1.344a1.887 1.887 0 00-.696-.906c-.312-.219-.713-.328-1.203-.328zm9-1.063c.73 0 1.354.162 1.875.485.521.322.92.776 1.196 1.359.276.578.414 1.255.414 2.031v.805h-5.914c.015 1.005.265 1.77.75 2.297.484.526 1.166.789 2.047.789.541 0 1.02-.05 1.437-.149a7.92 7.92 0 001.297-.437v1.14a6.31 6.31 0 01-1.29.422 7.388 7.388 0 01-1.5.133c-.822 0-1.54-.166-2.155-.5a3.496 3.496 0 01-1.422-1.484c-.339-.651-.508-1.448-.508-2.39 0-.923.154-1.72.46-2.391.313-.678.75-1.198 1.313-1.563.568-.365 1.235-.547 2-.547zm-.015 1.063c-.693 0-1.245.226-1.657.68-.411.453-.656 1.085-.734 1.898h4.531c-.005-.51-.086-.959-.242-1.344a1.886 1.886 0 00-.695-.906c-.313-.219-.714-.328-1.203-.328zm9.593-1.063c.172 0 .352.01.54.031.187.016.354.04.5.07l-.165 1.204a4.043 4.043 0 00-.953-.117c-.343 0-.669.07-.976.21a2.315 2.315 0 00-.797.594 2.78 2.78 0 00-.54.93c-.13.36-.194.76-.194 1.203V-65h-1.305v-8.563h1.078l.14 1.579h.055c.177-.318.39-.607.64-.868.25-.265.54-.476.868-.632a2.582 2.582 0 011.11-.235zm9.579 7.813c.213 0 .432-.018.656-.055a2.9 2.9 0 00.547-.133v1.008a2.747 2.747 0 01-.633.172 4.49 4.49 0 01-.781.07 3.15 3.15 0 01-1.235-.234 1.913 1.913 0 01-.89-.813c-.22-.38-.328-.906-.328-1.578v-5.078h-1.22v-.633l1.227-.507.516-1.86h.781v1.984h2.508v1.016h-2.508v5.04c0 .536.123.937.367 1.202.25.266.581.399.993.399zm6.828-7.813c.172 0 .351.01.539.031.187.016.354.04.5.07l-.164 1.204a4.042 4.042 0 00-.953-.117c-.344 0-.67.07-.977.21a2.316 2.316 0 00-.797.594 2.778 2.778 0 00-.539.93c-.13.36-.195.76-.195 1.203V-65h-1.305v-8.563h1.078l.14 1.579h.056a4.2 4.2 0 01.64-.868 2.9 2.9 0 01.867-.632 2.582 2.582 0 011.11-.235zm9.726.156V-65h-1.062l-.188-1.203h-.07a2.486 2.486 0 01-.688.75 2.984 2.984 0 01-.953.453 3.885 3.885 0 01-1.117.156c-.677 0-1.245-.11-1.703-.328a2.208 2.208 0 01-1.04-1.016c-.228-.458-.343-1.046-.343-1.765v-5.61h1.313v5.516c0 .714.161 1.248.484 1.602.323.349.815.523 1.477.523.635 0 1.14-.12 1.515-.36.38-.239.654-.59.82-1.054.167-.469.25-1.042.25-1.719v-4.507h1.305zm6.555 1.016h-2.133V-65h-1.297v-7.547h-1.515v-.625l1.515-.43v-.57c0-.719.107-1.302.32-1.75.214-.453.524-.786.93-1 .406-.213.901-.32 1.485-.32.328 0 .627.029.898.086.276.057.518.122.727.195l-.336 1.023a5.88 5.88 0 00-.602-.156 2.895 2.895 0 00-.672-.078c-.495 0-.862.162-1.101.484-.235.318-.352.818-.352 1.5v.626h2.133v1.015zm5.383 0H71.96V-65h-1.297v-7.547h-1.516v-.625l1.516-.43v-.57c0-.719.107-1.302.32-1.75.214-.453.524-.786.93-1 .406-.213.901-.32 1.484-.32.329 0 .628.029.899.086.276.057.518.122.726.195l-.335 1.023a5.88 5.88 0 00-.602-.156 2.895 2.895 0 00-.672-.078c-.495 0-.862.162-1.102.484-.234.318-.351.818-.351 1.5v.626h2.133v1.015zm4.773-1.156c1.021 0 1.779.229 2.274.687.494.459.742 1.19.742 2.196V-65h-.945l-.25-1.266h-.063c-.24.313-.49.576-.75.79-.26.208-.563.367-.906.476-.339.104-.755.156-1.25.156-.521 0-.985-.09-1.39-.273a2.166 2.166 0 01-.954-.828c-.23-.37-.344-.839-.344-1.407 0-.854.339-1.51 1.016-1.968.677-.459 1.708-.709 3.094-.75l1.476-.063v-.523c0-.74-.159-1.258-.476-1.555-.318-.297-.766-.445-1.344-.445-.448 0-.875.065-1.281.195-.407.13-.792.284-1.157.461l-.398-.984a7.142 7.142 0 011.328-.508c.5-.14 1.026-.211 1.578-.211zm1.735 4.484l-1.305.055c-1.068.042-1.82.216-2.258.523-.437.308-.656.743-.656 1.305 0 .49.148.852.445 1.086.297.234.69.352 1.18.352.76 0 1.383-.211 1.867-.633.484-.422.727-1.055.727-1.899v-.789zm11.023-4.344V-65h-1.063l-.187-1.203h-.07a2.489 2.489 0 01-.688.75 2.986 2.986 0 01-.953.453 3.886 3.886 0 01-1.117.156c-.677 0-1.245-.11-1.703-.328a2.207 2.207 0 01-1.04-1.016c-.228-.458-.343-1.046-.343-1.765v-5.61h1.312v5.516c0 .714.162 1.248.485 1.602.323.349.815.523 1.476.523.636 0 1.141-.12 1.516-.36.38-.239.654-.59.82-1.054.167-.469.25-1.042.25-1.719v-4.507h1.305zm5.508 7.657c.213 0 .432-.018.656-.055a2.9 2.9 0 00.547-.133v1.008a2.744 2.744 0 01-.633.172 4.48 4.48 0 01-.781.07c-.453 0-.865-.078-1.234-.234a1.912 1.912 0 01-.891-.813c-.219-.38-.328-.906-.328-1.578v-5.078H93.25v-.633l1.227-.507.515-1.86h.781v1.984h2.508v1.016h-2.508v5.04c0 .536.123.937.368 1.202.25.266.58.399.992.399zm8.39-7.656V-65h-1.296v-8.563h1.296zm-.632-3.204c.213 0 .395.07.547.211.156.136.234.35.234.64 0 .287-.078.5-.234.642a.777.777 0 01-.547.21.795.795 0 01-.563-.21c-.146-.141-.219-.355-.219-.641 0-.292.073-.505.219-.64a.795.795 0 01.563-.212zm7.273 3.047c.172 0 .352.01.539.031.188.016.354.04.5.07l-.164 1.204a4.04 4.04 0 00-.953-.117c-.344 0-.669.07-.977.21a2.325 2.325 0 00-.797.594 2.78 2.78 0 00-.539.93c-.13.36-.195.76-.195 1.203V-65h-1.305v-8.563h1.079l.14 1.579h.055a4.21 4.21 0 01.641-.868c.25-.265.539-.476.867-.632a2.58 2.58 0 011.109-.235zm10.039 4.422c0 .703-.091 1.33-.273 1.883a3.878 3.878 0 01-.789 1.398c-.344.38-.761.672-1.25.875-.485.198-1.034.297-1.649.297a4.093 4.093 0 01-1.578-.297 3.56 3.56 0 01-1.234-.875 4.043 4.043 0 01-.805-1.398c-.187-.552-.281-1.18-.281-1.883 0-.937.159-1.734.476-2.39.318-.662.771-1.165 1.36-1.508.593-.35 1.299-.524 2.117-.524.781 0 1.463.175 2.047.524.588.349 1.044.854 1.367 1.515.328.657.492 1.45.492 2.383zm-6.515 0c0 .688.091 1.284.273 1.79.182.504.463.895.844 1.171.38.276.869.414 1.468.414.594 0 1.081-.138 1.461-.414.386-.276.67-.667.852-1.172.182-.505.273-1.101.273-1.789 0-.682-.091-1.27-.273-1.766-.182-.5-.464-.885-.844-1.156-.38-.27-.872-.406-1.476-.406-.891 0-1.545.294-1.961.883-.412.588-.617 1.404-.617 2.445zm12.812-4.422c1.016 0 1.784.25 2.305.75.521.495.781 1.292.781 2.39V-65h-1.281v-5.492c0-.714-.164-1.248-.493-1.602-.322-.354-.82-.531-1.492-.531-.948 0-1.614.268-2 .805-.385.536-.578 1.315-.578 2.336V-65h-1.297v-8.563h1.047l.196 1.235h.07c.182-.302.414-.555.695-.758a3.03 3.03 0 01.945-.469c.349-.11.717-.164 1.102-.164zm4.406.156h1.391l1.891 4.97c.109.29.21.572.304.843.094.266.177.52.25.766.073.244.13.481.172.71h.055a42.247 42.247 0 01.75-2.328l1.789-4.96h1.398l-3.726 9.82c-.198.526-.43.984-.696 1.375-.26.39-.578.69-.953.898-.375.214-.828.32-1.359.32-.245 0-.461-.015-.649-.046a4.011 4.011 0 01-.484-.094v-1.04a4.172 4.172 0 00.93.102c.323 0 .601-.062.836-.187.239-.12.445-.297.617-.531.172-.235.32-.513.445-.836l.469-1.203-3.43-8.579zm14.821 0V-65h-1.297v-8.563h1.297zm-.633-3.203c.213 0 .396.07.547.211.156.136.234.35.234.64 0 .287-.078.5-.234.642a.775.775 0 01-.547.21.795.795 0 01-.563-.21c-.146-.141-.219-.355-.219-.641 0-.292.073-.505.219-.64a.795.795 0 01.563-.212zm7.437 3.047c1.016 0 1.784.25 2.305.75.521.495.781 1.292.781 2.39V-65h-1.281v-5.492c0-.714-.164-1.248-.492-1.602-.323-.354-.821-.531-1.492-.531-.948 0-1.615.268-2 .805-.386.536-.579 1.315-.579 2.336V-65h-1.296v-8.563h1.046l.196 1.235h.07c.182-.302.414-.555.695-.758a3.04 3.04 0 01.946-.469 3.66 3.66 0 011.101-.164zm8.524 7.813c.213 0 .432-.018.656-.055a2.9 2.9 0 00.547-.133v1.008a2.745 2.745 0 01-.633.172 4.49 4.49 0 01-.781.07 3.15 3.15 0 01-1.235-.234 1.915 1.915 0 01-.89-.813c-.219-.38-.328-.906-.328-1.578v-5.078h-1.219v-.633l1.226-.507.516-1.86h.781v1.984h2.508v1.016h-2.508v5.04c0 .536.123.937.367 1.202.25.266.581.399.993.399zm6.234-7.813c.729 0 1.354.162 1.875.485a3.13 3.13 0 011.195 1.359c.276.578.414 1.255.414 2.031v.805h-5.914c.016 1.005.266 1.77.75 2.297.485.526 1.167.789 2.047.789.542 0 1.021-.05 1.438-.149a7.947 7.947 0 001.297-.437v1.14a6.326 6.326 0 01-1.289.422 7.389 7.389 0 01-1.5.133c-.823 0-1.542-.166-2.157-.5a3.502 3.502 0 01-1.422-1.484c-.338-.651-.507-1.448-.507-2.39 0-.923.153-1.72.461-2.391.312-.678.75-1.198 1.312-1.563.568-.365 1.234-.547 2-.547zm-.016 1.063c-.692 0-1.244.226-1.656.68-.411.453-.656 1.085-.734 1.898h4.531c-.005-.51-.086-.959-.242-1.344a1.889 1.889 0 00-.695-.906c-.313-.219-.714-.328-1.204-.328zM176.281-65h-1.304v-12.156h1.304V-65zm4.047 0h-1.305v-12.156h1.305V-65zm4.039-8.563V-65h-1.297v-8.563h1.297zm-.633-3.203c.214 0 .396.07.547.211.157.136.235.35.235.64 0 .287-.078.5-.235.642a.773.773 0 01-.547.21.793.793 0 01-.562-.21c-.146-.141-.219-.355-.219-.641 0-.292.073-.505.219-.64a.793.793 0 01.562-.212zm5.774 15.61c-1.125 0-1.992-.211-2.602-.633-.609-.417-.914-1.003-.914-1.758 0-.536.169-.995.508-1.375.344-.38.818-.633 1.422-.758a1.554 1.554 0 01-.578-.468 1.168 1.168 0 01-.235-.72c0-.312.086-.585.258-.82.177-.24.445-.468.805-.687a2.339 2.339 0 01-1.094-.922c-.276-.437-.414-.945-.414-1.523 0-.615.128-1.138.383-1.57a2.47 2.47 0 011.109-1c.485-.23 1.071-.344 1.758-.344.151 0 .302.007.453.023.156.01.305.029.445.055.141.02.264.047.368.078h2.937v.836l-1.578.195a2.776 2.776 0 01.547 1.688c0 .854-.289 1.534-.867 2.039-.578.5-1.373.75-2.383.75a4.42 4.42 0 01-.734-.063c-.256.14-.451.297-.586.469a.952.952 0 00-.196.594c0 .166.05.3.149.398a.962.962 0 00.445.219c.193.041.425.062.695.062h1.508c.932 0 1.646.196 2.141.586.5.39.75.961.75 1.711 0 .948-.386 1.675-1.156 2.18-.771.505-1.886.758-3.344.758zm.039-1.016c.708 0 1.294-.073 1.758-.219.468-.14.817-.346 1.047-.617.234-.265.351-.583.351-.953 0-.344-.078-.604-.234-.781-.157-.172-.386-.287-.688-.344a5.577 5.577 0 00-1.109-.094h-1.484c-.386 0-.722.06-1.008.18-.287.12-.508.297-.664.531-.151.235-.227.526-.227.875 0 .464.195.815.586 1.055.391.245.948.367 1.672.367zm.336-6.844c.62 0 1.086-.156 1.398-.468.313-.313.469-.769.469-1.368 0-.64-.159-1.12-.477-1.437-.317-.323-.786-.484-1.406-.484-.594 0-1.052.166-1.375.5-.318.328-.476.81-.476 1.445 0 .583.161 1.031.484 1.344.323.312.784.468 1.383.468zm9.219-4.703c.729 0 1.354.162 1.875.485.52.322.919.776 1.195 1.359.276.578.414 1.255.414 2.031v.805h-5.914c.016 1.005.266 1.77.75 2.297.484.526 1.167.789 2.047.789.541 0 1.021-.05 1.437-.149a7.915 7.915 0 001.297-.437v1.14a6.306 6.306 0 01-1.289.422 7.389 7.389 0 01-1.5.133c-.823 0-1.542-.166-2.156-.5a3.49 3.49 0 01-1.422-1.484c-.339-.651-.508-1.448-.508-2.39 0-.923.154-1.72.461-2.391.313-.678.75-1.198 1.313-1.563.567-.365 1.234-.547 2-.547zm-.016 1.063c-.693 0-1.245.226-1.656.68-.412.453-.657 1.085-.735 1.898h4.532c-.006-.51-.086-.959-.243-1.344a1.883 1.883 0 00-.695-.906c-.312-.219-.713-.328-1.203-.328zm9.758-1.063c1.015 0 1.784.25 2.304.75.521.495.782 1.292.782 2.39V-65h-1.282v-5.492c0-.714-.164-1.248-.492-1.602-.323-.354-.82-.531-1.492-.531-.948 0-1.615.268-2 .805-.385.536-.578 1.315-.578 2.336V-65h-1.297v-8.563h1.047l.195 1.235h.071c.182-.302.414-.555.695-.758a3.03 3.03 0 01.945-.469c.349-.11.716-.164 1.102-.164zm8.523 7.813c.214 0 .432-.018.656-.055a2.88 2.88 0 00.547-.133v1.008a2.749 2.749 0 01-.632.172 4.49 4.49 0 01-.782.07c-.453 0-.864-.078-1.234-.234a1.912 1.912 0 01-.891-.813c-.219-.38-.328-.906-.328-1.578v-5.078h-1.219v-.633l1.227-.507.516-1.86h.781v1.984h2.508v1.016h-2.508v5.04c0 .536.122.937.367 1.202.25.266.581.399.992.399zm8.477-1.438c0 .547-.138 1.008-.414 1.383-.271.37-.662.648-1.172.836-.505.188-1.11.281-1.813.281a7.493 7.493 0 01-1.554-.14 4.495 4.495 0 01-1.149-.399v-1.195c.349.172.766.328 1.25.469.485.14.979.21 1.485.21.739 0 1.276-.12 1.609-.359.333-.24.5-.565.5-.976a.99.99 0 00-.203-.618c-.13-.182-.352-.356-.664-.523a9.884 9.884 0 00-1.297-.563 14.956 14.956 0 01-1.422-.617c-.396-.208-.703-.46-.922-.757-.213-.297-.32-.683-.32-1.157 0-.724.291-1.278.875-1.664.588-.39 1.359-.586 2.312-.586.516 0 .998.052 1.446.156a6.65 6.65 0 011.265.407l-.437 1.039a8.037 8.037 0 00-1.133-.383 4.859 4.859 0 00-1.227-.156c-.599 0-1.06.099-1.382.297-.318.197-.477.468-.477.812 0 .266.073.484.219.656.151.172.39.334.719.485.328.15.76.328 1.296.531.537.198 1 .404 1.391.617.391.209.69.464.898.766.214.297.321.68.321 1.148zm3.383-6.219V-65h-1.297v-8.563h1.297zm-.633-3.203c.213 0 .396.07.547.211.156.136.234.35.234.64 0 .287-.078.5-.234.642a.775.775 0 01-.547.21.795.795 0 01-.563-.21c-.146-.141-.219-.355-.219-.641 0-.292.073-.505.219-.64a.795.795 0 01.563-.212zm6.586 3.063c1.021 0 1.778.229 2.273.687.495.459.742 1.19.742 2.196V-65h-.945l-.25-1.266h-.062c-.24.313-.49.576-.75.79a2.794 2.794 0 01-.907.476c-.338.104-.755.156-1.25.156a3.36 3.36 0 01-1.39-.273 2.163 2.163 0 01-.953-.828c-.23-.37-.344-.839-.344-1.407 0-.854.338-1.51 1.015-1.968.677-.459 1.709-.709 3.094-.75l1.477-.063v-.523c0-.74-.159-1.258-.477-1.555-.318-.297-.765-.445-1.344-.445a4.17 4.17 0 00-1.281.195c-.406.13-.792.284-1.156.461l-.399-.984a7.164 7.164 0 011.329-.508c.5-.14 1.026-.211 1.578-.211zm1.734 4.484l-1.305.055c-1.067.042-1.82.216-2.257.523-.438.308-.657.743-.657 1.305 0 .49.149.852.446 1.086.297.234.69.352 1.179.352.761 0 1.383-.211 1.868-.633.484-.422.726-1.055.726-1.899v-.789zM7.477-43.695l3.039-5.727h1.43L8.14-42.43V-38H6.812v-4.367L3-49.422h1.453l3.024 5.727zm15.945-.032c0 .88-.112 1.683-.336 2.407a5.239 5.239 0 01-1 1.86 4.388 4.388 0 01-1.633 1.194c-.65.282-1.406.422-2.265.422-.886 0-1.66-.14-2.32-.422a4.337 4.337 0 01-1.641-1.203c-.433-.52-.758-1.143-.977-1.867-.213-.724-.32-1.526-.32-2.406 0-1.167.192-2.19.578-3.07.385-.88.969-1.566 1.75-2.055.786-.49 1.77-.735 2.953-.735 1.13 0 2.08.243 2.852.727.776.484 1.361 1.167 1.757 2.047.401.875.602 1.909.602 3.101zm-9.094 0c0 .97.138 1.808.414 2.516.276.708.698 1.255 1.266 1.64.573.386 1.3.579 2.18.579.885 0 1.609-.193 2.171-.578.568-.386.987-.933 1.258-1.64.271-.71.406-1.548.406-2.517 0-1.474-.31-2.625-.93-3.453-.614-.833-1.575-1.25-2.882-1.25-.885 0-1.615.19-2.188.57-.572.38-1 .922-1.28 1.626-.277.698-.415 1.534-.415 2.507zM25.968-38v-11.422h1.329v10.234h5.07V-38H25.97zm18.266-5.727c0 .88-.112 1.683-.336 2.407a5.239 5.239 0 01-1 1.86 4.388 4.388 0 01-1.632 1.194c-.651.282-1.407.422-2.266.422-.885 0-1.659-.14-2.32-.422a4.337 4.337 0 01-1.64-1.203 5.27 5.27 0 01-.977-1.867c-.214-.724-.32-1.526-.32-2.406 0-1.167.192-2.19.577-3.07.386-.88.97-1.566 1.75-2.055.787-.49 1.771-.735 2.953-.735 1.13 0 2.081.243 2.852.727.776.484 1.362 1.167 1.758 2.047.4.875.601 1.909.601 3.101zm-9.093 0c0 .97.138 1.808.414 2.516.276.708.698 1.255 1.265 1.64.573.386 1.3.579 2.18.579.885 0 1.61-.193 2.172-.578.568-.386.987-.933 1.258-1.64.27-.71.406-1.548.406-2.517 0-1.474-.31-2.625-.93-3.453-.614-.833-1.575-1.25-2.883-1.25-.885 0-1.614.19-2.187.57-.573.38-1 .922-1.281 1.626-.276.698-.414 1.534-.414 2.507zM52.047-38h-1.305v-12.156h1.305V-38zm10.125-4.297c0 .703-.091 1.33-.274 1.883a3.857 3.857 0 01-.789 1.398c-.343.38-.76.672-1.25.875-.484.198-1.034.297-1.648.297a4.095 4.095 0 01-1.578-.297 3.563 3.563 0 01-1.235-.875 4.042 4.042 0 01-.804-1.398c-.188-.552-.282-1.18-.282-1.883 0-.937.16-1.734.477-2.39.318-.662.77-1.165 1.36-1.508.593-.35 1.299-.524 2.117-.524.78 0 1.463.175 2.047.524.588.349 1.044.854 1.367 1.515.328.657.492 1.45.492 2.383zm-6.516 0c0 .688.091 1.284.274 1.79.182.504.463.895.843 1.171.38.276.87.414 1.47.414.593 0 1.08-.138 1.46-.414.386-.276.67-.667.852-1.172.182-.505.273-1.101.273-1.789 0-.682-.091-1.27-.273-1.766-.183-.5-.464-.885-.844-1.156-.38-.27-.872-.406-1.477-.406-.89 0-1.544.294-1.96.883-.412.588-.618 1.403-.618 2.445zm18.055-4.422c.943 0 1.654.248 2.133.742.479.49.719 1.28.719 2.368V-38H75.28v-5.547c0-.693-.15-1.21-.453-1.555-.297-.349-.74-.523-1.328-.523-.828 0-1.43.24-1.805.719s-.562 1.185-.562 2.117V-38h-1.29v-5.547c0-.463-.067-.849-.202-1.156a1.382 1.382 0 00-.594-.688c-.26-.156-.591-.234-.992-.234-.568 0-1.024.117-1.368.352-.343.234-.593.583-.75 1.046-.15.459-.226 1.024-.226 1.696V-38h-1.297v-8.563h1.047l.195 1.211h.07a2.61 2.61 0 01.649-.75c.26-.203.552-.356.875-.46a3.338 3.338 0 011.031-.157c.651 0 1.196.123 1.633.367.443.24.763.607.961 1.102h.07a2.65 2.65 0 011.157-1.102 3.547 3.547 0 011.609-.367zm12.898 4.422c0 .703-.09 1.33-.273 1.883a3.857 3.857 0 01-.79 1.398c-.343.38-.76.672-1.25.875-.484.198-1.033.297-1.648.297a4.095 4.095 0 01-1.578-.297 3.563 3.563 0 01-1.234-.875 4.044 4.044 0 01-.805-1.398c-.187-.552-.281-1.18-.281-1.883 0-.937.159-1.734.477-2.39.317-.662.77-1.165 1.359-1.508.594-.35 1.3-.524 2.117-.524.781 0 1.464.175 2.047.524.588.349 1.044.854 1.367 1.515.328.657.492 1.45.492 2.383zm-6.515 0c0 .688.09 1.284.273 1.79.182.504.464.895.844 1.171.38.276.87.414 1.469.414.593 0 1.08-.138 1.46-.414.386-.276.67-.667.852-1.172.182-.505.274-1.101.274-1.789 0-.682-.092-1.27-.274-1.766-.182-.5-.463-.885-.844-1.156-.38-.27-.872-.406-1.476-.406-.89 0-1.544.294-1.961.883-.412.588-.617 1.403-.617 2.445zm14.21-7.86v3.04c0 .349-.01.687-.03 1.015-.016.329-.03.584-.04.766h.07c.235-.385.574-.71 1.016-.977.443-.265 1.008-.398 1.696-.398 1.072 0 1.927.372 2.562 1.117.641.74.961 1.841.961 3.305 0 .964-.146 1.776-.437 2.437-.292.662-.704 1.162-1.235 1.5-.531.339-1.159.508-1.883.508-.677 0-1.234-.125-1.671-.375-.433-.255-.766-.565-1-.93h-.102L93.945-38h-.937v-12.156h1.297zm2.5 4.532c-.62 0-1.111.122-1.476.367-.365.24-.627.604-.789 1.094-.156.484-.234 1.099-.234 1.844v.07c0 1.078.18 1.904.539 2.477.36.567 1.013.851 1.96.851.798 0 1.394-.292 1.79-.875.4-.583.601-1.417.601-2.5 0-1.104-.198-1.935-.593-2.492-.391-.557-.99-.836-1.797-.836zm13.071-.938V-38h-1.063l-.187-1.203h-.07a2.492 2.492 0 01-.688.75 2.984 2.984 0 01-.953.453 3.884 3.884 0 01-1.117.156c-.677 0-1.245-.11-1.703-.328a2.203 2.203 0 01-1.039-1.016c-.229-.458-.344-1.046-.344-1.765v-5.61h1.312v5.516c0 .714.162 1.247.485 1.602.323.349.815.523 1.476.523.636 0 1.141-.12 1.516-.36.38-.239.654-.59.82-1.054.167-.469.25-1.042.25-1.719v-4.508h1.305zm8.281 6.22c0 .546-.138 1.007-.414 1.382-.271.37-.661.648-1.172.836-.505.188-1.109.281-1.812.281a7.51 7.51 0 01-1.555-.14 4.5 4.5 0 01-1.148-.399v-1.195c.349.172.765.328 1.25.469.484.14.979.21 1.484.21.74 0 1.276-.12 1.609-.359.334-.24.5-.565.5-.976a.984.984 0 00-.203-.618c-.13-.182-.351-.356-.664-.523a9.824 9.824 0 00-1.297-.563 15.185 15.185 0 01-1.422-.617c-.395-.208-.703-.46-.921-.758-.214-.296-.321-.682-.321-1.156 0-.724.292-1.278.875-1.664.589-.39 1.36-.586 2.313-.586.515 0 .997.052 1.445.157.453.098.875.234 1.266.406l-.438 1.039a8.037 8.037 0 00-1.133-.383 4.851 4.851 0 00-1.226-.156c-.599 0-1.06.099-1.383.297-.318.198-.477.468-.477.812 0 .266.073.484.219.656.151.172.391.334.719.485.328.15.76.328 1.297.531.536.198 1 .404 1.391.617.39.209.69.464.898.766.213.297.32.68.32 1.148zm3.383-9.813v3.633c0 .208-.005.419-.016.632-.01.209-.028.401-.054.578h.086a2.54 2.54 0 01.672-.757c.276-.209.588-.365.937-.47a3.733 3.733 0 011.109-.163c.688 0 1.261.11 1.719.328.464.219.81.557 1.039 1.016.235.458.352 1.052.352 1.78V-38h-1.281v-5.492c0-.714-.164-1.248-.493-1.602-.323-.354-.82-.531-1.492-.531-.635 0-1.143.122-1.523.367-.375.24-.646.594-.813 1.063-.161.468-.242 1.041-.242 1.718V-38h-1.297v-12.156h1.297zm15.484 12.14L135.5-43a54.316 54.316 0 01-.195-.625l-.164-.594c-.047-.192-.092-.37-.133-.531l-.094-.43h-.055c-.02.12-.049.263-.086.43-.036.161-.08.339-.132.531a24.39 24.39 0 01-.157.61 10.6 10.6 0 01-.195.632l-1.594 4.961h-1.461l-2.359-8.562h1.344l1.234 4.726c.083.313.162.623.235.93a14 14 0 01.195.86c.057.265.099.497.125.695h.062c.032-.13.065-.287.102-.469l.133-.578c.052-.208.106-.414.164-.617.057-.209.114-.404.172-.586l1.578-4.961h1.398l1.524 4.953c.078.25.153.51.226.781.078.271.149.534.211.79.063.25.107.473.133.671h.062a6.78 6.78 0 01.118-.656 63.4 63.4 0 01.195-.86c.078-.312.159-.63.242-.953l1.25-4.726h1.32l-2.367 8.562h-1.508zm6.735-8.547V-38h-1.297v-8.563h1.297zm-.633-3.203c.214 0 .396.07.547.211.156.136.234.35.234.64 0 .287-.078.5-.234.642a.773.773 0 01-.547.21.797.797 0 01-.563-.21c-.145-.141-.218-.355-.218-.641 0-.292.073-.505.218-.64a.797.797 0 01.563-.212zm6.813 11.922c-.771 0-1.451-.159-2.04-.476-.588-.318-1.046-.802-1.375-1.453-.328-.651-.492-1.472-.492-2.461 0-1.037.172-1.883.516-2.54.349-.66.828-1.15 1.437-1.468.61-.318 1.302-.477 2.078-.477.428 0 .839.044 1.235.133.401.083.729.19.984.32l-.39 1.086a6.734 6.734 0 00-.907-.28 3.989 3.989 0 00-.953-.126c-.593 0-1.088.128-1.484.383-.391.255-.685.63-.883 1.125-.193.495-.289 1.104-.289 1.828 0 .693.094 1.284.281 1.773.193.49.477.865.852 1.125.38.256.854.383 1.422.383a4.96 4.96 0 001.226-.14c.365-.1.696-.214.992-.344v1.156a4.005 4.005 0 01-.96.336 5.799 5.799 0 01-1.25.117zm5.531-12.312v6.312c0 .209-.008.464-.024.766l-.039.789h.055c.109-.136.268-.336.477-.602.213-.265.393-.479.539-.64l2.843-3.032h1.524l-3.446 3.657L161.094-38h-1.563l-3.023-4.055-1.039.953V-38h-1.289v-12.156h1.289zm14.703 12.312c-.771 0-1.451-.159-2.039-.476-.589-.318-1.047-.802-1.375-1.453-.328-.651-.492-1.472-.492-2.461 0-1.037.172-1.883.515-2.54.349-.66.828-1.15 1.438-1.468.609-.318 1.302-.477 2.078-.477.427 0 .838.044 1.234.133.401.083.729.19.985.32l-.391 1.086a6.717 6.717 0 00-.906-.28 4.002 4.002 0 00-.953-.126c-.594 0-1.089.128-1.485.383-.39.255-.685.63-.883 1.125-.192.495-.289 1.104-.289 1.828 0 .693.094 1.284.282 1.773.192.49.476.865.851 1.125.38.256.854.383 1.422.383.453 0 .862-.047 1.227-.14.364-.1.695-.214.992-.344v1.156a4.029 4.029 0 01-.961.336 5.799 5.799 0 01-1.25.117zm11.625-4.453c0 .703-.091 1.33-.274 1.883a3.849 3.849 0 01-.789 1.398c-.343.38-.76.672-1.25.875-.484.198-1.033.297-1.648.297a4.093 4.093 0 01-1.578-.297 3.565 3.565 0 01-1.235-.875 4.04 4.04 0 01-.804-1.398c-.188-.552-.281-1.18-.281-1.883 0-.937.158-1.734.476-2.39.318-.662.771-1.165 1.359-1.508.594-.35 1.3-.524 2.118-.524.781 0 1.463.175 2.047.524.588.349 1.044.854 1.367 1.515.328.657.492 1.45.492 2.383zm-6.516 0c0 .688.091 1.284.274 1.79.182.504.463.895.843 1.171.381.276.87.414 1.469.414.594 0 1.081-.138 1.461-.414.386-.276.669-.667.852-1.172.182-.505.273-1.101.273-1.789 0-.682-.091-1.27-.273-1.766-.183-.5-.464-.885-.844-1.156-.38-.27-.872-.406-1.477-.406-.89 0-1.544.294-1.961.883-.411.588-.617 1.403-.617 2.445zM185.344-38h-1.305v-12.156h1.305V-38zm10.125-4.297c0 .703-.091 1.33-.274 1.883a3.849 3.849 0 01-.789 1.398c-.344.38-.76.672-1.25.875-.484.198-1.034.297-1.648.297a4.093 4.093 0 01-1.578-.297 3.565 3.565 0 01-1.235-.875 4.04 4.04 0 01-.804-1.398c-.188-.552-.282-1.18-.282-1.883 0-.937.159-1.734.477-2.39.318-.662.771-1.165 1.359-1.508.594-.35 1.3-.524 2.117-.524.782 0 1.464.175 2.047.524.589.349 1.045.854 1.368 1.515.328.657.492 1.45.492 2.383zm-6.516 0c0 .688.091 1.284.274 1.79.182.504.463.895.843 1.171.381.276.87.414 1.469.414.594 0 1.081-.138 1.461-.414.385-.276.669-.667.852-1.172.182-.505.273-1.101.273-1.789 0-.682-.091-1.27-.273-1.766-.183-.5-.464-.885-.844-1.156-.38-.27-.873-.406-1.477-.406-.89 0-1.544.294-1.961.883-.411.588-.617 1.403-.617 2.445zm12.649-4.422c.171 0 .351.01.539.032.187.015.354.039.5.07l-.164 1.203a4.055 4.055 0 00-.954-.117c-.343 0-.669.07-.976.21a2.315 2.315 0 00-.797.594 2.763 2.763 0 00-.539.93c-.13.36-.195.76-.195 1.203V-38h-1.305v-8.563h1.078l.141 1.579h.054a4.21 4.21 0 01.641-.868c.25-.265.539-.476.867-.632a2.585 2.585 0 011.11-.235zm3.953.157V-38h-1.297v-8.563h1.297zm-.633-3.204c.213 0 .396.07.547.211.156.136.234.35.234.64 0 .287-.078.5-.234.642a.775.775 0 01-.547.21.795.795 0 01-.563-.21c-.145-.141-.218-.355-.218-.641 0-.292.073-.505.218-.64a.795.795 0 01.563-.212zm7.437 3.047c1.016 0 1.784.25 2.305.75.521.495.781 1.292.781 2.39V-38h-1.281v-5.492c0-.714-.164-1.248-.492-1.602-.323-.354-.82-.531-1.492-.531-.948 0-1.615.268-2 .805-.386.536-.578 1.315-.578 2.336V-38h-1.297v-8.563h1.047l.195 1.235h.07c.182-.302.414-.555.695-.758a3.04 3.04 0 01.946-.469 3.66 3.66 0 011.101-.164zm8.149 12.563c-1.125 0-1.992-.211-2.602-.633-.609-.417-.914-1.003-.914-1.758 0-.536.169-.995.508-1.375.344-.38.818-.633 1.422-.758a1.554 1.554 0 01-.578-.468 1.168 1.168 0 01-.235-.72c0-.312.086-.585.258-.82.177-.24.445-.468.805-.687a2.339 2.339 0 01-1.094-.922c-.276-.437-.414-.945-.414-1.523 0-.615.128-1.138.383-1.57a2.47 2.47 0 011.109-1c.485-.23 1.071-.344 1.758-.344.151 0 .302.007.453.023.156.01.305.029.445.055.141.02.264.047.368.078h2.937v.836l-1.578.195a2.776 2.776 0 01.547 1.688c0 .854-.289 1.534-.867 2.039-.578.5-1.373.75-2.383.75a4.42 4.42 0 01-.734-.063c-.256.14-.451.297-.586.469a.952.952 0 00-.196.594c0 .166.05.3.149.398a.962.962 0 00.445.219c.193.042.425.062.695.062h1.508c.932 0 1.646.196 2.141.586.5.39.75.961.75 1.711 0 .948-.386 1.675-1.156 2.18-.771.505-1.886.758-3.344.758zm.039-1.016c.708 0 1.294-.073 1.758-.219.468-.14.817-.346 1.047-.617.234-.265.351-.583.351-.953 0-.344-.078-.604-.234-.781-.157-.172-.386-.287-.688-.344a5.577 5.577 0 00-1.109-.094h-1.484c-.386 0-.722.06-1.008.18-.287.12-.508.297-.664.531-.151.235-.227.526-.227.875 0 .464.195.815.586 1.055.391.245.948.367 1.672.367zm.336-6.844c.62 0 1.086-.156 1.398-.468.313-.313.469-.769.469-1.368 0-.64-.159-1.12-.477-1.437-.317-.323-.786-.484-1.406-.484-.594 0-1.052.166-1.375.5-.318.328-.476.81-.476 1.445 0 .583.161 1.031.484 1.344.323.312.784.468 1.383.468zM5.664-23.156v3.039c0 .349-.01.687-.031 1.015a85.7 85.7 0 01-.04.766h.071c.234-.385.573-.71 1.016-.977.442-.265 1.008-.398 1.695-.398 1.073 0 1.927.372 2.563 1.117.64.74.96 1.841.96 3.305 0 .963-.145 1.776-.437 2.437-.292.662-.703 1.162-1.234 1.5-.532.339-1.16.508-1.883.508-.677 0-1.235-.125-1.672-.375-.432-.255-.766-.565-1-.93H5.57L5.305-11h-.938v-12.156h1.297zm2.5 4.531c-.62 0-1.112.122-1.476.367-.365.24-.628.604-.79 1.094-.156.484-.234 1.099-.234 1.844v.07c0 1.078.18 1.904.54 2.477.359.567 1.012.851 1.96.851.797 0 1.393-.291 1.79-.875.4-.583.6-1.416.6-2.5 0-1.104-.197-1.935-.593-2.492-.39-.557-.99-.836-1.797-.836zm13.383 3.328c0 .703-.091 1.33-.274 1.883a3.857 3.857 0 01-.789 1.398c-.343.38-.76.672-1.25.875-.484.198-1.034.297-1.648.297a4.095 4.095 0 01-1.578-.297 3.563 3.563 0 01-1.235-.875 4.042 4.042 0 01-.804-1.398c-.188-.552-.281-1.18-.281-1.883 0-.937.158-1.734.476-2.39.318-.662.77-1.165 1.36-1.508.593-.35 1.299-.524 2.117-.524.78 0 1.463.175 2.047.524.588.349 1.044.854 1.367 1.515.328.657.492 1.45.492 2.383zm-6.516 0c0 .688.091 1.284.274 1.79.182.504.463.895.843 1.171.38.276.87.414 1.47.414.593 0 1.08-.138 1.46-.414.386-.276.67-.667.852-1.172.182-.505.273-1.101.273-1.789 0-.682-.091-1.27-.273-1.765-.183-.5-.464-.886-.844-1.157-.38-.27-.872-.406-1.477-.406-.89 0-1.544.294-1.96.883-.412.588-.618 1.404-.618 2.445zm16.14 0c0 .703-.09 1.33-.273 1.883a3.857 3.857 0 01-.789 1.398c-.343.38-.76.672-1.25.875-.484.198-1.034.297-1.648.297a4.095 4.095 0 01-1.578-.297 3.563 3.563 0 01-1.235-.875 4.042 4.042 0 01-.804-1.398c-.188-.552-.282-1.18-.282-1.883 0-.937.16-1.734.477-2.39.318-.662.77-1.165 1.36-1.508.593-.35 1.299-.524 2.117-.524.78 0 1.463.175 2.047.524.588.349 1.044.854 1.367 1.515.328.657.492 1.45.492 2.383zm-6.515 0c0 .688.091 1.284.274 1.79.182.504.463.895.843 1.171.38.276.87.414 1.47.414.593 0 1.08-.138 1.46-.414.386-.276.67-.667.852-1.172.182-.505.273-1.101.273-1.789 0-.682-.091-1.27-.273-1.765-.183-.5-.464-.886-.844-1.157-.38-.27-.872-.406-1.477-.406-.89 0-1.544.294-1.96.883-.412.588-.618 1.404-.618 2.445zm10.047-7.86v6.313c0 .209-.008.464-.023.766l-.04.789h.055c.11-.136.269-.336.477-.602.213-.265.393-.479.539-.64l2.844-3.032h1.523l-3.445 3.657L40.328-11h-1.562l-3.024-4.055-1.039.953V-11h-1.289v-12.156h1.29zm6.922 11.345c0-.365.089-.623.266-.774a.945.945 0 01.648-.234c.266 0 .49.078.672.234.182.151.273.409.273.774 0 .359-.09.622-.273.789a.977.977 0 01-.672.242.928.928 0 01-.648-.242c-.177-.167-.266-.43-.266-.79zM56.82-14.04c0 .677-.169 1.255-.508 1.734-.333.474-.802.836-1.406 1.086-.604.25-1.315.375-2.133.375-.432 0-.84-.02-1.226-.062a8.354 8.354 0 01-1.063-.18 4.525 4.525 0 01-.851-.289v-1.273c.39.161.867.312 1.43.453a7.52 7.52 0 001.765.203c.573 0 1.057-.076 1.453-.227.396-.156.696-.377.899-.664.208-.292.312-.64.312-1.047 0-.39-.086-.716-.258-.976-.172-.266-.458-.505-.859-.719-.396-.219-.938-.45-1.625-.695a8.732 8.732 0 01-1.281-.563 3.994 3.994 0 01-.93-.703 2.65 2.65 0 01-.57-.906 3.44 3.44 0 01-.188-1.18c0-.61.154-1.13.461-1.562.313-.438.742-.771 1.29-1 .551-.235 1.184-.352 1.898-.352.61 0 1.172.057 1.687.172.521.115.998.268 1.43.46l-.414 1.142a9.003 9.003 0 00-1.313-.43 5.84 5.84 0 00-1.422-.172c-.49 0-.903.073-1.242.219a1.69 1.69 0 00-.765.601c-.177.26-.266.57-.266.93 0 .401.083.734.25 1 .172.266.443.503.813.71.374.204.87.418 1.484.642.672.244 1.242.505 1.71.78.47.272.826.605 1.071 1 .245.391.367.889.367 1.493zm5.438-5.68c.729 0 1.354.162 1.875.485.52.323.92.776 1.195 1.359.276.578.414 1.255.414 2.031v.805h-5.914c.016 1.005.266 1.77.75 2.297.484.526 1.167.789 2.047.789.542 0 1.02-.05 1.438-.149a7.92 7.92 0 001.296-.437v1.14a6.31 6.31 0 01-1.289.422 7.388 7.388 0 01-1.5.133c-.823 0-1.541-.166-2.156-.5a3.496 3.496 0 01-1.422-1.484c-.338-.651-.508-1.448-.508-2.39 0-.923.154-1.72.461-2.391.313-.677.75-1.198 1.313-1.563.567-.364 1.234-.547 2-.547zm-.016 1.063c-.692 0-1.245.226-1.656.68-.411.453-.656 1.085-.734 1.898h4.53c-.004-.51-.085-.959-.241-1.344a1.886 1.886 0 00-.696-.906c-.312-.219-.713-.328-1.203-.328zm15-1.063c.943 0 1.654.248 2.133.742.48.49.719 1.28.719 2.368V-11h-1.281v-5.547c0-.693-.151-1.21-.454-1.555-.296-.349-.74-.523-1.328-.523-.828 0-1.43.24-1.804.719-.375.479-.563 1.185-.563 2.117V-11h-1.289v-5.547c0-.463-.068-.849-.203-1.156a1.381 1.381 0 00-.594-.688c-.26-.156-.591-.234-.992-.234-.568 0-1.023.117-1.367.352-.344.234-.594.583-.75 1.046-.151.459-.227 1.024-.227 1.696V-11h-1.297v-8.563h1.047l.195 1.211h.07a2.58 2.58 0 01.65-.75c.26-.203.551-.356.874-.46a3.339 3.339 0 011.031-.157c.651 0 1.196.123 1.633.367.443.24.763.607.961 1.102h.07a2.649 2.649 0 011.157-1.102 3.548 3.548 0 011.61-.367zm6.813.157V-11h-1.297v-8.563h1.297zm-.633-3.204c.213 0 .396.07.547.211.156.136.234.35.234.64 0 .287-.078.5-.234.642a.774.774 0 01-.547.21.794.794 0 01-.563-.21c-.145-.141-.218-.355-.218-.641 0-.292.072-.505.218-.64a.794.794 0 01.563-.212zm10.766 7.47c0 .702-.092 1.33-.274 1.882a3.856 3.856 0 01-.789 1.398c-.344.38-.76.672-1.25.875-.484.198-1.034.297-1.648.297a4.095 4.095 0 01-1.579-.297 3.562 3.562 0 01-1.234-.875 4.04 4.04 0 01-.805-1.398c-.187-.552-.28-1.18-.28-1.883 0-.937.158-1.734.476-2.39.317-.662.77-1.165 1.36-1.508.593-.35 1.298-.524 2.116-.524.781 0 1.464.175 2.047.524.589.349 1.044.854 1.367 1.515.328.657.493 1.45.493 2.383zm-6.516 0c0 .687.091 1.283.273 1.788.183.505.464.896.844 1.172.38.276.87.414 1.469.414.594 0 1.08-.138 1.46-.414.386-.276.67-.667.852-1.172.183-.505.274-1.101.274-1.789 0-.682-.091-1.27-.274-1.765-.182-.5-.463-.886-.843-1.157-.38-.27-.873-.406-1.477-.406-.89 0-1.544.294-1.96.883-.412.588-.618 1.404-.618 2.445zm11.523 3.39c.214 0 .433-.018.657-.055.224-.036.406-.08.546-.133v1.008a2.747 2.747 0 01-.632.172c-.266.047-.526.07-.782.07-.453 0-.864-.078-1.234-.234a1.912 1.912 0 01-.89-.813c-.22-.38-.329-.906-.329-1.578v-5.078h-1.219v-.633l1.227-.508.516-1.859h.78v1.985h2.509v1.015h-2.508v5.04c0 .536.122.937.367 1.202.25.266.58.399.992.399zm4.235-7.656V-11h-1.297v-8.563h1.297zm-.633-3.204c.213 0 .396.07.547.211.156.136.234.35.234.64 0 .287-.078.5-.234.642a.775.775 0 01-.547.21.795.795 0 01-.563-.21c-.145-.141-.218-.355-.218-.641 0-.292.073-.505.218-.64a.795.795 0 01.563-.212zm6.812 11.922c-.77 0-1.45-.159-2.039-.476-.588-.318-1.047-.802-1.375-1.453-.328-.652-.492-1.472-.492-2.461 0-1.037.172-1.883.516-2.54.349-.66.828-1.15 1.437-1.468.61-.318 1.302-.477 2.078-.477.427 0 .839.045 1.235.133.401.083.729.19.984.32l-.391 1.086a6.672 6.672 0 00-.906-.28 3.989 3.989 0 00-.953-.126c-.594 0-1.088.128-1.484.383-.391.255-.685.63-.883 1.125-.193.495-.289 1.104-.289 1.828 0 .693.094 1.284.281 1.773.193.49.477.865.852 1.125.38.256.854.383 1.422.383a4.96 4.96 0 001.226-.14c.365-.1.695-.214.992-.344v1.156a3.998 3.998 0 01-.961.336 5.792 5.792 0 01-1.25.117zm9.782-2.5c0 .547-.138 1.008-.414 1.383-.271.37-.662.649-1.172.836-.506.188-1.11.281-1.813.281a7.493 7.493 0 01-1.554-.14 4.495 4.495 0 01-1.149-.399v-1.195c.349.172.766.328 1.25.469.484.14.979.21 1.484.21.74 0 1.276-.12 1.61-.359.333-.24.5-.565.5-.976a.99.99 0 00-.203-.618c-.131-.182-.352-.356-.664-.523a9.884 9.884 0 00-1.297-.563 14.956 14.956 0 01-1.422-.617c-.396-.208-.703-.46-.922-.758-.214-.296-.32-.682-.32-1.156 0-.724.291-1.278.875-1.664.588-.39 1.359-.586 2.312-.586.516 0 .998.052 1.446.157.453.099.874.234 1.265.406l-.437 1.039a8.08 8.08 0 00-1.133-.383 4.859 4.859 0 00-1.227-.156c-.599 0-1.06.099-1.383.297-.317.198-.476.468-.476.812 0 .266.073.485.219.656.151.172.39.334.718.485.328.15.761.328 1.297.531.537.198 1 .404 1.391.617.39.208.69.464.898.766.214.297.321.68.321 1.148zm15.539-6.375c.942 0 1.653.248 2.132.742.48.49.719 1.28.719 2.368V-11H136.5v-5.547c0-.693-.151-1.21-.453-1.555-.297-.349-.74-.523-1.328-.523-.828 0-1.43.24-1.805.719s-.562 1.185-.562 2.117V-11h-1.29v-5.547c0-.463-.067-.849-.203-1.156a1.382 1.382 0 00-.593-.688c-.261-.156-.592-.234-.993-.234-.567 0-1.023.117-1.367.352-.344.234-.594.583-.75 1.046-.151.459-.226 1.024-.226 1.696V-11h-1.297v-8.563h1.047l.195 1.211h.07c.172-.296.388-.546.649-.75.26-.203.552-.356.875-.46a3.335 3.335 0 011.031-.157c.651 0 1.195.123 1.633.367.443.24.763.607.961 1.102h.07a2.65 2.65 0 011.156-1.102 3.55 3.55 0 011.61-.367zm8.718.016c1.021 0 1.779.229 2.274.687.495.459.742 1.19.742 2.196V-11h-.945l-.25-1.266h-.063a4.703 4.703 0 01-.75.79 2.78 2.78 0 01-.906.476c-.339.104-.755.156-1.25.156-.521 0-.984-.09-1.391-.273a2.169 2.169 0 01-.953-.828c-.229-.37-.344-.839-.344-1.407 0-.854.339-1.51 1.016-1.968.677-.459 1.708-.709 3.094-.75l1.476-.063v-.523c0-.74-.158-1.258-.476-1.555-.318-.297-.766-.445-1.344-.445a4.17 4.17 0 00-1.281.195c-.406.13-.792.284-1.156.461l-.399-.984a7.153 7.153 0 011.328-.508c.5-.14 1.026-.211 1.578-.211zm1.735 4.484l-1.305.055c-1.068.042-1.82.216-2.258.523-.437.308-.656.743-.656 1.305 0 .49.148.852.445 1.086.297.234.69.352 1.18.352.76 0 1.383-.211 1.867-.633.485-.422.727-1.055.727-1.899v-.789zm8.008-4.5c1.015 0 1.783.25 2.304.75.521.495.782 1.292.782 2.39V-11h-1.282v-5.492c0-.714-.164-1.248-.492-1.602-.323-.354-.82-.531-1.492-.531-.948 0-1.615.268-2 .805-.385.536-.578 1.315-.578 2.336V-11h-1.297v-8.563h1.047l.195 1.235h.07a2.55 2.55 0 01.696-.758 3.03 3.03 0 01.945-.469c.349-.11.716-.164 1.102-.164zm11.211-3.437v3.039c0 .349-.011.687-.032 1.015-.015.329-.028.584-.039.766h.071c.234-.385.572-.71 1.015-.977.443-.265 1.008-.398 1.695-.398 1.073 0 1.928.372 2.563 1.117.641.74.961 1.841.961 3.305 0 .963-.146 1.776-.438 2.437-.291.662-.703 1.162-1.234 1.5-.531.339-1.159.508-1.883.508-.677 0-1.234-.125-1.672-.375a2.937 2.937 0 01-1-.93h-.101l-.266 1.15h-.937v-12.156h1.297zm2.5 4.531c-.62 0-1.112.122-1.477.367-.365.24-.628.604-.789 1.094-.156.484-.234 1.099-.234 1.844v.07c0 1.078.179 1.904.539 2.477.359.567 1.013.851 1.961.851.796 0 1.393-.291 1.789-.875.401-.583.601-1.416.601-2.5 0-1.104-.198-1.935-.594-2.492-.39-.557-.989-.836-1.796-.836zm13.07-.938V-11h-1.063l-.187-1.203h-.07a2.505 2.505 0 01-.688.75 2.984 2.984 0 01-.953.453 3.884 3.884 0 01-1.117.156c-.677 0-1.245-.11-1.703-.328a2.203 2.203 0 01-1.039-1.015c-.23-.459-.344-1.047-.344-1.766v-5.61h1.312v5.516c0 .714.162 1.248.485 1.602.323.349.815.523 1.476.523.636 0 1.141-.12 1.516-.36.38-.239.654-.59.82-1.054.167-.469.25-1.042.25-1.719v-4.508h1.305zm6.797-.156c1.015 0 1.784.25 2.304.75.521.495.782 1.292.782 2.39V-11h-1.282v-5.492c0-.714-.164-1.248-.492-1.602-.323-.354-.82-.531-1.492-.531-.948 0-1.615.268-2 .805-.385.536-.578 1.315-.578 2.336V-11h-1.297v-8.563h1.047l.195 1.235h.071c.182-.302.414-.555.695-.758a3.03 3.03 0 01.945-.469c.349-.11.716-.164 1.102-.164zM198.766-11l-3.25-8.563h1.39l1.883 5.18c.13.354.263.745.399 1.172.135.427.229.77.281 1.031h.054c.063-.26.167-.604.313-1.03l.398-1.173 1.883-5.18h1.391L200.25-11h-1.484zm9.414-8.719c.729 0 1.354.162 1.875.485.521.323.919.776 1.195 1.359.276.578.414 1.255.414 2.031v.805h-5.914c.016 1.005.266 1.77.75 2.297.484.526 1.167.789 2.047.789a6.24 6.24 0 001.437-.149 7.915 7.915 0 001.297-.437v1.14a6.306 6.306 0 01-1.289.422 7.389 7.389 0 01-1.5.133c-.823 0-1.541-.166-2.156-.5a3.502 3.502 0 01-1.422-1.484c-.338-.651-.508-1.448-.508-2.39 0-.923.154-1.72.461-2.391.313-.677.75-1.198 1.313-1.563.567-.364 1.234-.547 2-.547zm-.016 1.063c-.693 0-1.245.226-1.656.68-.412.453-.656 1.085-.735 1.898h4.532c-.006-.51-.086-.959-.243-1.344a1.883 1.883 0 00-.695-.906c-.312-.219-.713-.328-1.203-.328zm9.758-1.063c1.016 0 1.784.25 2.305.75.52.495.781 1.292.781 2.39V-11h-1.281v-5.492c0-.714-.165-1.248-.493-1.602-.323-.354-.82-.531-1.492-.531-.948 0-1.614.268-2 .805-.385.536-.578 1.315-.578 2.336V-11h-1.297v-8.563h1.047l.195 1.235h.071c.182-.302.414-.555.695-.758a3.03 3.03 0 01.945-.469c.349-.11.716-.164 1.102-.164zm15.055 0c.942 0 1.653.248 2.132.742.48.49.719 1.28.719 2.368V-11h-1.281v-5.547c0-.693-.151-1.21-.453-1.555-.297-.349-.74-.523-1.328-.523-.828 0-1.43.24-1.805.719s-.563 1.185-.563 2.117V-11h-1.289v-5.547c0-.463-.067-.849-.203-1.156a1.38 1.38 0 00-.594-.688c-.26-.156-.591-.234-.992-.234-.567 0-1.023.117-1.367.352-.344.234-.594.583-.75 1.046-.151.459-.226 1.024-.226 1.696V-11h-1.297v-8.563h1.047l.195 1.211h.07c.172-.296.388-.546.649-.75.26-.203.552-.356.875-.46a3.335 3.335 0 011.031-.157c.651 0 1.195.123 1.633.367.442.24.763.607.961 1.102h.07a2.65 2.65 0 011.156-1.102 3.55 3.55 0 011.61-.367zm12.898 4.422c0 .703-.091 1.33-.273 1.883a3.865 3.865 0 01-.79 1.398c-.343.38-.76.672-1.25.875-.484.198-1.033.297-1.648.297a4.093 4.093 0 01-1.578-.297 3.56 3.56 0 01-1.234-.875 4.043 4.043 0 01-.805-1.398c-.188-.552-.281-1.18-.281-1.883 0-.937.158-1.734.476-2.39.318-.662.771-1.165 1.36-1.508.593-.35 1.299-.524 2.117-.524.781 0 1.463.175 2.047.524.588.349 1.044.854 1.367 1.515.328.657.492 1.45.492 2.383zm-6.516 0c0 .688.092 1.284.274 1.79.182.504.463.895.844 1.171.38.276.869.414 1.468.414.594 0 1.081-.138 1.461-.414.386-.276.67-.667.852-1.172.182-.505.273-1.101.273-1.789 0-.682-.091-1.27-.273-1.765-.182-.5-.464-.886-.844-1.157-.38-.27-.872-.406-1.476-.406-.891 0-1.545.294-1.961.883-.412.588-.618 1.404-.618 2.445zM6.25 16L3 7.437h1.39l1.883 5.18c.13.354.263.745.399 1.172.135.427.229.77.281 1.031h.055c.062-.26.166-.604.312-1.03.146-.433.279-.824.399-1.173l1.883-5.18h1.39L7.734 16H6.25zm7.414-8.563V16h-1.297V7.437h1.297zm-.633-3.203c.214 0 .396.07.547.211.156.136.235.35.235.64 0 .287-.079.5-.235.642a.774.774 0 01-.547.21.794.794 0 01-.562-.21c-.146-.141-.219-.355-.219-.641 0-.292.073-.505.219-.64a.794.794 0 01.562-.212zm7.274 3.047c.172 0 .351.01.539.032.187.015.354.039.5.07l-.164 1.203a4.036 4.036 0 00-.953-.117c-.344 0-.67.07-.977.21a2.316 2.316 0 00-.797.594 2.778 2.778 0 00-.539.93c-.13.36-.195.76-.195 1.203V16h-1.305V7.437h1.078l.14 1.579h.055c.178-.318.391-.607.641-.868a2.9 2.9 0 01.867-.632 2.581 2.581 0 011.11-.235zm5.86.016c1.02 0 1.778.229 2.273.687.494.459.742 1.19.742 2.196V16h-.946l-.25-1.266h-.062c-.24.313-.49.576-.75.79-.26.208-.563.367-.906.476-.339.104-.756.156-1.25.156-.521 0-.985-.09-1.391-.273a2.165 2.165 0 01-.953-.828c-.23-.37-.344-.839-.344-1.407 0-.854.339-1.51 1.016-1.968.677-.459 1.708-.709 3.093-.75l1.477-.063v-.523c0-.74-.159-1.258-.477-1.555-.317-.297-.765-.445-1.343-.445-.448 0-.875.065-1.282.195-.406.13-.791.284-1.156.461l-.398-.984a7.14 7.14 0 011.328-.508c.5-.14 1.026-.211 1.578-.211zm1.733 4.484l-1.304.055c-1.068.042-1.82.216-2.258.523-.438.308-.656.743-.656 1.305 0 .49.148.852.445 1.086.297.234.69.352 1.18.352.76 0 1.383-.211 1.867-.633.484-.422.726-1.055.726-1.899v-.789zM33.156 16h-1.304V3.844h1.304V16zm10.328.156c-.77 0-1.45-.159-2.039-.476-.588-.318-1.047-.802-1.375-1.453-.328-.652-.492-1.472-.492-2.461 0-1.037.172-1.883.516-2.54.349-.66.828-1.15 1.437-1.468.61-.318 1.302-.477 2.078-.477.427 0 .839.045 1.235.133.4.083.729.19.984.32l-.39 1.086a6.715 6.715 0 00-.907-.28 3.997 3.997 0 00-.953-.126c-.594 0-1.088.128-1.484.383-.39.255-.685.63-.883 1.125-.193.495-.29 1.104-.29 1.828 0 .693.095 1.284.282 1.773.193.49.477.865.852 1.125.38.256.854.383 1.422.383a4.96 4.96 0 001.226-.14c.365-.1.695-.214.992-.344v1.156a4.017 4.017 0 01-.96.336 5.796 5.796 0 01-1.25.117zM49.031 16h-1.304V3.844h1.304V16zm4.04-8.563V16h-1.298V7.437h1.297zm-.633-3.203c.213 0 .395.07.546.211.157.136.235.35.235.64 0 .287-.078.5-.235.642a.774.774 0 01-.547.21.794.794 0 01-.562-.21c-.146-.141-.219-.355-.219-.641 0-.292.073-.505.219-.64a.794.794 0 01.563-.212zm6.812 11.922c-.77 0-1.45-.159-2.04-.476-.588-.318-1.046-.802-1.374-1.453-.328-.652-.492-1.472-.492-2.461 0-1.037.172-1.883.515-2.54.35-.66.828-1.15 1.438-1.468.61-.318 1.302-.477 2.078-.477.427 0 .839.045 1.234.133.401.083.73.19.985.32l-.39 1.086a6.718 6.718 0 00-.907-.28 3.998 3.998 0 00-.953-.126c-.594 0-1.089.128-1.485.383-.39.255-.684.63-.882 1.125-.193.495-.29 1.104-.29 1.828 0 .693.094 1.284.282 1.773.192.49.476.865.851 1.125.38.256.855.383 1.422.383.453 0 .862-.047 1.227-.14.364-.1.695-.214.992-.344v1.156a4.016 4.016 0 01-.961.336 5.796 5.796 0 01-1.25.117zm5.54-12.312v3.633c0 .208-.006.419-.017.632a6.08 6.08 0 01-.054.579h.086c.177-.303.4-.555.672-.758.276-.209.588-.365.937-.47a3.734 3.734 0 011.11-.163c.687 0 1.26.11 1.718.328.464.219.81.557 1.04 1.016.234.458.35 1.052.35 1.78V16h-1.28v-5.492c0-.714-.165-1.248-.493-1.602-.322-.354-.82-.531-1.492-.531-.635 0-1.143.122-1.523.367-.375.24-.646.594-.813 1.063-.161.468-.242 1.041-.242 1.718V16h-1.297V3.844h1.297zM76.601 7.28c.729 0 1.354.162 1.875.485.52.323.919.776 1.195 1.359.276.578.414 1.255.414 2.031v.805h-5.914c.016 1.005.266 1.77.75 2.297.484.526 1.166.789 2.047.789.541 0 1.02-.05 1.437-.149a7.92 7.92 0 001.297-.437v1.14a6.312 6.312 0 01-1.289.422 7.388 7.388 0 01-1.5.133c-.823 0-1.542-.166-2.156-.5a3.497 3.497 0 01-1.422-1.484c-.339-.651-.508-1.448-.508-2.39 0-.923.154-1.72.461-2.391.313-.677.75-1.198 1.313-1.563.567-.364 1.234-.547 2-.547zm-.016 1.063c-.693 0-1.245.226-1.656.68-.412.453-.657 1.085-.735 1.898h4.532c-.006-.51-.086-.958-.243-1.344a1.887 1.887 0 00-.695-.906c-.312-.219-.713-.328-1.203-.328z" fill="#5A5A5A"/></g><path id="timeline_2" opacity=".7" fill="#363838" d="M0 4h1110v2H0z"/></g></g></g><defs><clipPath id="clip0_5_0"><path fill="#fff" transform="translate(-416 -2684)" d="M0 0h1920v5441H0z"/></clipPath></defs></svg>