<!-- icon666.com - MILLIONS vector ICONS FREE --><svg id="Layer_1" viewBox="0 0 60 60" xmlns="http://www.w3.org/2000/svg"><g><g fill="#40444f"><path d="m17.93 10.13c-.15-.38-.52-.63-.93-.63s-.78.25-.93.63l-4 10c-.21.51.04 1.09.56 1.3.52.2 1.09-.04 1.3-.56l1.35-3.37h3.45l1.35 3.37c.16.39.53.63.93.63.12 0 .25-.02.37-.07.51-.21.76-.79.56-1.3zm-1.85 5.37.92-2.31.92 2.31z"></path><path d="m30 9.5c-.55 0-1 .45-1 1v7c0 1.1-.9 2-2 2s-2-.9-2-2v-7c0-.55-.45-1-1-1s-1 .45-1 1v7c0 2.21 1.79 4 4 4s4-1.79 4-4v-7c0-.55-.45-1-1-1z"></path><path d="m39 9.5h-6c-.55 0-1 .45-1 1s.45 1 1 1h2v9c0 .55.45 1 1 1s1-.45 1-1v-9h2c.55 0 1-.45 1-1s-.45-1-1-1z"></path><path d="m45 9.5c-2.21 0-4 1.79-4 4v4c0 2.21 1.79 4 4 4s4-1.79 4-4v-4c0-2.21-1.79-4-4-4zm2 8c0 1.1-.9 2-2 2s-2-.9-2-2v-4c0-1.1.9-2 2-2s2 .9 2 2z"></path></g><g fill="#40444f"><circle cx="19" cy="45.5" r="5"></circle><circle cx="41" cy="45.5" r="5"></circle></g><path d="m52.22 33.34-4.4-1.17c-.42-.11-.82-.34-1.14-.67l-3.62-3.72c-.79-.81-1.89-1.28-3.02-1.28h-11.29c-.86 0-1.72.27-2.41.76l-8.49 5.93c-.37.26-.8.4-1.26.4h-5.46c-2.83 0-5.13 2.35-5.13 5.24v3.96c0 1.49 1.2 2.71 2.67 2.71h3.33c0-3.86 3.14-7 7-7s7 3.14 7 7h8c0-3.86 3.14-7 7-7s7 3.14 7 7h.36c1.76 0 3.46-.37 5.05-1.09.36-.16.59-.52.59-.91v-7.8c0-1.1-.73-2.06-1.78-2.36zm-21.96.16h-9.36l6.59-4.6c.36-.26.81-.4 1.26-.4h3.02zm9.74 0h-7.65l1.51-5h6.14zm2-.36v-3.58l2.67 2.74z" fill="#2b79c3"></path></g></svg>