<svg width="161.000000" height="41.000000" viewBox="0 0 161 41" fill="none" xmlns="http://www.w3.org/2000/svg" xmlns:xlink="http://www.w3.org/1999/xlink">
	<desc>
			Created with Pixso.
	</desc>
	<defs>
		<clipPath id="clip4_397">
			<rect id="Logo example - Dark" rx="-0.500000" width="160.000000" height="20.000000" transform="translate(0.500000 10.500000)" fill="white" fill-opacity="0"/>
		</clipPath>
		<clipPath id="clip4_396">
			<rect id="Logo" rx="-0.500000" width="160.000000" height="40.000000" transform="translate(0.500000 0.500000)" fill="white" fill-opacity="0"/>
		</clipPath>
	</defs>
	<g clip-path="url(#clip4_396)">
		<g clip-path="url(#clip4_397)">
			<mask id="mask4_399" mask-type="alpha" maskUnits="userSpaceOnUse" x="0.000000" y="10.000000" width="161.000000" height="21.000000">
				<path id="Vector" d="M0 10L161 10L161 31L0 31L0 10Z" fill="#000000" fill-opacity="1.000000" fill-rule="evenodd"/>
			</mask>
			<g mask="url(#mask4_399)">
				<path id="Vector" d="M13.56 17L6.67 17C6.21 17 5.76 17.17 5.43 17.49L0.26 22.49C-0.3 23.04 0.09 24 0.88 24L9.75 24C10.21 24 10.66 23.82 10.99 23.5L16.68 17.99C17.34 17.35 18.22 17 19.14 17L34 17L34 10L22.95 10C22.49 10 22.05 10.17 21.72 10.49L16.02 16C15.36 16.64 14.48 17 13.56 17Z" fill="#2E58DB" fill-opacity="1.000000" fill-rule="nonzero"/>
				<path id="Vector" d="M33.99 24L14.81 24C14.35 24 13.91 24.17 13.58 24.49L8.4 29.49C7.84 30.04 8.23 31 9.02 31L33.99 31L33.99 24Z" fill="#2E58DB" fill-opacity="1.000000" fill-rule="nonzero"/>
				<path id="Vector" d="M49.1 13.5L51.3 13.5L56.4 27.5L54.36 27.5L53.04 23.66L47.26 23.66L45.92 27.5L44 27.5L49.1 13.5ZM52.44 21.93L50.2 15.4L50.16 15.4L47.86 21.93L52.44 21.93Z" fill="#151515" fill-opacity="1.000000" fill-rule="nonzero"/>
				<path id="Vector" d="M58.4 13.5L63 13.5C64.69 13.5 65.91 13.83 66.66 14.5C67.42 15.15 67.8 16.06 67.8 17.24C67.8 18.58 67.21 19.57 66.04 20.2L66.04 20.24C67.48 20.82 68.2 21.93 68.2 23.56C68.2 24.82 67.82 25.8 67.06 26.48C66.31 27.16 65.09 27.5 63.4 27.5L58.4 27.5L58.4 13.5ZM60.28 15.22L60.28 19.43L62.9 19.43C63.99 19.43 64.75 19.26 65.18 18.9C65.62 18.54 65.84 18.02 65.84 17.34C65.84 16.66 65.62 16.14 65.18 15.78C64.75 15.4 63.99 15.22 62.9 15.22L60.28 15.22ZM60.28 21.16L60.28 25.78L63.3 25.78C64.39 25.78 65.15 25.59 65.58 25.22C66.02 24.83 66.24 24.24 66.24 23.46C66.24 22.68 66.02 22.11 65.58 21.74C65.15 21.35 64.39 21.16 63.3 21.16L60.28 21.16Z" fill="#151515" fill-opacity="1.000000" fill-rule="nonzero"/>
				<path id="Vector" d="M73.77 15.22L69.31 15.22L69.31 13.5L80.11 13.5L80.11 15.22L75.65 15.22L75.65 27.5L73.77 27.5L73.77 15.22Z" fill="#151515" fill-opacity="1.000000" fill-rule="nonzero"/>
				<path id="Vector" d="M87 27.66C86.1 27.66 85.28 27.51 84.54 27.22C83.81 26.92 83.18 26.49 82.64 25.92C82.12 25.34 81.72 24.64 81.42 23.8C81.14 22.94 81 21.97 81 20.88L81 19.92C81 18.88 81.14 17.95 81.42 17.14C81.72 16.32 82.12 15.64 82.64 15.08C83.18 14.5 83.81 14.07 84.54 13.78C85.29 13.48 86.11 13.34 87 13.34C87.9 13.34 88.71 13.48 89.44 13.78C90.19 14.07 90.82 14.5 91.34 15.06C91.88 15.62 92.28 16.31 92.56 17.14C92.86 17.95 93 18.88 93 19.92L93 20.88C93 21.97 92.86 22.94 92.56 23.78C92.28 24.62 91.88 25.32 91.34 25.9C90.82 26.47 90.19 26.91 89.44 27.22C88.71 27.51 87.9 27.66 87 27.66ZM87 25.94C88.2 25.94 89.18 25.52 89.92 24.7C90.67 23.86 91.04 22.58 91.04 20.88L91.04 19.92C91.04 19.12 90.94 18.42 90.74 17.82C90.54 17.2 90.26 16.7 89.9 16.29C89.56 15.88 89.14 15.58 88.64 15.38C88.15 15.16 87.6 15.06 87 15.06C86.4 15.06 85.86 15.16 85.36 15.36C84.87 15.56 84.44 15.86 84.08 16.28C83.72 16.68 83.44 17.18 83.24 17.79C83.06 18.4 82.96 19.1 82.96 19.92L82.96 20.88C82.96 21.73 83.06 22.48 83.26 23.12C83.46 23.74 83.74 24.27 84.1 24.7C84.46 25.11 84.89 25.42 85.38 25.64C85.88 25.84 86.42 25.94 87 25.94Z" fill="#151515" fill-opacity="1.000000" fill-rule="nonzero"/>
				<path id="Vector" d="M101.1 27.66C100.22 27.66 99.42 27.51 98.7 27.22C97.98 26.92 97.36 26.49 96.84 25.92C96.32 25.34 95.92 24.64 95.62 23.8C95.34 22.94 95.2 21.97 95.2 20.88L95.2 19.92C95.2 18.88 95.34 17.95 95.62 17.14C95.92 16.32 96.32 15.64 96.84 15.08C97.36 14.5 97.98 14.07 98.7 13.78C99.44 13.48 100.24 13.34 101.1 13.34C101.9 13.34 102.62 13.45 103.24 13.68C103.88 13.9 104.43 14.22 104.88 14.62C105.35 15 105.72 15.46 106 16C106.3 16.52 106.5 17.08 106.6 17.7L104.6 17.7C104.5 17.32 104.34 16.98 104.14 16.66C103.96 16.34 103.72 16.06 103.42 15.82C103.14 15.58 102.8 15.39 102.4 15.26C102.02 15.12 101.58 15.06 101.1 15.06C100.54 15.06 100.02 15.16 99.52 15.38C99.04 15.58 98.63 15.88 98.28 16.29C97.94 16.71 97.66 17.22 97.46 17.82C97.26 18.42 97.16 19.12 97.16 19.92L97.16 20.88C97.16 21.72 97.26 22.46 97.46 23.1C97.66 23.72 97.94 24.25 98.28 24.68C98.64 25.09 99.06 25.4 99.54 25.62C100.02 25.83 100.54 25.94 101.1 25.94C102.08 25.94 102.85 25.68 103.42 25.16C104.01 24.62 104.4 23.94 104.6 23.1L106.6 23.1C106.5 23.76 106.3 24.38 106 24.94C105.72 25.48 105.35 25.96 104.88 26.38C104.43 26.78 103.88 27.09 103.24 27.32C102.62 27.54 101.9 27.66 101.1 27.66Z" fill="#151515" fill-opacity="1.000000" fill-rule="nonzero"/>
				<path id="Vector" d="M112.4 13.5L114.6 13.5L119.7 27.5L117.66 27.5L116.34 23.66L110.56 23.66L109.22 27.5L107.3 27.5L112.4 13.5ZM115.74 21.93L113.5 15.4L113.46 15.4L111.16 21.93L115.74 21.93Z" fill="#151515" fill-opacity="1.000000" fill-rule="nonzero"/>
				<path id="Vector" d="M120.89 25.93L121.09 25.93C121.65 25.93 122.08 25.78 122.39 25.46C122.71 25.12 122.94 24.68 123.09 24.12C123.24 23.54 123.32 22.87 123.35 22.1C123.38 21.32 123.39 20.49 123.39 19.6L123.39 13.5L132.59 13.5L132.59 27.5L130.71 27.5L130.71 15.22L125.27 15.22L125.27 19.6C125.27 20.62 125.24 21.62 125.19 22.6C125.15 23.56 125 24.42 124.73 25.18C124.46 25.92 124.05 26.52 123.49 26.98C122.93 27.43 122.13 27.66 121.09 27.66L120.89 27.66L120.89 25.93Z" fill="#151515" fill-opacity="1.000000" fill-rule="nonzero"/>
				<path id="Vector" d="M141.28 27.66C140.37 27.66 139.55 27.51 138.82 27.22C138.09 26.92 137.45 26.49 136.92 25.92C136.4 25.34 135.99 24.64 135.7 23.8C135.42 22.94 135.28 21.97 135.28 20.88L135.28 19.92C135.28 18.88 135.42 17.95 135.7 17.14C135.99 16.32 136.4 15.64 136.92 15.08C137.45 14.5 138.09 14.07 138.82 13.78C139.57 13.48 140.39 13.34 141.28 13.34C142.17 13.34 142.99 13.48 143.72 13.78C144.47 14.07 145.1 14.5 145.62 15.06C146.15 15.62 146.56 16.31 146.84 17.14C147.13 17.95 147.28 18.88 147.28 19.92L147.28 20.88C147.28 21.97 147.13 22.94 146.84 23.78C146.56 24.62 146.15 25.32 145.62 25.9C145.1 26.47 144.47 26.91 143.72 27.22C142.99 27.51 142.17 27.66 141.28 27.66ZM141.28 25.94C142.48 25.94 143.45 25.52 144.2 24.7C144.95 23.86 145.32 22.58 145.32 20.88L145.32 19.92C145.32 19.12 145.22 18.42 145.02 17.82C144.82 17.2 144.54 16.7 144.18 16.29C143.83 15.88 143.41 15.58 142.92 15.38C142.43 15.16 141.88 15.06 141.28 15.06C140.68 15.06 140.13 15.16 139.64 15.36C139.15 15.56 138.72 15.86 138.36 16.28C138 16.68 137.72 17.18 137.52 17.79C137.33 18.4 137.24 19.1 137.24 19.92L137.24 20.88C137.24 21.73 137.34 22.48 137.54 23.12C137.74 23.74 138.02 24.27 138.38 24.7C138.74 25.11 139.17 25.42 139.66 25.64C140.15 25.84 140.69 25.94 141.28 25.94Z" fill="#151515" fill-opacity="1.000000" fill-rule="nonzero"/>
				<path id="Vector" d="M149.98 13.5L151.86 13.5L151.86 19.43L159.1 19.43L159.1 13.5L160.98 13.5L160.98 27.5L159.1 27.5L159.1 21.16L151.86 21.16L151.86 27.5L149.98 27.5L149.98 13.5Z" fill="#151515" fill-opacity="1.000000" fill-rule="nonzero"/>
			</g>
		</g>
	</g>
</svg>
