<svg width="150" height="100" viewBox="0 0 150 100" fill="none" xmlns="http://www.w3.org/2000/svg">
<circle cx="75" cy="50" r="50" fill="#DDE3EE"/>
<path d="M150 38.3734C150 38.3068 149.984 38.2568 149.967 38.1901C149.95 38.1235 149.95 38.0568 149.934 38.0068V37.9901C149.917 37.9401 149.884 37.9068 149.867 37.8735C149.834 37.8068 149.8 37.7401 149.75 37.6901C149.717 37.6401 149.667 37.6068 149.617 37.5735C149.567 37.5235 149.517 37.4901 149.467 37.4568C149.417 37.4235 149.35 37.4068 149.284 37.3735C149.234 37.3568 149.2 37.3235 149.15 37.3235L77.1863 21.6907C76.7697 21.5907 76.3197 21.7741 76.0697 22.124C75.8197 22.474 75.7864 22.9407 76.003 23.324L90.8691 48.8564L85.8693 77.9887C85.8027 78.4053 85.9693 78.8386 86.3193 79.072L86.336 79.0886C86.7026 79.322 87.1693 79.3386 87.5359 79.0886L149.5 39.3067C149.534 39.2734 149.567 39.2401 149.6 39.2067C149.65 39.1567 149.717 39.1234 149.75 39.0734C149.784 39.0234 149.817 38.9734 149.85 38.9234C149.884 38.8734 149.917 38.8234 149.934 38.7568C149.95 38.6901 149.967 38.6234 149.967 38.5568C149.967 38.5068 150 38.4568 150 38.4068C150 38.3901 150 38.3901 150 38.3734ZM79.1529 24.3573L143.284 38.2901L98.7689 46.3232L92.5691 47.4398L79.1529 24.3573ZM88.4526 75.9054L92.9691 49.5897L99.1688 48.4731L143.684 40.44L88.4526 75.9054ZM33.1546 66.1724C32.3879 66.3058 31.638 66.4558 30.9213 66.6224C30.338 66.7557 29.9714 67.3557 30.1047 67.939C30.2214 68.439 30.6713 68.789 31.1713 68.789C31.2547 68.789 31.338 68.7723 31.4213 68.7557C32.1046 68.589 32.8046 68.4557 33.5212 68.3224C34.1212 68.2224 34.5212 67.6557 34.4212 67.0557C34.3212 66.4724 33.7546 66.0724 33.1546 66.1724ZM25.8215 68.2724C25.5549 68.389 25.2882 68.5057 25.0215 68.6223C24.6049 68.8223 24.1716 69.0223 23.7549 69.2223C23.2049 69.489 22.9883 70.139 23.2549 70.6889C23.4383 71.0723 23.8383 71.3056 24.2382 71.3056C24.4049 71.3056 24.5716 71.2723 24.7216 71.1889C25.1215 70.9889 25.5382 70.7889 25.9382 70.6056C26.1715 70.4889 26.4215 70.3889 26.6715 70.2723C27.2215 70.039 27.4881 69.389 27.2381 68.839C27.0215 68.289 26.3882 68.039 25.8215 68.2724ZM38.921 78.5053C38.9044 77.9053 38.4377 77.4387 37.8044 77.4387C37.2044 77.4554 36.7211 77.9553 36.7378 78.5553C36.7545 79.4053 36.8878 80.2386 37.1211 81.0219C37.2544 81.5052 37.7044 81.8052 38.1711 81.8052C38.2711 81.8052 38.3711 81.7885 38.4877 81.7552C39.071 81.5885 39.4044 80.9719 39.221 80.3886C39.0377 79.8053 38.9377 79.172 38.921 78.5053ZM41.021 70.9056C40.5543 70.5223 39.8543 70.6056 39.4877 71.0889C38.971 71.7389 38.521 72.4055 38.1544 73.0722C37.8544 73.6055 38.0544 74.2721 38.571 74.5555C38.7377 74.6555 38.921 74.6888 39.1044 74.6888C39.4877 74.6888 39.8543 74.4888 40.0543 74.1221C40.371 73.5555 40.7543 72.9889 41.1876 72.4389C41.5709 71.9722 41.4876 71.2723 41.021 70.9056ZM19.1551 71.7222C18.5051 72.1056 17.8718 72.4889 17.2385 72.8889C16.7218 73.2055 16.5718 73.8888 16.8885 74.4055C17.0885 74.7388 17.4552 74.9221 17.8218 74.9221C18.0218 74.9221 18.2218 74.8721 18.4051 74.7555C19.0218 74.3721 19.6384 73.9888 20.2717 73.6222C20.7884 73.3222 20.9717 72.6389 20.6717 72.1222C20.3384 71.5889 19.6717 71.4222 19.1551 71.7222ZM43.5709 84.3718C42.9209 84.2384 42.3376 84.0218 41.8043 83.7218C41.271 83.4218 40.6043 83.6218 40.321 84.1384C40.021 84.6718 40.221 85.3384 40.7376 85.6217C41.4543 86.0217 42.2542 86.3217 43.1209 86.505C43.2042 86.5217 43.2709 86.5217 43.3542 86.5217C43.8542 86.5217 44.3208 86.1717 44.4208 85.6551C44.5375 85.0717 44.1542 84.5051 43.5709 84.3718ZM50.1206 65.0725C50.3206 65.0725 50.5206 65.0225 50.7039 64.9058C51.3206 64.5225 51.9372 64.1225 52.5705 63.7559C53.0872 63.4392 53.2538 62.7726 52.9372 62.2559C52.6205 61.7393 51.9539 61.5726 51.4372 61.8893C50.8039 62.2726 50.1706 62.6726 49.5373 63.0725C49.0207 63.3892 48.8707 64.0725 49.204 64.5892C49.404 64.8891 49.754 65.0725 50.1206 65.0725ZM38.4711 67.789C38.4877 67.789 38.5044 67.789 38.5377 67.789C39.2544 67.7557 39.9877 67.7224 40.7043 67.7224C41.3043 67.7224 41.7876 67.2224 41.7876 66.6058C41.7876 66.0058 41.3043 65.5391 40.671 65.5225C39.921 65.5391 39.171 65.5558 38.4044 65.6058C37.8044 65.6391 37.3378 66.1558 37.3711 66.7558C37.4211 67.3391 37.9044 67.789 38.4711 67.789ZM1.73906 85.8884C1.23908 86.455 0.739094 87.005 0.255779 87.5883C-0.127541 88.055 -0.0775427 88.7383 0.389107 89.1383C0.622432 89.3382 0.92242 89.4216 1.20574 89.3883C1.4724 89.3549 1.73906 89.2383 1.92238 89.0049C2.38903 88.4549 2.87235 87.905 3.35567 87.355C3.75565 86.905 3.72232 86.205 3.27234 85.805C2.83902 85.4051 2.13904 85.4384 1.73906 85.8884ZM12.8887 75.8221C12.2887 76.2721 11.6887 76.722 11.0887 77.172C10.6054 77.5387 10.5221 78.2387 10.9054 78.7053C11.122 78.9886 11.4387 79.122 11.772 79.122C12.0054 79.122 12.2387 79.0386 12.4387 78.8886C13.0053 78.4386 13.5886 78.0053 14.1719 77.572C14.6553 77.222 14.7719 76.5387 14.4053 76.0387C14.0553 75.5721 13.372 75.4721 12.8887 75.8221ZM7.0722 80.5386C6.52222 81.0386 5.97224 81.5552 5.42226 82.0719C4.98894 82.4885 4.97227 83.1885 5.38892 83.6218C5.60558 83.8385 5.88891 83.9551 6.17223 83.9551C6.43889 83.9551 6.72221 83.8551 6.93887 83.6551C7.45552 83.1551 7.98883 82.6552 8.53881 82.1718C8.98879 81.7719 9.02213 81.0719 8.62214 80.6219C8.20549 80.1719 7.52218 80.1386 7.0722 80.5386ZM71.6698 52.4229C70.9699 52.6729 70.2532 52.9229 69.5533 53.1729C68.9866 53.3896 68.6866 54.0062 68.9033 54.5729C69.0699 55.0228 69.4866 55.2895 69.9366 55.2895C70.0699 55.2895 70.1866 55.2728 70.3199 55.2228C71.0032 54.9728 71.6865 54.7229 72.3865 54.4895C72.9531 54.2895 73.2698 53.6729 73.0698 53.1062C72.8698 52.5396 72.2532 52.2229 71.6698 52.4229ZM64.7034 55.0895C64.0201 55.3728 63.3368 55.6728 62.6535 55.9895C62.1035 56.2395 61.8535 56.8894 62.1035 57.4394C62.2868 57.8394 62.6868 58.0894 63.1035 58.0894C63.2535 58.0894 63.4035 58.0561 63.5535 57.9894C64.2201 57.6894 64.8868 57.3894 65.5534 57.1061C66.1034 56.8728 66.37 56.2228 66.1367 55.6728C65.9034 55.1228 65.2701 54.8562 64.7034 55.0895ZM49.1373 67.1557C49.204 66.5558 48.7873 66.0058 48.1874 65.9391C47.4541 65.8391 46.7041 65.7725 45.9375 65.7058C45.5708 65.6891 45.2208 65.8391 45.0042 66.0891C44.4042 66.5224 43.8709 66.9224 43.3709 67.3057C42.8876 67.6724 42.8042 68.3724 43.1875 68.839C43.4042 69.1223 43.7209 69.2557 44.0542 69.2557C44.2875 69.2557 44.5208 69.1723 44.7375 69.0223C45.1875 68.6723 45.6875 68.3057 46.2208 67.9057C46.8041 67.9557 47.3707 68.0224 47.9207 68.089C48.5207 68.1724 49.0707 67.7557 49.1373 67.1557ZM87.3526 49.4397C87.2359 48.8564 86.6693 48.4731 86.0693 48.5731C85.336 48.7231 84.6027 48.8731 83.8694 49.0231C83.2861 49.1564 82.9028 49.7397 83.0361 50.323C83.1361 50.8063 83.5527 51.1563 84.0361 51.1897C84.136 51.1897 84.236 51.1896 84.336 51.173C85.0527 51.023 85.7693 50.873 86.486 50.723C87.0859 50.623 87.4693 50.0397 87.3526 49.4397ZM78.8029 50.2563C78.0863 50.4563 77.3696 50.6563 76.653 50.8563C76.0697 51.023 75.7364 51.6396 75.903 52.2063C76.0364 52.6896 76.4863 52.9896 76.953 52.9896C77.053 52.9896 77.153 52.9729 77.253 52.9396C77.9529 52.7396 78.6529 52.5396 79.3696 52.3563C79.9529 52.2063 80.3029 51.6063 80.1529 51.023C79.9862 50.4397 79.3862 50.1064 78.8029 50.2563ZM57.9537 58.2561C57.287 58.5894 56.6204 58.9394 55.9704 59.2893C55.4371 59.5727 55.2371 60.2393 55.5204 60.7726C55.7204 61.1393 56.1037 61.3559 56.4871 61.3559C56.6537 61.3559 56.8371 61.3059 57.0037 61.2226C57.6537 60.8726 58.287 60.5393 58.937 60.206C59.4703 59.9227 59.6869 59.2727 59.4203 58.7394C59.1536 58.1894 58.487 57.9727 57.9537 58.2561ZM50.1373 83.5218C49.4873 83.7885 48.8373 84.0051 48.1874 84.1718C47.6041 84.3218 47.2541 84.9217 47.3874 85.5051C47.5207 86.005 47.954 86.3384 48.454 86.3384C48.5374 86.3384 48.6373 86.3217 48.7207 86.305C49.4707 86.1217 50.2373 85.855 50.9706 85.5551C51.5372 85.3217 51.8039 84.6884 51.5706 84.1218C51.3372 83.5551 50.7039 83.2885 50.1373 83.5218ZM55.0371 70.2556C55.3871 70.2556 55.7371 70.089 55.9371 69.7723C56.2704 69.2723 56.1537 68.589 55.6538 68.2557C55.0204 67.8224 54.2871 67.4391 53.4705 67.1224C52.9039 66.9057 52.2705 67.1891 52.0539 67.739C51.8372 68.3057 52.1206 68.939 52.6705 69.1557C53.3205 69.4057 53.9038 69.7056 54.4205 70.0556C54.6205 70.189 54.8371 70.2556 55.0371 70.2556ZM55.5371 79.472C55.1371 79.9886 54.6705 80.4886 54.1705 80.9552C53.7205 81.3719 53.6872 82.0552 54.1038 82.5052C54.3205 82.7385 54.6205 82.8552 54.9038 82.8552C55.1704 82.8552 55.4371 82.7552 55.6371 82.5718C56.2371 82.0219 56.7871 81.4219 57.2704 80.8052C57.637 80.3219 57.5537 79.6386 57.0704 79.272C56.5871 78.9053 55.9037 79.0053 55.5371 79.472ZM57.7204 72.2055C57.137 72.3889 56.8204 72.9889 56.987 73.5722C57.137 74.0722 57.2204 74.5888 57.2204 75.1054C57.2204 75.2054 57.2204 75.2888 57.2204 75.3888C57.187 75.9887 57.6537 76.5054 58.2537 76.5387C58.2703 76.5387 58.287 76.5387 58.3037 76.5387C58.887 76.5387 59.3703 76.0887 59.4036 75.5054C59.4036 75.3721 59.4203 75.2388 59.4203 75.1221C59.4203 74.3888 59.3036 73.6555 59.1036 72.9555C58.9036 72.3555 58.3037 72.0222 57.7204 72.2055Z" fill="#DC4729"/>
</svg>
