<svg width="24.000000" height="24.000000" viewBox="0 0 24 24" fill="none" xmlns="http://www.w3.org/2000/svg" xmlns:xlink="http://www.w3.org/1999/xlink">
	<desc>
			Created with Pixso.
	</desc>
	<defs>
		<clipPath id="clip4_221">
			<rect id="Drive unit" rx="-0.500000" width="23.000000" height="23.000000" transform="translate(0.500000 0.500000)" fill="white" fill-opacity="0"/>
		</clipPath>
	</defs>
	<rect id="Drive unit" rx="-0.500000" width="23.000000" height="23.000000" transform="translate(0.500000 0.500000)" fill="#FFFFFF" fill-opacity="0"/>
	<g clip-path="url(#clip4_221)">
		<path id="Union" d="M8 8C8 8.55225 7.55229 9 7 9L5 9C4.44772 9 4 8.55225 4 8L4 3C4 2.44775 4.44771 2 5 2L7 2C7.55229 2 8 2.44775 8 3L8 5.5L16 5.5L16 3C16 2.44775 16.4477 2 17 2L19 2C19.5523 2 20 2.44775 20 3L20 8C20 8.55225 19.5523 9 19 9L17 9C16.4477 9 16 8.55225 16 8L16 6.5L12.5 6.5L12.5 17.5L16 17.5L16 16C16 15.4478 16.4477 15 17 15L19 15C19.5523 15 20 15.4478 20 16L20 21C20 21.5522 19.5523 22 19 22L17 22C16.4477 22 16 21.5522 16 21L16 18.5L8 18.5L8 21C8 21.5522 7.55229 22 7 22L5 22C4.44772 22 4 21.5522 4 21L4 16C4 15.4478 4.44771 15 5 15L7 15C7.55229 15 8 15.4478 8 16L8 17.5L11.5 17.5L11.5 6.5L8 6.5L8 8ZM5 8L7 8L7 3L5 3L5 8ZM17 8L19 8L19 3L17 3L17 8ZM5 21L7 21L7 16L5 16L5 21ZM17 21L19 21L19 16L17 16L17 21Z" clip-rule="evenodd" fill="#2E58DB" fill-opacity="1.000000" fill-rule="evenodd"/>
	</g>
</svg>
