<svg width="24.000000" height="24.000000" viewBox="0 0 24 24" fill="none" xmlns="http://www.w3.org/2000/svg" xmlns:xlink="http://www.w3.org/1999/xlink">
	<desc>
			Created with Pixso.
	</desc>
	<defs>
		<clipPath id="clip4_214">
			<rect id="speedometer-03" rx="-0.500000" width="23.000000" height="23.000000" transform="translate(0.500000 0.500000)" fill="white" fill-opacity="0"/>
		</clipPath>
	</defs>
	<g clip-path="url(#clip4_214)">
		<path id="Icon" d="M5 12C5 8.13 8.13 5 12 5M12 22C6.47 22 2 17.52 2 12C2 6.47 6.47 2 12 2C17.52 2 22 6.47 22 12C22 17.52 17.52 22 12 22ZM16.49 7.5L11.99 12M12 13C11.44 13 11 12.55 11 12C11 11.44 11.44 11 12 11C12.55 11 13 11.44 13 12C13 12.55 12.55 13 12 13Z" stroke="#2E58DB" stroke-opacity="1.000000" stroke-width="1.000000" stroke-linejoin="round" stroke-linecap="round"/>
	</g>
</svg>
