<svg width="40.000000" height="40.000000" viewBox="0 0 40 40" fill="none" xmlns="http://www.w3.org/2000/svg" xmlns:xlink="http://www.w3.org/1999/xlink">
	<desc>
			Created with Pixso.
	</desc>
	<defs>
		<filter id="filter_5_6_dd" x="0.000000" y="0.000000" width="40.000000" height="40.000000" filterUnits="userSpaceOnUse" color-interpolation-filters="sRGB">
			<feFlood flood-opacity="0" result="BackgroundImageFix"/>
			<feColorMatrix in="SourceAlpha" type="matrix" values="0 0 0 0 0 0 0 0 0 0 0 0 0 0 0 0 0 0 127 0" result="hardAlpha"/>
			<feOffset dx="0" dy="4"/>
			<feGaussianBlur stdDeviation="1.33333"/>
			<feComposite in2="hardAlpha" operator="out" k2="-1" k3="1"/>
			<feColorMatrix type="matrix" values="0 0 0 0 0 0 0 0 0 0 0 0 0 0 0 0 0 0 0.25 0"/>
			<feBlend mode="normal" in2="BackgroundImageFix" result="effect_dropShadow_1"/>
			<feColorMatrix in="SourceAlpha" type="matrix" values="0 0 0 0 0 0 0 0 0 0 0 0 0 0 0 0 0 0 127 0" result="hardAlpha"/>
			<feOffset dx="0" dy="4"/>
			<feGaussianBlur stdDeviation="1.33333"/>
			<feComposite in2="hardAlpha" operator="out" k2="-1" k3="1"/>
			<feColorMatrix type="matrix" values="0 0 0 0 0 0 0 0 0 0 0 0 0 0 0 0 0 0 0.25 0"/>
			<feBlend mode="normal" in2="effect_dropShadow_1" result="effect_dropShadow_2"/>
			<feBlend mode="normal" in="SourceGraphic" in2="effect_dropShadow_2" result="shape"/>
		</filter>
	</defs>
	<g filter="url(#filter_5_6_dd)">
		<circle id="Эллипс 1" cx="20.000000" cy="16.000000" r="16.000000" fill="#101216" fill-opacity="0.500000"/>
		<circle id="Эллипс 1" cx="20.000000" cy="16.000000" r="16.000000" fill="#191C23" fill-opacity="0.900000"/>
		<circle id="Эллипс 1" cx="20.000000" cy="16.000000" r="15.500000" stroke="#000000" stroke-opacity="1.000000" stroke-width="1.000000"/>
	</g>
	<path id="N" d="M24.96 20.19L24.96 8.18L27.52 8.18L27.52 23.18L24.16 23.18L14.7 11.02L14.7 23.18L12.14 23.18L12.14 8.18L15.58 8.18L24.96 20.19Z" fill="#000000" fill-opacity="1.000000" fill-rule="evenodd"/>
	<path id="N" d="M26.04 21.58L24.96 21.7L24.96 8.18L27.52 8.18L27.52 23.18L24.16 23.18L13.64 9.66L14.7 9.54L14.7 23.18L12.14 23.18L12.14 8.18L15.58 8.18L26.04 21.58Z" stroke="#FFFFFF" stroke-opacity="1.000000" stroke-width="1.000000"/>
</svg>
