<svg width="287.439819" height="276.358887" viewBox="0 0 287.44 276.359" fill="none" xmlns="http://www.w3.org/2000/svg" xmlns:xlink="http://www.w3.org/1999/xlink">
	<desc>
			Created with Pixso.
	</desc>
	<defs>
		<filter id="filter_1_6121_dd" x="0.000000" y="0.000000" width="287.439819" height="276.358887" filterUnits="userSpaceOnUse" color-interpolation-filters="sRGB">
			<feFlood flood-opacity="0" result="BackgroundImageFix"/>
			<feBlend mode="normal" in="SourceGraphic" in2="BackgroundImageFix" result="shape"/>
			<feGaussianBlur stdDeviation="29.3333" result="effect_layerBlur_1"/>
		</filter>
		<filter id="filter_1_6122_dd" x="107.891968" y="105.903320" width="71.656616" height="64.552246" filterUnits="userSpaceOnUse" color-interpolation-filters="sRGB">
			<feFlood flood-opacity="0" result="BackgroundImageFix"/>
			<feGaussianBlur in="BackgroundImage" stdDeviation="13.3333"/>
			<feComposite in2="SourceAlpha" operator="in" result="effect_backgroundBlur_1"/>
			<feBlend mode="normal" in="SourceGraphic" in2="effect_backgroundBlur_1" result="shape"/>
		</filter>
		<linearGradient x1="143.384277" y1="92.262253" x2="138.823425" y2="182.761078" id="paint_linear_1_6121_0" gradientUnits="userSpaceOnUse">
			<stop stop-color="#FE9A50"/>
			<stop offset="1.000000" stop-color="#FE6A36"/>
		</linearGradient>
		<linearGradient x1="143.454132" y1="101.772560" x2="139.837921" y2="173.527130" id="paint_linear_1_6122_0" gradientUnits="userSpaceOnUse">
			<stop stop-color="#FE9A50"/>
			<stop offset="1.000000" stop-color="#FE6A36"/>
		</linearGradient>
		<linearGradient x1="138.522034" y1="98.081367" x2="145.683655" y2="180.543762" id="paint_linear_1_6122_1" gradientUnits="userSpaceOnUse">
			<stop stop-color="#FFFFFF"/>
			<stop offset="1.000000" stop-color="#FFFFFF" stop-opacity="0.200000"/>
		</linearGradient>
	</defs>
	<g filter="url(#filter_1_6121_dd)">
		<path id="Vector" d="M188.9 141.11L163.55 178.88L118.36 175.95L98.53 135.24L123.88 97.47L169.07 100.4L188.9 141.11ZM188.9 141.11L143.72 138.17C138.76 145.55 134.9 151.31 131.04 157.06C127.18 162.82 123.31 168.57 118.36 175.95M123.88 97.47L143.72 138.17" stroke="url(#paint_linear_1_6121_0)" stroke-opacity="1.000000" stroke-width="18.299999"/>
	</g>
	<g filter="url(#filter_1_6122_dd)">
		<path id="Vector" d="M163.82 108.22L179.54 140.5L159.44 170.45L123.61 168.13L107.89 135.85L127.99 105.9L163.82 108.22Z" fill="url(#paint_linear_1_6122_0)" fill-opacity="1.000000" fill-rule="nonzero"/>
		<path id="Vector" d="M178.54 138.43L179.54 140.5L159.44 170.45L125.92 168.28L123.61 168.13L122.6 166.05L107.89 135.85L127.99 105.9L130.29 106.05L163.82 108.22L178.54 138.43ZM162.53 110.14L176.24 138.28L145 136.25L131.3 108.12L162.53 110.14ZM141.41 138.02L127.71 109.9L110.19 136.01L123.89 164.13L141.41 138.02ZM144.73 140.25L175.95 142.27L158.42 168.38L127.21 166.35L144.73 140.25Z" fill="url(#paint_linear_1_6122_1)" fill-opacity="1.000000" fill-rule="evenodd"/>
	</g>
</svg>
