<svg width="5220.864258" height="1309.000000" viewBox="0 0 5220.86 1309" fill="none" xmlns="http://www.w3.org/2000/svg" xmlns:xlink="http://www.w3.org/1999/xlink">
	<desc>
			Created with Pixso.
	</desc>
	<defs/>
	<g style="mix-blend-mode:overlay">
		<path id="Vector" d="M0.02 403.77L0 403.77C-0.2 403.57 -0.19 403.26 0.02 403.07C0.22 402.87 0.53 402.88 0.72 403.09L0.72 403.12L0.02 403.77Z" fill="#181818" fill-opacity="0" fill-rule="nonzero"/>
		<path id="Vector" d="M2363.5 352.7L2367.77 344.75L2371.89 337.06L2375.89 329.63L2379.76 322.43M2857.14 329.63L2853.27 322.43M2734.89 322.43L2736.83 329.63M695.61 248.83L666.09 225.23L635.94 201.14L632.11 200.12L608.55 193.82L576.13 185.16L466.43 155.85L302.1 165.92L206.28 239.33M997.44 399.92L966.89 353.33L966.65 352.98L930.96 298.55L930.65 298.07L930.44 297.75L930.21 297.4L884.27 227.34L883.94 226.84L881.4 222.97L838.87 158.11L791.29 85.55L747.87 159.64L731.61 187.38L731.58 187.44L717.06 212.21L712.73 219.61L695.61 248.83L663.72 303.25L644.86 335.44M1188.3 173.33L1196.65 174.74M1220.79 165.2L1212.78 164.41L1165.64 176.85M2008.47 1013.61L1692.61 742L1650.55 741.04L1434.79 776.65L1410.6 780.64L1410.57 780.65L1331.76 793.66L1271.64 810.9M2054.83 927.3L1951.42 831.57L1938.08 819.22L1844.57 732.66L1842.82 731.04L1745.32 640.78L1743.08 638.71L1726.16 623.05L1684.32 590.69L1634.73 552.34L1535.26 475.43L1534.66 474.96L1466.14 421.97L1422.11 404.29L1387.17 390.25L1386.17 389.85L1378.29 386.69L1377.81 386.49L1335.76 369.6L1334.78 369.21L1270.92 343.56L1270.41 343.36L1254.8 337.08L1254.75 337.06L1251.01 335.56L1250.97 335.55L1250.96 335.54L1234.28 328.84L1227.72 326.21L1212.02 348.11L1211.93 348.23L1156.89 425L1156.67 425.3L979.06 673L973.35 680.95L917.91 758.28L911.89 782.06M917.91 758.28L651.71 920.57L640.67 927.3L572.7 968.75M1441.1 243.24L1384.52 270.69L1384.01 270.94L1292.44 315.37L1251.02 335.46M1878.29 394.53L1691.03 331.49L1662.99 314.61L1648.72 306.01L1648.46 305.86L1570.94 259.19L1532.75 236.19L1532.38 235.97L1469.67 198.21L1450.22 203.41L1434.56 207.6L1423.41 210.58L1322.42 237.6L1281.62 248.52L1279.27 252.5L1278.21 254.29L1258.74 287.33L1252.34 298.2L1234.28 328.84M1281.62 248.52L1251.02 335.46L1251.01 335.56M1993.97 310.05L1993.96 310.04L1964 272.31L1918.72 215.28L1833.17 200.26L1797.41 193.98L1778.21 190.61M1533.39 230.11L1638.24 184.87L1778.21 190.61L1794.04 190.87M1797.41 193.98L1794.04 190.87L1761.95 156.46L1650.16 36.59L1518.85 170.33L1514.24 177.39L1503.86 193.31L1496.06 205.26M2129.14 788.95L2066.44 759.9L2007.62 732.66L1952.34 707.05L1951.7 706.75L1900.29 682.94L1854.8 661.86L1846.14 660.19L1791.44 649.66L1745.32 640.78M2267.63 531.15L2239.96 516.13L2230.98 511.26M2290.78 488.08L2297.82 474.96M2317.24 438.81L2323.2 427.72M2176.54 427.72L2170.67 435.01M2339.73 396.95L2344.84 387.45L2349.76 378.29L2354.5 369.46M2061.64 297.19L2070.84 295.45L2106.63 296.67L2150.49 298.16L2207.35 300.1L2224.79 309.68L2243.5 319.95L2243.76 320.09L2285.24 342.86L2303.15 352.7L2318.14 360.93L2333.67 369.46L2349.76 378.29M2359.08 360.93L2363.5 352.7M3530.93 248.72L3500.58 239.96L3453.87 247.86L3451.06 248.33L3350.9 265.28L3322.78 270.04L3301.72 274.9L3301.61 274.92L3276.47 280.72L3165.73 306.24L3164.58 306.51L3145.21 310.97L3134.53 324.05L3109.28 354.98L3031.57 450.13L3031.38 450.36L3011.29 474.96L3010.84 475.5L2965.4 531.15M2949.62 501.79L2942.26 488.08L2935.21 474.96M2775.86 474.96L2779.39 488.08M2921.99 450.36L2915.79 438.81L2909.83 427.72L2904.11 417.06L2898.6 406.81L2893.3 396.95L2888.2 387.45M2763.17 427.72L2766.15 438.81M2988.01 231.86L2936.05 322.43L2931.92 329.63L2927.65 337.06L2923.24 344.75L2918.68 352.7L2913.96 360.93L2909.07 369.46L2904.01 378.29L2898.75 387.45L2893.3 396.95M2752.36 387.45L2754.91 396.95M2873.96 360.93L2869.53 352.7M2743.03 352.7L2745.24 360.93M4280.99 1019.93L4283 1022.49M3979.4 440.34L3943.44 414.13L3861.32 354.26L3820.09 324.21L3751.71 311.21L3750.29 310.94L3675.5 296.72L3625.76 287.26L3594.31 281.29M3573.71 164.36L3594.31 281.29L3596.94 358.01L3596.95 358.15L3602.59 523.2M3865.29 274.74L3823.39 263.93L3681.8 289.07L3674.93 290.29M4100.72 219.09L3984.56 181.7L3938.97 167.03L3775.6 130.66L3655.83 271.73L3646.94 282.21M4333.5 207.35L4434.08 176.7L4437.79 175.71M5096.06 137.35L5135.72 109.06L5203.14 200.58L5202.81 200.45L5180.83 192.54L5168.06 192.47L5141.88 192.32L5110.74 192.14L5075.19 191.94L5073.25 191.93L5049.13 191.8L4967.27 191.34L4738.63 343.39M4967.27 191.34L4957.02 184.01L4947.54 177.22L4947 176.84L4933.11 166.89L4930.19 164.8L4927.63 162.97L4904.77 146.61L4802.54 118.75L4771.43 110.27L4702.02 91.36L4565.81 120.92L4489.5 137.48L4437.79 175.71L4434.22 178.35L4348.91 241.41M4702.02 91.36L4735.58 322.43L4735.73 323.4L4738.63 343.39L4745.81 424.73M5200.12 673.74L5196.61 586.29L5196.61 586.07L5187.52 359.55L5187.52 359.36L5186.54 335.07L5186.54 334.83L5180.83 192.54M3620.37 274.54L3646.94 282.21L3674.93 290.29L3768.51 282.37L3769.83 282.26L3852.18 275.29L3865.29 274.74L3865.77 274.72L3956.89 270.92L3962.06 270.7L4029.19 267.9L4035.48 278.42L4035.48 278.42L4061.29 321.63L4061.45 321.9L4061.88 322.62L4062 322.81L4070.85 337.62L4071.06 337.98L4080.15 353.18M3852.18 275.29L3823.65 264.03L3823.39 263.93M4061.24 372.59L4058.96 351.03L4050.74 328.09L4050.17 326.48L4049.35 324.2L4029.19 267.9M5128.09 726.55L5109.89 707.05L5083.44 678.7L4979.92 567.77L4918.79 502.27L4745.81 424.73L4673.49 392.32L4672.97 393.07L4672.61 393.61L4600.74 498.56M4532.02 646.43L4434.96 431.74L4409.29 374.96L4408.49 373.17L4403.81 362.86L4403.41 361.94L4348.91 241.41L4333.5 207.35L4298.25 129.34L4258.85 169.77L4205.12 224.91L4131.1 300.89L4130.88 301.11L4130.27 301.73L4120.89 311.36L4120.59 311.67L4119.29 313.01L4119.27 313.02L4108.99 323.58L4080.15 353.18L4069.78 363.82L4061.24 372.59L4055.44 378.54L4055.18 378.8L3998.17 437.31L3979.4 440.34L3899.68 453.21L3827.42 464.87L3719.53 482.28L3699.98 489.12L3602.59 523.2L3409.09 590.89L3394.08 605.44L3380.74 618.37L3359.75 638.71L3337.9 659.88L3314.12 682.94L3289.24 707.05L3284.93 711.22L3262.82 732.66L3255.07 740.16L3204.73 788.95L3172.7 819.99L3138.41 853.23M4298.25 129.34L4300.18 289.47L4300.19 289.63L4307.06 858.68M4722.81 664.01L4636.44 546.95L4636.41 546.9L4600.74 498.56L4548.86 428.26L4511.74 377.95L4487.18 344.67L4462.21 386.32L4462.06 386.55L4460.25 389.59L4434.96 431.74M4761.99 816.1L4722.81 664.01L4699 532.82L4698.86 532.08L4679.99 428.13L4679.91 427.72L4673.49 392.32M5220.09 703.22L5197.17 701.97L5182.9 707.05L5128.09 726.55L4956.39 787.65L4904.66 806.07L4861.91 821.28L4816.75 821.16M4541.22 820.46L4542.66 826.41M4240.16 1308.5L4400.08 1122.66L4487.48 1029.48L4583 927.62L4583.31 927.3L4583.5 927.09L4654.33 851.59L4693.56 809.77M4163.27 1112.91L4283 1022.49L4285.19 1020.85L4542.66 826.41L4550.5 820.48L4561.73 812.01L4579.1 798.89L4693.56 809.77L4700.2 810.38L4761.99 816.1L4816.75 821.16L4865.16 825.64L5104.49 847.78L5104.89 848.41L5220.09 1030.5M2878.53 369.46L2873.96 360.93M2883.28 378.29L2888.2 387.45M2344.84 387.45L2480.68 387.45L2616.52 387.45L2752.36 387.45L2888.2 387.45L2898.75 387.45M2878.53 369.46L2883.28 378.29M3451.06 248.33L3448.57 246.23L3344.15 157.83L3268.64 157.22L3198.65 156.65L3053.44 140.48M3198.65 156.65L3187.28 155.12L3045.28 119.79M2928.46 462.4L2935.21 474.96M2202.27 474.96L2297.82 474.96L2457.17 474.96L2616.52 474.96L2775.86 474.96L2935.21 474.96L2956.87 474.96M2921.99 450.36L2928.46 462.4M3134.53 324.05L3108.52 338.9L3064.62 378.29L3063.34 379.43L2998.41 437.7L2984.77 449.93L2984.29 450.36L2970.87 462.4L2957.23 474.64L2956.87 474.96L2943.23 487.2L2942.26 488.08M3301.61 274.92L3275.42 243.63L3205.68 283.44L3182.66 296.58L3165.73 306.24M2223.49 501.79L2283.4 501.79L2449.97 501.79L2616.52 501.79L2783.07 501.79L2949.62 501.79L2976.22 501.79M3394.08 605.44L3387.28 599.11L3368.01 569.95L3351.75 482L3335.75 410.53L3333.14 382.26L3333.06 381.36L3322.78 270.04M3351.75 482L3291.98 432.84L3195.2 353.24L3194.55 352.7L3171.75 333.95L3147.51 363.38L3075.87 450.36L3075.3 451.06L3001.97 540.1L2982.74 563.44M3625.76 287.26L3620.37 274.54L3618.76 270.73L3573.71 164.36L3530.93 248.72L3519.46 271.34L3516 278.17L3512.06 285.94L3512.04 285.97L3506.28 297.33L3506.21 297.47L3493.59 322.34L3493.55 322.43L3475.48 358.06L3368.01 569.95M3475.48 358.06L3352.16 481.59L3351.75 482M3387.28 599.11L3540.32 364.17L3540.6 363.74L3565.89 324.92L3566.59 323.85L3594.31 281.29M3284.93 711.22L3281.57 707.05M1952.34 707.05L2173.14 707.05L2394.83 707.05L2616.52 707.05L2838.2 707.05L3059.88 707.05L3281.57 707.05L3289.24 707.05M4214.72 895.71L4314.84 872.63L4339.88 866.86L4541.22 820.46L4550.5 820.48M4280.99 1019.93L4214.72 895.71L4055.96 784.4L4029.72 766.01L3908.14 680.76L3726.81 641.38L3621.85 618.58L3588.39 611.31L3497.64 732.53L3497.55 732.66L3449.4 796.98L3250.74 1062.34M1466.61 1295.36L1850.38 1307.91L2233.45 1307.91L2616.52 1307.91L2999.59 1307.91L3382.65 1307.91L3500.2 1161.4L3532.65 1120.96L3642.29 984.31L3715.63 892.9L3716.14 892.27L3794.29 794.85L3822.4 819.08L3823.46 819.99L3951.22 930.12L3968.12 944.69L4163.27 1112.91L4240.16 1308.5M2487.8 360.93L2490.01 352.7M2485.51 369.46L2487.8 360.93M2616.52 360.93L2616.52 352.7M2490.01 352.7L2492.13 344.75M2616.52 369.46L2616.52 360.93M2745.24 360.93L2747.53 369.46M2740.89 344.75L2743.03 352.7M2616.52 352.7L2616.52 344.75L2616.52 337.06M2480.68 387.45L2483.13 378.29M2483.13 378.29L2485.51 369.46M2359.08 360.93L2354.5 369.46M2909.07 369.46L2878.53 369.46L2747.53 369.46L2616.52 369.46L2485.51 369.46L2354.5 369.46L2333.67 369.46M2478.12 396.95L2480.68 387.45M2616.52 387.45L2616.52 378.29M2616.52 378.29L2616.52 369.46M2616.52 396.95L2616.52 387.45M2752.36 387.45L2749.9 378.29M2904.01 378.29L2883.28 378.29L2749.9 378.29L2616.52 378.29L2483.13 378.29L2349.76 378.29M2749.9 378.29L2747.53 369.46M2334.43 406.81L2339.73 396.95M2475.48 406.81L2478.12 396.95M2616.52 406.81L2616.52 396.95M2754.91 396.95L2757.56 406.81M2328.93 417.06L2323.2 427.72M2469.86 427.72L2472.72 417.06M2472.72 417.06L2475.48 406.81M2334.43 406.81L2328.93 417.06M2466.87 438.81L2469.86 427.72M2616.52 427.72L2616.52 417.06M2616.52 417.06L2616.52 406.81M2616.52 438.81L2616.52 427.72M2763.17 427.72L2760.31 417.06M2760.31 417.06L2757.56 406.81M2463.78 450.36L2466.87 438.81M2616.52 450.36L2616.52 438.81M2766.15 438.81L2769.26 450.36M2304.57 462.4L2297.82 474.96M2457.17 474.96L2460.55 462.4M2460.55 462.4L2463.78 450.36M2311.04 450.36L2304.57 462.4M2317.24 438.81L2311.04 450.36M2453.64 488.08L2457.17 474.96M2616.52 474.96L2616.52 462.4M2616.52 462.4L2616.52 450.36M2616.52 488.08L2616.52 474.96M2775.86 474.96L2772.49 462.4M2772.49 462.4L2769.26 450.36M2449.97 501.79L2453.64 488.08M2616.52 501.79L2616.52 488.08M2779.39 488.08L2783.07 501.79M2446.11 516.13L2449.87 502.12L2449.97 501.79M2290.78 488.08L2283.4 501.79M2786.92 516.13L2783.16 502.12L2783.07 501.79M2375.89 329.63L2267.67 191.07L2247.19 164.86L2246.65 164.18L2113.78 116.89L1975.47 62.45L1903.96 135.8M1778.21 190.61L1766.34 281.34L1766.26 281.95L1765.57 287.23L1761.2 319.42M2164.89 427.72L2176.54 427.72L2323.2 427.72L2469.86 427.72L2616.52 427.72L2763.17 427.72L2909.83 427.72M2176.54 427.72L2185.12 417.06M2193.38 406.81L2185.12 417.06M2201.34 396.95L2193.38 406.81M2259.18 546.9L2230.98 511.26L2223.49 501.79L2212.63 488.08L2202.27 474.96L2192.33 462.4L2182.81 450.36L2173.67 438.81L2170.67 435.01L2164.89 427.72L2156.47 417.06L2148.36 406.81L2140.56 396.95L2069.88 307.61L2061.64 297.19L2060.3 295.48L2058.09 295.96L1994.52 309.93L1993.97 310.05L1937.64 322.43L1937.41 322.48L1914.38 327.54L1894.66 331.87L1828.93 325.74L1810.4 324.01L1761.2 319.42L1734.01 316.88L1733.96 316.87L1713.48 314.96L1604.46 272.3L1585.85 265.02L1571.97 259.59L1570.94 259.19M1441.1 243.24L1504.45 324.87L1504.5 324.93L1649.1 511.26M1803.21 638.71L2005.31 618.37L2005.95 618.31L2022.97 618.32L2220.79 618.37M1466.14 421.97L1459.38 500.83L1459.36 501.06L1458.06 516.13L1458.03 516.53L1437.06 761.02L1434.79 776.65M1514.24 177.39L1425.78 156.11L1292.31 136.94L1220.79 165.2L1196.65 174.74L1177.02 182.49M1322.42 237.6L1287.87 214.17L1283.31 211.07L1249.43 232.54M1585.85 265.02L1557.34 246.05L1556.36 245.39L1539.35 234.07L1533.39 230.11L1515.15 217.97L1496.06 205.26L1453.32 176.83L1448.83 184.2L1448.66 184.46L1434.56 207.6M1765.57 287.23L1762.78 285.71L1762.5 285.56L1620.12 208.16M1278.21 254.29L1249.43 232.54L1195.06 191.42L1177.02 182.49L1174.62 181.3L1168.36 178.2L1165.64 176.85L1162.38 175.24L1159.04 178.59L1156.55 181.09L1151.66 186.01L1144.72 192.99L1129.11 208.68L1125.01 212.79M1162.38 175.24L1258.28 286.8L1258.74 287.33M1200.99 322.65L1148.4 246.61L1125.01 212.79L1118.97 204.06L1110.81 192.29L1110.26 191.47L1011.15 48.18L987.16 81.87L933.85 156.75L924 170.58L923.77 170.9L884.35 226.27L883.94 226.84M791.29 85.55L774.93 294.2L774.91 294.48L770.06 356.38L768.91 370.96L757.3 451.73M768.91 370.96L767.79 370.63L719.37 356.77L718.17 356.43L668.85 342.31L644.86 335.44L583.21 317.79L579.03 316.6L531.85 367.76L429.23 479.06M1252.34 298.2L1200.99 322.65L1200.68 322.79L1188.92 328.4L1188.77 328.47L1137.21 353.02L997.44 399.92M1137.21 353.02L1096.72 396.8L1096.57 396.95L1048.84 448.57M1251.02 335.46L1250.96 335.54M715.39 442.63L596.63 556.36L595.53 557.41L582.3 570.08L559.9 591.53M572.28 523.93L555.44 518.65L429.23 479.06L415.41 474.72L390 466.75L360.9 457.62L360.73 457.39L330.75 415.3L330.44 414.85L330.13 414.43L309.01 384.78L277.48 340.51L277.19 340.1L268.05 327.27L198.9 230.19M933.76 501.58L917.4 494.63L916.91 494.42L881.23 479.27L878.26 478.01L757.3 451.73L715.39 442.63L572.28 523.93L550.9 585.34M878.26 478.01L675.14 593.89L627.66 620.98L614.01 628.77M668.88 637.04L614.01 628.77L611.57 627.09L559.9 591.53L550.9 585.34L374.29 463.81L360.51 459.4L359.45 459.06L359.21 458.98L357.7 458.5L314.74 444.75L314.35 444.63L189.37 404.63L175.84 400.3L174.88 399.99L144.87 390.39L144.62 390.31L136.19 387.61L134.86 387.18L115.59 381.02L58.49 362.75L24.58 367.29L4.79 369.95M374.29 463.81L328.68 459.42L327.94 459.35L301.17 456.77L148.57 397.65L146.41 396.81L58.49 362.75M1156.89 425L1128.07 431.28L1048.84 448.57L1021.25 454.58L984.25 474.45L933.76 501.58L865.58 538.19L699.3 627.51L668.88 637.04L598 659.26L515.07 685.24L433.96 710.66L263.97 601.52L139.26 521.44L126.21 537.44L65.26 612.13L65.02 612.43L46.46 635.18L4.79 686.24M63.49 1239.59L67.58 1237.41M1520.58 1170.42L1159.98 1237.41L793.83 1214.49L431.71 1237.41L67.58 1237.41L55.38 1237.41M1466.61 1295.36L1084.24 1307.91L701.17 1307.91L318.1 1307.91L63.49 1239.59L55.38 1237.41L4.79 1223.84M1151.66 186.01L1142.53 184.52L1138.85 183.92L1136.07 183.47L1134.81 184.99L1133.32 186.78L1118.97 204.06M576.13 185.16L617.43 172.82L620.4 171.93L639.47 179.88L717.06 212.21M635.94 201.14L631.98 201.22L631.28 201.23L589.95 202.03L431.99 310.1M431.99 310.1L403.31 339.47L403.3 339.49L394.16 348.85L393.29 349.74L377.32 366.1L376.96 366.46L339.76 404.57M390 466.75L372.28 444.81L368.18 439.75L367.43 438.81L339.76 404.57L292.8 346.43L279.23 329.63L279.12 329.5L206.28 239.33L198.9 230.19L196.35 234.8L191 244.49L184.73 255.84L161.13 298.58L153 313.29L152.97 313.34L142.93 331.52L115.59 381.02M360.9 457.62L359.21 458.98M184.73 255.84L150.05 282.41L136.94 291.28L136.86 291.34L128.44 297.03L127.74 297.5L108.24 310.7L58.67 344.23L24.58 367.29M196.35 234.8L153.03 203.76L100.41 216.21L84.58 219.96L67.39 224.02L26.94 233.59L4.79 221.71M118.34 291.4L126.43 270.98L126.46 270.91L153.03 203.76M2861.13 337.06L2857.14 329.63M2865.26 344.75L2869.53 352.7M2861.13 337.06L2865.26 344.75M2496.21 329.63L2498.13 322.43M2494.21 337.06L2496.21 329.63M2616.52 329.63L2616.52 322.43M2616.52 337.06L2616.52 329.63M2736.83 329.63L2738.82 337.06M2492.13 344.75L2494.21 337.06M2740.89 344.75L2738.82 337.06M689.44 151.61L674.9 142.68L642.2 145.11L617.43 172.82M900.95 153.26L889.78 155.15L838.87 158.11M4.79 223.45L118.34 291.4L128.44 297.03M189.37 404.63L193.86 322.43L193.86 322.36L198.9 230.19M360.51 459.4L360.9 457.62M415.41 474.72L408.18 469.71L372.28 444.81M589.95 202.03L590.56 202.87L663.72 303.25M611.57 627.09L627.66 620.98M899.22 159.41L889.78 155.15M1168.36 178.2L1188.3 173.33L1212.78 164.41M1188.3 173.33L1174.62 181.3M1142.53 184.52L1156.55 181.09M1110.81 192.29L1133.32 186.78M1134.81 184.99L1110.56 191.39L1110.26 191.47M1159.04 178.59L1138.85 183.92M1791.44 649.66L1803.21 638.71L1825.05 618.37L1845.76 599.11L1865.4 580.82M1994.52 309.93L1993.96 310.04M2108.58 271.73L2131.36 286.1L2131.7 286.31L2150.49 298.16M3453.87 247.86L3448.57 246.23M3956.89 270.92L3895.5 229.74L3894.58 229.13L3800.63 166.12L3775.6 130.66M3943.44 414.13L4039.81 361.49L4040.22 361.27L4058.96 351.03M4058.96 351.03L4069.78 363.82M4108.99 323.58L4108.23 313.94L4108.2 313.65L4107.81 308.8L4107.79 308.57L4107.77 308.32L4100.72 219.09L4079.32 45.56M3968.12 944.69L4280.99 1019.93L4285.19 1020.85M4434.08 176.7L4434.1 176.94L4434.22 178.35M4511.74 377.95L4506.24 318.42L4506.22 318.2L4489.5 137.48M4865.16 825.64L4861.91 821.28M4956.39 787.65L4924.71 547.11L4924.68 546.9L4918.79 502.27M2936.05 322.43L2853.27 322.43L2734.89 322.43L2616.52 322.43L2498.13 322.43L2379.76 322.43L2267.67 191.07M2375.89 329.63L2496.21 329.63L2616.52 329.63L2736.83 329.63L2857.14 329.63L2931.92 329.63M153.03 203.76L191 244.49M1331.76 793.66L1189.35 783.84L931.85 766.1L911.89 782.06L678.39 968.75L622.28 1013.61L561.33 1062.34L526.28 1090.36M1221.85 1072.75L871.4 1051.38L526.28 1090.36L424.18 1115.43L187.63 1173.56M296.89 1115.43L187.63 1173.56L67.58 1237.41M4.79 968.75L280.73 968.75L572.7 968.75L678.39 968.75M1650.16 36.59L1638.24 184.87M1966.93 159.97L1903.96 135.8L1835.2 109.41L1761.95 156.46M1567.27 1008L1922.55 1173.56M1850.38 1307.91L1888.25 1237.41L1922.55 1173.56L1953.77 1115.43L1982.3 1062.34L2008.47 1013.61L2032.57 968.75L2054.83 927.3L2075.46 888.91L2094.62 853.23L2112.48 819.99L2129.14 788.95L2144.76 759.9M1953.77 1115.43L1611.8 893.49M1650.55 741.04L1611.8 893.49L1567.27 1008L1520.58 1170.42L1466.61 1295.36L1461.51 1308.5M1726.16 623.05L2032.57 968.75M2075.46 888.91L1951.42 831.57M1854.8 661.86L2112.48 819.99M2173.14 707.05L2186.1 682.94M3314.12 682.94L3262.14 682.94L3046.93 682.94L2831.72 682.94L2616.52 682.94L2401.31 682.94L2186.1 682.94L1970.9 682.94L1900.29 682.94M1970.9 682.94L1951.7 706.75M2198.32 660.19L2209.86 638.71L2220.79 618.37L2231.13 599.11M3387.28 599.11L3194.59 599.11L3001.9 599.11L2809.21 599.11L2616.52 599.11L2423.83 599.11L2231.13 599.11L2038.44 599.11L1845.76 599.11M2038.44 599.11L2022.97 618.32M2240.96 580.82L2250.29 563.44L2259.18 546.9L2267.63 531.15L2275.71 516.13M2140.56 396.95L2201.34 396.95L2339.73 396.95L2478.12 396.95L2616.52 396.95L2754.91 396.95L2893.3 396.95M2344.84 387.45L2207.35 300.1M2207.35 300.1L2201.34 396.95M2918.68 352.7L2869.53 352.7L2743.03 352.7L2616.52 352.7L2490.01 352.7L2363.5 352.7L2303.15 352.7M1922.55 1173.56L2269.54 1173.56L2616.52 1173.56L2963.5 1173.56L3310.48 1173.56M3382.65 1307.91L3344.78 1237.41L3310.48 1173.56L3279.26 1115.43L3250.74 1062.34L3224.56 1013.61L3200.46 968.75M3622.17 873.94L3279.26 1115.43M3279.26 1115.43L2947.89 1115.43L2616.52 1115.43L2285.13 1115.43L1953.77 1115.43M2947.89 1115.43L2963.5 1173.56M2032.57 968.75L2324.55 968.75L2616.52 968.75L2908.49 968.75L3200.46 968.75L3271.12 968.75M3200.46 968.75L3178.2 927.3M3314.13 927.3L3178.2 927.3L2897.36 927.3L2616.52 927.3L2335.68 927.3L2054.83 927.3M2897.36 927.3L2908.49 968.75M2112.48 819.99L2364.5 819.99L2616.52 819.99L2868.54 819.99L3120.56 819.99L3172.7 819.99M3120.56 819.99L3103.88 788.95M3204.73 788.95L3103.88 788.95L2860.2 788.95L2616.52 788.95L2372.83 788.95L2129.14 788.95M2860.2 788.95L2868.54 819.99M3059.88 707.05L3046.93 682.94M2831.72 682.94L2838.2 707.05M2220.79 618.37L2418.64 618.37L2616.52 618.37L2814.38 618.37L3012.25 618.37L3210.12 618.37L3380.74 618.37M3012.25 618.37L3001.9 599.11M2809.21 599.11L2814.38 618.37M2259.18 546.9L2437.85 546.9L2616.52 546.9L2795.19 546.9L2973.86 546.9M3001.97 540.1L2973.86 546.9M3001.9 599.11L2992.08 580.82L2982.74 563.44L2973.86 546.9L2965.4 531.15L2957.33 516.13L2949.62 501.79M2965.4 531.15L2790.96 531.15L2616.52 531.15L2442.08 531.15L2267.63 531.15M2790.96 531.15L2795.19 546.9M2212.63 488.08L2290.78 488.08L2453.64 488.08L2616.52 488.08L2779.39 488.08L2942.26 488.08M2173.67 438.81L2317.24 438.81L2466.87 438.81L2616.52 438.81L2766.15 438.81L2915.79 438.81M2998.41 437.7L2915.79 438.81M3059.57 277.22L2909.83 427.72M2318.14 360.93L2359.08 360.93L2487.8 360.93L2616.52 360.93L2745.24 360.93L2873.96 360.93L2913.96 360.93M4339.88 866.86L4307.06 858.68L4055.96 784.4M3500.58 239.96L3519.46 271.34M4100.72 219.09L4205.12 224.91M4565.81 120.92L4402.04 74.25L4243.54 22.7L4079.32 45.56L3984.56 181.7M5059.43 0.5L5075.19 191.94M4920.58 30.19L4802.54 118.75M5110.74 192.14L5096.06 137.35L5059.43 0.5L4920.58 30.19L4771.43 110.27M5073.25 191.93L5046.5 117.46L5000.65 53.39L4940.92 143.03L4927.63 162.97M4434.08 176.7L4402.04 74.25M4738.63 343.39L4548.86 428.26M3675.5 296.72L3674.93 290.29M3861.32 354.26L3852.18 275.29M3823.39 263.93L3800.63 166.12M3800.63 166.12L3681.8 289.07M3699.98 489.12L3820.09 324.21M3820.09 324.21L3827.42 464.87M4307.06 858.68L4314.84 872.63M4561.73 812.01L4532.02 646.43L4487.18 344.67M3794.29 794.85L3836.43 1256.1L4240.16 1308.5M4654.33 851.59L4943.21 1053.98L5185.08 1214.06L5220.09 1237.23M4943.21 1053.98L5104.49 847.78M3671.59 1308.5L4240.16 1308.5L4771.06 1308.5L5220.36 1308.5M4771.06 1308.5L5165.45 1237.41L5220.09 1237.41L5220.36 1237.41M4487.48 1029.48L4771.06 1308.5M4771.06 1308.5L4943.21 1053.98M3063.34 379.43L3059.57 277.22L3053.44 140.48L3045.28 119.79M3053.44 140.48L2904.11 417.06M2904.11 417.06L2760.31 417.06L2616.52 417.06L2472.72 417.06L2328.93 417.06L2185.12 417.06L2156.47 417.06M2898.6 406.81L2988.01 231.86L3045.28 119.79L3177.46 109.71L3268.64 157.22M3059.57 277.22L3182.66 296.58M3177.46 109.71L3187.28 155.12M3335.75 410.53L3516 278.17M3194.59 599.11L3181.73 509.66L3171.75 333.95M3181.73 509.66L2992.08 580.82M2982.74 563.44L2799.63 563.44L2616.52 563.44L2433.4 563.44L2250.29 563.44M3210.12 618.37L3194.59 599.11M3368.01 569.95L3181.73 509.66M3335.75 410.53L3291.98 432.84M3023.17 638.71L3012.25 618.37M3226.5 638.71L3210.12 618.37M3034.71 660.19L3046.93 682.94M3262.14 682.94L3243.81 660.19L3226.5 638.71M3243.81 660.19L3034.71 660.19L2825.62 660.19L2616.52 660.19L2407.42 660.19L2198.32 660.19L1989.22 660.19L1846.14 660.19M3337.9 659.88L3243.81 660.19M3359.75 638.71L3226.5 638.71L3023.17 638.71L2819.85 638.71L2616.52 638.71L2413.19 638.71L2209.86 638.71M3023.17 638.71L3034.71 660.19M3281.57 707.05L3262.14 682.94M3073.64 732.66L3059.88 707.05M3073.64 732.66L3088.28 759.9L3103.88 788.95M3157.57 888.91L3138.41 853.23L3120.56 819.99M3157.57 888.91L3178.2 927.3M2075.46 888.91L2345.99 888.91L2616.52 888.91L2887.05 888.91L3157.57 888.91L3353.99 888.91M3726.81 641.38L3719.53 482.28M3719.53 482.28L3621.85 618.58M3642.29 984.31L3622.17 873.94L3588.39 611.31M3622.17 873.94L3715.63 892.9M3310.48 1173.56L3532.65 1120.96M2898.6 406.81L2757.56 406.81L2616.52 406.81L2475.48 406.81L2334.43 406.81L2193.38 406.81L2148.36 406.81M2970.87 462.4L2928.46 462.4L2772.49 462.4L2616.52 462.4L2460.55 462.4L2304.57 462.4L2192.33 462.4M2984.29 450.36L2921.99 450.36L2769.26 450.36L2616.52 450.36L2463.78 450.36L2311.04 450.36L2182.81 450.36M2442.08 531.15L2446.11 516.13M2957.33 516.13L2786.92 516.13L2616.52 516.13L2446.11 516.13L2275.71 516.13L2239.96 516.13M2283.4 501.79L2275.71 516.13M2437.85 546.9L2442.08 531.15M2616.52 531.15L2616.52 516.13M2616.52 516.13L2616.52 501.79M2616.52 546.9L2616.52 531.15M2790.96 531.15L2786.92 516.13M3010.84 475.5L2976.22 501.79L2957.33 516.13M2433.4 563.44L2437.85 546.9M2616.52 563.44L2616.52 546.9M2795.19 546.9L2799.63 563.44M2240.96 580.82L2231.13 599.11M2423.83 599.11L2428.74 580.82M2992.08 580.82L2804.29 580.82L2616.52 580.82L2428.74 580.82L2240.96 580.82L2053.18 580.82L1865.4 580.82L1672.36 461.15M2428.74 580.82L2433.4 563.44M2060.3 295.48L2250.29 563.44M2418.64 618.37L2423.83 599.11M2616.52 599.11L2616.52 580.82M2616.52 580.82L2616.52 563.44M2799.63 563.44L2804.29 580.82M2616.52 618.37L2616.52 599.11M2809.21 599.11L2804.29 580.82M2413.19 638.71L2418.64 618.37M2616.52 638.71L2616.52 618.37M2814.38 618.37L2819.85 638.71M2198.32 660.19L2186.1 682.94M2401.31 682.94L2407.42 660.19M2407.42 660.19L2413.19 638.71M2005.95 618.31L2209.86 638.71M2394.83 707.05L2401.31 682.94M2616.52 682.94L2616.52 660.19M2616.52 707.05L2616.52 682.94M2831.72 682.94L2825.62 660.19M2616.52 660.19L2616.52 638.71M2819.85 638.71L2825.62 660.19M2387.96 732.66L2394.83 707.05M2616.52 732.66L2616.52 707.05M2838.2 707.05L2845.08 732.66M2372.83 788.95L2380.63 759.9M3088.28 759.9L2852.4 759.9L2616.52 759.9L2380.63 759.9L2144.76 759.9L2066.44 759.9M2380.63 759.9L2387.96 732.66M3262.82 732.66L3073.64 732.66L2845.08 732.66L2616.52 732.66L2387.96 732.66L2159.38 732.66L2007.62 732.66M2159.38 732.66L2144.76 759.9M2173.14 707.05L2159.38 732.66M2364.5 819.99L2372.83 788.95M2616.52 788.95L2616.52 759.9M2616.52 759.9L2616.52 732.66M2616.52 819.99L2616.52 788.95M2860.2 788.95L2852.4 759.9M3255.07 740.16L3088.28 759.9M2852.4 759.9L2845.08 732.66M2355.57 853.23L2364.5 819.99M2616.52 853.23L2616.52 819.99M2868.54 819.99L2877.46 853.23M2335.68 927.3L2345.99 888.91M2345.99 888.91L2355.57 853.23M3138.41 853.23L2877.46 853.23L2616.52 853.23L2355.57 853.23L2094.62 853.23M2094.62 853.23L1938.08 819.22M2324.55 968.75L2335.68 927.3M2616.52 927.3L2616.52 888.91M2616.52 888.91L2616.52 853.23M2616.52 968.75L2616.52 927.3M2897.36 927.3L2887.05 888.91M2887.05 888.91L2877.46 853.23M2312.5 1013.61L2324.55 968.75M2616.52 1013.61L2616.52 968.75M2908.49 968.75L2920.54 1013.61M2285.13 1115.43L2299.4 1062.34M3250.74 1062.34L2933.63 1062.34L2616.52 1062.34L2299.4 1062.34L1982.3 1062.34M1982.3 1062.34L1650.55 741.04M1611.8 893.49L1271.64 810.9L931.85 766.1M2299.4 1062.34L2312.5 1013.61M3224.56 1013.61L2920.54 1013.61L2616.52 1013.61L2312.5 1013.61L2008.47 1013.61M1692.61 742L1726.16 623.05M2269.54 1173.56L2285.13 1115.43M2616.52 1115.43L2616.52 1062.34M2616.52 1062.34L2616.52 1013.61M2616.52 1173.56L2616.52 1115.43M2947.89 1115.43L2933.63 1062.34M2933.63 1062.34L2920.54 1013.61M3224.56 1013.61L3271.12 968.75L3314.13 927.3L3353.99 888.91L3423.81 821.63L3449.4 796.98M2252.37 1237.41L2269.54 1173.56M2616.52 1237.41L2616.52 1173.56M2963.5 1173.56L2980.65 1237.41M2233.45 1307.91L2252.37 1237.41M3344.78 1237.41L2980.65 1237.41L2616.52 1237.41L2252.37 1237.41L1888.25 1237.41M1520.58 1170.42L1888.25 1237.41M2616.52 1307.91L2616.52 1237.41M2999.59 1307.91L2980.65 1237.41M3344.78 1237.41L3500.2 1161.4M1964 272.31L1966.93 159.97L1975.47 62.45M1966.93 159.97L2058.09 295.96M2108.58 271.73L1975.47 62.45M1835.2 109.41L1833.17 200.26M1634.73 552.34L1649.1 511.26L1672.36 461.15L1691.03 331.49M1672.36 461.15L1469.67 198.21M1469.67 198.21L1441.1 243.24L1422.11 404.29M1691.03 331.49L1713.48 314.96M1649.1 511.26L1845.76 599.11M1865.4 580.82L1878.29 394.53L1894.66 331.87M2038.44 599.11L2053.18 580.82M2053.18 580.82L2060.3 295.48M2060.3 295.48L1878.29 394.53M1825.05 618.37L2005.31 618.37M1803.21 638.71L1743.08 638.71M1825.05 618.37L1684.32 590.69M1970.9 682.94L1989.22 660.19M2005.95 618.31L1989.22 660.19M917.91 758.28L1199.06 728.99M1189.35 783.84L1199.06 728.99L1227.72 326.21M1021.25 454.58L979.06 673M1199.06 728.99L1466.14 421.97M1437.06 761.02L1620.72 673.37L1726.16 623.05M1159.98 1237.41L1221.85 1072.75L1271.64 810.9M431.71 1237.41L526.28 1090.36M871.4 1051.38L931.85 766.1M793.83 1214.49L871.4 1051.38M1221.85 1072.75L1567.27 1008M431.71 1237.41L318.1 1307.91M701.17 1307.91L793.83 1214.49M1084.24 1307.91L1159.98 1237.41M1292.31 136.94L1287.87 214.17M1620.12 208.16L1539.35 234.07M1604.46 272.3L1620.12 208.16L1638.24 184.87M1810.4 324.01L1765.57 287.23M1148.4 246.61L1162.38 175.24M984.25 474.45L997.44 399.92L1011.15 48.18M1011.15 48.18L1188.77 328.47M598 659.26L614.01 628.77M301.17 456.77L263.97 601.52M4.79 927.3L88.93 927.3L369.78 927.3L640.67 927.3M88.93 927.3L139.26 521.44M280.73 968.75L369.78 927.3M369.78 927.3L433.96 710.66M184.33 1013.61L280.73 968.75M572.7 968.75L488.35 1013.61M561.33 1062.34L396.74 1062.34L79.63 1062.34L4.79 1062.34M79.63 1062.34L184.33 1013.61M622.28 1013.61L488.35 1013.61L184.33 1013.61L4.79 1013.61M424.18 1115.43L296.89 1115.43L4.79 1115.43M296.89 1115.43L396.74 1062.34M396.74 1062.34L488.35 1013.61M620.4 171.93L608.55 193.82M987.16 81.87L938.43 19.6L900.95 153.26L899.22 159.41L885.8 207.29L881.4 222.97M408.18 469.71L431.99 310.1L466.43 155.85M302.1 165.92L292.8 346.43M515.07 685.24L301.17 456.77M2616.52 344.75L2492.13 344.75L2367.77 344.75M2927.65 337.06L2861.13 337.06L2738.82 337.06L2616.52 337.06L2494.21 337.06L2371.89 337.06M2243.76 320.09L2246.65 164.18M2246.65 164.18L2371.89 337.06M2367.77 344.75L2285.24 342.86M2923.24 344.75L2865.26 344.75L2740.89 344.75L2616.52 344.75M2106.63 296.67L2108.58 271.73L2113.78 116.89M2113.78 116.89L2224.79 309.68M889.78 155.15L885.8 207.29M642.2 145.11L689.44 151.61L747.87 159.64M108.24 310.7L118.34 291.4M142.93 331.52L150.05 282.41M84.58 219.96L24.35 137.72M100.41 216.21L24.35 137.72L23.06 138.14M555.44 518.65L579.03 316.6M583.21 317.79L589.95 202.03M639.47 179.88L642.2 145.11M651.71 920.57L699.3 627.51M699.3 627.51L973.35 680.95M675.14 593.89L715.39 442.63M712.73 219.61L666.09 225.23M865.58 538.19L878.26 478.01M933.85 156.75L938.43 19.6M881.23 479.27L768.91 370.96M1129.11 208.68L1136.07 183.47M1128.07 431.28L1137.21 353.02M1144.72 192.99L1136.07 183.47M1279.27 252.5L1283.31 211.07M1423.41 210.58L1425.78 156.11M1425.78 156.11L1503.86 193.31M1410.57 780.65L1437.06 761.02M1450.22 203.41L1453.32 176.83M1515.15 217.97L1518.85 170.33M1842.82 731.04L1854.8 661.86M1914.38 327.54L1918.72 215.28M2069.88 307.61L2070.84 295.45M3109.28 354.98L3108.52 338.9M3147.51 363.38L3145.21 310.97M3205.68 283.44L3198.65 156.65M3276.47 280.72L3275.42 243.63M3350.9 265.28L3344.15 157.83M3423.81 821.63L3409.09 590.89M3655.83 271.73L3618.76 270.73M3951.22 930.12L3908.14 680.76M3962.06 270.7L3938.97 167.03M4029.72 766.01L3998.17 437.31M4258.85 169.77L4243.54 22.7M4532.02 646.43L4700.2 810.38M4722.81 664.01L4904.66 806.07M4940.92 143.03L4920.58 30.19M4979.92 567.77L4967.27 191.34M4957.02 184.01L5046.5 117.46M5046.5 117.46L5049.13 191.8M5141.88 192.32L5135.72 109.06M5083.44 678.7L5200.12 673.74L5220.09 682.43M5168.06 192.47L5135.72 109.06M5109.89 707.05L5182.9 707.05M5185.08 1214.06L5165.45 1237.41M5202.81 200.45L5135.73 109.4L5096.08 137.69L5059.43 0.83L4920.59 30.53L4771.44 110.61L4702.02 91.7L4565.81 121.26L4402.04 74.59L4243.54 23.04L4079.32 45.9L3984.56 182.04L3938.97 167.37L3775.6 131L3655.84 272.07L3618.76 271.07L3573.72 164.7L3530.94 249.06L3500.58 240.3L3453.87 248.2L3448.57 246.57L3344.15 158.17L3268.64 157.56L3177.47 110.05L3045.29 120.13L2988.01 232.2L2936.05 322.77L2379.77 322.77L2267.67 191.41L2247.2 165.2L2246.65 164.52L2113.78 117.22L1975.47 62.79L1903.97 136.14L1835.21 109.75L1761.95 156.8L1650.17 36.93L1518.86 170.67L1514.25 177.73L1425.79 156.45L1292.31 137.28L1220.79 165.54L1212.79 164.75L1165.64 177.19L1162.38 175.58L1159.05 178.93L1138.85 184.26L1136.07 183.81L1134.81 185.33L1110.56 191.73L1110.27 191.81L1011.16 48.52L987.16 82.21L938.43 19.94L900.95 153.6L889.79 155.49L838.87 158.45L791.29 85.89L747.87 159.98L689.44 151.95L674.9 143.02L642.2 145.45L617.44 173.16L576.13 185.5L466.43 156.19L302.11 166.26L206.29 239.67L198.91 230.53L196.36 235.14L153.04 204.1L100.41 216.55L24.35 138.06L23.06 138.14L4.79 139.25L4.79 144.08L4.79 171.42L4.79 215L4.79 221.71L4.79 223.45L4.79 296.64L4.79 369.95L4.79 371.42L4.79 408.15L4.79 597.86L4.79 686.24L4.79 927.3L4.79 962.11L4.79 968.75L4.79 1013.61L4.79 1062.34L4.79 1097.17L4.79 1115.43L4.79 1173.56L4.79 1223.84L4.79 1260.07L4.79 1307.91L4.79 1308.25L120.25 1308.25L120.85 1308.5L1461.51 1308.5L3671.59 1308.5L5220.36 1308.5L5220.36 1237.41L5220.09 1237.23M4240.16 1308.5L4400.09 1122.99L4771.06 1308.5M3671.59 1308.5L3836.43 1256.43L4240.16 1308.5M4771.06 1308.5L5220.09 1237.75L5220.09 1237.41M5220.09 1237.41L5220.09 1237.23L5220.09 1030.5L5220.09 773.31L5220.09 703.22L5220.09 682.43L5220.09 658.88L5220.09 207.02L5203.15 200.91L5202.81 200.45M5104.89 848.41L5220.09 773.31M5200.12 673.74L5220.09 658.88M126.21 537.44L4.79 408.15M4.79 408.15L0.36 403.43M4.79 1173.56L187.63 1173.56M4.79 1307.91L120.24 1307.91L4.79 1260.07M4.79 1097.17L79.63 1062.34M4.79 144.08L23.06 138.14M26.94 233.59L4.79 215M46.46 635.18L4.79 597.86M4.79 962.11L88.93 927.3M58.67 344.23L4.79 296.64M67.39 224.02L4.79 171.42M58.49 362.75L4.79 371.42" stroke="#FFFFFF" stroke-opacity="1.000000" stroke-width="1.000000" stroke-linejoin="round"/>
	</g>
</svg>
